<svg xmlns="http://www.w3.org/2000/svg" viewBox="0 0 329.91 42.75"><defs><style>.cls-1{fill:#fff;stroke:#231815;}.cls-1,.cls-2{stroke-miterlimit:10;}.cls-2{stroke:#000;}</style></defs><title>coachtech_logo_ver2.0</title><g id="レイヤー_2" data-name="レイヤー 2"><g id="レイヤー_1-2" data-name="レイヤー 1"><path class="cls-1" d="M32.41,29.73a9.54,9.54,0,0,1-.84,3.7,13.53,13.53,0,0,1-7.27,7,16.52,16.52,0,0,1-6.54,1.2,22.75,22.75,0,0,1-5.15-.54A14.65,14.65,0,0,1,8.4,39.44a14.5,14.5,0,0,1-3.48-3A17.86,17.86,0,0,1,2.5,32.68,19.51,19.51,0,0,1,1,28.22a24.58,24.58,0,0,1-.5-5,22.28,22.28,0,0,1,1.26-7.74A16.57,16.57,0,0,1,5.36,9.6a15.69,15.69,0,0,1,5.49-3.69,17.74,17.74,0,0,1,6.72-1.27A16.69,16.69,0,0,1,25.3,6.37a14,14,0,0,1,5.2,4.28,8.46,8.46,0,0,1,1.81,4.83,3.1,3.1,0,0,1-.88,2.19,2.76,2.76,0,0,1-2.12,1A2.94,2.94,0,0,1,27.22,18a9.34,9.34,0,0,1-1.55-2.27,10.74,10.74,0,0,0-3.33-4,8.14,8.14,0,0,0-4.73-1.32,8.56,8.56,0,0,0-7.11,3.39q-2.65,3.39-2.65,9.64a17.94,17.94,0,0,0,1.17,7,8.76,8.76,0,0,0,3.32,4.14,9.18,9.18,0,0,0,5,1.37,8.87,8.87,0,0,0,5.29-1.55,9.48,9.48,0,0,0,3.26-4.56,7.59,7.59,0,0,1,1.14-2.3,2.59,2.59,0,0,1,2.2-.9,3.09,3.09,0,0,1,2.22.91A3,3,0,0,1,32.41,29.73Z"/><path class="cls-1" d="M54.67,4.64a19.15,19.15,0,0,1,9.56,2.25,14.7,14.7,0,0,1,6,6.43,21.94,21.94,0,0,1,2,9.77,23.93,23.93,0,0,1-1.13,7.55,16.31,16.31,0,0,1-3.37,5.88,14.66,14.66,0,0,1-5.51,3.81,19.91,19.91,0,0,1-7.5,1.32,19.65,19.65,0,0,1-7.52-1.36,14.82,14.82,0,0,1-5.54-3.82,16.35,16.35,0,0,1-3.36-5.93A24.16,24.16,0,0,1,37.27,23a23.05,23.05,0,0,1,1.18-7.56,16.16,16.16,0,0,1,3.43-5.86,14.81,14.81,0,0,1,5.47-3.7A19.58,19.58,0,0,1,54.67,4.64ZM65,23a16.89,16.89,0,0,0-1.27-6.81,9.55,9.55,0,0,0-3.63-4.36,10,10,0,0,0-5.41-1.47,9.72,9.72,0,0,0-4,.82,8.71,8.71,0,0,0-3.18,2.38,11.41,11.41,0,0,0-2.09,4A17.81,17.81,0,0,0,44.62,23a18.23,18.23,0,0,0,.77,5.52,11.14,11.14,0,0,0,2.17,4.09,9.15,9.15,0,0,0,3.22,2.43,9.68,9.68,0,0,0,4,.81,9.8,9.8,0,0,0,5.12-1.4A9.62,9.62,0,0,0,63.6,30.2,16.62,16.62,0,0,0,65,23Z"/><path class="cls-1" d="M101.43,37l-1.71-4.49H85.17l-1.71,4.59a16.42,16.42,0,0,1-1.71,3.63,2.74,2.74,0,0,1-2.32.94,3.44,3.44,0,0,1-2.42-1A3.08,3.08,0,0,1,76,38.38a4.88,4.88,0,0,1,.25-1.52c.16-.52.43-1.24.8-2.17l9.16-23.24L87.11,9a12.92,12.92,0,0,1,1.17-2.33,4.74,4.74,0,0,1,1.64-1.5,5,5,0,0,1,2.5-.57A5.12,5.12,0,0,1,95,5.21a4.75,4.75,0,0,1,1.63,1.48,9.8,9.8,0,0,1,1,1.94c.29.69.65,1.61,1.09,2.77l9.35,23.09a11.71,11.71,0,0,1,1.1,3.84,3.17,3.17,0,0,1-1,2.28,3.42,3.42,0,0,1-2.5,1,3.19,3.19,0,0,1-1.47-.31,2.85,2.85,0,0,1-1-.83,7,7,0,0,1-.89-1.61C101.93,38.18,101.66,37.54,101.43,37ZM87.07,27.05h10.7l-5.4-14.77Z"/><path class="cls-1" d="M145,29.73a9.54,9.54,0,0,1-.84,3.7,13.21,13.21,0,0,1-2.65,3.91,13.47,13.47,0,0,1-4.61,3.11,16.61,16.61,0,0,1-6.55,1.2,22.81,22.81,0,0,1-5.15-.54A14.76,14.76,0,0,1,121,39.44a14.5,14.5,0,0,1-3.48-3,17.82,17.82,0,0,1-2.41-3.77,20,20,0,0,1-1.51-4.46,24.58,24.58,0,0,1-.5-5,22.28,22.28,0,0,1,1.26-7.74,16.57,16.57,0,0,1,3.6-5.85,15.78,15.78,0,0,1,5.49-3.69,17.74,17.74,0,0,1,6.72-1.27,16.71,16.71,0,0,1,7.74,1.73,14.11,14.11,0,0,1,5.2,4.28,8.51,8.51,0,0,1,1.8,4.83,3.13,3.13,0,0,1-.87,2.19,2.79,2.79,0,0,1-2.13,1,2.94,2.94,0,0,1-2.09-.66,9.34,9.34,0,0,1-1.55-2.27,10.74,10.74,0,0,0-3.33-4,8.13,8.13,0,0,0-4.72-1.32,8.57,8.57,0,0,0-7.12,3.39q-2.66,3.39-2.65,9.64a17.94,17.94,0,0,0,1.17,7,8.82,8.82,0,0,0,3.32,4.14,9.2,9.2,0,0,0,5,1.37,8.85,8.85,0,0,0,5.29-1.55,9.41,9.41,0,0,0,3.26-4.56,7.6,7.6,0,0,1,1.15-2.3,2.56,2.56,0,0,1,2.19-.9,3.06,3.06,0,0,1,2.22.91A3,3,0,0,1,145,29.73Z"/><path d="M221.34,11.23h-7.91v26a4.75,4.75,0,0,1-1,3.33,3.65,3.65,0,0,1-5.21,0,4.73,4.73,0,0,1-1-3.32v-26h-7.91a4,4,0,0,1-2.75-.82,2.77,2.77,0,0,1-.91-2.16,2.77,2.77,0,0,1,.94-2.2,4.07,4.07,0,0,1,2.72-.8h23.05a4,4,0,0,1,2.8.83,2.77,2.77,0,0,1,.91,2.17,2.75,2.75,0,0,1-.93,2.16A4.05,4.05,0,0,1,221.34,11.23Z"/><path d="M252.93,10.84H236.6v8.79h15a3.57,3.57,0,0,1,2.48.74,2.56,2.56,0,0,1,.82,2,2.64,2.64,0,0,1-.81,2,3.52,3.52,0,0,1-2.49.76h-15V35.28h16.89a3.71,3.71,0,0,1,2.58.79,2.72,2.72,0,0,1,.87,2.11,2.65,2.65,0,0,1-.87,2.06,3.71,3.71,0,0,1-2.58.8h-19.7a4.63,4.63,0,0,1-3.4-1,4.66,4.66,0,0,1-1-3.4V9.69a6,6,0,0,1,.46-2.55,2.89,2.89,0,0,1,1.46-1.44,6.11,6.11,0,0,1,2.52-.45h19.14a3.69,3.69,0,0,1,2.58.77,2.59,2.59,0,0,1,.84,2,2.63,2.63,0,0,1-.84,2A3.73,3.73,0,0,1,252.93,10.84Z"/><path d="M293.19,29.73a9.54,9.54,0,0,1-.84,3.7,13.56,13.56,0,0,1-7.26,7,16.61,16.61,0,0,1-6.55,1.2,22.75,22.75,0,0,1-5.15-.54,14.76,14.76,0,0,1-4.21-1.67,14.5,14.5,0,0,1-3.48-3,18.26,18.26,0,0,1-2.42-3.77,20.53,20.53,0,0,1-1.5-4.46,24.58,24.58,0,0,1-.5-5,22.28,22.28,0,0,1,1.26-7.74,16.57,16.57,0,0,1,3.6-5.85,15.69,15.69,0,0,1,5.49-3.69,17.74,17.74,0,0,1,6.72-1.27,16.76,16.76,0,0,1,7.74,1.73,14.11,14.11,0,0,1,5.2,4.28,8.51,8.51,0,0,1,1.8,4.83,3.13,3.13,0,0,1-.87,2.19,2.79,2.79,0,0,1-2.13,1A2.94,2.94,0,0,1,288,18a9.34,9.34,0,0,1-1.55-2.27,10.74,10.74,0,0,0-3.33-4,8.13,8.13,0,0,0-4.72-1.32,8.57,8.57,0,0,0-7.12,3.39q-2.65,3.39-2.65,9.64a17.94,17.94,0,0,0,1.17,7,8.76,8.76,0,0,0,3.32,4.14,9.2,9.2,0,0,0,5,1.37,8.85,8.85,0,0,0,5.29-1.55,9.41,9.41,0,0,0,3.26-4.56,7.6,7.6,0,0,1,1.15-2.3,2.56,2.56,0,0,1,2.19-.9,3.07,3.07,0,0,1,2.22.91A3,3,0,0,1,293.19,29.73Z"/><path d="M307,9V19.28h15.65V9a4.82,4.82,0,0,1,1-3.3,3.32,3.32,0,0,1,2.6-1.09,3.47,3.47,0,0,1,2.65,1.08,4.75,4.75,0,0,1,1,3.31v28.2a4.73,4.73,0,0,1-1,3.32,3.48,3.48,0,0,1-2.64,1.1,3.3,3.3,0,0,1-2.61-1.11,4.85,4.85,0,0,1-1-3.31v-12H307v12a4.68,4.68,0,0,1-1,3.32,3.44,3.44,0,0,1-2.63,1.1,3.3,3.3,0,0,1-2.61-1.11,4.85,4.85,0,0,1-1-3.31V9a4.92,4.92,0,0,1,1-3.3,3.33,3.33,0,0,1,2.63-1.09A3.47,3.47,0,0,1,306,5.72,4.75,4.75,0,0,1,307,9Z"/><path d="M177,20.54,174,21l-1.37-1.38a1.67,1.67,0,0,0-1.15-.54,1.64,1.64,0,0,0-.91.24l-1.66,1-.1-.13h0a1.77,1.77,0,0,0-1.87-.55l-3.63,1.46-3.22-.71L160,27l2.19.29a1.16,1.16,0,0,0,.82.89,1.1,1.1,0,0,0,.19.76,1.17,1.17,0,0,0,.74.48,1.09,1.09,0,0,0,.2.65,1.06,1.06,0,0,0,.66.46,1,1,0,0,0,.17.5,1,1,0,0,0,.8.43.91.91,0,0,0,.57-.17l.29-.19.33.4h0a1.58,1.58,0,0,0,1.09.56h.12a1.61,1.61,0,0,0,1.06-.38,1.57,1.57,0,0,0,.35-.42,1.75,1.75,0,0,0,1.57-1,1.76,1.76,0,0,0,1.09-.42,1.7,1.7,0,0,0,.52-.75,1.72,1.72,0,0,0,.83-.39,1.77,1.77,0,0,0,.6-1.67l2.78-.52ZM173,28.08a.59.59,0,0,1-.62-.11l-.55-.75a.44.44,0,1,0-.71.52l.55.76h0s.25.34.11.59a.8.8,0,0,1-.13.13h0l-.08.06h0a.4.4,0,0,1-.28.07.43.43,0,0,1-.27-.14l-.56-.76a.44.44,0,1,0-.71.52l.42.58c.07.13.19.4,0,.58l0,0a1.2,1.2,0,0,1-.21.13.42.42,0,0,1-.33,0,.67.67,0,0,1-.23-.16l-.53-.74a.45.45,0,0,0-.72.53l.39.53c.07.12.19.39,0,.57a.31.31,0,0,1-.09.07.78.78,0,0,1-.34.05.67.67,0,0,1-.49-.25l-.33-.4a.93.93,0,0,0,.12-.33,1,1,0,0,0-.15-.74h0a.94.94,0,0,0-.4-.34,1.17,1.17,0,0,0-.19-.79,1.12,1.12,0,0,0-.74-.48c0-.23-.26-.37-.39-.57s-.19-.47-.45-.54a1.14,1.14,0,0,0-1.77-1.06l-.67.46a1.26,1.26,0,0,0-.24.22l-.16,0-1.38-.18.08-4.72,2.42.54.13-.05,3.7-1.48a.87.87,0,0,1,.92.27l0,0-.91.56c-.63.38,1.11,1.16,1.39,1.84s-1.25.92-.66.94a1.48,1.48,0,0,0,.62-.11l1.64-.7,2.87,3.48h0C173.4,27.2,173.32,27.92,173,28.08Z"/><rect class="cls-1" x="151.44" y="13" width="6.98" height="29.25" rx="3.26"/><circle class="cls-2" cx="181.47" cy="6.5" r="6"/><rect x="177.97" y="13" width="6.98" height="29.25" rx="3.26"/><circle class="cls-1" cx="154.93" cy="6.5" r="6"/></g></g></svg>