<svg xmlns="http://www.w3.org/2000/svg" viewBox="0 0 695.51 423.35"><defs><style>.cls-1,.cls-3,.cls-5{fill:none;}.cls-1{stroke:#040000;}.cls-1,.cls-15,.cls-3,.cls-5,.cls-7{stroke-miterlimit:10;stroke-width:3px;}.cls-2{fill:#040000;}.cls-3,.cls-7{stroke:#231815;}.cls-19,.cls-23,.cls-4,.cls-8{fill:#231815;}.cls-15,.cls-5{stroke:#b3b3b3;}.cls-16,.cls-6{fill:#b3b3b3;}.cls-15,.cls-7{fill:#fff;}.cls-16,.cls-8{font-size:20px;letter-spacing:-0.06em;}.cls-16,.cls-19,.cls-23,.cls-8{font-family:KozGoPr6N-Heavy-83pv-RKSJ-H, Kozuka Gothic Pr6N;}.cls-9{letter-spacing:-0.05em;}.cls-10{letter-spacing:-0.12em;}.cls-11{letter-spacing:-0.16em;}.cls-12{letter-spacing:-0.08em;}.cls-13{letter-spacing:-0.18em;}.cls-14{letter-spacing:-0.14em;}.cls-17{letter-spacing:-0.16em;}.cls-18{letter-spacing:-0.08em;}.cls-19{writing-mode:tb;text-orientation:upright;glyph-orientation-vertical:0deg;}.cls-19,.cls-23{font-size:30px;}.cls-20{letter-spacing:-0.05em;}.cls-21{letter-spacing:-0.02em;}.cls-22{letter-spacing:-0.04em;}</style></defs><title>coaching4</title><g id="レイヤー_2" data-name="レイヤー 2"><g id="レイヤー_1-2" data-name="レイヤー 1"><path class="cls-1" d="M674.33,345.42H66.3"/><polygon class="cls-2" points="695.51 345.42 665.66 333.23 672.74 345.42 665.66 357.61 695.51 345.42"/><path class="cls-3" d="M66.33,62c73.3,24.83,230.84,88.21,283.31,210.23a215.77,215.77,0,0,1,8,21.76"/><path class="cls-4" d="M362.23,311.47c-5.25-7.42-13.19-16.24-20.4-21.09l15.11,1.3L369.39,283C365.56,290.82,363.08,302.42,362.23,311.47Z"/><path class="cls-1" d="M66.33,21.18V345.42"/><polygon class="cls-2" points="66.33 0 54.14 29.85 66.33 22.77 78.53 29.85 66.33 0"/><path class="cls-5" d="M66.34,61.79A624.37,624.37,0,0,1,257.91,63.1C344.48,77.33,377.13,102,445.54,111.65c51.61,7.26,127.4,6.46,226.14-34.76"/><path class="cls-6" d="M688.29,69.66c-6.57,6.28-14.14,15.42-17.89,23.26l-.92-15.14-10.39-11C667.37,69.38,679.21,70.14,688.29,69.66Z"/><ellipse class="cls-7" cx="170.94" cy="203.4" rx="77.81" ry="33"/><text class="cls-8" transform="translate(108.13 209.05)">コ<tspan class="cls-9" x="18.8" y="0">ー</tspan><tspan class="cls-10" x="37.8" y="0">チ</tspan><tspan class="cls-11" x="55.41" y="0">ン</tspan><tspan class="cls-12" x="72.21" y="0">グ</tspan><tspan class="cls-13" x="90.61" y="0">あ</tspan><tspan class="cls-14" x="107.01" y="0">り</tspan></text><ellipse class="cls-15" cx="501.19" cy="179.1" rx="77.81" ry="33"/><text class="cls-16" transform="translate(437.28 184.74)">コ<tspan class="cls-9" x="18.8" y="0">ー</tspan><tspan class="cls-10" x="37.8" y="0">チ</tspan><tspan class="cls-11" x="55.41" y="0">ン</tspan><tspan class="cls-9" x="72.21" y="0">グ</tspan><tspan class="cls-17" x="91.21" y="0">な</tspan><tspan class="cls-18" x="108.01" y="0">し</tspan></text><text class="cls-19" transform="translate(15 106.5)">思<tspan class="cls-20" x="0" y="30">考の</tspan><tspan class="cls-21" x="0" y="87">深</tspan><tspan class="cls-22" x="0" y="116.4">さ</tspan></text><text class="cls-23" transform="translate(350.81 410.72)">時間</text></g></g></svg>