<svg xmlns="http://www.w3.org/2000/svg" xmlns:xlink="http://www.w3.org/1999/xlink" viewBox="0 0 315.86 257.55"><defs><style>.cls-1{opacity:0.5;}.cls-2{fill:url(#名称未設定グラデーション_2);}.cls-3{fill:#f5f5f5;}.cls-4{fill:#e0e0e0;}.cls-5{fill:#cdac70;}.cls-6{fill:url(#名称未設定グラデーション_2-2);}.cls-7{fill:#f3a07b;}.cls-8{fill:#333;}.cls-9{fill:#040000;opacity:0.1;isolation:isolate;}.cls-10{fill:#f3d13e;}.cls-11{fill:url(#名称未設定グラデーション_2-3);}.cls-12{fill:url(#名称未設定グラデーション_2-4);}.cls-13{fill:#5180c1;}.cls-14{fill:url(#名称未設定グラデーション_2-5);}.cls-15{fill:#fff;}.cls-16{fill:url(#名称未設定グラデーション_2-6);}.cls-17{fill:#b87a5d;}.cls-18{fill:#54ba94;}</style><linearGradient id="名称未設定グラデーション_2" x1="23.31" y1="4582.2" x2="23.31" y2="4779.97" gradientTransform="matrix(0, 1, 1, 0, -4450.74, 85.14)" gradientUnits="userSpaceOnUse"><stop offset="0" stop-color="#7f8080" stop-opacity="0.25"/><stop offset="0.54" stop-color="#7f8080" stop-opacity="0.12"/><stop offset="1" stop-color="#7f8080" stop-opacity="0.1"/></linearGradient><linearGradient id="名称未設定グラデーション_2-2" x1="-7.68" y1="4713.33" x2="-7.68" y2="4754.18" gradientTransform="matrix(0.99, 0.15, 0.15, -0.99, -491.19, 4733.68)" xlink:href="#名称未設定グラデーション_2"/><linearGradient id="名称未設定グラデーション_2-3" x1="631.63" y1="4574.71" x2="631.63" y2="4772.48" gradientTransform="matrix(1, 0, 0, -1, -546.75, 4824.34)" xlink:href="#名称未設定グラデーション_2"/><linearGradient id="名称未設定グラデーション_2-4" x1="613.52" y1="4703.99" x2="613.52" y2="4746" gradientTransform="matrix(0.99, -0.16, -0.16, -0.99, 207.58, 4850.53)" xlink:href="#名称未設定グラデーション_2"/><linearGradient id="名称未設定グラデーション_2-5" x1="173.57" y1="4681.1" x2="173.57" y2="4878.87" gradientTransform="matrix(1, 0, 0, -1, 0, 4938.65)" xlink:href="#名称未設定グラデーション_2"/><linearGradient id="名称未設定グラデーション_2-6" x1="-5133.75" y1="4735.6" x2="-5133.75" y2="4778.54" gradientTransform="translate(-4989.89 4862.62) rotate(180)" xlink:href="#名称未設定グラデーション_2"/></defs><title>coachtech_reason2_1</title><g id="レイヤー_2" data-name="レイヤー 2"><g id="レイヤー_1-2" data-name="レイヤー 1"><g class="cls-1"><rect class="cls-2" x="131.45" y="36.89" width="197.77" height="143.14" transform="translate(88.73 320.04) rotate(-81.42)"/></g><rect class="cls-3" x="133.75" y="37.99" width="193.4" height="139.5" transform="translate(89.54 319.53) rotate(-81.42)"/><rect class="cls-4" x="228.03" y="47.6" width="6.1" height="100.68" transform="translate(99.76 311.83) rotate(-81.42)"/><rect class="cls-4" x="225.76" y="62.69" width="6.1" height="100.68" transform="translate(82.91 322.41) rotate(-81.42)"/><rect class="cls-4" x="259.45" y="27.38" width="6.1" height="51.87" transform="translate(170.62 304.92) rotate(-81.42)"/><rect class="cls-5" x="257.17" y="47.05" width="6.1" height="42.71" transform="translate(153.77 315.51) rotate(-81.42)"/><rect class="cls-4" x="217.45" y="82.96" width="6.1" height="88.48" transform="translate(61.83 326.26) rotate(-81.42)"/><rect class="cls-4" x="209.14" y="103.24" width="6.1" height="76.27" transform="translate(40.74 330.1) rotate(-81.42)"/><rect class="cls-4" x="202.34" y="122.22" width="6.1" height="67.12" transform="translate(20.71 335.62) rotate(-81.42)"/><rect class="cls-4" x="209.11" y="129.51" width="6.1" height="85.43" transform="translate(10.21 356.32) rotate(-81.42)"/><rect class="cls-5" x="181.19" y="166.66" width="6.1" height="33.56" transform="translate(-24.63 338.25) rotate(-81.42)"/><g class="cls-1"><path class="cls-6" d="M227.59,54.73a20.36,20.36,0,1,0-33.89,12v.09a7,7,0,0,0,2.06,1.81l0-.09c.82,1,4.6,2.84,9.16,3.52h.1a18.63,18.63,0,0,0,9.09-.68l.08-.14a7.17,7.17,0,0,0,2.1-1l.06-.22A20.32,20.32,0,0,0,227.59,54.73Z"/></g><circle class="cls-3" cx="207.36" cy="50.95" r="19.75"/><path class="cls-7" d="M198.36,57.46s-4.7-.32-4.76,8.34a7,7,0,0,0,2,1.75l4-8.47Z"/><path class="cls-7" d="M213.46,59.74s4.6,1.08,2.09,9.37a6.76,6.76,0,0,1-2.43,1.09l-1.28-9.26Z"/><path class="cls-8" d="M200.66,43.6s-3.19,6.11-4.3,5.32c0,0,10.13,11.83,21.95,3.31a30.82,30.82,0,0,0-3.55-6.5Z"/><circle class="cls-8" cx="208.24" cy="44.13" r="8.75"/><path class="cls-9" d="M213.37,59.72l-15.1-2.27L196,63.27s-1.25,2.68-.4,4.06,10,5.64,17.7,2.89a7.91,7.91,0,0,0,1-5c-.38-2.94-.17-.23-.17-.23Z"/><path class="cls-9" d="M213.58,59.76l-15.11-2.28-2.31,5.82s-1.25,2.67-.41,4.06,10,5.63,17.71,2.89a8,8,0,0,0,1-5c-.38-2.94-.17-.23-.17-.23Z"/><path class="cls-10" d="M213.46,59.74l-15.1-2.28L196,63.29s-1.25,2.67-.4,4.06,10,5.63,17.7,2.89a8,8,0,0,0,1-5c-.38-2.94-.17-.23-.17-.23Z"/><path class="cls-9" d="M203.74,53.16l6,.91h0L209,59.53a2.43,2.43,0,0,1-2.76,2L205,61.38a2.43,2.43,0,0,1-2-2.77l.82-5.45Z"/><path class="cls-7" d="M203.77,52.94l6,.91h0L209,59.3a2.43,2.43,0,0,1-2.76,2L205,61.16a2.44,2.44,0,0,1-2-2.77l.82-5.45Z"/><path class="cls-9" d="M203.66,53.79a8.76,8.76,0,0,0,6,.93l.11-.74-6-.91Z"/><circle class="cls-7" cx="207.96" cy="46.01" r="8.75"/><path class="cls-8" d="M200.16,41.46,216.67,44s-.41-6.86-6.71-7.39S200.16,41.46,200.16,41.46Z"/><ellipse class="cls-7" cx="199.53" cy="44.35" rx="1.53" ry="0.81" transform="translate(125.91 235.04) rotate(-81.42)"/><ellipse class="cls-7" cx="216.45" cy="46.91" rx="1.53" ry="0.81" transform="translate(137.77 253.93) rotate(-81.42)"/><path class="cls-9" d="M200.13,41.69l16.51,2.49s-.4-6.87-6.71-7.4S200.13,41.69,200.13,41.69Z"/><g class="cls-1"><rect class="cls-11" x="14.9" y="38.28" width="143.54" height="198.33" transform="translate(-20.82 15.59) rotate(-9.18)"/></g><rect class="cls-3" x="16.64" y="39.25" width="139.5" height="193.4" transform="translate(-20.86 15.77) rotate(-9.31)"/><rect class="cls-4" x="33.67" y="123.37" width="100.68" height="6.1" transform="translate(-19.35 15.26) rotate(-9.31)"/><rect class="cls-4" x="36.14" y="138.42" width="100.68" height="6.1" transform="translate(-21.75 15.85) rotate(-9.31)"/><rect class="cls-4" x="74.27" y="71.25" width="51.87" height="6.1" transform="translate(-10.7 17.19) rotate(-9.31)"/><rect class="cls-5" x="81.31" y="86.3" width="42.71" height="6.1" transform="translate(-13.1 17.79) rotate(-9.31)"/><rect class="cls-4" x="38.69" y="154.46" width="88.48" height="6.1" transform="translate(-24.39 15.49) rotate(-9.31)"/><rect class="cls-4" x="41.23" y="170.5" width="76.27" height="6.1" transform="translate(-27.03 15.13) rotate(-9.31)"/><rect class="cls-4" x="43.76" y="186.3" width="67.12" height="6.1" transform="matrix(0.99, -0.16, 0.16, 0.99, -29.61, 15)"/><rect class="cls-4" x="46.11" y="199.87" width="85.43" height="6.1" transform="translate(-31.66 17.04) rotate(-9.31)"/><rect class="cls-5" x="48.92" y="219.12" width="33.56" height="6.1" transform="translate(-35.08 13.56) rotate(-9.31)"/><g class="cls-1"><path class="cls-12" d="M69.27,85.07a20.94,20.94,0,1,0-29.38,22.42l0,.09a7.17,7.17,0,0,0,2.59,1.1v-.09c1.1.67,5.39,1.33,10.07.55h.1a19.22,19.22,0,0,0,8.68-3.53.72.72,0,0,1,0-.17,7.33,7.33,0,0,0,1.73-1.65v-.24A20.91,20.91,0,0,0,69.27,85.07Z"/></g><circle class="cls-3" cx="48.61" cy="88.45" r="20.31"/><path class="cls-13" d="M41.22,97.71s-4.69,1.17-2,9.66a6.86,6.86,0,0,0,2.51,1.09l1.2-9.53Z"/><path class="cls-13" d="M56.72,95.17s4.83-.4,5,8.51a7.06,7.06,0,0,1-2,1.81l-4.17-8.65Z"/><circle class="cls-8" cx="46.66" cy="81.54" r="9"/><path class="cls-13" d="M56.63,95.18l-15.5,2.53-.43,6.44s-.36,3,.89,4.09,11.6,2.35,18.21-2.77a8.18,8.18,0,0,0-.64-5.2c-1.3-2.76-.24-.17-.24-.17Z"/><path class="cls-13" d="M56.83,95.15,41.34,97.68l-.43,6.43s-.36,3,.88,4.1S53.4,110.55,60,105.44a8.24,8.24,0,0,0-.64-5.2c-1.3-2.76-.24-.18-.24-.18Z"/><path class="cls-13" d="M56.72,95.17,41.22,97.7l-.43,6.44s-.36,3,.89,4.1,11.6,2.34,18.21-2.77a8.17,8.17,0,0,0-.64-5.2c-1.3-2.76-.24-.18-.24-.18Z"/><path class="cls-9" d="M45.14,91.78l6.19-1h0l.93,5.66a2.43,2.43,0,0,1-2,2.79h0l-1.41.23a2.43,2.43,0,0,1-2.79-2h0l-.93-5.66Z"/><path class="cls-7" d="M45.1,91.55l6.2-1h0l.92,5.66a2.43,2.43,0,0,1-2,2.79h0l-1.4.23a2.43,2.43,0,0,1-2.8-2h0l-.92-5.66Z"/><path class="cls-9" d="M45.25,92.45a9,9,0,0,0,6.2-1l-.12-.76-6.2,1Z"/><circle class="cls-7" cx="46.98" cy="83.47" r="9"/><path class="cls-9" d="M38,81.72l16.94-2.78s-2.57-6.6-8.9-5.11S38,81.72,38,81.72Z"/><path class="cls-8" d="M37.93,81.49l17-2.78s-2.56-6.6-8.9-5.12S37.93,81.49,37.93,81.49Z"/><ellipse class="cls-7" cx="38.33" cy="85.04" rx="0.84" ry="1.58" transform="translate(-13.08 7.2) rotate(-9.18)"/><ellipse class="cls-7" cx="55.57" cy="81.67" rx="0.84" ry="1.57" transform="translate(-12.48 10.07) rotate(-9.31)"/><g class="cls-1"><rect class="cls-14" x="102" y="59.78" width="143.14" height="197.77"/></g><rect class="cls-15" x="103.82" y="61.23" width="139.5" height="193.4"/><g class="cls-1"><path class="cls-16" d="M122.45,105.48a21.41,21.41,0,1,1,33.34,17.77v.09a7.26,7.26,0,0,1-2.42,1.55l0-.09c-1,.86-5.22,2.23-10.07,2.22h-.11a19.6,19.6,0,0,1-9.33-2.13l-.07-.16a7.74,7.74,0,0,1-2-1.39l0-.24A21.38,21.38,0,0,1,122.45,105.48Z"/></g><circle class="cls-3" cx="143.85" cy="105.48" r="20.76"/><path class="cls-17" d="M135.71,113.39s-5,.4-3.64,9.44a7.19,7.19,0,0,0,2.35,1.5l2.79-9.42Z"/><path class="cls-17" d="M151.76,113.39s5,.4,3.64,9.44a7.13,7.13,0,0,1-2.36,1.5l-2.77-9.45Z"/><path class="cls-8" d="M135.92,98.62s-.38,1.11-.92,2.39c-1.18,2.8.16,13.58,3,14.73a16,16,0,0,0,11.64.54c3.75-1.37,4.91-13.64,2.26-16.62-.31-.37-.64-.7-1-1Z"/><circle class="cls-8" cx="143.86" cy="97.98" r="9.2"/><path class="cls-9" d="M151.67,113.39H135.61l-1.5,6.42s-.88,3,.22,4.28,11.32,4.29,18.83.22a8.31,8.31,0,0,0,.21-5.35c-.85-3-.21-.22-.21-.22Z"/><path class="cls-9" d="M151.88,113.39H135.82l-1.5,6.42s-.88,3,.21,4.28,11.32,4.29,18.84.22a8.38,8.38,0,0,0,.21-5.35c-.86-3-.21-.22-.21-.22Z"/><path class="cls-18" d="M151.76,113.39h-16l-1.5,6.42s-.89,3,.21,4.28,11.32,4.29,18.83.22a8.38,8.38,0,0,0,.22-5.35c-.86-3-.22-.22-.22-.22Z"/><path class="cls-9" d="M140.63,108.06h6.42V114a2.43,2.43,0,0,1-2.43,2.43h-1.56a2.43,2.43,0,0,1-2.43-2.43h0v-5.92Z"/><path class="cls-17" d="M140.63,107.82h6.42v5.92a2.43,2.43,0,0,1-2.43,2.43h-1.56a2.43,2.43,0,0,1-2.43-2.43h0v-5.92Z"/><path class="cls-9" d="M140.64,108.74a9.32,9.32,0,0,0,6.42,0V108h-6.42Z"/><circle class="cls-17" cx="143.86" cy="99.98" r="9.2"/><path class="cls-8" d="M135.06,96.48h17.56s-1.5-7.09-8.14-6.63S135.06,96.48,135.06,96.48Z"/><ellipse class="cls-17" cx="134.85" cy="99.59" rx="0.86" ry="1.6"/><ellipse class="cls-17" cx="152.83" cy="99.59" rx="0.86" ry="1.6"/><path class="cls-9" d="M135.06,96.72h17.56s-1.5-7.09-8.14-6.64S135.06,96.72,135.06,96.72Z"/><rect class="cls-4" x="122.42" y="145.09" width="100.68" height="6.1"/><rect class="cls-4" x="122.42" y="160.35" width="100.68" height="6.1"/><rect class="cls-4" x="171.24" y="96.28" width="51.87" height="6.1"/><rect class="cls-5" x="175.81" y="111.54" width="42.71" height="6.1"/><rect class="cls-4" x="122.42" y="175.6" width="88.48" height="6.1"/><rect class="cls-4" x="122.42" y="190.86" width="76.27" height="6.1"/><rect class="cls-4" x="122.42" y="206.12" width="67.12" height="6.1"/><rect class="cls-4" x="122.42" y="221.37" width="85.43" height="6.1"/><rect class="cls-5" x="122.42" y="236.63" width="33.56" height="6.1"/></g></g></svg>