<svg xmlns="http://www.w3.org/2000/svg" xmlns:xlink="http://www.w3.org/1999/xlink" viewBox="0 0 401.94 327.23"><defs><style>.cls-1,.cls-3,.cls-4{fill:#cdac70;}.cls-1,.cls-26,.cls-6{opacity:0.1;}.cls-1,.cls-20,.cls-3,.cls-5,.cls-6{isolation:isolate;}.cls-2{opacity:0.35;}.cls-3{opacity:0.2;}.cls-20,.cls-22,.cls-5,.cls-6{fill:#040000;}.cls-5{opacity:0.25;}.cls-7{fill:#f6ca3e;}.cls-8{fill:#64607b;}.cls-9{fill:#9b99b2;}.cls-10{fill:url(#名称未設定グラデーション_2);}.cls-11{fill:#f6f7f9;}.cls-12{fill:url(#名称未設定グラデーション_2-2);}.cls-13{fill:url(#名称未設定グラデーション_2-3);}.cls-14{fill:url(#名称未設定グラデーション_2-4);}.cls-15{fill:url(#名称未設定グラデーション_2-5);}.cls-16{fill:url(#名称未設定グラデーション_2-6);}.cls-17{fill:url(#名称未設定グラデーション_2-7);}.cls-18{fill:#2d293c;}.cls-19{fill:#555783;}.cls-20,.cls-21{opacity:0.05;}.cls-23{fill:#f8cacf;}.cls-24{fill:#dbe5f0;}.cls-25{fill:#62648c;}</style><linearGradient id="名称未設定グラデーション_2" x1="372.89" y1="-2487.16" x2="372.89" y2="-2406.73" gradientTransform="matrix(1, 0, 0, -1, -76.87, -2344.32)" gradientUnits="userSpaceOnUse"><stop offset="0" stop-color="#7f8080" stop-opacity="0.25"/><stop offset="0.54" stop-color="#7f8080" stop-opacity="0.12"/><stop offset="1" stop-color="#7f8080" stop-opacity="0.1"/></linearGradient><linearGradient id="名称未設定グラデーション_2-2" x1="151.65" y1="-2486.23" x2="151.65" y2="-2400.97" xlink:href="#名称未設定グラデーション_2"/><linearGradient id="名称未設定グラデーション_2-3" x1="372.94" y1="-2616.81" x2="372.94" y2="-2511.62" xlink:href="#名称未設定グラデーション_2"/><linearGradient id="名称未設定グラデーション_2-4" x1="81.28" y1="-2589.84" x2="81.28" y2="-2488.97" gradientTransform="matrix(1, 0, 0, -1, 0, -2318.71)" xlink:href="#名称未設定グラデーション_2"/><linearGradient id="名称未設定グラデーション_2-5" x1="266.58" y1="-2615.45" x2="266.58" y2="-2515.3" xlink:href="#名称未設定グラデーション_2"/><linearGradient id="名称未設定グラデーション_2-6" x1="281.98" y1="-2456.65" x2="281.98" y2="-2396.06" xlink:href="#名称未設定グラデーション_2"/><linearGradient id="名称未設定グラデーション_2-7" x1="287.65" y1="-2668.78" x2="287.65" y2="-2412.17" xlink:href="#名称未設定グラデーション_2"/></defs><title>counseling2_1</title><g id="レイヤー_2" data-name="レイヤー 2"><g id="レイヤー_1-2" data-name="レイヤー 1"><ellipse class="cls-1" cx="243.15" cy="320.35" rx="41.08" ry="6.88"/><path class="cls-1" d="M241.43,40.46c-16.82,14.27-38.64,13.35-57.75,5.93s-36.69-20.64-55.32-30A155.28,155.28,0,0,0,79.76,1C56-2.29,29.51,1.72,13,24.79c-18.43,25.69-17,72,2.91,95.61,10.14,12,23.41,17.87,35,27.24s22.29,24.91,21.3,43c-.91,16.73-11.52,29.58-22.49,37.65-8.49,6.22-18.94,13-20,25.92-1,12.48,7.79,22.25,16.19,27.82,27.37,18.14,61.08,18,88.36-.46,9.73-6.57,18.67-15.31,28.87-20.44,26.79-13.44,56.31.09,84.67,5a141,141,0,0,0,72-6.35c14-5,28.14-12.71,38-27,7.12-10.32,11.55-23.39,15.71-36.29q6.66-20.64,12.8-41.56c2.46-8.38,4.88-16.91,5.51-25.87,1.15-16.24-3.69-32.27-10.29-46-15.65-32.56-42-55.44-70.58-61.25s-58.82,5.54-81,30.38"/><g class="cls-2"><path class="cls-3" d="M192.47,78.39V75.83H152.21c-1.86,0-.73,2.57-.73,2.57H129.61v57.3h96V78.39Z"/></g><path class="cls-4" d="M320.69,100.67c.39,2.87,6.7,10.49,6.7,10.49s4.08-9,3.69-11.89a5.24,5.24,0,1,0-10.46.73c0,.22.05.45.09.67Z"/><path class="cls-5" d="M320.69,100.67c.39,2.87,6.7,10.49,6.7,10.49s4.08-9,3.69-11.89a5.24,5.24,0,1,0-10.46.73c0,.22.05.45.09.67Z"/><path class="cls-4" d="M313.05,101.79c1.54,2.46,10.38,6.87,10.38,6.87s.09-9.89-1.44-12.36a5.25,5.25,0,0,0-8.94,5.49Z"/><path class="cls-4" d="M59.19,196.38c-1.45,2.41-10,6.77-10,6.77s-.16-9.61,1.28-12a5.08,5.08,0,0,1,8.71,5.23Z"/><path class="cls-4" d="M379,251s2.93,3.85-1.36,9.61-7.81,10.67-6.38,14.28c0,0,6.46-10.75,11.72-10.9S384.83,257.48,379,251Z"/><path class="cls-6" d="M379,251a5.25,5.25,0,0,1,.6,1.21c5.13,6,7.86,11.66,2.93,11.8-4.61.13-10.11,8.35-11.43,10.43a2.9,2.9,0,0,0,.16.47S377.76,264.16,383,264,384.83,257.48,379,251Z"/><path class="cls-7" d="M384.49,255.9c0,1.35-.16,2.44-.34,2.44s-.34-1.09-.34-2.44.19-.71.39-.71S384.49,254.55,384.49,255.9Z"/><path class="cls-7" d="M386.36,257.51c-1.19.65-2.22,1-2.31.87s.8-.82,2-1.46.72-.18.81,0S387.54,256.87,386.36,257.51Z"/><path class="cls-4" d="M363.55,251s-2.93,3.85,1.36,9.61,7.81,10.67,6.39,14.28c0,0-6.47-10.75-11.73-10.9S357.76,257.48,363.55,251Z"/><path class="cls-6" d="M363.55,251a4.85,4.85,0,0,0-.59,1.21c-5.14,6-7.87,11.66-2.94,11.8,4.61.13,10.11,8.35,11.43,10.43,0,.15-.09.31-.15.47,0,0-6.47-10.76-11.73-10.9S357.76,257.48,363.55,251Z"/><path class="cls-7" d="M358.1,255.9c0,1.35.15,2.44.34,2.44s.34-1.09.34-2.44-.19-.71-.39-.71S358.1,254.55,358.1,255.9Z"/><path class="cls-7" d="M356.23,257.51c1.19.65,2.22,1,2.31.87s-.8-.82-2-1.46-.71-.18-.8,0S355.05,256.87,356.23,257.51Z"/><ellipse class="cls-1" cx="371.3" cy="299.54" rx="30.65" ry="4.7"/><path class="cls-8" d="M387.07,269.75l-.15,1.2-.2,1.69-.09.7-.2,1.69-.09.71-.21,1.69-2.35,19.21c-.2,1.72-3,3.07-6.39,3.07H365.2c-3.38,0-6.18-1.33-6.39-3.07l-2.35-19.21-.21-1.69-.08-.71-.21-1.69-.09-.7-.2-1.69-.15-1.2c-.12-1,1.4-1.79,3.31-1.79h24.93C385.67,268,387.19,268.78,387.07,269.75Z"/><polygon class="cls-9" points="386.92 270.94 386.72 272.64 355.87 272.64 355.67 270.94 386.92 270.94"/><polygon class="cls-9" points="386.63 273.34 386.42 275.03 356.17 275.03 355.95 273.34 386.63 273.34"/><polygon class="cls-9" points="386.34 275.74 386.13 277.43 356.46 277.43 356.25 275.74 386.34 275.74"/><path class="cls-10" d="M308.75,71.44h-.32a2.37,2.37,0,0,0,.73-1.66l-2.92-2.92,1.11-2.5H303.6l.69-2h-2.22l-24.61,8.2a6.16,6.16,0,0,0,0,.83H261.61v71.4h68.83V71.44Z"/><rect class="cls-11" x="262.12" y="71.69" width="67.79" height="70.4"/><path class="cls-6" d="M308.56,71.69c-3.21,4.73-24.66,11-24.66,11l.13-4.93h-4a2.26,2.26,0,0,0-1.1-2.47c-1.16-.63-1.27-2.69-1.25-3.56Z"/><path class="cls-9" d="M302,62.79l-24.24,8.07s-.28,3.15,1.23,4a2.27,2.27,0,0,1,1.1,2.47h4l-.13,4.93S309.37,74.82,309,70l-2.87-2.87,1.09-2.47h-3.7l.69-1.92Z"/><g class="cls-2"><rect class="cls-3" x="274.65" y="94.51" width="42.73" height="1.2"/></g><g class="cls-2"><rect class="cls-3" x="274.65" y="100.83" width="42.73" height="1.2"/></g><g class="cls-2"><rect class="cls-3" x="274.65" y="107.15" width="42.73" height="1.2"/></g><g class="cls-2"><rect class="cls-3" x="274.65" y="113.46" width="42.73" height="1.2"/></g><g class="cls-2"><rect class="cls-3" x="274.65" y="119.78" width="42.73" height="1.2"/></g><g class="cls-2"><rect class="cls-3" x="274.65" y="126.1" width="42.73" height="1.2"/></g><path class="cls-12" d="M79.06,65.65H78.9c1.21-3.11,2.34-6.14,2.29-6.72-.11-1.15-2.42,1.35-2.53.72s0-3-1-3-1.68,1.24-2.3,1.24-3.16-.42-3.16-.42l-3.22,8.18H44.65v76.26h60.26V65.65Z"/><rect class="cls-11" x="45.33" y="66.08" width="58.89" height="75.32"/><path class="cls-6" d="M79,66.08c-1.24,3.22-2.64,6.62-3,7.43-.62,1.53-1,.72-1.75.51s-1.64.21-2.05,0a13.23,13.23,0,0,0-2.83,0,7.11,7.11,0,0,0,0-1.13c0-.41-2.82,0-2.82,0l2.64-6.81Z"/><path class="cls-9" d="M72.21,58,66.56,72.48s2.77-.41,2.82,0a7.11,7.11,0,0,1,0,1.13,12.6,12.6,0,0,1,2.83,0c.41.21,1.33-.21,2.05,0s1.13,1,1.75-.51,5.13-12.54,5-13.67-2.36,1.34-2.47.72,0-3-1-3-1.65,1.22-2.26,1.22S72.21,58,72.21,58Z"/><g class="cls-2"><rect class="cls-3" x="53.41" y="86.07" width="42.73" height="1.2"/></g><g class="cls-2"><rect class="cls-3" x="53.41" y="90.59" width="42.73" height="1.2"/></g><g class="cls-2"><rect class="cls-3" x="53.41" y="95.11" width="42.73" height="1.2"/></g><g class="cls-2"><rect class="cls-3" x="53.41" y="99.63" width="42.73" height="1.2"/></g><g class="cls-2"><rect class="cls-3" x="53.41" y="104.15" width="42.73" height="1.2"/></g><g class="cls-2"><rect class="cls-3" x="53.41" y="108.67" width="42.73" height="1.2"/></g><path class="cls-13" d="M301.29,178.41h-.16c1.49-3.85,2.86-7.6,2.8-8.3-.13-1.41-3,1.66-3.08.9s0-3.71-1.28-3.71-2.06,1.54-2.83,1.54-3.87-.52-3.87-.52l-4,10.09H259.14v94.08H333V178.41Z"/><rect class="cls-11" x="259.74" y="179.06" width="72.56" height="92.82"/><path class="cls-6" d="M301.15,179.06c-1.52,3.94-3.22,8.07-3.61,9.06-.77,1.9-1.27.88-2.15.63s-2,.25-2.54,0a16,16,0,0,0-3.48,0,8.07,8.07,0,0,0,0-1.39c-.06-.51-3.48,0-3.48,0l3.24-8.3Z"/><path class="cls-9" d="M292.85,169.1l-7,17.85s3.42-.51,3.48,0a8.07,8.07,0,0,1,0,1.39,16,16,0,0,1,3.48,0c.51.25,1.65-.25,2.54,0s1.39,1.26,2.15-.63,6.33-15.45,6.2-16.84-2.91,1.65-3,.89,0-3.65-1.26-3.65-2,1.5-2.79,1.5S292.85,169.1,292.85,169.1Z"/><g class="cls-2"><rect class="cls-3" x="274.65" y="204.99" width="42.73" height="3.05"/></g><g class="cls-2"><rect class="cls-3" x="274.65" y="224.78" width="42.73" height="3.05"/></g><g class="cls-2"><rect class="cls-3" x="274.65" y="244.58" width="42.73" height="3.05"/></g><polygon class="cls-14" points="91.42 181.62 91.42 170.26 75.47 170.26 75.47 181.62 42.18 181.62 42.18 271.13 120.38 271.13 120.38 181.62 91.42 181.62"/><rect class="cls-11" x="43" y="182.07" width="76.55" height="88.47"/><rect class="cls-6" x="75.6" y="182.07" width="15.61" height="12.05"/><rect class="cls-9" x="75.6" y="170.85" width="15.61" height="22.87"/><g class="cls-2"><rect class="cls-3" x="59.92" y="203.47" width="42.73" height="3.05"/></g><g class="cls-2"><rect class="cls-3" x="59.92" y="209.53" width="42.73" height="3.05"/></g><g class="cls-2"><rect class="cls-3" x="59.92" y="215.59" width="42.73" height="3.05"/></g><g class="cls-2"><rect class="cls-3" x="59.92" y="221.65" width="42.73" height="3.05"/></g><g class="cls-2"><rect class="cls-3" x="91.21" y="228.4" width="11.44" height="9.24"/></g><g class="cls-2"><rect class="cls-3" x="59.92" y="239.83" width="11.44" height="9.24"/></g><path class="cls-15" d="M201.25,181.48h-.11c1.25-4.87,2.19-8.74,2.19-8.74L198,175.23s-3.77-5-5.17-4.16S188.4,174,188.4,174l-4.07-2.08-1.55,9.58h-32.1v69.11l2.06,1.23c1.7-.61,4.51-1.65,4.51-1.65L156,253.75l.87.51,1.46-1.32.54,2.53,1.74,1,2.75-1.75-.77,2.94,2.58,1.54,7.49-2.82-2.26,5.95,1.49.89,3.39-.59s-.15,1.18-.25,2.47l3.41,2,2.71-1.08s-.14,1.3-.2,2.57l2.28,1.37c1.8-1.05,4.1-2.48,4.1-2.48l-1.92,3.57h43.37V181.48Z"/><path class="cls-11" d="M227.89,182.07v88.47H185.35l1.9-3.52s-2.25,1.41-4,2.45L181,268.12c.06-1.26.19-2.54.19-2.54l-2.66,1.06-3.34-2c.1-1.27.25-2.44.25-2.44l-3.33.59-1.45-.88,2.21-5.87-7.35,2.78L163,257.27l.74-2.9L161,256.09l-1.71-1-.53-2.5-1.44,1.31-.85-.51,1.27-3.52-4.42,1.63-2-1.22V182.07Z"/><g class="cls-2"><rect class="cls-3" x="168.24" y="209.53" width="42.73" height="3.05"/></g><g class="cls-2"><rect class="cls-3" x="168.24" y="218.64" width="42.73" height="3.05"/></g><g class="cls-2"><rect class="cls-3" x="168.24" y="227.75" width="42.73" height="3.05"/></g><g class="cls-2"><rect class="cls-3" x="168.24" y="236.85" width="8.56" height="3.05"/></g><path class="cls-6" d="M200.93,182.07c-2.09,8.22-5.12,19.6-5.91,19.4-1.23-.34-3.15-2.69-3.15-2.69s-4.52,4.24-6.71,2.05-5.21-.68-5.21-.68l2.92-18.08Z"/><path class="cls-9" d="M184.34,172.64,180,199.76s3-1.51,5.21.69,6.71-2.07,6.71-2.07,1.92,2.35,3.15,2.69,7.94-27.6,7.94-27.6l-5.2,2.46s-3.7-4.93-5.07-4.11-4.37,2.88-4.37,2.88Z"/><path class="cls-16" d="M220.14,54.34v-2.6H179.37c-1.87,0-.72,2.6-.72,2.6H156.5v58h97.23v-58Z"/><rect class="cls-11" x="157.11" y="54.62" width="96.04" height="57.31"/><path class="cls-6" d="M220,64h-38.1s-.41-4.41.92-5.23S179,55,179,55a3.39,3.39,0,0,1-.15-.41H220V56S225.21,60.58,220,64Z"/><path class="cls-9" d="M179.71,52.05H220v3.49s5.24,4.61,0,8h-38.1s-.41-4.41.92-5.23-3.8-3.7-3.8-3.7S177.86,52.05,179.71,52.05Z"/><g class="cls-2"><rect class="cls-3" x="168.91" y="72.59" width="72.45" height="1.2"/></g><g class="cls-2"><rect class="cls-3" x="168.91" y="77.11" width="43.28" height="1.2"/></g><g class="cls-2"><rect class="cls-3" x="168.91" y="81.63" width="72.45" height="1.2"/></g><g class="cls-2"><rect class="cls-3" x="168.91" y="86.15" width="72.45" height="1.2"/></g><g class="cls-2"><rect class="cls-3" x="168.91" y="90.67" width="72.45" height="1.2"/></g><path class="cls-17" d="M271.16,319.12c-.69-2.93-1.11-5.5-1.11-5.5a11.35,11.35,0,0,0-1.28-5.57v-.8h0v-5.88a20.7,20.7,0,0,1,1.49-3.07c1.06-1.85,0-8.63,0-8.63s-3.93-9.55-3-15.61-8.07-26.91-8.07-26.91a26.53,26.53,0,0,1,.85-6,4.77,4.77,0,0,0,.11-1.25v-.11c-.13-4-3.29-11.48-3.29-11.48l.43-14.28s2-8.42-1.28-19.72c-1.15-3.95-1.88-7.1-2.35-9.54-.05-.27-.1-.54-.15-.79,6.78-1,12-1.9,12-1.9s-3.93-16.44-6.58-19.31-4.78-11.91-4.78-11.91-1.38-11.61.85-15,2.54-9.25,2.54-9.25,5.1-3.7,5.73-5.34A27.12,27.12,0,0,0,265,114c0-2-.64-3.7-.42-4.73s-1.49-4.92-.64-6.78a4.9,4.9,0,0,0,.34-1.78v-.07a24.37,24.37,0,0,0-.45-4.82,13.41,13.41,0,0,0-5-2.69l-.11-.44-.29-1.16a5.09,5.09,0,0,0-.5-.3v-.42l0-1.66.79-3.76c1.57-6.53-7.13-7.49-7.13-7.49A4.59,4.59,0,0,0,249,75.75c-1.75-.61-.29,9.82.53,10.48A38,38,0,0,1,253,91.61h0l.15.26a5.14,5.14,0,0,0-.38.42l.33,2.27,0,.34a9.58,9.58,0,0,0-1.39,2.37A5.05,5.05,0,0,1,253,101a11.26,11.26,0,0,0,.53,4.52c-.1-.11-1.22-1.33-2.34-1s-4.22,1.23-4.22,1.23-2.34.41-2.12.93-1.6,2.77-1.6,2.77L237,103.45l-.18-.54a14.42,14.42,0,0,1-.55-2.61,13.79,13.79,0,0,0,2-.63A4.4,4.4,0,0,0,240,98.56a6.89,6.89,0,0,0,1-2.69,37.55,37.55,0,0,1,2.32-5.19,17,17,0,0,0,1.26-9.33,6.11,6.11,0,0,0-1-2.73c-1-1.41-2.88-2-4.22-3.1s-2.22-2.84-3.8-3.69a7.5,7.5,0,0,0-4.76-.41,25.44,25.44,0,0,0-8.89,3.24,4.63,4.63,0,0,1-3,1,3.92,3.92,0,0,1-2.14-1.57l0-.09-.07-.08a11,11,0,0,0-1,4.7,6.52,6.52,0,0,0,0,.76v.48h0a1.14,1.14,0,0,1-.05.33,2.21,2.21,0,0,1-.59.85,5,5,0,0,0-.51.7,1.84,1.84,0,0,1,.09-.25,3.65,3.65,0,0,0-.65,2,1.93,1.93,0,0,0,.47,1.42,6.78,6.78,0,0,0,1,.82,12,12,0,0,0,5.72,12.44c.08.18.15.36.22.54a15.3,15.3,0,0,1,1.15,6.84c0,.17,0,.33-.07.5a1.86,1.86,0,0,0-.23.26h0s-10.37.1-12.8-2.11-6.14,5.38-6.14,5.38-3.72.72-4.46,0-5.1-.1-5.1-.1a9.33,9.33,0,0,0-6.47-2.36,18.94,18.94,0,0,0-4.75-2.65h0l-.12,0h0a5.31,5.31,0,0,0-2.34-.29s-5.09-4.23-6.57-6.47-8.57-10.65-8.6-10.68l0-.39L165,85.32a4.6,4.6,0,0,1-.64.05l-.14-.42a23.08,23.08,0,0,0-1.51-3.46s0-1.53.45-1.92-.18-6-.18-6-4.59-10.74-8.7-2.72c0,0-7.77,5.18-1.25,11.22,0,0,2.6,1.26,3,2.26.24.65,1.12,2.46,1.72,3.66l.26.54-.07.06.1,1,0,.38c-1.23.7-2.07,1.39-1.86,1.92a11.65,11.65,0,0,1,.74,2.78s9,11.3,10.19,16.13c0,0,24.2,14.38,32.15,15.41l-1.38,7.19s-.42,4.31-.32,5.86-.95,8.52-.95,8.52S195.2,158,194,159.47s-.95,7.6-.95,7.6a51.78,51.78,0,0,1-1.6,8.73,22.52,22.52,0,0,0-.31,8.73s-4,9.25,5.62,3c0,0,4.74-.29,10.2-.48v.55c0,.7,0,1.46,0,2.26-.07,5.3-.1,12.59.14,18.11.42,9.76,3.39,29.07,3.39,29.07v9.7a13.66,13.66,0,0,0-.28,2.78,18.06,18.06,0,0,0,2.62,9.71l.65,6.4s1.75,4.27,1.78,6.81a3.18,3.18,0,0,1-.07.62,4.15,4.15,0,0,0-.09,1c-.1,2.94,1.67,10,1.67,10s.11,7.09,1.16,7.5c.9.35-1.21,4.08-1.85,5.15a1.77,1.77,0,0,0,0-.2l-.13.22a4.94,4.94,0,0,0-.33,1.79,2.59,2.59,0,0,0,1.18,2.49c2,1.23,3.1,2.26,1.39,2.69a16.74,16.74,0,0,0-1.87.38l-.09-.24a1.17,1.17,0,0,0-.7,1.25,5.28,5.28,0,0,0,.63,2.4,25.63,25.63,0,0,0,2.88,5.24l.81-.09a4.06,4.06,0,0,1-.47.87,3.43,3.43,0,0,1-1.2,1.07,3.73,3.73,0,0,1-1.45.49,4.09,4.09,0,0,0-3,1.47c-1.06,1.37-1.72,3.23.38,4.87l7.6,2.62s13.06,1.69,12.35-1.23-1.11-5.5-1.11-5.5a11.52,11.52,0,0,0-1.06-5.19,4.61,4.61,0,0,0-.46-.77l.46,0s1-6.47,2.23-7.69c.29-.28.36-.5.29-.67.14-.35-.2-.56-.63-.67l-.09.25a6,6,0,0,0-1.27-.14s-.42-3.39,1-4.61a1.35,1.35,0,0,0,.27-1,5.41,5.41,0,0,0-.15-1.38s0,.06,0,.08a49.76,49.76,0,0,0-3-8s-.11-3.08.74-4.31-.1-16.75-.1-16.75.31-7.5-.64-11,1.15-7.6,1.15-7.6a1.73,1.73,0,0,0,0-.22l0-.06s0-.46-.12-1.18l0,.07c-.21-2-.61-5.58-.91-7.24-.43-2.36.1-13.66.1-13.66l1.92-4.83,3.4,8.32,3.61,11.1a9.43,9.43,0,0,1,1.83,4.71,2,2,0,0,1,0,.35,4.59,4.59,0,0,0,0,.74,6.62,6.62,0,0,0,1.09,4s1,5.23,2.45,6.57a5.94,5.94,0,0,1,1.48,3.9s1.81,7.6,2.65,8.94c.72,1.12.77,4.22.75,5.16h0v.28s.25,2.72.24,5c0,.28,0,.55,0,.81v-.06a8.91,8.91,0,0,1-.22,1.85.17.17,0,0,0,0,.1,1.58,1.58,0,0,1,0-.38,19.34,19.34,0,0,0-.53,4.73c0,2.73.38,6,2,7.87,2.86,3.29,4.67,2.88,4.67,2.88s-1.38,4.1-3.08,4.93l-.18.11a2,2,0,0,0,0-.24,2,2,0,0,0-.49,1.54,10.86,10.86,0,0,0,2.1,6.09,3.46,3.46,0,0,0,1.43.84l-.27.16a4.41,4.41,0,0,1-.58.28,2.93,2.93,0,0,1-.87.22,4,4,0,0,0-3,1.45c-1.06,1.36-1.72,3.23.38,4.86l7.59,2.62S271.85,322,271.16,319.12Z"/><path class="cls-18" d="M221.31,324,214,321.35c-2-1.64-1.38-3.5-.36-4.87a4,4,0,0,1,2.91-1.47,3.45,3.45,0,0,0,1.4-.49,3.3,3.3,0,0,0,1.16-1.07,5.46,5.46,0,0,0,.83-2.83s8.07-2.37,10.28,0a5.82,5.82,0,0,1,1,1.43,12.08,12.08,0,0,1,1,5.19s.41,2.56,1.08,5.5S221.31,324,221.31,324Z"/><path class="cls-18" d="M257.25,320.35l-7.34-2.62c-2-1.64-1.38-3.5-.36-4.87a3.89,3.89,0,0,1,2.91-1.46,2.76,2.76,0,0,0,.84-.23l.57-.27c2-1.13,2-3.9,2-3.9s8.06-2.37,10.27,0a6.16,6.16,0,0,1,.77,1.05,11.65,11.65,0,0,1,1.23,5.57s.41,2.57,1.08,5.5S257.25,320.35,257.25,320.35Z"/><path class="cls-6" d="M230.19,310.62a5.82,5.82,0,0,1,1,1.43h0l-12.08,1.4a5.38,5.38,0,0,0,.84-2.84S228,308.26,230.19,310.62Z"/><path class="cls-6" d="M266.91,308.05v2.26c-1.88,3.09-11,2.42-13.61.86l.57-.27c2-1.13,2-3.9,2-3.9s8.06-2.37,10.27,0A5.25,5.25,0,0,1,266.91,308.05Z"/><path class="cls-19" d="M268.35,298.29a19.5,19.5,0,0,0-1.44,3.07v8.13c-2.05,3.38-12.74,2.25-14.17.41s-3-6.68-1.34-7.5,3-4.93,3-4.93-1.75.41-4.52-2.88-1.95-10.58-1.43-12.32,0-7.61,0-7.61.1-4.1-.72-5.44-2.55-8.94-2.55-8.94,0-2.56-1.44-3.9-2.36-6.57-2.36-6.57a6.81,6.81,0,0,1-1-4.42c.31-2.57-1.74-5.34-1.74-5.34L235.08,229l-3.28-8.32L230,225.47s-.51,11.3-.1,13.66,1,8.63,1,8.63-2.05,4.1-1.13,7.6.62,11,.62,11,.92,15.51.1,16.74-.72,4.31-.72,4.31,4.23,9,2.88,10.27-.93,4.61-.93,4.61,2.88,0,1.65,1.24-2.16,7.68-2.16,7.68l-12.42,1.44A25.17,25.17,0,0,1,216,307.4c-1.63-3.8.31-3.39,2-3.8s.61-1.44-1.34-2.69-.83-4-.83-4,3-5,2-5.44-1.13-7.5-1.13-7.5-2.06-8.42-1.54-10.68-1.66-7.67-1.66-7.67l-.72-6.47a17.78,17.78,0,0,1-2.26-12.22V237s-2.88-19.31-3.29-29.07c-.26-6.25-.19-14.78-.1-20.1.05-3,.1-5,.1-5l44.37-4.61a37.05,37.05,0,0,0,.81,6.59c.45,2.44,1.15,5.59,2.27,9.54,3.19,11.3,1.24,19.72,1.24,19.72l-.41,14.27s3.9,9.55,3.07,12.84a27.25,27.25,0,0,0-.82,6s8.74,20.84,7.81,26.91,2.88,15.62,2.88,15.62S269.37,296.44,268.35,298.29Z"/><path class="cls-20" d="M243,244.78l13.51-1.8S248.83,250.78,243,244.78Z"/><path class="cls-6" d="M254.53,229.78s.46,4.78-2.46,6.57C252.07,236.35,257.31,235.53,254.53,229.78Z"/><path class="cls-6" d="M253.7,214.58s-11.29,9.29-15.39,8.52S253.7,214.58,253.7,214.58Z"/><path class="cls-6" d="M226.24,249.14s-8.58,2-8.84,5.38S226.24,249.14,226.24,249.14Z"/><path class="cls-20" d="M228.12,292s-12.12,2.26-8.68,3.8a57.67,57.67,0,0,0,9.09,2.77S232.44,298.75,228.12,292Z"/><g class="cls-21"><path class="cls-22" d="M217,298.22a2.38,2.38,0,0,1-1.11-1.76l-.13.22s-1.13,2.77.82,4l.64.42c.36-.07.74-.12,1.12-.21C220,300.48,219,299.45,217,298.22Z"/><path class="cls-22" d="M232.61,297.4c.33-.31.32-1.1.11-2.11a5.73,5.73,0,0,0-.68,3A2.27,2.27,0,0,1,232.61,297.4Z"/><path class="cls-22" d="M230.74,246.3a13.89,13.89,0,0,0-.82,3.77,14.84,14.84,0,0,1,.94-2.59S230.81,247,230.74,246.3Z"/><path class="cls-22" d="M258.49,240.9a4.63,4.63,0,0,0,.11-1.12c-.15.77-.26,1.48-.33,2.1C258.33,241.56,258.41,241.24,258.49,240.9Z"/><path class="cls-22" d="M230.45,282.81a6.65,6.65,0,0,0,.31-2.28,7.91,7.91,0,0,0-.59,2.88A2.73,2.73,0,0,1,230.45,282.81Z"/><path class="cls-22" d="M233,302.18a39.9,39.9,0,0,0-1.42,6.31l-12.42,1.44a25.17,25.17,0,0,1-2.78-5.24c-.14-.33-.26-.63-.35-.91-.75.35-1,1.12-.06,3.37a25.81,25.81,0,0,0,2.78,5.24L231.17,311s.92-6.47,2.16-7.69C233.93,302.65,233.55,302.34,233,302.18Z"/><path class="cls-22" d="M216.58,283.73s.11,7.09,1.13,7.5h0c.52-1.17.87-2.3.39-2.47-1-.4-1.13-7.49-1.13-7.49s-2.06-8.43-1.54-10.69-1.64-7.7-1.64-7.7l-.72-6.47a17.78,17.78,0,0,1-2.26-12.22v-10s-2.88-19.31-3.29-29.07c-.26-6.25-.19-14.78-.1-20.1,0-1,0-1.81.05-2.53l-.36,0s-.05,2-.1,5c-.09,5.32-.16,13.83.1,20.1.41,9.75,3.29,29.06,3.29,29.06v10a17.78,17.78,0,0,0,2.26,12.22l.72,6.47s2.15,5.45,1.64,7.69S216.58,283.73,216.58,283.73Z"/><path class="cls-22" d="M253.15,307.15a12,12,0,0,1-2-4.88c-1.26,1.16.19,5.59,1.54,7.35s12.12,3,14.18-.41v-2C264.14,310,254.51,308.9,253.15,307.15Z"/><path class="cls-22" d="M268.76,295.55a21.47,21.47,0,0,0-1.44,3.07v1.44c.24-.52.57-1.23,1-2.05a6.19,6.19,0,0,0,.45-2.55Z"/><path class="cls-22" d="M253.78,297.17a19.9,19.9,0,0,0,1-2.44s-1.74.41-4.52-2.88c-2-2.39-2.13-6.91-1.84-9.86-.52,1.75-1.34,9,1.43,12.32C251.68,296.47,253.05,297,253.78,297.17Z"/><path class="cls-22" d="M248.43,274.39a56.16,56.16,0,0,1,.2,6.09,8.24,8.24,0,0,1,.21-1c.52-1.74,0-7.59,0-7.59s.1-4.12-.72-5.45-2.58-8.93-2.58-8.93,0-2.57-1.44-3.91-2.36-6.57-2.36-6.57a6.75,6.75,0,0,1-1-4.42c.31-2.57-1.75-5.34-1.75-5.34l-3.49-11.09-3.28-8.32-1.86,4.82s0,.61-.06,1.56l1.51-3.92,3.28,8.32,3.49,11.09s2.06,2.78,1.75,5.35a6.73,6.73,0,0,0,1,4.41s.92,5.24,2.36,6.57,1.46,3.91,1.46,3.91,1.75,7.6,2.57,8.93S248.43,274.39,248.43,274.39Z"/></g><path class="cls-23" d="M257.06,85.44l-.77,3.75,0,1.66,0,1.24-4.3.42-.48-.89h0a39.55,39.55,0,0,0-3.33-5.38c-.79-.67-2.21-11.09-.51-10.47a4.48,4.48,0,0,1,2.39,2.16S258.57,78.9,257.06,85.44Z"/><path class="cls-6" d="M256.35,92.07l-4.28.44-.48-.89h0a3.78,3.78,0,0,1,4.73-.77Z"/><path class="cls-24" d="M257.45,94.09l-5.66,1.33-.12-.84-.32-2.26a3.88,3.88,0,0,1,5.47-.75l.28,1.15Z"/><path class="cls-23" d="M165.89,85.82l-6,3.24s-.23-.47-.55-1.15c-.58-1.2-1.43-3-1.66-3.67-.36-1-2.88-2.25-2.88-2.25C148.47,76,156,70.76,156,70.76c4-8,8.42,2.72,8.42,2.72s.62,5.66.18,6-.43,1.92-.43,1.92a23.86,23.86,0,0,1,1.45,3.46C165.79,85.47,165.89,85.82,165.89,85.82Z"/><path class="cls-6" d="M165.89,85.82l-6,3.24s-.23-.47-.55-1.15c.85-.71,3.87-3.16,4.86-3a7.58,7.58,0,0,0,1.43,0C165.79,85.47,165.89,85.82,165.89,85.82Z"/><path class="cls-24" d="M166.51,87.65,159.73,91l-.14-1.46-.11-1s3.93-3.37,5.09-3.24a5.84,5.84,0,0,0,1.77,0l.08,1.23Z"/><path class="cls-23" d="M240.61,110.33s-29.55,3.33-24,1.53c3.84-1.25,5.38-3.7,5.69-6.41a15.42,15.42,0,0,0-1.09-6.84,29.84,29.84,0,0,0-2.65-5.34s22.6-12.43,18.06-1.15a18,18,0,0,0-1.28,5.36,15.07,15.07,0,0,0,.58,5.42A16.22,16.22,0,0,0,240.61,110.33Z"/><path class="cls-6" d="M236.61,92.14a18,18,0,0,0-1.28,5.36c-2.13,1.79-4.47,1.67-7.46,1.67-2.31,0-4.85.56-6.69-.55a29.19,29.19,0,0,0-2.65-5.34S241.13,80.84,236.61,92.14Z"/><circle class="cls-23" cx="227.47" cy="87.73" r="12.22"/><path class="cls-6" d="M240.61,110.33s-29.55,3.33-24,1.53c3.84-1.25,5.38-3.7,5.69-6.41,1.48-1.59,4.43-2.74,6.33-3.35A8.83,8.83,0,0,1,234,102a7.08,7.08,0,0,1,2,.91A16.21,16.21,0,0,0,240.61,110.33Z"/><path class="cls-6" d="M257.45,94.09l-5.66,1.33-.12-.84a5,5,0,0,1,5.43-1.86Z"/><path class="cls-6" d="M166.51,87.65,159.73,91l-.14-1.46a50.77,50.77,0,0,1,6.84-3Z"/><path class="cls-6" d="M252.31,184.81c-11.45,1.81-27.74,4.16-30.33,3.37-2.14-.65-9-.58-14.95-.38.05-3,.1-5,.1-5l44.37-4.61A37,37,0,0,0,252.31,184.81Z"/><path class="cls-25" d="M263.73,182.12S226,188.59,222,187.36s-24.81.1-24.81.1c-9.35,6.27-5.44-3-5.44-3a22.86,22.86,0,0,1,.3-8.73,52.67,52.67,0,0,0,1.54-8.73s-.2-6.14.92-7.6S197,147.71,197,147.71s1-7,.92-8.52.31-5.86.31-5.86l1.34-7.17c-7.68-1-31.12-15.41-31.12-15.41-1.13-4.83-9.86-16.13-9.86-16.13a12.23,12.23,0,0,0-.72-2.78c-.62-1.64,8.63-4.93,8.63-4.93s6.88,8.43,8.32,10.68,6.37,6.48,6.37,6.48a5,5,0,0,1,2.26.29s.07,0,.12,0h0a18.67,18.67,0,0,1,4.61,2.64,8.87,8.87,0,0,1,6.26,2.36s4.23-.61,4.93.1,4.32,0,4.32,0,3.59-7.6,5.95-5.37,12.39,2.1,12.39,2.1c1.34-1.77,4.59-3,6.62-3.7a8.83,8.83,0,0,1,5.38-.09,6.87,6.87,0,0,1,2.11,1l6.08,6s1.75-2.26,1.54-2.78,2.05-.92,2.05-.92,3-.93,4.11-1.23,2.17.91,2.26,1a11.94,11.94,0,0,1-.51-4.52,5.31,5.31,0,0,0-1.23-3.69c3.59-8.84,11.71-1.44,11.71-1.44s.92,4.83.1,6.68.82,5.76.61,6.77.42,2.78.42,4.73a28,28,0,0,1-1.65,7.3C261,123,256,126.66,256,126.66s-.31,5.85-2.46,9.24-.82,15-.82,15,2,9,4.61,11.91S263.73,182.12,263.73,182.12Z"/><path class="cls-6" d="M208.77,114.54s-1.12-3.39-2.15-3.7a23.4,23.4,0,0,1-3-1.34l.66-1.26s3.86,1.06,4.47,2.19S208.77,114.54,208.77,114.54Z"/><path class="cls-6" d="M188.13,107c-.2,1-9.35,1.95-9.35,1.95l4.61-4.63h0l.12,0h0A18.4,18.4,0,0,1,188.13,107Z"/><circle class="cls-19" cx="161.68" cy="92.94" r="0.82"/><circle class="cls-19" cx="162.73" cy="94.58" r="0.82"/><circle class="cls-19" cx="163.76" cy="96.1" r="0.82"/><circle class="cls-19" cx="164.84" cy="97.74" r="0.82"/><circle class="cls-19" cx="261.66" cy="97.65" r="0.67"/><circle class="cls-19" cx="261.76" cy="99.17" r="0.67"/><circle class="cls-19" cx="261.85" cy="100.68" r="0.67"/><path class="cls-6" d="M208.82,142.37c-.09-.12,23.06,29.12,41,12.22C249.86,154.59,221.46,158.45,208.82,142.37Z"/><path class="cls-6" d="M195.52,157.57s13.86.39,15.31,4.37v4.14a2.63,2.63,0,0,1-2.58,0c-1.4-.77-9.77-5-12.73-3Z"/><path class="cls-25" d="M195.78,157.57s13.25.36,14.64,4.16v4a2.58,2.58,0,0,1-2.47,0c-1.33-.72-9.34-4.78-12.17-2.83Z"/><path class="cls-6" d="M203.09,127.49a44.74,44.74,0,0,0,5.38,9.22,36,36,0,0,0,8.41,8.12S203.32,129.39,203.09,127.49Z"/><path class="cls-6" d="M198.56,111.39s2.3,10,8.26,13.37Z"/><path class="cls-6" d="M195,112.4c-.06-.19-2,7.89,7.68,12.36C202.69,124.76,198.56,123.35,195,112.4Z"/><path class="cls-6" d="M255.52,105.7c-.15,0,4.81,3.16,6.15,4.61C261.67,110.33,258.44,105.5,255.52,105.7Z"/><path class="cls-18" d="M221.58,93.36a2.09,2.09,0,0,0,.72,1.33,1.82,1.82,0,0,0,.86.21c2.78.18,5.67.3,8.25-.84a3.06,3.06,0,0,0,1.25-.89,5.7,5.7,0,0,0,.73-2.16,31.37,31.37,0,0,1,1.69-4.17,15,15,0,0,0,.9-7.48,5.32,5.32,0,0,0-.7-2.19c-.74-1.13-2.08-1.59-3.06-2.49s-1.6-2.28-2.74-3a5,5,0,0,0-3.44-.33,17.38,17.38,0,0,0-6.43,2.6,3,3,0,0,1-2.15.78,2.94,2.94,0,0,1-1.57-1.3,9.75,9.75,0,0,0-.69,4.28,2,2,0,0,1,0,.64,1.9,1.9,0,0,1-.42.68c-.69.86-1.12,2.21-.44,3.08.29.38.75.58,1,1a4.21,4.21,0,0,1,.33,2.56,1.4,1.4,0,0,0,.2.87,1.14,1.14,0,0,0,1.12.29,2.92,2.92,0,0,1,1.2-.13,2.07,2.07,0,0,1,1,.87A15.91,15.91,0,0,1,221.58,93.36Z"/><g class="cls-26"><path class="cls-22" d="M239.41,97.62a4.18,4.18,0,0,1-1.68,1.12c-3.45,1.43-7.32,1.27-11,1a2.54,2.54,0,0,1-1.15-.25,2.57,2.57,0,0,1-.95-1.65c-.73-2.64-1.4-5-3.12-7.23a2.64,2.64,0,0,0-1.4-1.08,4,4,0,0,0-1.6.16,1.3,1.3,0,0,1-1.78-1.45c0-1.1.24-2.33-.44-3.19-.39-.48-1-.74-1.4-1.2a2.44,2.44,0,0,1-.23-2.46,2.79,2.79,0,0,0-.17,3.27c.38.48,1,.73,1.38,1.21.69.86.46,2.09.45,3.19a1.62,1.62,0,0,0,.26,1.09,1.59,1.59,0,0,0,1.51.36,4.23,4.23,0,0,1,1.61-.16,2.68,2.68,0,0,1,1.4,1.08c1.72,2.19,2.39,4.61,3.11,7.23a2.58,2.58,0,0,0,1,1.65,2.69,2.69,0,0,0,1.15.26c3.73.23,7.6.38,11-1A4.15,4.15,0,0,0,239,98.44a3.26,3.26,0,0,0,.53-1Z"/><path class="cls-22" d="M215.63,79.81a1.73,1.73,0,0,0,.38-.62,2.15,2.15,0,0,0,0-.8,11.42,11.42,0,0,1,.57-4.42l-.06-.08a11.29,11.29,0,0,0-.92,5.32A3,3,0,0,1,215.63,79.81Z"/></g><path class="cls-6" d="M222,106.22s15.27,2,16.64-.27"/><path class="cls-6" d="M251.68,99.9s8.49,0,10.35,3.19"/></g></g></svg>