<svg xmlns="http://www.w3.org/2000/svg" xmlns:xlink="http://www.w3.org/1999/xlink" viewBox="0 0 329.22 57.74"><defs><style>.cls-1{isolation:isolate;}.cls-2{fill:url(#linear-gradient);}.cls-3{opacity:0.51;fill:url(#linear-gradient-2);}.cls-3,.cls-4,.cls-5{mix-blend-mode:screen;}.cls-4{opacity:0.7;fill:url(#linear-gradient-3);}.cls-5{opacity:0.49;}.cls-6{fill:#fff;}.cls-7{fill:none;stroke:#b89116;stroke-miterlimit:1;stroke-width:0.59px;}.cls-8{opacity:0.58;}.cls-9{fill:#775f27;}</style><linearGradient id="linear-gradient" x1="164.61" y1="57.45" x2="164.61" y2="0.29" gradientUnits="userSpaceOnUse"><stop offset="0" stop-color="#af881d"/><stop offset="0.62" stop-color="#8d6f27"/><stop offset="0.63" stop-color="#a18023"/><stop offset="0.98" stop-color="#967926"/></linearGradient><linearGradient id="linear-gradient-2" x1="164.61" y1="57.45" x2="164.61" y2="0.29" gradientUnits="userSpaceOnUse"><stop offset="0" stop-color="#876c28"/><stop offset="0.5" stop-color="#665123"/><stop offset="0.53" stop-color="#6a5524"/><stop offset="0.66" stop-color="#7a6226"/><stop offset="0.8" stop-color="#846a28"/><stop offset="1" stop-color="#876c28"/></linearGradient><linearGradient id="linear-gradient-3" x1="164.61" y1="0.29" x2="164.61" y2="57.45" gradientUnits="userSpaceOnUse"><stop offset="0" stop-color="#fff" stop-opacity="0.77"/><stop offset="0.2" stop-color="#fff" stop-opacity="0.65"/><stop offset="0.34" stop-color="#fff" stop-opacity="0.65"/><stop offset="0.35" stop-color="#fff" stop-opacity="0.65"/><stop offset="0.37" stop-color="#fff" stop-opacity="0.62"/><stop offset="0.4" stop-color="#fff" stop-opacity="0.53"/><stop offset="0.43" stop-color="#fff" stop-opacity="0.39"/><stop offset="0.47" stop-color="#fff" stop-opacity="0.2"/><stop offset="0.51" stop-color="#fff" stop-opacity="0"/><stop offset="0.55" stop-color="#c1bbad" stop-opacity="0.06"/><stop offset="0.67" stop-color="#6c5f3e" stop-opacity="0.14"/><stop offset="1" stop-color="#55451f" stop-opacity="0.16"/></linearGradient></defs><title>5</title><g class="cls-1"><g id="レイヤー_2" data-name="レイヤー 2"><g id="レイヤー_1-2" data-name="レイヤー 1"><rect class="cls-2" x="0.29" y="0.29" width="328.63" height="57.15" rx="11.28"/><rect class="cls-3" x="0.29" y="0.29" width="328.63" height="57.15" rx="11.28"/><rect class="cls-4" x="0.29" y="0.29" width="328.63" height="57.15" rx="11.28"/><g class="cls-5"><path class="cls-6" d="M11.57,56.73A11.06,11.06,0,0,1,.65,46.1c-.07-2.13,0-4.28,0-6.41V15.86c0-2.39-.22-4.93.52-7.25A11.06,11.06,0,0,1,11.6,1c1.15,0,2.3,0,3.45,0H317c6.1,0,11.41,4.31,11.59,10.66s0,12.67,0,19V42.1c0,2.57.21,5.2-.74,7.65-1.86,4.8-6.41,7-11.28,7h-305v.73H317.2A11.17,11.17,0,0,0,328.57,46.1c0-6.34,0-12.68,0-19,0-5.42.24-10.9,0-16.32C328.27,4.38,322.91.28,316.83.28h-303a15.86,15.86,0,0,0-6.6.91A11.2,11.2,0,0,0,.64,11.67c0,2.31,0,4.61,0,6.91V42.31c0,1.55-.06,3.12,0,4.67A11.07,11.07,0,0,0,11.57,57.46S11.58,56.73,11.57,56.73Z"/></g><rect class="cls-7" x="0.29" y="0.29" width="328.63" height="57.15" rx="11.28"/><g class="cls-8"><path class="cls-9" d="M317.64,57.39H12.42C6.8,57.39,1.67,54.12.51,48.33a37.65,37.65,0,0,1-.22-7.2v-24a59.49,59.49,0,0,1,.08-6.81C1.1,4.13,6.44.35,12.35.35H306.27c3.79,0,7.58-.06,11.37,0a11.41,11.41,0,0,1,11.17,9.72,49.6,49.6,0,0,1,.11,6.79v24c0,1.76,0,3.52,0,5.28a11.43,11.43,0,0,1-11.28,11.23v.12A11.41,11.41,0,0,0,328.9,46.9c.1-1.61,0-3.24,0-4.85V18.13c0-2.17,0-4.35,0-6.52a11.44,11.44,0,0,0-7-10.53,16.38,16.38,0,0,0-6.54-.85H12.28C6,.23.58,4.56.3,11.07c-.23,5.48,0,11,0,16.49,0,6.19-.1,12.4,0,18.59A11.49,11.49,0,0,0,12,57.51c5.12,0,10.24,0,15.36,0H317.64Z"/></g></g></g></g></svg>