<svg xmlns="http://www.w3.org/2000/svg" viewBox="0 0 242.46 241.85"><defs><style>.cls-1{fill:#f2f2f2;}.cls-2{fill:#3e3c55;}.cls-3{fill:#040000;opacity:0.1;isolation:isolate;}.cls-4{fill:#f5b5b5;}.cls-5{fill:#555785;}.cls-6{fill:#2e2d40;}.cls-7{fill:#cfd7ea;}.cls-8{fill:#4c4c56;}.cls-9{fill:#dee5f4;}.cls-10{fill:#fff;}</style></defs><title>meetingday1_1</title><g id="レイヤー_2" data-name="レイヤー 2"><g id="レイヤー_1-2" data-name="レイヤー 1"><path class="cls-1" d="M237.39,89.82c-13-51.28-58.1-88.29-111-89.77C98.45-.74,69,8.53,47.61,41,9.31,99,50,139.07,78.3,158.12a177.22,177.22,0,0,1,36.64,32.94c19.15,22.71,56,50.94,99.82,6.71C246.55,165.72,246.08,124,237.39,89.82Z"/><ellipse class="cls-2" cx="118.08" cy="226.94" rx="118.08" ry="14.91"/><ellipse class="cls-3" cx="118.08" cy="224.16" rx="104.83" ry="10.46"/><rect class="cls-2" x="60.17" y="135.69" width="6.15" height="93.54"/><polygon class="cls-2" points="114.94 133.23 114.94 135.69 14.63 136.92 14.63 134.46 14.77 134.37 32.48 122.77 106.94 122.77 114.94 133.23"/><path class="cls-4" d="M97.1,118.46s-22.16,1.84-14.77,7.38,14.77-3.69,14.77-3.69Z"/><polygon class="cls-3" points="114.94 133.3 114.94 135.69 14.63 136.92 14.63 134.46 14.77 134.37 114.94 133.3"/><path class="cls-5" d="M130.33,88.3l.54-2s-7.31,13.1-7.92,14.33-11.08,11.69-12.31,13.54a12.52,12.52,0,0,1-3.08,3.08H95.87s-2.46,8,1.23,8.61,15.38,3.08,17.84,3.08,17.85-14.15,17.85-14.15Z"/><polygon class="cls-2" points="132.79 177.54 129.1 229.23 132.79 229.23 137.1 176.31 132.79 177.54"/><polygon class="cls-2" points="177.72 171.38 174.03 223.08 177.72 223.08 182.03 170.15 177.72 171.38"/><polygon class="cls-2" points="184.49 177.54 180.79 229.23 184.49 229.23 188.79 176.31 184.49 177.54"/><polygon class="cls-2" points="127.25 172.62 123.56 224.31 127.25 224.31 131.56 171.38 127.25 172.62"/><polygon class="cls-2" points="198.64 106.77 188.18 181.85 126.02 179.38 126.44 172.46 127.25 159.08 175.26 161.54 183.26 106.77 198.64 106.77"/><path class="cls-3" d="M198.64,106.77l-10.46,75.08L126,179.38l.42-6.92c13,.49,56.82-2.31,56.82-2.31,0-9.82,8.62-48.27,12.11-63.38Z"/><path class="cls-4" d="M89.71,197.85S87.87,212,84.17,214.46,99.56,220,99.56,220l1.23-18.46Z"/><path class="cls-4" d="M151.87,204s3.08,3.69,3.69,6.16,9.85,3.69,9.85,3.69l6.77-7.39s-8.62-7.38-11.08-7.38S151.87,204,151.87,204Z"/><circle class="cls-4" cx="135.56" cy="62.15" r="14.77"/><path class="cls-4" d="M131.56,72.3s7.39,14.16,6.16,16.62,16-11.69,16-11.69-6.16-9.85-6.16-12.93S131.56,72.3,131.56,72.3Z"/><path class="cls-6" d="M138.33,144.92s-47.39-7.38-49.23,9.85S80.48,194.15,79.87,196s20.3,12.31,22.77,8.62,6.77-33.24,5.54-35.7-1.85-5.54.61-4.92,29.54,6.15,35.08,4.31,19.69-26.47,19.69-26.47Z"/><path class="cls-3" d="M138.33,144.92s-47.39-7.38-49.23,9.85S80.48,194.15,79.87,196s20.3,12.31,22.77,8.62,6.77-33.24,5.54-35.7-1.85-5.54.61-4.92,29.54,6.15,35.08,4.31,19.69-26.47,19.69-26.47Z"/><path class="cls-6" d="M137.1,141.23,139,156.61s-29.54,11.08-18.47,28.93,23.39,27.69,23.39,27.69,19.69-11.07,19.69-14.15-24-20.31-20.92-20.31,47.39-2.46,38.15-27.08S137.1,141.23,137.1,141.23Z"/><path class="cls-6" d="M89.1,215.08s-4.93-5.54-4.93-4.31S70,219.39,67.56,220s-6.16,1.85-1.23,3.7,36.31,2.46,36.31,1.23,1.23-12.93-1.23-11.7S89.71,217.54,89.1,215.08Z"/><path class="cls-6" d="M161.72,210.77s-6.77-1.85-7.39,0-1.23,9.23-6.77,11.69-7.38,6.16,0,6.77,27.7-13.54,27.7-16-2.47-9.84-3.7-9.23S167.26,210.16,161.72,210.77Z"/><rect class="cls-2" x="49.1" y="218.77" width="28.31" height="11.08"/><path class="cls-5" d="M153.72,73.53s-2.31-6.16-6.39-2.46S135.25,84,135.25,84s-4.92,1.84-6.77,4.92-1.84,23.38,1.85,30.15,3.69,18.47,4.92,21.54,0,6.16,4.31,6.16-2.46-4.93,11.69,0,30.16,11.08,31.39,6.77-1.85-6.77,0-8.62,0-2.46-1.23-6.77-2.46-4.92-3.08-10.46,0-11.08-1.23-13.54-1.23-6.15-1.23-12.31-3.69-18.46-10.46-22.15S153.72,73.53,153.72,73.53Z"/><path class="cls-6" d="M121.14,45.72c3.43-3.34,7-6.8,11.6-8.26,6.1-2,12.89.1,18.14,3.76a9.34,9.34,0,0,1,2.92,2.88,10.54,10.54,0,0,1,1,3.63,57.32,57.32,0,0,1,.93,13.32,23,23,0,0,1-4.39,12.43,25.59,25.59,0,0,1-5.47-9A7.12,7.12,0,0,0,144.69,62a2.07,2.07,0,0,0-2.53-.56c-1.1.7-1,2.59-2.12,3.19a2,2,0,0,1-1.27.13c-3-.52-4.07-4.22-6-6.57-2.9-3.47-7-3.25-10.92-4.25C117.21,52.73,118.35,48.45,121.14,45.72Z"/><path class="cls-4" d="M118.36,123.79S98,118.38,96.3,123s17.41,9,17.41,9h8Z"/><path class="cls-5" d="M161.1,83.38s-9.23,6.77-11.69,16.62-4.31,20.3-4.31,20.3L116.79,124s-2.46,9.84,1.23,10.46,31.39,2.46,35.7,0,19.07-33.23,18.46-36.31S170.33,84,161.1,83.38Z"/><path class="cls-7" d="M50.77,127.14l10,.8L75,127l-.24,0-13.21-1.27c-3-1.11-.93-7.66-.93-7.66l-10.12.52-.8,0C46.15,127,50.77,127.14,50.77,127.14Z"/><path class="cls-3" d="M50.77,127.14l10,.8L75,127l-.24,0-14.42.52-9.66-1.05c-2.74-.72-1.17-5.48-.18-7.88l-.8,0C46.15,127,50.77,127.14,50.77,127.14Z"/><path class="cls-8" d="M34.2,67.39l3,43.42v5.24c.09,1.32.71,3.61,2,3.6l2.46-2.1H85.86c.76,0-1.79-1.12-1.87-1.87l3.1-1.62L83.85,82.22A2.67,2.67,0,0,0,82.08,80L38.19,64.78a4.15,4.15,0,0,0-4,.46C33.57,65.78,34.13,66.3,34.2,67.39Z"/><path class="cls-9" d="M36.32,111.57l.4,5.76a2.5,2.5,0,0,0,2.51,2.32h.93l46.05-.28a1.29,1.29,0,0,0,1.28-1.3V118l-.4-3.89Z"/><ellipse class="cls-10" cx="67.19" cy="116.34" rx="0.62" ry="1.23"/><path class="cls-7" d="M44.65,128.58s-12.59-4.75-16-1.29c0,0-.55,1,1.73,1.29l9.23.74S43.42,129.69,44.65,128.58Z"/><path class="cls-9" d="M44.32,127.35c-2.48-1-9.92-3.63-14.69-.74,0,0,5.27-.58,8.17,1.09s6.85.88,6.85.88l.06-.1a.8.8,0,0,0-.3-1.09Z"/><path class="cls-9" d="M33.27,67.69l3.45,49.64a2.5,2.5,0,0,0,2.51,2.32h.93a9.05,9.05,0,0,1-1.61-2.08S35.16,67.7,34.91,66.46a2.51,2.51,0,0,0-.68-1.22A2.79,2.79,0,0,0,33.27,67.69Z"/><path class="cls-3" d="M33.27,67.69l3.45,49.64a2.5,2.5,0,0,0,2.51,2.32h.93a9.05,9.05,0,0,1-1.61-2.08S35.16,67.7,34.91,66.46a2.51,2.51,0,0,0-.68-1.22A2.79,2.79,0,0,0,33.27,67.69Z"/></g></g></svg>