<svg xmlns="http://www.w3.org/2000/svg" xmlns:xlink="http://www.w3.org/1999/xlink" viewBox="0 0 385.39 236.44"><defs><style>.cls-1,.cls-22{fill:#cdac70;}.cls-1,.cls-10,.cls-14,.cls-9{opacity:0.1;}.cls-1,.cls-10,.cls-6,.cls-9{isolation:isolate;}.cls-10,.cls-2{fill:#fff;}.cls-3{fill:#cfcfda;}.cls-4{fill:url(#名称未設定グラデーション_2);}.cls-5{fill:#94b0dc;}.cls-15,.cls-6,.cls-9{fill:#040000;}.cls-6{opacity:0.05;}.cls-7{fill:#5e536d;}.cls-8{fill:#cbcbd6;}.cls-11{fill:#b96c92;}.cls-12{fill:#49477c;}.cls-13{fill:#61335c;}.cls-16{fill:url(#名称未設定グラデーション_2-2);}.cls-17{fill:#ada2b1;}.cls-18{fill:#f6c0cc;}.cls-19{fill:#555784;}.cls-20{fill:#aa7378;}.cls-21{fill:none;}.cls-23{fill:#d2ddea;}.cls-24{fill:#444052;}</style><linearGradient id="名称未設定グラデーション_2" x1="244.39" y1="-5052.86" x2="244.39" y2="-4878.15" gradientTransform="matrix(1, 0, 0, -1, -19.44, -4824.28)" gradientUnits="userSpaceOnUse"><stop offset="0" stop-color="#7f8080" stop-opacity="0.25"/><stop offset="0.54" stop-color="#7f8080" stop-opacity="0.12"/><stop offset="1" stop-color="#7f8080" stop-opacity="0.1"/></linearGradient><linearGradient id="名称未設定グラデーション_2-2" x1="118.97" y1="-5053.06" x2="118.97" y2="-4869.18" xlink:href="#名称未設定グラデーション_2"/></defs><title>meetingday2_1</title><g id="レイヤー_2" data-name="レイヤー 2"><g id="レイヤー_1-2" data-name="レイヤー 1"><path class="cls-1" d="M385.33,58.34c0,.5-.07,1-.11,1.48a42.41,42.41,0,0,1-3.11,12.49c-5.59,13.28-16.75,23.38-28.68,31.49l-.75.51c-2.16,1.45-4.36,2.85-6.56,4.22l-.18.11-.13.08-.4.25-1,.59-.53.33-2.42,1.47-2.14,1.29h0l-4,2.44c-4.5,2.71-9,5.45-13.31,8.42l-.67.46c-.33.22-.62.44-.93.67q-2.44,1.71-4.8,3.54c-.31.23-.62.48-.93.72a43.51,43.51,0,0,0-8.4,8.59,20.33,20.33,0,0,0-3.7,9.16c-.67,5.31,1.16,10.43,3.7,15.44,1.64,3.21,3.59,6.38,5.37,9.54.58,1,1.15,2.06,1.66,3.09a42.63,42.63,0,0,1,2.48,5.62c1.42,4.12,1.83,8.25.2,12.46-1.79,4.62-5.41,7.57-9.72,10-2.33,1.27-4.83,2.38-7.36,3.5a72.65,72.65,0,0,0-10.51,5.27c-.21.13-.41.26-.6.4-.42.28-.83.58-1.23.88h0c-.66.51-1.3,1-1.92,1.6-.36.33-.72.68-1.07,1s-.56.55-.83.84c-.53.55-1,1.11-1.54,1.69l-.4.45c-.36.45-.73.88-1.09,1.31s-.93,1.15-1.39,1.73q-1,1.24-2,2.49c-.19.24-.38.47-.56.71-1.09,1.33-2.17,2.66-3.32,3.89l-.14.14a23.89,23.89,0,0,1-9.55,6.71c-9.17,3.19-18.25-1.56-27.07-6.63h0l-.24-.15-.11-.06h0l-.76-.44-.35-.21-2.7-1.56-.21-.12c-1.27-.72-2.52-1.42-3.77-2.08-.75-.4-1.51-.78-2.28-1.15a66.26,66.26,0,0,0-7.83-3.14,67.65,67.65,0,0,0-10.71-2.58c-1.47-.23-3-.42-4.45-.55-1-.09-1.94-.16-2.91-.2a68.34,68.34,0,0,0-23.26,2.83c-1,.31-2,.66-3.06,1l-.55.2c-.94.33-1.87.71-2.78,1.1l-.33.13h0l0,0c-4.73,2-9.3,4.62-14,6.65-.42.18-.83.36-1.26.53a36.93,36.93,0,0,1-9.15,2.54,34,34,0,0,1-9.76-.24,69,69,0,0,1-8.61-2h0l-.17-.06-.79-.23-.36-.1-.46-.15c-6.64-2-13.29-4.44-20.14-5.1l-1-.08a42.33,42.33,0,0,0-6.37,0c-6.36.5-12.69,2.22-19,4l-.39.11-1,.3-.74.21-1.43.42-.34.09h0c-10.37,3-20.64,5.54-30.78,2.58A36.75,36.75,0,0,1,31.49,225a65.72,65.72,0,0,1-7.36-6.69C22,216.06,20,213.72,18,211.4c-6.59-7.76-13.1-16-16-25.75A49.92,49.92,0,0,1,.2,175.06c-.15-2.18-.2-4.37-.2-6.56,0-1.46,0-2.91.06-4.37L.15,161v-.5c0-.49,0-1,.05-1.48q.42-13.74.85-27.49c.19-6.11.39-12.31,2.28-18.12.21-.67.45-1.33.71-2,.2-.5.4-1,.62-1.48,4.19-9.43,12.28-17.18,19.46-25.1a95.83,95.83,0,0,0,7.36-9c3.42-4.9,5.9-10.1,6.45-16,0-.49.08-1,.1-1.48s0-1,0-1.52c-.18-8.5-4.71-16.66-6.56-24.84a24.22,24.22,0,0,1-.28-11c.08-.35.18-.7.28-1C34.7,8.89,47.32,3.1,58.83,1.22,70.78-.72,83-.16,94.89,1.56c.78.11,1.57.23,2.35.36,2.47.4,4.92.88,7.36,1.39,5.92,1.24,11.78,2.69,17.73,3.9,7.61,1.55,14.51.07,22.11-1q5.82-.81,11.7-1.13c3.26-.18,6.53-.25,9.79-.19a137.3,137.3,0,0,1,38.8,6.16c8.45,2.63,16.77,6.1,25.35,8A56,56,0,0,0,239,20.34l.71,0c20.33.91,39-11.24,59.19-13.51l.68-.08a62.12,62.12,0,0,1,6.68-.33c18.81.09,37.05,8.18,54.33,16.16,5.27,2.43,10.62,4.93,14.9,8.84C382.86,38.18,385.9,48.3,385.33,58.34Z"/><path class="cls-1" d="M206.75,159V111.36h13.12l-.33-.31-.09-.08-.19-.17-.25-.21-.21-.16-.23-.18-.37-.28-.09-.07H206.75v-2.6l-.31.16-.33.21s0,0,0,0l-.07,0-.21.15-.2.15c-.2.15-.4.33-.6.49l-.19.17-.39.35c-.51.48-1,1-1.54,1.44a3,3,0,0,1-.4.33,9.56,9.56,0,0,1-.87.67,3,3,0,0,1-.38.24l-.22.11-.19.1h0a7.51,7.51,0,0,1-1.44.52V159h-19.7a.83.83,0,0,0,0,.15c.1.44.21.88.33,1.33H199.4v51h.3l.33,0,.63.05,1,.12a3.47,3.47,0,0,1,.45.06l.54.08h.07l.88.15.19,0,.42.08.62.12h0l1.47-.05h0l.2.05.25.05V160.46h30.42v-.22l.12-1.21v0Zm45.5,0h-1.32v1.48h1.51Zm-14.93,0s0,0,0,0l-.12,1.21v.22h11.44v-.08l.81-1.39ZM31.21,21a24.22,24.22,0,0,0,.27,11V19.9Q31.33,20.41,31.21,21Zm188.32,90.1c0-.37-.05-.76-.07-1.17h-3.17c0,.07,0,.13,0,.19,0,.23.07.44.11.67l.06.45,0,.17h3Zm-24.41,48.72h0l-.36-.21c.36-.22.71-.41,1.05-.59H125.08a2.26,2.26,0,0,0,.13.33c0,.06.06.13.09.2l.12.24c0,.08.14.26.22.39s.13.21.19.33h70.41C195.76,160.14,195.38,159.92,195.12,159.77Zm-90.54-36,0,.09v-.11Zm0-7.14a1.5,1.5,0,0,1-.37.34,3.43,3.43,0,0,1,.35.44l0,.11-.06.14,0,.07-.08.12,0,0a.83.83,0,0,1-.11.15l-.08.07a.64.64,0,0,1-.15.13l0,0h0l0,0,0,0a8.36,8.36,0,0,1,.69,1v-2.77l-.08.1Zm90,42.32H184.32c2.72,1,7.07.66,10,.25l.56-.09Zm22.12,1.47a.39.39,0,0,0-.08-.1l-.07-.08a1.4,1.4,0,0,1-.27-.33l-.13-.2c-.08-.15-.17-.31-.25-.49,0,0,0,0,0-.06l-.09-.22h-9v-47.6h9.76l0-.17-.06-.46c0-.21-.06-.42-.1-.66a1.08,1.08,0,0,0,0-.19h-9.55V73.25h-.16l-.16,0-.11,0-.15.06-.1,0-.85.41-1.44.65-.29.12-.36.13-.71.27-.48.16-.87.24-.43.1-.43.08-.43.07-.39,0v34.17H104.62V68l-.2.12c-1.19.67-2.74.54-3.77,1.42-1.33,1.12-1.09,3.19-.64,4.85l.12.43a.7.7,0,0,0,0,.14h0a.12.12,0,0,0,0,.1c0,.08,0,.16,0,.23l0,.19,0,.12v.07a.88.88,0,0,1,0,.16,1.53,1.53,0,0,1,0,.3v0a3,3,0,0,1-2,2.62,3.17,3.17,0,0,1-1.06.12v31h-6l.13,1.47h5.93V159H86.59c0,.24-.08.49-.14.75l-.09.33-.12.4h11v10h1.13l.7,0h.3l1.13-.06.44,0,.29,0,.4,0h.26l.21,0h.08l.59.09.32,0,.17,0,.5.06h.07l.77.1V160.44h94.77v2.17l.81.63.4.34c.48.4,1,.83,1.42,1.26l.38.37.45.48.06.06.35.39.24.28.4.5.36.5c.11.18.23.34.33.52a5.26,5.26,0,0,1,.33.63h.7l.07.13a1,1,0,0,1,.07.15,6.48,6.48,0,0,1,.25.64l.07.25c0,.09,0,.18.07.26a2,2,0,0,0,0,.24l0,.22a1.37,1.37,0,0,1,0,.19v.18a2.62,2.62,0,0,1,0,.56,3.72,3.72,0,0,0,.48-.11V160.44h10ZM104.62,159V111.36h94.77V159Zm91.18,0H183.24c.31.12.58.25.8.36,2.61,1.33,7.4,1,10.52.52l.56-.08-.36-.21C195.12,159.34,195.46,159.15,195.8,159ZM43.6,159c.31.5.64,1,1,1.47H86.24c0-.13.09-.27.12-.4s.06-.21.09-.33.1-.5.14-.75Zm151,0H184.32c2.72,1,7.07.66,10,.25l.56-.09Zm-151,0c.31.5.64,1,1,1.47H86.24c0-.13.09-.27.12-.4s.06-.21.09-.33.1-.5.14-.75Zm173.1,1.47a.39.39,0,0,0-.08-.1l-.07-.08a1.4,1.4,0,0,1-.27-.33l-.13-.2c-.08-.15-.17-.31-.25-.49,0,0,0,0,0-.06l-.09-.22h-9v-47.6h9.76l0-.17-.06-.46c0-.21-.06-.42-.1-.66a1.08,1.08,0,0,0,0-.19h-9.55V73.25h-.16l-.16,0-.11,0-.15.06-.1,0-.85.41-1.44.65-.29.12-.36.13-.71.27-.48.16-.87.24-.43.1-.43.08-.43.07-.39,0v34.17H104.62V68l-.2.12c-1.19.67-2.74.54-3.77,1.42-1.33,1.12-1.09,3.19-.64,4.85l.12.43a.7.7,0,0,0,0,.14h0a.17.17,0,0,0,0,.1c0,.08,0,.16,0,.23l0,.19,0,.12a.25.25,0,0,0,0,.12v.11a1.51,1.51,0,0,1,0,.3v0a3,3,0,0,1-2,2.62,3.12,3.12,0,0,1-1,.12v31h-6l.13,1.47h5.93V159H86.59c0,.24-.08.49-.14.75l-.09.33-.12.4h11v10h1.13l.7,0h.3l1.13-.06.44,0,.29,0,.4,0h.26l.21,0h.08l.59.09.32,0,.17,0,.5.06h.07l.77.1V160.44h22.24a17,17,0,0,1-.94-1.47H104.61V111.36h94.78V159H195.8c-.33.18-.68.37-1,.59l.36.21h0c.26.15.64.37,1.11.66h3.15v2.17l.81.63.41.34c.48.4,1,.83,1.42,1.26l.37.37c.16.16.31.34.46.48l.06.06.35.39.24.28c.13.17.27.33.39.5s.25.33.36.5.23.34.34.52a5.26,5.26,0,0,1,.33.63h.7l.06.13.08.15c.09.22.17.43.24.64a2.41,2.41,0,0,1,.08.25c0,.09,0,.18.07.26a2,2,0,0,0,0,.24c0,.07,0,.15,0,.22a1.37,1.37,0,0,1,0,.19v.18a5.23,5.23,0,0,1,0,.56,3.23,3.23,0,0,0,.47-.11V160.44h10ZM194.58,159H184.32c2.72,1,7.07.66,10,.25l.56-.09Zm24.95-47.92c0-.37-.05-.76-.07-1.17h-3.17c0,.07,0,.13,0,.19,0,.23.07.44.11.67l.06.45,0,.17h3ZM43.61,159c.31.5.63,1,1,1.47H86.24c0-.13.09-.27.12-.4s.06-.21.09-.33.1-.5.14-.75Zm173.1,1.47-.08-.1a.6.6,0,0,0-.08-.08,2.16,2.16,0,0,1-.27-.33l-.12-.2c-.08-.15-.17-.31-.26-.49,0,0,0,0,0-.06a1.9,1.9,0,0,1-.09-.22h-9v-47.6h9.76l0-.17-.06-.46c0-.21-.06-.42-.1-.66a1.08,1.08,0,0,0,0-.19h-9.55V73.25h-.16l-.16,0-.11,0-.15.06-.1,0-.85.41-1.44.65-.29.12-.36.13-.71.27-.48.16-.87.24-.43.1-.43.08-.43.07-.39,0v34.17H104.62V68l-.2.12c-1.19.67-2.74.54-3.77,1.42-1.33,1.12-1.09,3.19-.64,4.85l.12.43a.7.7,0,0,0,0,.14h0a.45.45,0,0,0,0,.11,1.55,1.55,0,0,1,0,.23l0,.19,0,.12a.23.23,0,0,0,0,.11v.11c0,.1,0,.2,0,.3v0a3,3,0,0,1-2,2.61,2.68,2.68,0,0,1-1,.12v31h-6l.13,1.47h5.93V159H86.59c0,.24-.08.49-.14.75l-.09.33-.12.4h11v10h1.13l.7,0h.3l1.13-.06.44,0,.29,0,.4,0h.26l.21,0h.08l.59.09.32,0,.17,0,.5.06h.07l.77.1V160.44h22.24a17,17,0,0,1-.94-1.47H104.61V111.36h94.78V159H195.8c-.33.18-.68.37-1,.59l.36.21h0c.26.15.64.37,1.11.66h3.15v2.17l.81.63.41.34c.48.4,1,.83,1.42,1.26l.37.37c.16.16.31.34.46.48l.06.06.35.39.24.28c.13.17.27.33.39.5s.25.33.36.5.23.34.34.52a5.26,5.26,0,0,1,.33.63h.7l.06.13.08.15c.09.22.17.43.24.64a2.41,2.41,0,0,1,.08.25c0,.09,0,.18.07.26a2,2,0,0,0,0,.24c0,.07,0,.15,0,.22a1.37,1.37,0,0,1,0,.19v.18a5.23,5.23,0,0,1,0,.56,3.23,3.23,0,0,0,.47-.11V160.44h10Zm2.82-49.39c0-.37-.05-.76-.06-1.17h-3.18c0,.07,0,.13,0,.19,0,.23.07.44.11.67l.06.45,0,.17h3ZM43.61,159c.31.5.64,1,1,1.47H86.24c0-.13.09-.27.12-.4s.06-.21.09-.33.1-.5.14-.75Zm173.1,1.47a.36.36,0,0,0-.07-.1l-.08-.08a2.16,2.16,0,0,1-.27-.33l-.13-.2-.25-.49s0,0,0-.06a1.64,1.64,0,0,1-.1-.22h-9v-47.6h9.76l0-.17-.06-.46c0-.21-.06-.42-.1-.66a1.08,1.08,0,0,0,0-.19h-9.55V73.25h-.16l-.16,0-.11,0-.15.06-.1,0-.85.41-1.44.65-.29.12-.36.13-.71.27-.48.16-.87.24-.43.1-.43.08-.43.07-.39,0v34.17H104.62V68l-.2.12c-1.19.67-2.74.54-3.77,1.42-1.33,1.12-1.09,3.19-.64,4.85l.12.43a.7.7,0,0,0,0,.14h0a.45.45,0,0,0,0,.11,1.55,1.55,0,0,1,0,.23l0,.19,0,.12a.23.23,0,0,0,0,.11v.11c0,.1,0,.2,0,.3v0a3,3,0,0,1-2,2.61,2.68,2.68,0,0,1-1,.12v31h-6l.13,1.47h5.93V159H86.59c0,.24-.08.49-.14.75l-.09.33-.12.4h11v10h1.13l.7,0h.3l1.13-.06.44,0,.29,0,.4,0h.26l.21,0h.08l.59.09.32,0,.17,0,.5.06h.07l.77.1V160.44h22.24a17,17,0,0,1-.94-1.47H104.61V111.36h94.78V159H195.8c-.33.18-.68.37-1,.59l.36.21h0c.26.15.64.37,1.11.66h3.15v2.17l.81.63.41.34c.48.4,1,.83,1.42,1.26l.37.37c.16.16.31.34.46.48l.06.06.35.39.24.28c.13.17.27.33.39.5s.25.33.36.5.23.34.34.52a5.26,5.26,0,0,1,.33.63h.7l.06.13.08.15c.09.22.17.43.24.64a2.41,2.41,0,0,1,.08.25c0,.09,0,.18.07.26a2,2,0,0,0,0,.24c0,.07,0,.15,0,.22a1.37,1.37,0,0,1,0,.19v.18a5.23,5.23,0,0,1,0,.56,3.23,3.23,0,0,0,.47-.11V160.44h10Zm2.83-49.39c0-.37,0-.76-.07-1.17h-3.18c0,.07,0,.13,0,.19,0,.23.07.44.11.67l.06.45,0,.17h3ZM43.62,159c.31.5.64,1,1,1.47H86.24c0-.13.09-.27.12-.4s.06-.21.09-.33.1-.5.14-.75Zm173.1,1.47a.39.39,0,0,0-.08-.1l-.07-.08a1.4,1.4,0,0,1-.27-.33l-.13-.2c-.08-.15-.17-.31-.25-.49,0,0,0,0,0-.06l-.09-.22h-9v-47.6h9.76l0-.17-.06-.46c0-.21-.06-.42-.1-.66a1.08,1.08,0,0,0,0-.19h-9.55V73.25h-.16l-.16,0-.11,0-.15.06-.1,0-.85.41-1.44.65-.29.12-.36.13-.71.27-.48.16-.87.24-.43.1-.43.08-.43.07-.39,0v34.17H104.62V68l-.2.12c-1.19.67-2.74.54-3.77,1.42-1.33,1.12-1.09,3.19-.64,4.85l.12.43a.7.7,0,0,0,0,.14h0a.45.45,0,0,0,0,.11,1.55,1.55,0,0,1,0,.23l0,.19,0,.12a.23.23,0,0,0,0,.11v.11c0,.1,0,.2,0,.3v0a3,3,0,0,1-2,2.61,2.68,2.68,0,0,1-1,.12v31h-6l.13,1.47h5.93V159H86.59c0,.24-.08.49-.14.75l-.09.33-.12.4h11v10h1.13l.7,0h.3l1.13-.06.44,0,.29,0,.4,0h.26l.21,0h.08l.59.09.32,0,.17,0,.5.06h.07l.77.1V160.44h22.24a17,17,0,0,1-.94-1.47H104.61V111.36h94.78V159H195.8c-.33.18-.68.37-1,.59l.36.21h0c.26.15.64.37,1.11.66h3.15v2.17l.81.63.41.34c.48.4,1,.83,1.42,1.26l.37.37c.16.16.31.34.46.48l.06.06.35.39.24.28c.13.17.27.33.39.5s.25.33.36.5.23.34.34.52a5.26,5.26,0,0,1,.33.63h.7l.06.13.08.15c.09.22.17.43.24.64a2.41,2.41,0,0,1,.08.25c0,.09,0,.18.07.26a2,2,0,0,0,0,.24c0,.07,0,.15,0,.22a1.37,1.37,0,0,1,0,.19v.18a5.23,5.23,0,0,1,0,.56,3.23,3.23,0,0,0,.47-.11V160.44h10Zm2.83-49.39c0-.37-.05-.76-.07-1.17h-3.19c0,.07,0,.13,0,.19,0,.23.07.44.11.67l.06.45,0,.17h3ZM43.63,159c.31.5.63,1,1,1.47H86.24c0-.13.09-.27.12-.4s.06-.21.09-.33.1-.5.14-.75Zm173.1,1.47-.08-.1-.08-.08a2.16,2.16,0,0,1-.27-.33l-.12-.2c-.08-.15-.17-.31-.26-.49,0,0,0,0,0-.06a1.9,1.9,0,0,1-.09-.22h-9.05v-47.6h9.76l0-.17-.06-.46c0-.21-.06-.42-.1-.66a1.08,1.08,0,0,0,0-.19h-9.55V73.25h-.16l-.16,0-.11,0-.15.06-.1,0-.85.41-1.44.65-.29.12-.36.13-.71.27-.48.16-.87.24-.43.1-.43.08-.43.07-.39,0v34.17H104.62V68l-.2.12c-1.19.67-2.74.54-3.77,1.42-1.33,1.12-1.09,3.19-.64,4.85l.12.43a.7.7,0,0,0,0,.14h0a.45.45,0,0,0,0,.11,1.55,1.55,0,0,1,0,.23l0,.19,0,.12a.23.23,0,0,0,0,.11v.11c0,.1,0,.2,0,.3v0a3,3,0,0,1-2,2.61,2.68,2.68,0,0,1-1,.12v31h-6l.13,1.47h5.93V159H86.59c0,.24-.08.49-.14.75l-.09.33-.12.4h11v10h1.13l.7,0h.3l1.13-.06.44,0,.29,0,.4,0h.26l.21,0h.08l.59.09.32,0,.17,0,.5.06h.07l.77.1V160.44h22.24a17,17,0,0,1-.94-1.47H104.61V111.36h94.78V159H195.8c-.33.18-.68.37-1,.59l.36.21h0c.26.15.64.37,1.11.66h3.15v2.17l.81.63.41.34c.48.4,1,.83,1.42,1.26l.37.37c.16.16.31.34.46.48l.06.06.35.39.24.28c.13.17.27.33.39.5s.25.33.36.5.23.34.34.52a5.26,5.26,0,0,1,.33.63h.7l.06.13.08.15c.09.22.17.43.24.64a2.41,2.41,0,0,1,.08.25c0,.09,0,.18.07.26a2,2,0,0,0,0,.24c0,.07,0,.15,0,.22a1.37,1.37,0,0,1,0,.19v.18a5.23,5.23,0,0,1,0,.56,3.23,3.23,0,0,0,.47-.11V160.44h10Zm2.82-49.39c0-.37-.05-.76-.06-1.17h-3.2c0,.07,0,.13,0,.19,0,.23.07.44.11.67l.06.45,0,.17h3ZM43.63,159c.31.5.64,1,1,1.47H86.24c0-.13.09-.27.12-.4s.06-.21.09-.33.1-.5.14-.75Zm173.1,1.47a.36.36,0,0,0-.07-.1l-.08-.08a2.16,2.16,0,0,1-.27-.33l-.13-.2-.25-.49s0,0,0-.06a1.64,1.64,0,0,1-.1-.22h-9.05v-47.6h9.76l0-.17-.06-.46c0-.21-.06-.42-.1-.66a1.08,1.08,0,0,0,0-.19h-9.55V73.25h-.16l-.16,0-.11,0-.15.06-.1,0-.85.41-1.44.65-.29.12-.36.13-.71.27-.48.16-.87.24-.43.1-.43.08-.43.07-.39,0v34.17H104.62V68l-.2.12c-1.19.67-2.74.54-3.77,1.42-1.33,1.12-1.09,3.19-.64,4.85l.12.43a.7.7,0,0,0,0,.14h0a.45.45,0,0,0,0,.11,1.55,1.55,0,0,1,0,.23l0,.19,0,.12a.23.23,0,0,0,0,.11v.11c0,.1,0,.2,0,.3v0a3,3,0,0,1-2,2.61,2.68,2.68,0,0,1-1,.12v31h-6l.13,1.47h5.93V159H86.59c0,.24-.08.49-.14.75l-.09.33-.12.4h11v10h1.13l.7,0h.3l1.13-.06.44,0,.29,0,.4,0h.26l.21,0h.08l.59.09.32,0,.17,0,.5.06h.07l.77.1V160.44h22.24a17,17,0,0,1-.94-1.47H104.61V111.36h94.78V159H195.8c-.33.18-.68.37-1,.59l.36.21h0c.26.15.64.37,1.11.66h3.15v2.17l.81.63.41.34c.48.4,1,.83,1.42,1.26l.37.37c.16.16.31.34.46.48l.06.06.35.39.24.28c.13.17.27.33.39.5s.25.33.36.5.23.34.34.52a5.26,5.26,0,0,1,.33.63h.7l.06.13.08.15c.09.22.17.43.24.64a2.41,2.41,0,0,1,.08.25c0,.09,0,.18.07.26a2,2,0,0,0,0,.24c0,.07,0,.15,0,.22a1.37,1.37,0,0,1,0,.19v.18a5.23,5.23,0,0,1,0,.56,3.23,3.23,0,0,0,.47-.11V160.44h10Zm2.83-49.39c0-.37-.05-.76-.07-1.17h-3.2c0,.07,0,.13,0,.19,0,.23.07.44.11.67l.06.45,0,.17h3ZM43.64,159c.31.5.64,1,1,1.47H86.24c0-.13.09-.27.12-.4s.06-.21.09-.33.1-.5.14-.75Zm173.1,1.47a.39.39,0,0,0-.08-.1l-.07-.08a1.4,1.4,0,0,1-.27-.33l-.13-.2c-.08-.15-.17-.31-.25-.49,0,0,0,0,0-.06l-.09-.22h-9.06v-47.6h9.76l0-.17-.06-.46c0-.21-.06-.42-.1-.66a1.08,1.08,0,0,0,0-.19h-9.55V73.25h-.16l-.16,0-.11,0-.15.06-.1,0-.85.41-1.44.65-.29.12-.36.13-.71.27-.48.16-.87.24-.43.1-.43.08-.43.07-.39,0v34.17H104.62V68l-.2.12c-1.19.67-2.74.54-3.77,1.42-1.33,1.12-1.09,3.19-.64,4.85l.12.43a.7.7,0,0,0,0,.14h0a.45.45,0,0,0,0,.11,1.55,1.55,0,0,1,0,.23l0,.19,0,.12a.23.23,0,0,0,0,.11v.11c0,.1,0,.2,0,.3v0a3,3,0,0,1-2,2.61,2.68,2.68,0,0,1-1,.12v31h-6l.13,1.47h5.93V159H86.59c0,.24-.08.49-.14.75l-.09.33-.12.4h11v10h1.13l.7,0h.3l1.13-.06.44,0,.29,0,.4,0h.26l.21,0h.08l.59.09.32,0,.17,0,.5.06h.07l.77.1V160.44h22.24a17,17,0,0,1-.94-1.47H104.61V111.36h94.78V159H195.8c-.33.18-.68.37-1,.59l.36.21h0c.26.15.64.37,1.11.66h3.15v2.17l.81.63.41.34c.48.4,1,.83,1.42,1.26l.37.37c.16.16.31.34.46.48l.06.06.35.39.24.28c.13.17.27.33.39.5s.25.33.36.5.23.34.34.52a5.26,5.26,0,0,1,.33.63h.7l.06.13.08.15c.09.22.17.43.24.64a2.41,2.41,0,0,1,.08.25c0,.09,0,.18.07.26a2,2,0,0,0,0,.24c0,.07,0,.15,0,.22a1.37,1.37,0,0,1,0,.19v.18a5.23,5.23,0,0,1,0,.56,3.23,3.23,0,0,0,.47-.11V160.44h10Zm2.83-49.39c0-.37,0-.76-.07-1.17h-3.21c0,.07,0,.13,0,.19,0,.23.07.44.11.67l.06.45,0,.17h3ZM43.65,159c.31.5.63,1,1,1.47H86.24c0-.13.09-.27.12-.4s.06-.21.09-.33.1-.5.14-.75Zm173.1,1.47-.08-.1a.6.6,0,0,0-.08-.08,2.16,2.16,0,0,1-.27-.33l-.12-.2c-.08-.15-.17-.31-.26-.49,0,0,0,0,0-.06s-.07-.14-.1-.22h-9.06v-47.6h9.76l0-.17-.06-.46c0-.21-.06-.42-.1-.66a1.08,1.08,0,0,0,0-.19h-9.55V73.25h-.16l-.16,0-.11,0-.15.06-.1,0-.85.41-1.44.65-.29.12c-.1,0-.24.1-.36.13l-.71.27-.48.16-.87.24-.43.1-.43.08-.43.07-.39,0v34.17H104.62V68l-.2.12c-1.19.67-2.74.54-3.77,1.42-1.33,1.12-1.09,3.19-.64,4.85l.12.43a.89.89,0,0,1,0,.14h0a.45.45,0,0,0,0,.11,1.55,1.55,0,0,1,0,.23l0,.19,0,.12a.23.23,0,0,0,0,.11v.11c0,.1,0,.2,0,.3v0a3,3,0,0,1-2,2.61,2.68,2.68,0,0,1-1,.12v31h-6l.13,1.47h5.93V159H86.59c0,.24-.08.49-.14.75l-.09.33-.12.4h11v10h1.13l.7,0h.3l1.13-.06.44,0,.29,0,.4,0h.26l.21,0h.08l.59.09.32,0,.17,0,.5.06h.07l.77.1V160.44h22.24a17,17,0,0,1-.94-1.47H104.61V111.36h94.78V159H195.8c-.33.18-.68.37-1,.59l.36.21h0c.26.15.64.37,1.11.66h3.15v2.17l.81.63.41.34c.48.4,1,.83,1.42,1.26l.37.37c.12.13.31.34.46.48l.06.06.35.39.24.28c.13.17.27.33.39.5s.25.33.36.5.23.34.34.52a5.26,5.26,0,0,1,.33.63h.7l.06.13.08.15c.09.22.17.43.24.64a2.41,2.41,0,0,1,.08.25c0,.09,0,.18.07.26a2,2,0,0,0,0,.24,1.7,1.7,0,0,1,0,.22,1.37,1.37,0,0,1,0,.19v.18a5.23,5.23,0,0,1,0,.56,3.23,3.23,0,0,0,.47-.11V160.44h10Zm2.82-49.39c0-.37,0-.76-.06-1.17h-3.22c0,.07,0,.13,0,.19,0,.23.07.44.11.67l.06.45,0,.17h3Zm86.71-52.71V6.48a62.12,62.12,0,0,0-6.68.33l-.68.07V58.34h-90l-.22-.27.33-.43h0l1.47-1.83L212,54h0l27-33.65A57.07,57.07,0,0,1,230.09,19L206.73,48.11v-35c-2.45-.48-4.91-1-7.36-1.6v35L166,4.87c-3.26-.06-6.53,0-9.79.19l41.28,51.38,1.07,1.33.23.29-.23.28H104.62v-55c-2.44-.51-4.89-1-7.36-1.39V58.33H38q0,.75-.09,1.47H97.26v50.08H31.48V75.79a95.72,95.72,0,0,1-7.35,9v25.1H4.66c-.21.49-.42,1-.61,1.48H24.13V159H.21c0,.49,0,1,0,1.47h24v57.83A66.42,66.42,0,0,0,31.48,225V160.44H97.26V223.6a42.33,42.33,0,0,1,6.37,0l1,.08V160.44h94.77v56.09c1,.05,1.94.12,2.9.21,1.49.13,3,.31,4.46.55V160.44h92.16v45.81c2.53-1.12,5-2.23,7.36-3.51V162.07c-2.55-5-4.37-10.11-3.71-15.43a20.23,20.23,0,0,1,3.71-9.16V111.36h35.22l2.43-1.48H306.28V59.82h78.93c0-.49.08-1,.11-1.48Zm-7.37,1.48v50.06H206.75V61.16l.07-.07L208,59.82Zm-194.31,0h94.79v50.06H104.62ZM31.48,159V111.36H97.26V159Zm73.14,0V111.36h94.77V159Zm102.13,0V111.36h92.16V159Zm12.78-47.92c0-.37-.05-.76-.07-1.17h-3.17c0,.07,0,.13,0,.19,0,.23.07.44.11.67l.06.45,0,.17h3Zm-2.83,49.39a.39.39,0,0,0-.08-.1l-.07-.08a1.4,1.4,0,0,1-.27-.33l-.13-.2c-.08-.15-.17-.31-.25-.49,0,0,0,0,0-.06l-.09-.22h-9v-47.6h9.76l0-.17-.06-.46c0-.21-.06-.42-.1-.66a1.08,1.08,0,0,0,0-.19h-9.55V73.25h-.16l-.16,0-.11,0-.15.06-.1,0-.85.41-1.44.65-.29.12-.36.13-.71.27-.48.16-.87.24-.43.1-.43.08-.43.07-.39,0v34.17H104.62V68l-.2.12c-1.19.67-2.74.54-3.77,1.42-1.33,1.12-1.09,3.19-.64,4.85l.12.43a.7.7,0,0,0,0,.14h0a.45.45,0,0,0,0,.11,1.55,1.55,0,0,1,0,.23l0,.19,0,.12a.23.23,0,0,0,0,.11v.11c0,.1,0,.2,0,.3v0a3,3,0,0,1-2,2.61,2.68,2.68,0,0,1-1,.12v31h-6l.13,1.47h5.93V159H86.59c0,.24-.08.49-.14.75l-.09.33-.12.4h11v10h1.13l.7,0h.3l1.13-.06.44,0,.29,0,.4,0h.26l.21,0h.08l.59.09.32,0,.17,0,.5.06h.07l.77.1V160.44h22.24a17,17,0,0,1-.94-1.47H104.61V111.36h94.78V159H195.8c-.33.18-.68.37-1,.59l.36.21h0c.26.15.64.37,1.11.66h3.15v2.17l.81.63.41.34c.48.4,1,.83,1.42,1.26l.37.37c.16.16.31.34.46.48l.06.06.35.39.24.28c.13.17.27.33.39.5s.25.33.36.5.23.34.34.52a5.26,5.26,0,0,1,.33.63h.7l.06.13.08.15c.09.22.17.43.24.64a2.41,2.41,0,0,1,.08.25c0,.09,0,.18.07.26a2,2,0,0,0,0,.24c0,.07,0,.15,0,.22a1.37,1.37,0,0,1,0,.19v.18a5.23,5.23,0,0,1,0,.56,3.23,3.23,0,0,0,.47-.11V160.44h10ZM43.6,159c.31.5.64,1,1,1.47H86.24c0-.13.09-.27.12-.4s.06-.21.09-.33.1-.5.14-.75Zm175.92-47.92c0-.37-.05-.76-.07-1.17h-3.16c0,.07,0,.13,0,.19,0,.23.07.44.11.67l.06.45,0,.17h3Zm-2.83,49.39a.36.36,0,0,0-.07-.1l-.08-.08a2.16,2.16,0,0,1-.27-.33l-.13-.2-.25-.49s0,0,0-.06a1.64,1.64,0,0,1-.1-.22h-9v-47.6h9.76l0-.17-.06-.46c0-.21-.06-.42-.1-.66a1.08,1.08,0,0,0,0-.19h-9.55V73.25h-.16l-.16,0-.11,0-.15.06-.1,0-.85.41-1.44.65-.29.12-.36.13-.71.27-.48.16-.87.24-.43.1-.43.08-.43.07-.39,0v34.17H104.62V68l-.2.12c-1.19.67-2.74.54-3.77,1.42-1.33,1.12-1.09,3.19-.64,4.85l.12.43a.7.7,0,0,0,0,.14h0a.45.45,0,0,0,0,.11,1.55,1.55,0,0,1,0,.23l0,.19,0,.12a.23.23,0,0,0,0,.11v.11c0,.1,0,.2,0,.3v0a3,3,0,0,1-2,2.61,2.68,2.68,0,0,1-1,.12v31h-6l.13,1.47h5.93V159H86.59c0,.24-.08.49-.14.75l-.09.33-.12.4h11v10h1.13l.7,0h.3l1.13-.06.44,0,.29,0,.4,0h.26l.21,0h.08l.59.09.32,0,.17,0,.5.06h.07l.77.1V160.44h22.24a17,17,0,0,1-.94-1.47H104.61V111.36h94.78V159H195.8c-.33.18-.68.37-1,.59l.36.21h0c.26.15.64.37,1.11.66h3.15v2.17l.81.63.41.34c.48.4,1,.83,1.42,1.26l.37.37c.16.16.31.34.46.48l.06.06.35.39.24.28c.13.17.27.33.39.5s.25.33.36.5.23.34.34.52a5.26,5.26,0,0,1,.33.63h.7l.06.13.08.15c.09.22.17.43.24.64a2.41,2.41,0,0,1,.08.25c0,.09,0,.18.07.26a2,2,0,0,0,0,.24c0,.07,0,.15,0,.22a1.37,1.37,0,0,1,0,.19v.18a5.23,5.23,0,0,1,0,.56,3.23,3.23,0,0,0,.47-.11V160.44h10ZM43.6,159c.31.5.64,1,1,1.47H86.24c0-.13.09-.27.12-.4s.06-.21.09-.33.1-.5.14-.75Zm175.92-47.92c0-.37-.05-.76-.07-1.17h-3.16c0,.07,0,.13,0,.19,0,.23.07.44.11.67l.06.45,0,.17h3Zm-2.83,49.39a.36.36,0,0,0-.07-.1l-.08-.08a2.16,2.16,0,0,1-.27-.33l-.13-.2-.25-.49s0,0,0-.06a1.64,1.64,0,0,1-.1-.22h-9v-47.6h9.76l0-.17-.06-.46c0-.21-.06-.42-.1-.66a1.08,1.08,0,0,0,0-.19h-9.55V73.25h-.16l-.16,0-.11,0-.15.06-.1,0-.85.41-1.44.65-.29.12-.36.13-.71.27-.48.16-.87.24-.43.1-.43.08-.43.07-.39,0v34.17H104.62V68l-.2.12c-1.19.67-2.74.54-3.77,1.42-1.33,1.12-1.09,3.19-.64,4.85l.12.43a.7.7,0,0,0,0,.14h0a.45.45,0,0,0,0,.11,1.55,1.55,0,0,1,0,.23l0,.19,0,.12a.23.23,0,0,0,0,.11v.11c0,.1,0,.2,0,.3v0a3,3,0,0,1-2,2.61,2.68,2.68,0,0,1-1,.12v31h-6l.13,1.47h5.93V159H86.59c0,.24-.08.49-.14.75l-.09.33-.12.4h11v10h1.13l.7,0h.3l1.13-.06.44,0,.29,0,.4,0h.26l.21,0h.08l.59.09.32,0,.17,0,.5.06h.07l.77.1V160.44h22.24a17,17,0,0,1-.94-1.47H104.61V111.36h94.78V159H195.8c-.33.18-.68.37-1,.59l.36.21h0c.26.15.64.37,1.11.66h3.15v2.17l.81.63.41.34c.48.4,1,.83,1.42,1.26l.37.37c.16.16.31.34.46.48l.06.06.35.39.24.28c.13.17.27.33.39.5s.25.33.36.5.23.34.34.52a5.26,5.26,0,0,1,.33.63h.7l.06.13.08.15c.09.22.17.43.24.64a2.41,2.41,0,0,1,.08.25c0,.09,0,.18.07.26a2,2,0,0,0,0,.24c0,.07,0,.15,0,.22a1.37,1.37,0,0,1,0,.19v.18a5.23,5.23,0,0,1,0,.56,3.23,3.23,0,0,0,.47-.11V160.44h10ZM43.6,159c.31.5.64,1,1,1.47H86.24c0-.13.09-.27.12-.4s.06-.21.09-.33.1-.5.14-.75Zm175.92-47.92c0-.37-.05-.76-.07-1.17h-3.16c0,.07,0,.13,0,.19,0,.23.07.44.11.67l.06.45,0,.17h3Zm-2.83,49.39a.36.36,0,0,0-.07-.1l-.08-.08a2.16,2.16,0,0,1-.27-.33l-.13-.2-.25-.49s0,0,0-.06a1.64,1.64,0,0,1-.1-.22h-9v-47.6h9.76l0-.17-.06-.46c0-.21-.06-.42-.1-.66a1.08,1.08,0,0,0,0-.19h-9.55V73.25h-.16l-.16,0-.11,0-.15.06-.1,0-.85.41-1.44.65-.29.12-.36.13-.71.27-.48.16-.87.24-.43.1-.43.08-.43.07-.39,0v34.17H104.62V68l-.2.12c-1.19.67-2.74.54-3.77,1.42-1.33,1.12-1.09,3.19-.64,4.85l.12.43a.7.7,0,0,0,0,.14h0a.45.45,0,0,0,0,.11,1.55,1.55,0,0,1,0,.23l0,.19,0,.12a.23.23,0,0,0,0,.11v.11c0,.1,0,.2,0,.3v0a3,3,0,0,1-2,2.61,2.68,2.68,0,0,1-1,.12v31h-6l.13,1.47h5.93V159H86.59c0,.24-.08.49-.14.75l-.09.33-.12.4h11v10h1.13l.7,0h.3l1.13-.06.44,0,.29,0,.4,0h.26l.21,0h.08l.59.09.32,0,.17,0,.5.06h.07l.77.1V160.44h22.24a17,17,0,0,1-.94-1.47H104.61V111.36h94.78V159H195.8c-.33.18-.68.37-1,.59l.36.21h0c.26.15.64.37,1.11.66h3.15v2.17l.81.63.41.34c.48.4,1,.83,1.42,1.26l.37.37c.16.16.31.34.46.48l.06.06.35.39.24.28c.13.17.27.33.39.5s.25.33.36.5.23.34.34.52a5.26,5.26,0,0,1,.33.63h.7l.06.13.08.15c.09.22.17.43.24.64a2.41,2.41,0,0,1,.08.25c0,.09,0,.18.07.26a2,2,0,0,0,0,.24c0,.07,0,.15,0,.22a1.37,1.37,0,0,1,0,.19v.18a5.23,5.23,0,0,1,0,.56,3.23,3.23,0,0,0,.47-.11V160.44h10ZM43.6,159c.31.5.64,1,1,1.47H86.24c0-.13.09-.27.12-.4s.06-.21.09-.33.1-.5.14-.75Zm175.92-47.92c0-.37-.05-.76-.07-1.17h-3.16c0,.07,0,.13,0,.19,0,.23.07.44.11.67l.06.45,0,.17h3Zm-2.83,49.39a.36.36,0,0,0-.07-.1l-.08-.08a2.16,2.16,0,0,1-.27-.33l-.13-.2-.25-.49s0,0,0-.06a1.64,1.64,0,0,1-.1-.22h-9v-47.6h9.76l0-.17-.06-.46c0-.21-.06-.42-.1-.66a1.08,1.08,0,0,0,0-.19h-9.55V73.25h-.16l-.16,0-.11,0-.15.06-.1,0-.85.41-1.44.65-.29.12-.36.13-.71.27-.48.16-.87.24-.43.1-.43.08-.43.07-.39,0v34.17H104.62V68l-.2.12c-1.19.67-2.74.54-3.77,1.42-1.33,1.12-1.09,3.19-.64,4.85l.12.43a.7.7,0,0,0,0,.14h0a.45.45,0,0,0,0,.11,1.55,1.55,0,0,1,0,.23l0,.19,0,.12a.23.23,0,0,0,0,.11v.11c0,.1,0,.2,0,.3v0a3,3,0,0,1-2,2.61,2.68,2.68,0,0,1-1,.12v31h-6l.13,1.47h5.93V159H86.59c0,.24-.08.49-.14.75l-.09.33-.12.4h11v10h1.13l.7,0h.3l1.13-.06.44,0,.29,0,.4,0h.26l.21,0h.08l.59.09.32,0,.17,0,.5.06h.07l.77.1V160.44h22.24a17,17,0,0,1-.94-1.47H104.61V111.36h94.78V159H195.8c-.33.18-.68.37-1,.59l.36.21h0c.26.15.64.37,1.11.66h3.15v2.17l.81.63.41.34c.48.4,1,.83,1.42,1.26l.37.37c.16.16.31.34.46.48l.06.06.35.39.24.28c.13.17.27.33.39.5s.25.33.36.5.23.34.34.52a5.26,5.26,0,0,1,.33.63h.7l.06.13.08.15c.09.22.17.43.24.64a2.41,2.41,0,0,1,.08.25c0,.09,0,.18.07.26a2,2,0,0,0,0,.24c0,.07,0,.15,0,.22a1.37,1.37,0,0,1,0,.19v.18a5.23,5.23,0,0,1,0,.56,3.23,3.23,0,0,0,.47-.11V160.44h10ZM43.6,159c.31.5.64,1,1,1.47H86.24c0-.13.09-.27.12-.4s.06-.21.09-.33.1-.5.14-.75Zm175.92-47.92c0-.37-.05-.76-.07-1.17h-3.16c0,.07,0,.13,0,.19,0,.23.07.44.11.67l.06.45,0,.17h3Zm-2.83,49.39a.36.36,0,0,0-.07-.1l-.08-.08a2.16,2.16,0,0,1-.27-.33l-.13-.2-.25-.49s0,0,0-.06a1.64,1.64,0,0,1-.1-.22h-9v-47.6h9.76l0-.17-.06-.46c0-.21-.06-.42-.1-.66a1.08,1.08,0,0,0,0-.19h-9.55V73.25h-.16l-.16,0-.11,0-.15.06-.1,0-.85.41-1.44.65-.29.12-.36.13-.71.27-.48.16-.87.24-.43.1-.43.08-.43.07-.39,0v34.17H104.62V68l-.2.12c-1.19.67-2.74.54-3.77,1.42-1.33,1.12-1.09,3.19-.64,4.85l.12.43a.7.7,0,0,0,0,.14h0a.45.45,0,0,0,0,.11,1.55,1.55,0,0,1,0,.23l0,.19,0,.12a.23.23,0,0,0,0,.11v.11c0,.1,0,.2,0,.3v0a3,3,0,0,1-2,2.61,2.68,2.68,0,0,1-1,.12v31h-6l.13,1.47h5.93V159H86.59c0,.24-.08.49-.14.75l-.09.33-.12.4h11v10h1.13l.7,0h.3l1.13-.06.44,0,.29,0,.4,0h.26l.21,0h.08l.59.09.32,0,.17,0,.5.06h.07l.77.1V160.44h22.24a17,17,0,0,1-.94-1.47H104.61V111.36h94.78V159H195.8c-.33.18-.68.37-1,.59l.36.21h0c.26.15.64.37,1.11.66h3.15v2.17l.81.63.41.34c.48.4,1,.83,1.42,1.26l.37.37c.16.16.31.34.46.48l.06.06.35.39.24.28c.13.17.27.33.39.5s.25.33.36.5.23.34.34.52a5.26,5.26,0,0,1,.33.63h.7l.06.13.08.15c.09.22.17.43.24.64a2.41,2.41,0,0,1,.08.25c0,.09,0,.18.07.26a2,2,0,0,0,0,.24c0,.07,0,.15,0,.22a1.37,1.37,0,0,1,0,.19v.18a5.23,5.23,0,0,1,0,.56,3.23,3.23,0,0,0,.47-.11V160.44h10ZM43.6,159c.31.5.64,1,1,1.47H86.24c0-.13.09-.27.12-.4s.06-.21.09-.33.1-.5.14-.75Zm175.92-47.92c0-.37-.05-.76-.07-1.17h-3.16c0,.07,0,.13,0,.19,0,.23.07.44.11.67l.06.45,0,.17h3Zm-2.83,49.39a.36.36,0,0,0-.07-.1l-.08-.08a2.16,2.16,0,0,1-.27-.33l-.13-.2-.25-.49s0,0,0-.06a1.64,1.64,0,0,1-.1-.22h-9v-47.6h9.76l0-.17-.06-.46c0-.21-.06-.42-.1-.66a1.08,1.08,0,0,0,0-.19h-9.55V73.25h-.16l-.16,0-.11,0-.15.06-.1,0-.85.41-1.44.65-.29.12-.36.13-.71.27-.48.16-.87.24-.43.1-.43.08-.43.07-.39,0v34.17H104.62V68l-.2.12c-1.19.67-2.74.54-3.77,1.42-1.33,1.12-1.09,3.19-.64,4.85l.12.43a.7.7,0,0,0,0,.14h0a.45.45,0,0,0,0,.11,1.55,1.55,0,0,1,0,.23l0,.19,0,.12a.23.23,0,0,0,0,.11v.11c0,.1,0,.2,0,.3v0a3,3,0,0,1-2,2.61,2.68,2.68,0,0,1-1,.12v31h-6l.13,1.47h5.93V159H86.59c0,.24-.08.49-.14.75l-.09.33-.12.4h11v10h1.13l.7,0h.3l1.13-.06.44,0,.29,0,.4,0h.26l.21,0h.08l.59.09.32,0,.17,0,.5.06h.07l.77.1V160.44h22.24a17,17,0,0,1-.94-1.47H104.61V111.36h94.78V159H195.8c-.33.18-.68.37-1,.59l.36.21h0c.26.15.64.37,1.11.66h3.15v2.17l.81.63.41.34c.48.4,1,.83,1.42,1.26l.37.37c.16.16.31.34.46.48l.06.06.35.39.24.28c.13.17.27.33.39.5s.25.33.36.5.23.34.34.52a5.26,5.26,0,0,1,.33.63h.7l.06.13.08.15c.09.22.17.43.24.64a2.41,2.41,0,0,1,.08.25c0,.09,0,.18.07.26a2,2,0,0,0,0,.24c0,.07,0,.15,0,.22a1.37,1.37,0,0,1,0,.19v.18a5.23,5.23,0,0,1,0,.56,3.23,3.23,0,0,0,.47-.11V160.44h10ZM43.6,159c.31.5.64,1,1,1.47H86.24c0-.13.09-.27.12-.4s.06-.21.09-.33.1-.5.14-.75Zm175.92-47.92c0-.37-.05-.76-.07-1.17h-3.16c0,.07,0,.13,0,.19,0,.23.07.44.11.67l.06.45,0,.17h3Zm-2.83,49.39a.36.36,0,0,0-.07-.1l-.08-.08a2.16,2.16,0,0,1-.27-.33l-.13-.2-.25-.49s0,0,0-.06a1.64,1.64,0,0,1-.1-.22h-9v-47.6h9.76l0-.17-.06-.46c0-.21-.06-.42-.1-.66a1.08,1.08,0,0,0,0-.19h-9.55V73.25h-.16l-.16,0-.11,0-.15.06-.1,0-.85.41-1.44.65-.29.12-.36.13-.71.27-.48.16-.87.24-.43.1-.43.08-.43.07-.39,0v34.17H104.62V68l-.2.12c-1.19.67-2.74.54-3.77,1.42-1.33,1.12-1.09,3.19-.64,4.85l.12.43a.7.7,0,0,0,0,.14h0a.12.12,0,0,0,0,.1c0,.08,0,.16,0,.23l0,.19,0,.12a.25.25,0,0,0,0,.12v.11a1.51,1.51,0,0,1,0,.3v0a3,3,0,0,1-2,2.62,3.12,3.12,0,0,1-1,.12v31h-6l.13,1.47h5.93V159H86.59c0,.24-.08.49-.14.75l-.09.33-.12.4h11v10h1.13l.7,0h.3l1.13-.06.44,0,.29,0,.4,0h.26l.21,0h.08l.59.09.32,0,.17,0,.5.06h.07l.77.1V160.44h22.24a17,17,0,0,1-.94-1.47H104.61V111.36h94.78V159H183.24c.31.12.58.25.8.36,2.61,1.33,7.4,1,10.52.52l.56-.08h0c.26.15.64.37,1.11.66h3.15v2.17c.27.2.55.42.81.64l.41.33c.48.4,1,.83,1.42,1.26l.37.37c.16.16.31.34.46.48l.06.06.35.39.24.28c.13.17.27.33.39.5s.25.33.36.5.23.34.34.52a5.26,5.26,0,0,1,.33.63h.7l.06.13.08.15c.09.22.17.43.24.64a2.41,2.41,0,0,1,.08.25c0,.09,0,.18.07.26a2,2,0,0,0,0,.24c0,.07,0,.15,0,.22a1.37,1.37,0,0,1,0,.19v.18a5.23,5.23,0,0,1,0,.56,3.23,3.23,0,0,0,.47-.11V160.44h10ZM43.6,159c.31.5.64,1,1,1.47H86.24c0-.13.09-.27.12-.4s.06-.21.09-.33.1-.5.14-.75Zm152.2,0H183.24c.31.12.58.25.8.36,2.61,1.33,7.4,1,10.52.52l.56-.08-.36-.21C195.12,159.34,195.46,159.15,195.8,159Zm11,0V111.36h13.12l-.33-.31-.09-.08-.19-.17-.25-.21-.21-.16-.23-.18-.37-.28-.09-.07H206.75v-2.6l-.31.16-.33.21s0,0,0,0l-.07,0-.21.15-.2.15c-.2.15-.4.33-.6.49l-.19.17-.39.35c-.51.48-1,1-1.54,1.44a3,3,0,0,1-.4.33,9.56,9.56,0,0,1-.87.67,3,3,0,0,1-.38.24l-.22.11-.19.1h0a7.51,7.51,0,0,1-1.44.52V159h-19.7a.83.83,0,0,0,0,.15c.1.44.21.88.33,1.33h19.33v51h.31l.33,0,.63.05,1,.12a3.62,3.62,0,0,1,.46.06l.54.08h.07l.88.15.19,0,.42.08.62.12h0l1.47-.05h0l.2.05.25.05V160.46h29.61c0-.49.1-1,.14-1.47Zm29.75,0c0,.49-.1,1-.14,1.47h12.72L250,159Zm15.75,0h-1.32v1.48h1.5Zm-45.5,0V111.36h13.12l-.33-.31-.09-.08-.19-.17-.25-.21-.21-.16-.23-.18-.37-.28-.09-.07H206.75v-2.6l-.31.16-.33.21s0,0,0,0l-.07,0-.21.15-.2.15c-.2.15-.4.33-.6.49l-.19.17-.39.35c-.51.48-1,1-1.54,1.44a3,3,0,0,1-.4.33,9.56,9.56,0,0,1-.87.67,3,3,0,0,1-.38.24l-.22.11-.19.1h0a7.51,7.51,0,0,1-1.44.52V159h-19.7a.83.83,0,0,0,0,.15c.1.44.21.88.33,1.33H199.4v51h.3l.33,0,.63.05,1,.12a3.47,3.47,0,0,1,.45.06l.54.08h.07l.88.15.19,0,.42.08.62.12h0l1.47-.05h0l.2.05.25.05V160.46h30.42v-.22l.12-1.21v0Zm30.57,0v0l-.12,1.21a.21.21,0,0,1,0,.11v.11h11.44v-.08l.82-1.39Zm14.94,0h-1.33v1.48h1.5Z"/><path class="cls-2" d="M315.8,180.33l-9.52-.16-7.37-.13-15.07-.25h-.67l-12.68-.21h0l-25.35-.44-13.75-.23-1.72,0H229l-1.29,0H227l-7.13-.15-4.09-.07-1.09,0h-.47l-7.49-.12-7.36-.12-59.28-1h-.81L116.84,177l-1.41,0h0l-10.79-.18-7.35-.12-6.64-.11h-.57l-26.2-.44h0l-8.7-.18-23.7-.4-2.4,0h0l-4.93-.08L.2,175c-.15-2.18-.2-4.37-.2-6.56,0-1.46,0-2.91.06-4.37l24.07.53,4.65.1h.08l2.63.06,11.06.24,5.93.13,35.19.76,2.46,0,11.14.25,1.39,0,2.47.05,3.25.07h.25l10.56.23,15.09.33.94,0,36.08.79h.6l31.5.68,4.84.11h1.41l1.11,0,1.39,0h0l6.22.13h.69l2,0h.81l.77,0,4.31.1,15.41.33h.7l1,0,42.45.92h.64l15.76.33,6.58.15.78.11,5.37.75c.58,1,1.15,2.06,1.66,3.09A42.82,42.82,0,0,1,315.8,180.33Z"/><path class="cls-3" d="M315.8,180.33l-9.52-.16-7.37-.13-15.07-.25h-.67l-12.68-.21h0l-25.35-.44-13.75-.23-1.72,0H229l-1.29,0H227l-7.13-.15-4.09-.07-1.09,0h-.47l-7.49-.12-7.36-.12-59.28-1h-.81L116.84,177l-1.41,0h0l-10.79-.18-7.35-.12-6.64-.11h-.57l-26.2-.44h0l-8.7-.18-23.7-.4-2.4,0h0l-4.93-.08L.2,175c-.15-2.18-.2-4.37-.2-6.56l24.13.48,5,.1h.08l2.3,0,14,.28,7.89.16,13.33.26,13.21.27h0l7.59.15h.16l8.33.16h.31l1,0,7.36.15h.15l3.81.07,1.3,0,2.38,0h0l21.65.43h.87l64.6,1.29,7.36.15,6.28.12h.83l5.14.1,1,0h.76l15.52.31h.69l1.09,0,18.45.37h0l20.2.4h0l5.7.11h.54l16,.33,7.36.15,7,.14A41.9,41.9,0,0,1,315.8,180.33Z"/><path class="cls-4" d="M288.41,211.52c-.2.12-.4.26-.6.39-.42.29-.83.58-1.23.88h0c-.66.51-1.3,1.05-1.91,1.6-.37.34-.73.68-1.08,1s-.56.56-.83.85c-.52.54-1,1.11-1.54,1.68l-.39.46c-.37.44-.73.88-1.1,1.3l-1.39,1.73c-.67.83-1.33,1.66-2,2.49-.2.24-.38.48-.57.72-1.08,1.32-2.17,2.65-3.32,3.88l-29,.06h-8l-.11-.07h0l-.76-.43-.35-.21-2.7-1.56-.21-.13c-1.27-.72-2.52-1.42-3.77-2.08q-1.12-.6-2.28-1.14a63,63,0,0,0-7.83-3.14,67.65,67.65,0,0,0-10.71-2.58c-1.47-.24-3-.42-4.45-.55q-1.45-.13-2.91-.21a68.59,68.59,0,0,0-23.26,2.83c-1,.31-2,.67-3.06,1l-.55.2c0-.17.07-.33.1-.51a8.7,8.7,0,0,1,3-4.05c.66-8.13,7.46-14.61,7.46-14.61l16.11-7,.19-.13a39.05,39.05,0,0,1,7.36-4,5.45,5.45,0,0,1,.69-.2c2.94-.59,5.53-2.94,7.63-4.22.92-.57,1.09-2.59,1-4.7a2.58,2.58,0,0,0,0-.49l-.48,0-.09-.24-.12-.33-.06-.17h-.44q-.29-.73-.51-1.41a27.29,27.29,0,0,1-1.08-4,.4.4,0,0,1,0-.15,11,11,0,0,1-.19-1.81,6.22,6.22,0,0,1,.08-1.36,3.63,3.63,0,0,1,.13-.57l-.3,0h0l-.8.07-.24,0-.11.07-5,.44-.48.05-.25,0v-.07l-.46.05-.25,0a4.89,4.89,0,0,0,.09-.53l-.52.05-.19,0a39.36,39.36,0,0,1-5.32-.07,152.57,152.57,0,0,1-15.24-2.06s-9.43,2.12-16.26-1.13a11.93,11.93,0,0,1-3.44-2.39h0a11,11,0,0,1-2.29-3.39,8.33,8.33,0,0,1-.51-1.53,4.59,4.59,0,0,1-.12-1.48c.58-6.63,18.49-2.16,22.16-.28a4.71,4.71,0,0,0,.65.28c2.71,1,7.06.67,10,.25l.57-.08-.29-.17-.08,0a17.08,17.08,0,0,1,4.89-2.09,12.23,12.23,0,0,1,3.19-.33,18.83,18.83,0,0,1,3.27.28h.08a4,4,0,0,0,.82-.21,1.91,1.91,0,0,0,1.27-2.33,5.94,5.94,0,0,1,.36-3.28s1.63.43,1.44-1.66h0a7.12,7.12,0,0,0-.27-1.28c-.06-.23-.12-.46-.17-.7v0a15.55,15.55,0,0,1,.53-7l.83-1.06,0-.13,0-.08-.44-2.29h0l-.1-.55-.24-7.86s-.12-12.32,3.89-14.08l-.05-.55-.07-1a9.6,9.6,0,0,1-2.74-1.33,2.32,2.32,0,0,1-.58-.63h0a1.13,1.13,0,0,1-.16-.84,1.7,1.7,0,0,1,.54-.83,8.79,8.79,0,0,0,2.59-4.69s.42-.71,1.12-1.82c0-.08.1-.17.16-.25-.74-2.65-1.6-5.36-2.39-7.71l-.21-.65-.14-.39c-.08-.22-.15-.44-.22-.67l-.27.06a17.38,17.38,0,0,1-3,.27A16.76,16.76,0,0,1,192,72.73c.06-.26.12-.52.2-.78a2.77,2.77,0,0,1,.12-.41,2.81,2.81,0,0,0-1.76.22c-.83.36-1.55,1-2.35,1.38a5.52,5.52,0,0,1-2.55.59,5.93,5.93,0,0,1-1.62-.23h0a5.73,5.73,0,0,1-1.86-.94,1.46,1.46,0,0,0,.36,0h.1l.27,0H183l.34-.09.06,0,.29-.1.08,0,.33-.14h0a3.65,3.65,0,0,0,.34-.18l.06,0,.27-.18.06,0,.33-.23a7.59,7.59,0,0,0,1.08-1,19.57,19.57,0,0,0,2.62-4.26l2-3.95c.4-.79.81-1.59,1.28-2.33a9.94,9.94,0,0,1,1.11-1.47,5.48,5.48,0,0,1,1.23-1,6.22,6.22,0,0,1,2.94-.88c1.63-.12,3.36.14,5,.09a20.39,20.39,0,0,0,6.5-1.56,19,19,0,0,1,3-1h0a7.36,7.36,0,0,1,1.24-.14,7.87,7.87,0,0,1,3.46.86,13.53,13.53,0,0,1,4.18,3.09c.17.18.33.37.5.56.4.49.79,1,1.18,1.48s.64.8,1,1.19c1.62,1.84,3.58,3.27,5.16,5.15s2.76,4.42,2.33,6.93v.06h0c0,.17-.08.33-.12.52a.55.55,0,0,1-.05.17c0,.11-.07.23-.11.35l-.06.19-.12.37a8.65,8.65,0,0,0-.69,2.8,3.08,3.08,0,0,0,0,.43h0a17,17,0,0,0,1,3.65,6.55,6.55,0,0,1,.32,1.69v.32h0V84h0a4,4,0,0,1-.08.48h0v.16c0,.07,0,.15-.07.23a.07.07,0,0,1,0,.07l-.08.19,0,.08a1,1,0,0,1-.1.17.43.43,0,0,1,0,.07l-.18.23-.12.11.49.3.13.08a76.54,76.54,0,0,0,8.16,1.41,8.11,8.11,0,0,1,2.55.93,22.84,22.84,0,0,1,10.34,10.79c1.55,3.32,3.39,6.92,4.36,7.63a10.42,10.42,0,0,1,2.26,2.94c.29.51.56,1,.78,1.48.51,1,.84,1.8.84,1.8s7.63,5.16,6.7,10.21c0,0,1.66,5.64,3.3,7.27s5.41,14.8,5.41,14.8a9.8,9.8,0,0,1,1.29,4.34c-.12,1.87,1.41,5.87,1.41,5.87s.34,1.66.77,3.32c.13.5.27,1,.43,1.47a5.32,5.32,0,0,0,.92,2c.94.82.47,2.57.47,2.57a30.59,30.59,0,0,0,1.77,3.88,2.94,2.94,0,0,1,.33,1.36,17.39,17.39,0,0,1-.09,2.28s-.09.66-.14,1.56c-.09,1.46-.09,3.51.49,4.32a3.37,3.37,0,0,1,.43,1.39c.27,2,.05,5.05.86,5.77,1.06.94.59,9.5.59,9.5S287,205.67,288.41,211.52Z"/><path class="cls-5" d="M246.26,190.2l-1.12.92-5.4,4.42-1.09.9-4.75,3.89s-13.33,7.77-27.15,14.33c-1.49.7-3,1.39-4.46,2.06-1-.09-1.93-.16-2.9-.2a68.37,68.37,0,0,0-23.27,2.83,14.69,14.69,0,0,1-.06-3.11c.66-8.07,7.4-14.5,7.4-14.5l15.93-6.92h0l7.34-3.18,11.08-4.81,3.5.42,6.38.76Z"/><path class="cls-6" d="M246.26,190.2l-1.12.92-5.4,4.42-1.09.9-4.75,3.89s-13.33,7.77-27.15,14.33c-1.49.7-3,1.39-4.46,2.06-1-.09-1.93-.16-2.9-.2a68.37,68.37,0,0,0-23.27,2.83,14.69,14.69,0,0,1-.06-3.11c.66-8.07,7.4-14.5,7.4-14.5l15.93-6.92h0l7.34-3.18,11.08-4.81,3.5.42,6.38.76Z"/><path class="cls-7" d="M232,222.59l0,.33-.21,1.6,0,.25,0,.09-.08.6-.12.89-.21-.13c-1.27-.72-2.52-1.42-3.77-2.08q-1.12-.6-2.28-1.14a63,63,0,0,0-7.83-3.14l.72-1.33,4.46,1.31L229,221.7l1.16.33.92.28Z"/><path class="cls-6" d="M232,222.59l0,.33-.21,1.6,0,.25,0,.09-.08.6-.12.89-.21-.13c-1.27-.72-2.52-1.42-3.77-2.08q-1.12-.6-2.28-1.14a63,63,0,0,0-7.83-3.14l.72-1.33,4.46,1.31L229,221.7l1.16.33.92.28Z"/><polygon class="cls-8" points="222.02 217.58 230.64 221.08 231.93 224.92 223.07 221.43 222.02 217.58"/><polygon class="cls-6" points="222.02 217.58 230.64 221.08 231.93 224.92 223.07 221.43 222.02 217.58"/><path class="cls-7" d="M278.33,221.46c-.67.83-1.33,1.66-2,2.49l-.57.71c-1.08,1.33-2.17,2.66-3.32,3.88l-.14.15-36.61.07h0l-.25-.15-.11-.06h0l-.76-.44-.35-.2-2.7-1.56-.21-.13,0-.8,0-.69h0l0-1.25h0l0-.52.54,0Z"/><path class="cls-9" d="M243.46,228.65h-.35l-3.28-.05h-.12l-4.36,0-.76-.44-.06-2.69v-.7l0-1.19,8.25-.44h.35l.09,1.49,0,.7.21,3.35Z"/><path class="cls-7" d="M243.11,228.65h0l-3.59-.05-4.16,0h0l-.76-.44-.35-.21-.07-2.48v-.7l0-1.2,8.63-.47v0l.09,1.49.05.7.21,3.34Z"/><path class="cls-10" d="M243.11,228.65h0l-3.59-.05-4.16,0h0l-.76-.44-.35-.21-.07-2.48v-.7l0-1.2,8.63-.47v0l.09,1.49.05.7.21,3.34Z"/><path class="cls-9" d="M232,222.92l46.33-1.46c-.67.83-1.33,1.66-2,2.49l-.57.71-32.53.6h-.33l-8.36.15h-.34l-2.37,0a.38.38,0,0,1-.15,0,1.35,1.35,0,0,1-.29,0l0-.69h0l.05-1.25h0l0-.52Z"/><path class="cls-8" d="M281.21,218l-.4.46-1.09,1.31c-.48.57-.94,1.15-1.4,1.73-.66.83-1.33,1.66-2,2.49l-33.15.61h-.33l-8.35.16h-.34l-2.32,0h-.11l-.3,0h-.07a1.78,1.78,0,0,1-1.37-2l.11-.73.1-.71.05-.39.12-.79,0-.23Z"/><path class="cls-7" d="M283.07,213.86l1.58.55c-.37.33-.73.67-1.08,1s-.55.55-.83.84q-.78.83-1.53,1.68l-.4.46-1.09,1.31-48.46,1.33h-.6l-.25-.94-2-7.57,46.86,1.1h0l2.69.07Z"/><path class="cls-5" d="M286.57,212.8c-.67.51-1.3,1-1.92,1.6-.37.34-.73.68-1.08,1l-.83.85c-.52.54-1,1.11-1.53,1.68l-.4.46c-8.07.91-22.27,2.15-35.14,1.37a47.93,47.93,0,0,0-14.42,1.27h0l-.56.14-.46.12-1.26.37c-1,.29-1.92.62-2.8.95l-.89.35a62.86,62.86,0,0,0-7.82-3.14,68.18,68.18,0,0,0-10.71-2.58c-1.48-.24-3-.42-4.46-.55-1-.09-1.93-.16-2.9-.21a68.53,68.53,0,0,0-23.26,2.83c-1,.31-2,.67-3.06,1l0-.1a8.56,8.56,0,0,1,3-4c5.11-4.48,14.85-8.91,14.85-8.91l5.2-2.21h0l3.27-1.39,7.36-3.12,15.56-6.6.16-.07,3.6-1.53,3.3-1.4a26.24,26.24,0,0,1,7-.87h.91c.23,0,.45,0,.68,0h.43c.56,0,1.12.08,1.68.14l.61.06h.1l.45,0,.55.08.56.08,1.12.18,1.69.33.83.18c.85.18,1.7.39,2.56.62l.8.22.53.15.66.2c1.57.46,3.13,1,4.68,1.55l.84.31.79.3h0l1.42.57c2.68,1.08,5.31,2.28,7.79,3.53l.86.43.44.22.88.46.86.46.43.23.42.23.42.23c1,.54,1.93,1.07,2.84,1.61l.78.47.38.22,1.48.91.72.45,1,.67.66.43.33.22.63.42.36.25c.23.16.46.33.69.48l.33.24.1.07.82.6h0l.5.38.48.37c.34.25.62.49.9.72l.41.34.19.16.2.17.33.31.23.22.24.22a11.49,11.49,0,0,1,.82.9q.3.38.54.72Z"/><path class="cls-11" d="M207.69,171a8.32,8.32,0,0,1-2.83.59c-6.75.5-20.36-2.1-20.36-2.1s-17.12,3.84-21.78-6.88S180,157.23,184,159.33c2.61,1.33,7.4,1,10.53.52,1.76-.25,3-.52,3-.52S212,168.88,207.69,171Z"/><path class="cls-12" d="M226.45,151.76l-3.85,18.75-11.41,1-5.71.5c1.39-5.82-10.72-12.47-10.72-12.47,6.17-3.72,9.79-2,11.06-2.09a.77.77,0,0,0,.26,0c1.2-.18,2.41-.9,2.08-2.53a5.9,5.9,0,0,1,.33-3.27s2.21.59,1.16-2.91S210,141,210,141l.82-1.05,1.28-4,5.24,5.36Z"/><path class="cls-6" d="M226.45,151.87l-3.85,18.76-11.41,1-5.71.5c1.39-5.82-10.72-12.47-10.72-12.47,6.17-3.72,9.79-2,11.06-2.09l.26,0c1.2-.18,2.41-.9,2.08-2.53a5.9,5.9,0,0,1,.33-3.27s2.21.58,1.16-2.91.35-7.69.35-7.69l.82-1,1.3-4,5.24,5.36Z"/><path class="cls-9" d="M213.51,170.4c-.56.4-1.1.77-1.63,1.12l-5.7.51c1.39-5.83-10.72-12.47-10.72-12.47,6.17-3.73,9.79-2,11.06-2.1a.77.77,0,0,0,.26,0c1.55,2,3.5,4.25,4.64,4.81C213.51,163.29,218.06,167.14,213.51,170.4Z"/><path class="cls-9" d="M207.69,171a8.32,8.32,0,0,1-2.83.59c.61-5-8.09-10.43-10.29-11.72,1.76-.25,3-.52,3-.52S212,168.88,207.69,171Z"/><path class="cls-12" d="M212.82,170.4l-1.63,1.12-5.71.51c1.39-5.83-10.72-12.47-10.72-12.47,6.17-3.73,9.79-2,11.06-2.1a.77.77,0,0,0,.26,0c1.55,2,3.5,4.25,4.64,4.81C212.82,163.29,217.36,167.14,212.82,170.4Z"/><path class="cls-6" d="M212.82,170.63c-.57.41-1.11.78-1.63,1.13l-5.71.5c1.39-5.83-10.72-12.47-10.72-12.47,6.17-3.72,9.79-2,11.06-2.09a2.3,2.3,0,0,0,.26,0c1.55,2,3.5,4.24,4.64,4.8C212.82,163.52,217.36,167.37,212.82,170.63Z"/><path class="cls-11" d="M236.58,90.59s-21.9,30.64-20.15,25c1.15-3.68-2-14.22-4.35-21-1.21-3.52-2.18-6-2.18-6s12.59-10.84,12.35-8.39c-.06.64.88,1.66,2.33,2.79C228.62,86.26,236.58,90.59,236.58,90.59Z"/><path class="cls-9" d="M224.56,83a16.68,16.68,0,0,1-12.49,11.62c-1.2-3.52-2.17-6-2.17-6s12.58-10.84,12.35-8.39C222.19,80.86,223.13,81.86,224.56,83Z"/><path class="cls-11" d="M225.22,77.66A16.66,16.66,0,1,1,208.56,61h0a16.57,16.57,0,0,1,16.66,16.5Z"/><path class="cls-9" d="M286.57,212.8c-.67.51-1.3,1-1.92,1.6-.37.34-.73.68-1.08,1l-.83.85a46.66,46.66,0,0,1-7.45-2.61h0a13.72,13.72,0,0,1-4.45-2.86c-3-3.27-12.82-11.8-32.2-14.38a90.63,90.63,0,0,0-14.07-.71l-2,.06-.31-1.78.17-.07,3.6-1.53,3.29-1.4a26.29,26.29,0,0,1,7-.87h.91c.23,0,.46,0,.69,0h.42c.56,0,1.12.08,1.69.14l.6.06h.11l.44.05.56.08.56.08q.55.08,1.11.18c.56.09,1.13.2,1.69.33l.84.18c.85.18,1.7.39,2.56.62l.79.22.54.15.66.2c1.56.46,3.13,1,4.68,1.55l.83.31.8.3h0l1.42.57c2.68,1.08,5.31,2.28,7.79,3.53l.86.43.44.22.88.46.86.46.43.23.42.23.42.23c1,.54,1.93,1.07,2.84,1.61l.78.47.38.22,1.48.91.71.45,1,.67.66.43.33.22.63.42.35.25.7.54.33.24.1.07.82.6h0l.5.38.48.37c.34.25.62.49.9.72l.41.34.19.16.2.17.33.31.23.22.24.22a11.49,11.49,0,0,1,.82.9c.2.25.38.49.54.71Z"/><path class="cls-12" d="M284.7,195.45s1.66,10.69,3.11,16.46c-.42.29-.83.58-1.23.88h0c-.66.51-1.3,1.05-1.91,1.6-.37.34-.73.68-1.08,1a47.53,47.53,0,0,1-5.6-1.7c-3-1.13-5.84-2.54-7.14-4-2.93-3.21-12.44-11.48-31.09-14.22a89.69,89.69,0,0,0-14.55-.88c-.85,0-1.71,0-2.59.07l-.14-.8-1.15-6.68L220.28,181v0l-.11-.7v0l0-.28-.2-1.2-.54-3.2-.26-1.52s0-.17,0-.48v-.43a1.48,1.48,0,0,0,0-.27.54.54,0,0,1,0-.18l0-.21v-.08c0-.1,0-.22,0-.33v0c0-.21,0-.44-.06-.68s0-.31,0-.47c-.07-.61-.14-1.28-.22-2s-.16-1.2-.25-1.81c0-.17,0-.33-.07-.5a2.89,2.89,0,0,0,0-.29h0a2.23,2.23,0,0,0,0-.23c-.05-.33-.1-.63-.15-.94a1.42,1.42,0,0,0,0-.2c0-.15-.05-.33-.08-.47s-.08-.37-.11-.55v0c0-.08,0-.15-.05-.24s0-.22-.08-.33-.08-.39-.13-.57l-.06-.24c0-.12-.07-.25-.11-.37a5.65,5.65,0,0,0-.66-1.66h0l-.08-.09-.08-.09a1.64,1.64,0,0,1-.26-.33,1.37,1.37,0,0,1-.13-.2c-.08-.15-.17-.31-.25-.48a.13.13,0,0,0,0-.07l-.09-.21c-1.62-3.62-3.65-12.81-3.65-12.81l-1.33-6.38h0l-.13-.7-.4-2.12v-.25h0l-.23-7.55s-.12-12.23,3.84-14l-.12-1.51s-3.08-.92-3.43-2.31a1,1,0,0,1,0-.63h0a1.88,1.88,0,0,1,.48-.67.81.81,0,0,0,.16-.16,8.58,8.58,0,0,0,2.4-4.5s.49-.81,1.28-2.05c2.44-3.88,7.76-12,10.14-12.86a18.91,18.91,0,0,0,5.48-3.26l.53.11h0a78.25,78.25,0,0,0,8.09,1.4,8.47,8.47,0,0,1,2.52.92,22.68,22.68,0,0,1,10.28,10.71c1.55,3.32,3.36,6.88,4.32,7.6a7.78,7.78,0,0,1,1.64,1.93c.31.48.61,1,.87,1.48.79,1.45,1.33,2.76,1.33,2.76s7.57,5.13,6.64,10.14c0,0,1.63,5.59,3.26,7.22s5.36,14.68,5.36,14.68a9.72,9.72,0,0,1,1.28,4.32c-.11,1.87,1.4,5.83,1.4,5.83s.24,1.24.6,2.65c.12.49.25,1,.39,1.48a7.14,7.14,0,0,0,1.11,2.61c.93.82.46,2.56.46,2.56a30,30,0,0,0,1.75,3.85,1.82,1.82,0,0,1,.27.78,12.76,12.76,0,0,1,0,2.83s-.05.41-.1,1c-.11,1.41-.2,3.92.46,4.82a2.42,2.42,0,0,1,.33.87c.41,1.9.06,5.45.94,6.23C285.17,186.94,284.7,195.45,284.7,195.45Z"/><path class="cls-11" d="M233.67,173.43S233,175,232,177.31c-1.91,4.58-5,12.09-6.3,16-2,5.94-10,9.44-10,9.44s-16,5.47-21.56,1.39,10.49-13.05,13.4-13.62,5.48-2.92,7.57-4.2c1-.6,1.1-2.91.94-5.19a45.76,45.76,0,0,0-.7-5.07Z"/><path class="cls-9" d="M255.46,118.67s6.06-2.68,8.63,1.51S255.46,118.67,255.46,118.67Z"/><path class="cls-9" d="M277.83,172.61s-41.82.35-33.9,5.71,9.08,7.92,18.29,5.36S277.83,172.61,277.83,172.61Z"/><path class="cls-9" d="M225.22,77.66A16.58,16.58,0,0,1,223,86a5.2,5.2,0,0,1-1.71-1.09,7.7,7.7,0,0,1-1.23-2.19,19.14,19.14,0,0,0-2.78-4.42c-.79-.94-1.81-1.85-3-1.73-1.94.18-3.32,3.16-5.17,2.53-.57-.19-1.39-3.77-1.71-4.43-.76-1.56-1.18-1.11-2.56-.46-2.62,1.24-5.46,2.32-8.33,1.76a4.42,4.42,0,0,1-2.61-1.37,10.23,10.23,0,0,0-.88-1.09,2.29,2.29,0,0,0-.55-.31,16.66,16.66,0,0,1,32.72,4.47Z"/><path class="cls-13" d="M209.49,78.74c1.86.63,3.24-2.35,5.18-2.53,1.14-.11,2.16.79,3,1.73a19,19,0,0,1,2.78,4.42,7.7,7.7,0,0,0,1.23,2.19,5.54,5.54,0,0,0,1.85,1.15L226,86.83c1.46.67,3.32,1.24,4.45,0,.9-1,.78-2.65.36-4a13.19,13.19,0,0,1-1-4.06c0-1.52.87-2.88,1.14-4.37.46-2.51-.73-5.07-2.29-6.94s-3.51-3.29-5.12-5.11c-.91-1-1.71-2.2-2.65-3.22a13.46,13.46,0,0,0-4.14-3.07,7.87,7.87,0,0,0-3.43-.85,13.1,13.1,0,0,0-4.24,1.14,20,20,0,0,1-6.44,1.55c-2.65.09-5.54-.66-7.87.78-1.66,1-2.65,3-3.58,4.8l-2,3.93a20.76,20.76,0,0,1-2.59,4.22,5.68,5.68,0,0,1-4,2.19,5.64,5.64,0,0,0,6,.56c.8-.42,1.51-1,2.32-1.37a2.38,2.38,0,0,1,2.52.15,8.3,8.3,0,0,1,.88,1.08,4.36,4.36,0,0,0,2.61,1.37c2.88.55,5.71-.52,8.33-1.76,1.38-.66,1.81-1.1,2.56.46C208.1,75,208.92,78.56,209.49,78.74Z"/><path class="cls-9" d="M233.67,173.43S233,175,232,177.31c-.78.38-1.6.81-2.4,1.22-2.12,1.11-4,2.12-4,2.12l-9.55.52a43.51,43.51,0,0,0-.7-5.07Z"/><path class="cls-9" d="M249.4,127.4l-2.32,8.16s-2.32,4.89-1.16,9.56-.7,11.76-.7,11.76l-3.62,9.32s-4.55,9.56-5.37,9.56a43.83,43.83,0,0,0-5.89,2.77c-2.12,1.11-4,2.12-4,2.12l-10.72.58c-3.53-9.29-1.09-10.92.67-11.07a3.68,3.68,0,0,1,1.32.12l2.33-14.68v-9.09s.7-8.73,2.21-11.53a25.94,25.94,0,0,0,2.21-5.82,22.07,22.07,0,0,1-1.75-4.43,30.89,30.89,0,0,1-.46-3.73s-1.64.24-2.1-13,9.44-16.89,9.44-16.89c11.88-3.61,18.76,6.41,23.53,13.63S249.4,127.4,249.4,127.4Z"/><path class="cls-9" d="M248,126.71l-2.32,8.15s-2.33,4.89-1.17,9.56-.69,11.76-.69,11.76l-3.62,9.32s-4.55,9.55-5.35,9.55a43.69,43.69,0,0,0-5.9,2.78c-2.12,1.1-4,2.12-4,2.12l-4.78.26-1-6.2s-.62-8.08-1.72-11.92l1.14-7.19v-9.08s.7-8.74,2.21-11.54a25.84,25.84,0,0,0,2.21-5.83,21.73,21.73,0,0,1-1.74-4.42,31.42,31.42,0,0,1-.47-3.73s-1.63.23-2.1-13,9.44-16.89,9.44-16.89c11.88-3.62,18.76,6.4,23.53,13.63S248,126.71,248,126.71Z"/><path class="cls-12" d="M248.7,126.71l-2.32,8.15s-2.33,4.89-1.17,9.56-.7,11.76-.7,11.76l-3.61,9.32s-4.54,9.55-5.36,9.55a44.4,44.4,0,0,0-5.89,2.78c-2.12,1.1-4,2.12-4,2.12l-10.72.58c-3.53-9.29-1.09-10.92.65-11.07a3.68,3.68,0,0,1,1.32.12l2.33-14.68v-9.08s.69-8.74,2.21-11.54a26.33,26.33,0,0,0,2.21-5.83,22.16,22.16,0,0,1-1.75-4.42,31.4,31.4,0,0,1-.46-3.73s-1.63.23-2.1-13,9.44-16.89,9.44-16.89c11.88-3.62,18.76,6.4,23.53,13.63S248.7,126.71,248.7,126.71Z"/><path class="cls-9" d="M230,177.48c-2.12,1.11-4,2.12-4,2.12l-10.72.58c-3.53-9.29-1.09-10.92.65-11.07,2.56,1.85,5.9,4.39,6.11,5.25S226.57,176.54,230,177.48Z"/><path class="cls-12" d="M229.64,177.83c-2.12,1.1-4,2.12-4,2.12l-10.72.58c-3.53-9.29-1.09-10.92.65-11.07,2.57,1.85,5.9,4.39,6.11,5.25S226.22,176.89,229.64,177.83Z"/><g class="cls-14"><path class="cls-15" d="M231,84.61c-1.13,1.25-3,.67-4.46,0l-2.52-1.13a5.54,5.54,0,0,1-1.85-1.15A7.94,7.94,0,0,1,221,80.14a19,19,0,0,0-2.78-4.42c-.79-.94-1.8-1.84-2.95-1.73-1.94.19-3.32,3.16-5.18,2.54-.56-.19-1.39-3.78-1.71-4.44-.75-1.56-1.18-1.11-2.56-.46-2.61,1.24-5.45,2.33-8.33,1.76A4.36,4.36,0,0,1,194.86,72a9,9,0,0,0-.88-1.08,2.34,2.34,0,0,0-2.51-.15c-.82.36-1.53.95-2.32,1.37a5.59,5.59,0,0,1-3.62.49,5,5,0,0,1-2.94,1.16,5.62,5.62,0,0,0,6,.56c.8-.41,1.51-1,2.32-1.37a2.4,2.4,0,0,1,2.52.15,8.39,8.39,0,0,1,.88,1.09,4.42,4.42,0,0,0,2.61,1.37c2.88.55,5.71-.53,8.33-1.76,1.38-.67,1.81-1.11,2.56.45.33.67,1.14,4.25,1.71,4.44,1.86.63,3.24-2.35,5.18-2.54,1.14-.11,2.16.8,3,1.73a19.08,19.08,0,0,1,2.78,4.43,7.7,7.7,0,0,0,1.23,2.19,5.54,5.54,0,0,0,1.85,1.15L226,86.83c1.46.67,3.32,1.24,4.45,0a3.18,3.18,0,0,0,.67-2.32Z"/><path class="cls-15" d="M231,74a9.9,9.9,0,0,0-.59,2.23,11.38,11.38,0,0,0,.53-1.81Z"/></g><path class="cls-9" d="M165.52,217.93s-2.1,5.6-6.18,5.71Z"/><path class="cls-16" d="M167.64,206.65A36.26,36.26,0,0,0,165,202l-.44-.64h.3a1.39,1.39,0,0,0,1-.33h0c2.58-2.16-2.71-14.6-5.58-14.81-2-.15-5.82-.3-8.43-.38l-.71,0a3.52,3.52,0,0,0-.09-.42s-3.27-.82-4.91-2.57-3.62-3.87-3.62-3.87a7.72,7.72,0,0,1-2.4-1.57,1.44,1.44,0,0,1-.41-.89c0-1.13-3.93-4.51-4.92-5.34l-.22-.18s-.35-1.76-1.64-2.11c-.53-.15-1.16-1-1.72-1.9a26.33,26.33,0,0,1-1.43-2.8s-1.62-1.88-2.9-3.72a17.1,17.1,0,0,1-.94-1.48,3.81,3.81,0,0,1-.6-1.49c-.12-1.64-2-1.76-2-1.76s-1.64-3.28-1.64-4.11-2.45-2.46-2.45-2.46l-3.86-4.34s1-3.05-2.69-5.4-4.21-9-4.21-9l-3.28-7.12-.34-.73a2,2,0,0,0,.73-.7,2.16,2.16,0,0,0,.21-1.77,7.89,7.89,0,0,0-1.19-2.48,1.47,1.47,0,0,0-.1-.13,4.68,4.68,0,0,0-.35-.44,1.46,1.46,0,0,0,.37-.33l.08-.12a1.79,1.79,0,0,0,0-1.85,3.58,3.58,0,0,0-.21-.39c-1.17-1.88-1.4-6.34-1.4-6.34l-2.81-7.86s-.37-4.76-2.94-7.77a6.88,6.88,0,0,0-2.44-1.86,5.48,5.48,0,0,0-2.25-1.73l0,0q-.07-.43-.12-.87c0-.28-.06-.47-.08-.71a18.82,18.82,0,0,0,2.49.17,18.07,18.07,0,0,0,2.44-.16,18.68,18.68,0,0,0,15.62-14.08h0a18.89,18.89,0,0,0,.52-4.43,17.83,17.83,0,0,0-.38-3.78,1,1,0,0,0,0-.24c-.1-.46-.22-.91-.35-1.35l-.09-.29a9.18,9.18,0,0,0,2.66.3,1.54,1.54,0,0,0,.88-.24,1.84,1.84,0,0,0,.5-.78c.16-.39.32-.79.45-1.19l0-.09h0a9.14,9.14,0,0,0,.27-1.15,5.32,5.32,0,0,0,.06-1,2.91,2.91,0,0,0,0-.51,3.65,3.65,0,0,0-.12-.66.44.44,0,0,1,0,.16,3.66,3.66,0,0,0-.18-.46c-.94-2-3.65-2.71-4.21-4.8-.27-1,0-2.26-.81-2.93a3.37,3.37,0,0,0-1.22-.51c-1.73-.56-3.09-1.89-4.6-2.92a9.42,9.42,0,0,0-1.59-.87,4.31,4.31,0,0,0-3.53-.13c-.31.14-.6.33-.91.5a5.28,5.28,0,0,1-2.91.35c-.67-.06-1.31-.18-2-.28-1.63-.24-3.53-.23-4.62,1a8.63,8.63,0,0,1-1.15,1.45c-.9.69-2.17.36-3.28.14s-2.56-.13-3,.92c-.09.32-.17.66-.23,1a3,3,0,0,1-2,1.82,21.12,21.12,0,0,1-2.75.5,10.24,10.24,0,0,0-4.13,1.75,4,4,0,0,0-1.33,1.48.56.56,0,0,0,0-.12,1.65,1.65,0,0,0-.13.79,1.23,1.23,0,0,0,0,.47,1.8,1.8,0,0,0,.1.33,4.66,4.66,0,0,1,.26.71,1.53,1.53,0,0,1,0,.3,2.16,2.16,0,0,1-.33,1.13,2.7,2.7,0,0,1-.22.33,11.14,11.14,0,0,1-.87,1.06,4.44,4.44,0,0,0-.7,1.08l0,0,0-.06a2.28,2.28,0,0,0-.16.93,1.4,1.4,0,0,0,.12.7,1.21,1.21,0,0,0,.2.3,5.29,5.29,0,0,0,1.06.74,4.06,4.06,0,0,1,1.23,3.24,27,27,0,0,1-.27,5.31v.05c-.1.69-.38,2-.47,3.25h0v.15s0,0,0,0v.46a3.79,3.79,0,0,0,.67,2.55h0a1.55,1.55,0,0,0,.52.39,1.66,1.66,0,0,0,1.3-.21c-.2.52-.42,1-.64,1.54h0c0,.09-.07.18-.11.27-.26.59-.53,1.18-.81,1.75a9.06,9.06,0,0,0-4.86.51s-.7,5.4-3,6-10.86,7.75-10.86,7.75L42.45,109.83l-.31.31s-.31.43-.81,1.17c-1.89,2.72-6.5,9.56-8.07,13.27a39.65,39.65,0,0,0-1.75,6c-1.33,5.88-2.42,13.22-2.32,14.39h0c.1,1.41-.5,14.55-.29,19.7a10.41,10.41,0,0,0,.17,1.77,16.8,16.8,0,0,1,.16,2.55c0,1.69,0,4-.1,6.46-.21,6.7-.64,14.58-.64,14.58a66.07,66.07,0,0,0,3,7.49c.19.33.35.5.46.49.7-.12,2.69,4.81,2.69,4.81s.78,0,2.12-.12l.4,0c.1.23.21.46.33.68s.23.47.34.7a7,7,0,0,0,.33.67c1.35,2.72,2.87,5.33,3.84,5.6,2.11.59,7.84,3.52,8.3,4.81s8.37,2.62,11.76,2.62h1.67v.6a3.36,3.36,0,0,0,3.29,3.09l2.56,0h.11l-.08.58,0,.12-.07.58-.7,5.31h.24l7,.11h.74V228l1-.3.39-.11c6.3-1.81,12.61-3.53,19-4a42.32,42.32,0,0,1,6.37,0l1,.08c6.85.66,13.49,3.07,20.14,5.1h.81l2.1,0H128l6.74.06h.68l.14-5.49v-.7l2.21,0a3.34,3.34,0,0,0,2.59-1.17h0a3.23,3.23,0,0,0,.75-1.5,3.36,3.36,0,0,0,.08-.71v-.49a3.46,3.46,0,0,1-.23,4.34h0a6.78,6.78,0,0,1-1.4,1.22,11.39,11.39,0,0,0-3.46,3.07h0c-.43.73-.17,1-.17,1h19.43c4.72-2,9.3-4.62,14-6.65l0,0h0l.33-.14C170.84,219.11,171.47,211.29,167.64,206.65Zm-78.73-59,.19-.49.37-.94.12.18,7,10.27.61.69-1,.11c-1.26.13-2.55.25-3.08.25a30.85,30.85,0,0,1-4.44-.82l-1.71-.78A9.07,9.07,0,0,0,86.6,154h0l-.07-.26,2-5.15Zm31.62,32.25c2.88,2.05,6.44,4.37,10,6.6l-1.62,0-8.65.2c-3.22-.72-8-1.81-9.19-2.26-.6-.22-3.19-.93-6.45-1.79-2.28-.61-4.88-1.29-7.36-1.92l-5-1.3a.86.86,0,0,0-.2-.39,10.11,10.11,0,0,1-1.39-2.51,17.22,17.22,0,0,1-.72-2.42s-3-.33-3.49-1.33c-.16-.28-.09-.63.33-1a2.84,2.84,0,0,0,.72-1h0a2.63,2.63,0,0,0,.18-.54,4.68,4.68,0,0,0,0-1.75h0a6.22,6.22,0,0,0-.31-1.1,21.44,21.44,0,0,1,3.75,1.25c1.41.67,3.9.83,6.17.83,1.56,0,3-.09,3.94-.16h.16l.83-.07s1,.17,2.43.35c.92.11,2,.22,3.17.29.44,0,.88.05,1.33.06l.76.75.21.21c2.24,2.17,4.54,4.29,6.73,6.12,1.29,1.06,2.54,2,3.71,2.87Z"/><polygon class="cls-17" points="116.23 187.64 146.29 186.94 156.78 192.77 158.41 206.4 130.8 198.47 116.23 187.64"/><polygon class="cls-6" points="116.23 187.64 146.29 186.94 156.78 192.77 158.41 206.4 130.8 198.47 116.23 187.64"/><path class="cls-18" d="M98.76,166.67c.35,0,3.15,3.49,3.15,3.49s10.6,1.87,13.16-.46-5-10.14-5-10.14l-6.76.35-5.48,3.26Z"/><path class="cls-19" d="M83.26,155.6l5.13,2.32a30.65,30.65,0,0,0,4.43.82c1.16,0,6.05-.58,6.05-.58l4.43,1.75s-4,7.45-1.4,10.25c0,0-8,.81-11.07-.59a27.76,27.76,0,0,0-7.1-1.86Z"/><path class="cls-6" d="M84,155.71,89.08,158a31.27,31.27,0,0,0,4.43.81c1.17,0,6.06-.58,6.06-.58L104,160s-4,7.45-1.4,10.25c0,0-8,.81-11.07-.58a27.46,27.46,0,0,0-7.11-1.87Z"/><path class="cls-18" d="M95,100.49S61.25,92.8,67.3,91.75c3.86-.66,7.4-9.4,9.45-15.63,1.17-3.54,1.85-6.27,1.85-6.27s19.46,9.09,15,12.12c-1.7,1.16-1.89,4.16-1.48,7.41A58.58,58.58,0,0,0,95,100.49Z"/><path class="cls-7" d="M128,221l0,.59h0l-.07,1.51,0,.7-.21,5v.51h-2.41v-.38l-.46-.14c-6.64-2-13.3-4.44-20.14-5.11l-1-.08a42.33,42.33,0,0,0-6.37.05c-6.36.49-12.68,2.21-19,4l-.39.11c-.33.1-.68.19-1,.3l.08-5.1v-1.61h2.2l18.08-.12,7.35-.06Z"/><path class="cls-9" d="M79.42,219.68l-.24,1.62h0l-.14,1L79,223h0l-.67,4.65-.39.11-1,.3v.22h-.74l-1.44.41H69.05l.07-.52.7-5.31h0l.09-.7.19-1.38,9-1Z"/><path class="cls-7" d="M79.07,219.68v0l-.23,1.59-.14.95-.09.7-.72,4.78-1,.3v.22h-.73l-1.44.41-.33.1h0l-5.67-.1.78-5.84.08-.73.07-.58h0l.11-.8Z"/><polygon class="cls-9" points="134.87 221.89 134.85 223.19 134.84 223.89 134.84 223.89 134.76 228.82 134.76 228.88 127.66 229.16 126.36 229.22 125.58 229.25 125.23 229.26 125.22 228.88 125.21 228.74 125.05 223.73 125.05 223.73 125.02 223.03 124.97 221.43 125.32 221.44 127.63 221.55 127.97 221.57 134.87 221.89"/><polygon class="cls-7" points="135.22 221.89 135.2 223.2 135.19 223.89 135.06 228.82 135.05 229.35 127.65 229.28 126.55 229.27 126.54 229.27 125.58 229.26 125.58 229.25 125.57 228.98 125.56 228.74 125.39 223.73 125.37 223.03 125.32 221.44 125.32 221.43 127.97 221.55 135.22 221.89"/><path class="cls-10" d="M79.07,219.68v0l-.23,1.59-.14.95-.09.7-.72,4.78-1,.3v.22h-.73l-1.44.41-.33.1h0l-5.67-.1.78-5.84.08-.73.07-.58h0l.11-.8Z"/><polygon class="cls-10" points="135.22 221.89 135.2 223.2 135.19 223.89 135.06 228.82 135.05 229.35 127.65 229.28 126.55 229.27 126.54 229.27 125.58 229.26 125.58 229.25 125.57 228.98 125.56 228.74 125.39 223.73 125.37 223.03 125.32 221.44 125.32 221.43 127.97 221.55 135.22 221.89"/><path class="cls-9" d="M93.63,82c-1.7,1.16-1.89,4.16-1.48,7.41a18.52,18.52,0,0,1-15.4-13.27c1.17-3.54,1.85-6.27,1.85-6.27S98.06,78.94,93.63,82Z"/><path class="cls-18" d="M113.09,70.32a18.51,18.51,0,1,1-.78-5.34A18.9,18.9,0,0,1,113.09,70.32Z"/><path class="cls-9" d="M112.31,65a19.92,19.92,0,0,0-4.47-.9,1.48,1.48,0,0,0-1,.25c-.43.37-.37,1-.42,1.61a3.28,3.28,0,0,1-1.66,2.55c-1.19.67-2.74.55-3.77,1.42-1.31,1.12-1.09,3.18-.64,4.84a6.38,6.38,0,0,1,.33,2,2.91,2.91,0,0,1-5.2,1.64c-.94-1.2-.81-2.87-1.06-4.36a8.19,8.19,0,0,0-2.3-4.45,4.38,4.38,0,0,0-2-1.24,2.33,2.33,0,0,0-2.22.57c-.74.82-.61,2-.7,3.14a7,7,0,0,1-2.89,5c-1.56,1.11-3.49,1.52-5.28,2.18a3.06,3.06,0,0,0-.51.26A18.53,18.53,0,0,1,110.64,61.1,19,19,0,0,1,112.31,65Z"/><path class="cls-20" d="M78.66,78.94c1.79-.66,3.72-1.07,5.28-2.17a7,7,0,0,0,2.89-5c.09-1.09,0-2.33.71-3.14A2.33,2.33,0,0,1,89.76,68a4.41,4.41,0,0,1,2,1.24,8.19,8.19,0,0,1,2.3,4.45c.25,1.49.13,3.17,1.06,4.36a2.92,2.92,0,0,0,5.21-1.64,6.57,6.57,0,0,0-.34-2c-.45-1.66-.66-3.73.65-4.85,1-.87,2.58-.77,3.77-1.42a3.33,3.33,0,0,0,1.66-2.56c.05-.56,0-1.23.41-1.6a1.48,1.48,0,0,1,1-.25c2.51,0,4.88,1.41,7.38,1.27a1.53,1.53,0,0,0,.88-.25,1.83,1.83,0,0,0,.51-.77c.66-1.54,1.18-3.34.46-4.85-.94-1.93-3.65-2.68-4.2-4.76-.26-1,0-2.25-.82-2.91a3.28,3.28,0,0,0-1.2-.51c-1.73-.54-3.09-1.87-4.59-2.89s-3.46-1.76-5.1-1c-.33.14-.6.33-.92.49-1.47.71-3.21.33-4.83.08s-3.53-.23-4.61,1a9,9,0,0,1-1.15,1.44c-.89.69-2.16.36-3.27.14s-2.55-.13-3,.91a8.52,8.52,0,0,0-.23,1,2.93,2.93,0,0,1-2,1.8,19.8,19.8,0,0,1-2.75.49A10.48,10.48,0,0,0,74,56.15c-.86.61-1.7,1.57-1.47,2.6.08.36.28.69.36,1,.23,1.06-.67,2-1.38,2.81s-1.33,2.09-.61,2.9a4.87,4.87,0,0,0,1.06.73,4.12,4.12,0,0,1,1.23,3.23,27,27,0,0,1-.28,5.31c-.23,1.5-1.3,5.83.69,6.72C74.74,82,77.46,79.37,78.66,78.94Z"/><path class="cls-21" d="M91.41,160.38s-4.31.23-4,1.86S91.41,160.38,91.41,160.38Z"/><path class="cls-17" d="M169.41,221.79h0l0,0c-4.72,2-9.29,4.62-14,6.65l-1.26.53a36.88,36.88,0,0,1-9.16,2.54,34,34,0,0,1-9.76-.24c.11-1.29.36-3.15,1-3.86h0a14.45,14.45,0,0,1,3.05-2.51,5.85,5.85,0,0,0,1.8-1.77h0a3.25,3.25,0,0,0,.15-3.14,5.92,5.92,0,0,0-.33-.61,5.41,5.41,0,0,0-.7-.88H82.91l-19.12-.12H61.94c-3.38,0-11.31-1.28-11.77-2.56s-6.17-4.19-8.27-4.78c-1-.29-2.74-3.29-4.17-6.22q-.34-.71-.66-1.38c-.11-.22-.21-.44-.31-.66v0c-.41-.91-.78-1.73-1-2.37l-.14-.33-.07-.18a1.76,1.76,0,0,0-.09-.2h0l-.07-.18-.19-.45,52.08-19.91,4.13,1.05.62.15,5.29,1.36,7.36,1.91c3.11.82,5.56,1.49,6.14,1.7,1.2.46,6,1.54,9.17,2.25h0l3,.66s4.12.81,9.5,1.9l1,.21,1.4.28.84.17h0l2.91.6,2.11.44c2.26.47,4.5.94,6.57,1.4l1.6.35.62.14.62.13c2.38.54,4.37,1,5.64,1.37a9.31,9.31,0,0,1,1.28.47c2.81,1.27,5.2,3.94,6.93,6.39a35.84,35.84,0,0,1,3.09,5.24C170.79,211.7,170.39,218.91,169.41,221.79Z"/><path class="cls-9" d="M81.17,192.89s-2.22,9.79-9.09,13.28S81.17,192.89,81.17,192.89Z"/><path class="cls-9" d="M95.84,198.94s-7.45,4.31-6.4,7.46Z"/><path class="cls-9" d="M163.07,211.29s-2.1,8.86-6.64,9Z"/><polygon class="cls-9" points="135.22 221.89 135.19 223.89 127.88 223.78 125.39 223.73 78.6 222.96 76.95 222.93 69.47 222.81 69.75 220.73 79.07 219.68 78.83 221.31 128 220.96 127.97 221.55 135.22 221.89"/><path class="cls-8" d="M137.41,223.24,66.9,222.06a3.36,3.36,0,0,1-3.3-3.26l0-1.57h77.25v2.66a3.35,3.35,0,0,1-3.35,3.35Z"/><path class="cls-9" d="M87.11,183.93a25.39,25.39,0,0,0-4,3.84c-1.28,1.75-8.28,4.88-8.28,4.88C66,201.9,45.28,204.27,37.72,204.83q-.34-.69-.66-1.38c-1.11-2.38-1.93-4.39-1.93-4.39l52.08-19.92,4.12,1.05a8.14,8.14,0,0,0,.77,1.17.81.81,0,0,1,.2.39C92.71,183.31,87.11,183.93,87.11,183.93Z"/><path class="cls-19" d="M92,180.34c.39,1.57-5.21,2.18-5.21,2.18a25.86,25.86,0,0,0-4,3.84c-1.28,1.75-8.26,4.89-8.26,4.89-9,9.38-30.17,11.68-37.45,12.2-1.58.12-2.51.15-2.51.15s-2-4.89-2.68-4.78-3.5-7.92-3.5-7.92,1.17-21,.58-23.42.24-19.69.12-21.32,2.1-15.6,4.08-20.28S42,111.57,42,111.57L54.61,99s8.51-7.11,10.84-7.69,3-5.94,3-5.94c5.59-2.33,12.23,2.56,12.23,2.56,5.83-.12,5.24.93,5.24.93l3.38.7.09.94,4.21,45.65-5,12.61-2.38,6A9.52,9.52,0,0,1,86,161c-1.28,3.27.93,7.11.93,7.11s1.4,2.92-.46,4.65S89.65,175,89.65,175a13.16,13.16,0,0,0,2.1,4.9A1,1,0,0,1,92,180.34Z"/><path class="cls-9" d="M67.3,167s-2.32,4.43,1.86,5.12,15-.46,16.43-.46S67.3,167,67.3,167Z"/><path class="cls-9" d="M66.83,152.22c.59,1.05,13.17,11.65,17.48,13.52Z"/><path class="cls-9" d="M75.8,144.76s6.31,11.29,8.39,13.05.35-6.31.35-6.31Z"/><path class="cls-9" d="M58.1,112.61S74.05,123,73.36,130.32,58.1,112.61,58.1,112.61Z"/><path class="cls-9" d="M39.22,146.05s-4.08,32.27,28.31,31.69C67.53,177.74,41.09,168,39.22,146.05Z"/><path class="cls-18" d="M164.35,202.09c-4.66-.12-17.82-4.9-17.82-4.9l.07-.36,2.14-10.25,2.65.09c2.6.09,6.44.23,8.41.38C163,187.29,169,202.2,164.35,202.09Z"/><path class="cls-9" d="M89.41,90.48l4.22,45.65-5,12.61c-3.88-5.67-8.26-12.05-9.48-13.76-2.33-3.27-7.11-19.23-7.11-19.23s-1.4-14.1,8-21.55C84.2,91,87.25,90.26,89.41,90.48Z"/><path class="cls-9" d="M149,193.57a11.89,11.89,0,0,1-3.49,4.31s-6.09-3.52-13-7.77C137.65,191.16,144,192.46,149,193.57Z"/><path class="cls-9" d="M147.22,197.2l-.62-.36,2.14-10.26,2.65.09C152.8,193.29,147.22,197.2,147.22,197.2Z"/><path class="cls-19" d="M94.56,92S90.6,86,81.17,93.5s-8,21.56-8,21.56,4.78,16,7.11,19.22,16.07,23.43,16.07,23.43,14.45,16.42,23.88,23.06,26.33,16.43,26.33,16.43,5.83-4.08,4.08-10.95c0,0-3.26-.81-4.89-2.56s-3.61-3.85-3.61-3.85-2.8-1.16-2.8-2.44-5.12-5.48-5.12-5.48-.36-1.75-1.64-2.1-3.14-4.64-3.14-4.64-4.32-5-4.43-6.64-2-1.75-2-1.75-1.63-3.26-1.63-4.08-2.45-2.44-2.45-2.44L115.06,146s1-3-2.68-5.36-4.2-9-4.2-9l-3.61-7.8a2.05,2.05,0,0,0,.93-2.45,8.18,8.18,0,0,0-1.63-3s1.4-.81.23-2.68-1.39-6.29-1.39-6.29l-2.8-7.81S99.34,94.08,94.56,92Z"/><path class="cls-9" d="M104.35,144.18s12.11-3.14,8.5-.58S104.35,144.18,104.35,144.18Z"/><path class="cls-9" d="M102.72,157.35s9.2-1.63,7.1.46S102.72,157.35,102.72,157.35Z"/><path class="cls-9" d="M84.54,102.82S96.89,106.08,99.81,113Z"/><g class="cls-14"><path class="cls-15" d="M73,67.6a4.05,4.05,0,0,0-1.23-3.22,6.89,6.89,0,0,1-1.06-.73l0,0a1.58,1.58,0,0,0,.16,1.68,5.25,5.25,0,0,0,1.06.73,3.22,3.22,0,0,1,1.13,2.18C73.05,68,73.05,67.8,73,67.6Z"/><path class="cls-15" d="M72.5,58.52a2.16,2.16,0,0,0,.14.43,1.7,1.7,0,0,0,.1-1,2.16,2.16,0,0,0-.14-.43A1.7,1.7,0,0,0,72.5,58.52Z"/><path class="cls-15" d="M116.91,59.43a10.1,10.1,0,0,1-.77,2.69,1.89,1.89,0,0,1-.51.77,1.59,1.59,0,0,1-.87.24c-2.51.14-4.88-1.24-7.39-1.26a1.49,1.49,0,0,0-1,.25c-.43.37-.36,1-.41,1.6a3.29,3.29,0,0,1-1.66,2.56c-1.19.66-2.75.54-3.77,1.42s-1.13,2.42-.87,3.85a3,3,0,0,1,1-2.22c1-.88,2.58-.77,3.77-1.42a3.33,3.33,0,0,0,1.66-2.56c0-.57,0-1.23.41-1.6a1.48,1.48,0,0,1,1-.25c2.51,0,4.88,1.41,7.38,1.27a1.61,1.61,0,0,0,.88-.25,1.89,1.89,0,0,0,.51-.77A6.85,6.85,0,0,0,116.91,59.43Z"/><path class="cls-15" d="M98.2,77.17a3,3,0,0,1-3.17-1c-.94-1.19-.81-2.86-1.06-4.36a8.25,8.25,0,0,0-2.3-4.45,4.43,4.43,0,0,0-2-1.24,2.32,2.32,0,0,0-2.22.58c-.75.8-.63,2-.72,3.13a7,7,0,0,1-2.89,5c-1.56,1.1-3.49,1.51-5.28,2.18-1.19.44-3.92,3.08-5.09,2.55a2,2,0,0,1-1-1.51c-.05,1.39.17,2.7,1.17,3.15,1.17.52,3.89-2.12,5.09-2.57,1.79-.66,3.72-1.06,5.28-2.17a7,7,0,0,0,2.89-5c.09-1.09,0-2.32.71-3.13a2.33,2.33,0,0,1,2.22-.58,4.38,4.38,0,0,1,2,1.24,8.3,8.3,0,0,1,2.31,4.45c.25,1.5.12,3.17,1.06,4.36a2.91,2.91,0,0,0,5.2-1.63,4.57,4.57,0,0,0-.16-1.33A3,3,0,0,1,98.2,77.17Z"/></g><path class="cls-22" d="M19.17,146a2.69,2.69,0,0,0-.4.77,1.43,1.43,0,0,0-.08.22l-.14-.05a2.5,2.5,0,0,0-.67-.06v-.26c0-.95-.08-2.28-1-1.72s-.25,1.44.31,2l.15.14c-.52.37-.61,1.22-.7,2.1a5,5,0,0,1-1.33,2.42l-.14.15a1.81,1.81,0,0,0-1.45-.37c0-.08-.05-.16-.07-.25-.41-1.46-1.25-4-2.32-4.55l.13-.18c.46-.6,1-1.48.22-1.71s-.83.77-.79,1.51a1.14,1.14,0,0,0,0,.27,1.13,1.13,0,0,0-.78.39l-.12-.14c-.61-.73-1.74-1.88-2.08-1s.66,1.86,1.37,2.48l0,0c-.47,1.9,1.58,3.46,2.68,4.13l.15.09a16.37,16.37,0,0,0-2.46,5.15l4.25.76s2.83-2.43,2.46-4.72h0c2.82-.57,3.46-3.57,3-5.36l.05,0a3.13,3.13,0,0,0,1.31-1A1,1,0,0,0,19.17,146Z"/><path class="cls-9" d="M19.17,146a2.69,2.69,0,0,0-.4.77,1.43,1.43,0,0,0-.08.22l-.14-.05a2.5,2.5,0,0,0-.67-.06v-.26c0-.95-.08-2.28-1-1.72s-.25,1.44.31,2l.15.14c-.52.37-.61,1.22-.7,2.1a5,5,0,0,1-1.33,2.42l-.14.15a1.81,1.81,0,0,0-1.45-.37c0-.08-.05-.16-.07-.25-.41-1.46-1.25-4-2.32-4.55l.13-.18c.46-.6,1-1.48.22-1.71s-.83.77-.79,1.51a1.14,1.14,0,0,0,0,.27,1.13,1.13,0,0,0-.78.39l-.12-.14c-.61-.73-1.74-1.88-2.08-1s.66,1.86,1.37,2.48l0,0c-.47,1.9,1.58,3.46,2.68,4.13l.15.09a16.37,16.37,0,0,0-2.46,5.15l4.25.76s2.83-2.43,2.46-4.72h0c2.82-.57,3.46-3.57,3-5.36l.05,0a3.13,3.13,0,0,0,1.31-1A1,1,0,0,0,19.17,146Z"/><path class="cls-22" d="M10.69,147.23l-.49,1.46c-.22-.16-.43-.33-.63-.5-.69-.61-1.69-1.66-1.37-2.48s1.47.28,2.08,1C10.53,147,10.69,147.23,10.69,147.23Z"/><path class="cls-22" d="M11.75,146.4c-.26.33-.49.57-.49.57,0-.25-.07-.51-.09-.77,0-.74,0-1.73.79-1.51S12.2,145.8,11.75,146.4Z"/><path class="cls-22" d="M18.16,146.63a6.14,6.14,0,0,1-.06.86,6.42,6.42,0,0,1-.62-.55c-.56-.59-1.18-1.49-.31-2S18.19,145.68,18.16,146.63Z"/><path class="cls-22" d="M21.09,147.26a3.17,3.17,0,0,1-1.3,1,3.89,3.89,0,0,1-.44.16l-.58-.83a5.65,5.65,0,0,1,.24-.8,2.74,2.74,0,0,1,.42-.77A1,1,0,0,1,21.09,147.26Z"/><path class="cls-9" d="M10.28,146.72c.25.29.41.51.41.51l-.49,1.46c-.22-.16-.43-.33-.63-.5a2.94,2.94,0,0,1,.57-1.29Z"/><path class="cls-9" d="M11.75,146.4c-.26.33-.49.57-.49.57,0-.25-.07-.51-.09-.77A1.09,1.09,0,0,1,11.75,146.4Z"/><path class="cls-22" d="M14.19,152.18l-1.23.55c-.23-.12-.45-.24-.67-.38-1.3-.8-3.91-2.81-2.16-5.18s3.22,1.88,3.79,4C14.1,151.75,14.19,152.18,14.19,152.18Z"/><path class="cls-9" d="M17.48,146.94a1,1,0,0,1,.68-.31,6.14,6.14,0,0,1-.06.86A6.42,6.42,0,0,1,17.48,146.94Z"/><path class="cls-9" d="M19.8,148.25a3.26,3.26,0,0,1-.44.15l-.59-.82a5.65,5.65,0,0,1,.24-.8A2.12,2.12,0,0,1,19.8,148.25Z"/><path class="cls-22" d="M16.73,153.62l-.21,0c-4.15.63-1.37-1.61-1.37-1.61a6.22,6.22,0,0,0,.44-.45,4.83,4.83,0,0,0,1.33-2.42c.13-1.34.28-2.6,1.87-2.23S20.65,152.84,16.73,153.62Z"/><rect class="cls-23" x="8.72" y="163.95" width="7.93" height="2.08"/><rect class="cls-23" x="7.46" y="157.18" width="10.36" height="7.28"/><rect class="cls-9" x="8.72" y="163.95" width="7.93" height="2.08"/><rect class="cls-9" x="7.46" y="157.18" width="10.36" height="7.28"/><rect class="cls-23" x="9.24" y="163.95" width="7.93" height="2.08"/><path class="cls-9" d="M13.92,151.13c.18.62.27,1.05.27,1.05l-1.23.55c-.23-.12-.45-.24-.67-.38A3.25,3.25,0,0,1,13.92,151.13Z"/><path class="cls-9" d="M16.73,153.62l-.21,0c-4.15.63-1.37-1.61-1.37-1.61a6.22,6.22,0,0,0,.44-.45A2.76,2.76,0,0,1,16.73,153.62Z"/><path class="cls-22" d="M10,157.59s2.32-8.3,5.58-5.75-1.33,6.51-1.33,6.51Z"/><circle class="cls-9" cx="11.15" cy="148.47" r="0.26"/><circle class="cls-9" cx="11.13" cy="149.69" r="0.26"/><circle class="cls-9" cx="18.69" cy="148.71" r="0.26"/><circle class="cls-9" cx="12.61" cy="154.94" r="0.26"/><circle class="cls-9" cx="18.15" cy="150.73" r="0.26"/><circle class="cls-9" cx="15.45" cy="153.42" r="0.26"/><circle class="cls-9" cx="12.04" cy="148.99" r="0.26"/><circle class="cls-9" cx="17.97" cy="149.49" r="0.26"/><circle class="cls-9" cx="17.08" cy="151.51" r="0.26"/><circle class="cls-9" cx="14.35" cy="154.74" r="0.26"/><circle class="cls-9" cx="13.78" cy="153.46" r="0.26"/><circle class="cls-9" cx="12.43" cy="150.58" r="0.26"/><rect class="cls-9" x="9.24" y="163.95" width="7.93" height="0.76"/><rect class="cls-23" x="7.98" y="157.18" width="10.36" height="7.28"/><circle class="cls-9" cx="14.69" cy="155.92" r="0.26"/><circle class="cls-9" cx="13.13" cy="156.24" r="0.26"/><path class="cls-22" d="M320.76,118.82s2.6-7.77,9.45-4.91c0,0-3.18,6.94-9.1,6.15Z"/><path class="cls-22" d="M319.69,111s2.89-7.8,9.73-4.35c0,0-4,7.17-9.4,5.53Z"/><path class="cls-22" d="M319.38,103.88s3.86-7.63,9.4-6.57c0,0-4,8.08-9.18,8.25Z"/><path class="cls-22" d="M319.55,97s4.34-9.25,8.76-7.8c0,0-3.11,7.09-8.83,9.33Z"/><path class="cls-22" d="M320.29,88.82s3.92-7.66,8.44-7.3c0,0-3,7.66-8.66,9.4Z"/><path class="cls-22" d="M320.9,81.21s4.58-7.57,7.57-7.3c0,0-2.67,7.73-7.47,8.67Z"/><path class="cls-22" d="M321.61,74.14s3.4-8.45,6.46-8.73c0,0-1.5,7.12-6.27,9.44Z"/><path class="cls-22" d="M321.9,64.8s3.23-6.67,5.79-7.35c0,0-1.74,8.16-5.49,9.15Z"/><path class="cls-22" d="M321.9,58.64l1.46-12.4s3,10-1.46,14.62Z"/><path class="cls-22" d="M320.33,45.85s-1.84-9.5-2.54-10.12c0,0,5.42,6.81,3.65,14.23Z"/><path class="cls-22" d="M320.4,124.62q-2.43,1.71-4.8,3.54l-.92.73a10.85,10.85,0,0,1-2.93-.92C314.84,123.65,318.39,123.94,320.4,124.62Z"/><path class="cls-22" d="M320.81,119s-5-6.49-10.53-1.55c0,0,5.27,5.52,10.62,2.84Z"/><path class="cls-22" d="M320.05,110.88s-5-6.63-10.57-1.35c0,0,5.89,5.71,10.6,2.59Z"/><path class="cls-22" d="M320,103.74s-3.45-7.84-9-7.06c0,0,3.54,8.3,8.72,8.73Z"/><path class="cls-22" d="M319.69,97s-3.2-9.7-7.76-8.8c0,0,2.24,7.42,7.63,10.33Z"/><path class="cls-22" d="M320.68,88.41s-3.62-7.81-8.16-7.63c0,0,2.74,7.77,8.3,9.73Z"/><path class="cls-22" d="M321.43,81.13s-2.43-8.51-5.38-9c0,0,.54,8.16,4.93,10.33Z"/><path class="cls-22" d="M321.78,74s-2.82-8.66-5.86-9.15c0,0,1,7.2,5.61,9.84Z"/><path class="cls-22" d="M322.47,65.4s-2-7.13-4.4-8.27c0,0,.28,8.35,3.8,10Z"/><path class="cls-22" d="M321.58,58.35,316.39,47s.17,10.44,5.88,13.47Z"/><path class="cls-22" d="M318.65,46.45s-7-6.64-7.19-7.56c0,0,2.85,8.22,10.06,10.7Z"/><path class="cls-22" d="M318.55,43.93s-7.69-10.07-10-10.41a14.89,14.89,0,0,1,10.29,10Z"/><path class="cls-24" d="M322.19,66.67h-.33c.33-13.55-.94-21.78-3.58-23.18l.15-.3C321.24,44.67,322.54,52.79,322.19,66.67Z"/><path class="cls-24" d="M319.82,98.83l-.51,0c.09-1.26.2-2.54.34-3.81,1.21-11.08,2-21.29,2.22-29l.33-.31C322,73.4,321.35,84,320.14,95,320,96.3,319.9,97.58,319.82,98.83Z"/><path class="cls-24" d="M321.25,120.08c.23,1.16.49,2.31.76,3.42l-.66.47c-.28-1.17-.53-2.34-.75-3.54-.13-.69-.25-1.39-.36-2.08q-.47-2.91-.72-5.9l-.09-1.09-.09-1.28v-.2c-.09-1.51-.14-3-.15-4.55,0-1,0-2.1,0-3.16s.08-2.25.14-3.37a2.27,2.27,0,0,1,0-.45c0-.14,0-.3,0-.46v-.1l.12.09.11.07.25.17v.23c-.11,1.6-.16,3.16-.18,4.69v2.52c0,1.47.09,2.91.19,4.32,0,.21,0,.42.05.63a1.62,1.62,0,0,0,0,.22l.06.62.07.77v.11c.21,2.12.49,4.18.85,6.16C321,119,321.13,119.52,321.25,120.08Z"/><path class="cls-22" d="M353.43,103.8l-.75.51c-2.16,1.45-4.36,2.85-6.56,4.22v.67l-.14,0,0-.53,0-.56h0v-.19l.25-.38C346.94,106.34,349.62,103,353.43,103.8Z"/><path class="cls-22" d="M346.45,100s4.43-7,10.41-2.25c0,0-5.38,6.2-10.33,3.49Z"/><path class="cls-22" d="M347.62,93s5.35-6.68,10.55-4.49c0,0-5.57,7.09-10.69,6.19Z"/><path class="cls-22" d="M349.2,86.26s6.15-8.16,10.18-5.83c0,0-4.51,6.3-10.56,7.32Z"/><path class="cls-22" d="M351.61,78.43s5.41-6.69,9.76-5.4c0,0-4.55,6.87-10.41,7.42Z"/><path class="cls-22" d="M353.77,71.11s6-6.46,8.91-5.58c0,0-4.21,7-9.1,6.94Z"/><path class="cls-22" d="M355.92,64.34S361,56.76,364,57.13c0,0-2.94,6.64-8.07,7.95Z"/><path class="cls-22" d="M358.13,55.26s4.53-5.85,7.18-6c0,0-3.38,7.63-7.27,7.83Z"/><path class="cls-22" d="M359.4,49.22l4-11.83s.92,10.4-4.44,14Z"/><path class="cls-22" d="M360.49,36.39s.15-9.67-.4-10.42c0,0,3.9,7.78.64,14.67Z"/><path class="cls-22" d="M335.2,115a9.08,9.08,0,0,1,4.17-2.34l-4.05,2.44Z"/><path class="cls-22" d="M345.91,108.07h0l-.1.64-.09.63-.33.07a6.1,6.1,0,0,1-.94.14c-5.1.38-8.55-5.17-8.55-5.17,5.14-2.95,8.44,1.15,9.56,2.93C345.74,107.74,345.88,108,345.91,108.07Z"/><path class="cls-22" d="M346.83,100s-3.54-7.51-10.06-3.49c0,0,4.59,6.79,9.83,4.7Z"/><path class="cls-22" d="M348.27,93s-1.76-8.38-7.39-8.77c0,0,1.77,8.84,6.74,10.34Z"/><path class="cls-22" d="M349.36,86.27s-1.14-10.16-5.78-10.21c0,0,.66,7.72,5.35,11.68Z"/><path class="cls-22" d="M352.07,78.1s-1.93-8.38-6.41-9.12c0,0,1.08,8.16,6.11,11.23Z"/><path class="cls-22" d="M354.3,71.13s-.62-8.82-3.4-9.94c0,0-1.15,8.1,2.7,11.12Z"/><path class="cls-22" d="M356.11,64.23s-1-9.07-3.84-10.16c0,0-.49,7.25,3.47,10.78Z"/><path class="cls-22" d="M358.56,56s-.49-7.39-2.6-9c0,0-1.46,8.23,1.66,10.55Z"/><path class="cls-22" d="M359.14,48.88,356.4,36.7s-2,10.25,3,14.39Z"/><path class="cls-22" d="M358.72,36.62s-5.52-7.94-5.48-8.87c0,0,1.1,8.63,7.63,12.54Z"/><path class="cls-22" d="M359.14,34.14s-5.47-11.44-7.65-12.25a15,15,0,0,1,8,11.89Z"/><path class="cls-24" d="M358,57.13l-.33-.07c3.12-13.19,3.57-21.51,1.27-23.43l.21-.26C361.62,35.42,361.22,43.63,358,57.13Z"/><path class="cls-24" d="M349.08,88.13l-.49-.14c.34-1.21.72-2.44,1.12-3.65,3.47-10.59,6.36-20.41,8.14-27.93l.4-.23c-1.78,7.53-4.59,17.72-8.06,28.32C349.79,85.7,349.42,86.92,349.08,88.13Z"/><path class="cls-24" d="M349.28,87.44l-.06.23c-.45,1.53-.83,3-1.15,4.54,0,.11,0,.22-.07.34-.14.66-.28,1.32-.41,2a.58.58,0,0,1,0,.14c-.31,1.66-.58,3.29-.78,4.89a1.81,1.81,0,0,1,0,.23h0c-.06.46-.12.92-.16,1.39v.1c-.24,2.12-.38,4.18-.44,6.2,0,.33,0,.7,0,1v.66l-.14,0,0-.53-.14.08-.08.63-.34.07V109c0-.55,0-1.1.07-1.66q.15-2.94.51-5.93c.09-.77.2-1.56.31-2.34h0c.22-1.57.49-3.12.82-4.68.2-1,.42-2.06.66-3.08h0c.25-1.11.53-2.2.83-3.28,0-.15.08-.29.11-.43h0c.05-.17.1-.33.14-.49l0,0,.09.1.1.1Z"/></g></g></svg>