<svg xmlns="http://www.w3.org/2000/svg" viewBox="0 0 333.43 155.5"><defs><style>.cls-1{fill:#cdac70;}.cls-2{fill:#3e3c55;}.cls-3{fill:#f5b4b5;}.cls-4{fill:#cfccdf;}.cls-5{fill:#2e2d40;}.cls-6{fill:none;stroke:#cfccdf;stroke-miterlimit:10;stroke-width:2px;}.cls-7{fill:#9c5f68;}</style></defs><title>reason_img3</title><g id="レイヤー_2" data-name="レイヤー 2"><g id="レイヤー_1-2" data-name="レイヤー 1"><path class="cls-1" d="M163.2,129.28c5,5.49,5.24,13.56,5.24,13.56s-7.82-.83-12.8-6.32S150.4,123,150.4,123,158.22,123.78,163.2,129.28Z"/><path class="cls-1" d="M178.89,137.85c-5.35,5.12-13.21,5.38-13.21,5.38s.81-8,6.16-13.15,13.21-5.38,13.21-5.38S184.24,132.73,178.89,137.85Z"/><path class="cls-2" d="M177.56,154.15H157.89a2,2,0,0,1-1.81-1.16l-4.28-9a2.1,2.1,0,0,1,.93-2.77,2.06,2.06,0,0,1,.88-.2h28.23a2,2,0,0,1,2,2.06,2.09,2.09,0,0,1-.21.91l-4.28,9A2,2,0,0,1,177.56,154.15Z"/><ellipse class="cls-3" cx="265.89" cy="27.08" rx="16.38" ry="16.82"/><path class="cls-3" d="M253.67,35.49s3.08,23.89-1.66,26.57S280.25,65,280.25,65s-7.36-20.72-4-27.05Z"/><path class="cls-4" d="M304.34,65.1,301.6,77.94l-5.8,27.14-.18,1.49-2,17.21-1.33,11.43-.89,7.68c-5.43,2.87-9.37,4.85-9.37,4.85s-.34-1.75-.88-4a80.74,80.74,0,0,1-16.84,3.51c2.18,2.49,3.18,4.83,1.82,6.56-4.09,5.2-21-5.7-26.9-9.77a17.06,17.06,0,0,0-.16,2.94l-4.52-3.57.45-8.22.75-13.91.95-17.44a18,18,0,0,1-.75-2.29c-1.39-5.06-3.07-15.16-4.36-23.63-1-6.82-1.81-12.58-2-13.81l0-.24,25-11.36C256.4,56.76,264.71,58,264.71,58A27.45,27.45,0,0,0,277,53.82Z"/><path class="cls-3" d="M283.93,142.86s-1.06.37-2.78.9a80.74,80.74,0,0,1-16.84,3.51c-5.14.34-9.49-.47-10.29-3.92a3.71,3.71,0,0,1,1.2-3.7c3.14-3,11.36-4.07,17.87-4.44,1.84-.1,3.54-.15,5-.17,2.41,0,4,0,4,0l0,.15Z"/><path class="cls-5" d="M252.27,11.17l-3.06-1.26s6.4-7.24,15.31-6.61L262,.47S268.14-2,273.7,4.56c2.93,3.48,6.32,7.56,8.43,12.16h3.28L284,19.82l4.79,3.09-4.92-.55a17.64,17.64,0,0,1,.13,5.13,6.68,6.68,0,0,1-2.36,4.34h0s-3.8-8.07-3.8-9.33v3.15s-3.06-2.83-3.06-4.72l-1.67,2.2-.84-3.46L262,23.13l1.67-2.83-6.4.94,2.5-3.46s-7.23,4.09-7.51,7.56a16.89,16.89,0,0,1-2.4,6.74S244.2,15.89,252.27,11.17Z"/><path class="cls-4" d="M322.14,124.09c-1.66,1.86-5.8,4.66-10.81,7.68-1.86,1.13-3.85,2.29-5.87,3.44-4.83,2.75-9.89,5.48-14.06,7.68-5.43,2.87-9.37,4.85-9.37,4.85s-.34-1.75-.88-4c-.73-3-1.83-6.84-3-8.55l-.12-.17c-.33-.45-.67-.71-1-.71l16.57-10.55,7.16-4.56-5.16-12.65L289.15,90.7l3.91-12.76L297,65.1h7.36s2.44,5.47,5.56,13.08l1.43,3.55C317.74,97.74,325.73,120.1,322.14,124.09Z"/><path class="cls-3" d="M266.13,153.83c-4.09,5.2-21-5.7-26.9-9.77-1.29-.88-2.06-1.44-2.06-1.44l5.41-7.41,1.71-2.34s1.54.83,3.8,2.19l.25.15c1.95,1.18,4.41,2.72,6.88,4.44a52,52,0,0,1,9.09,7.62C266.49,149.76,267.49,152.1,266.13,153.83Z"/><path class="cls-4" d="M248.09,135.06a10.84,10.84,0,0,0-1.8.15c-5.12.91-6.63,5.66-7.06,8.85a17.06,17.06,0,0,0-.16,2.94l-4.52-3.57-1.65-1.3a29.8,29.8,0,0,1-10.56-6.92,54.33,54.33,0,0,1-7.12-8.66,78.43,78.43,0,0,1-5.51-9.7,7.3,7.3,0,0,1-.09-6L215.22,98l8.19-18.74c.06-.44.12-.88.19-1.3,1.63-9.56,6-13.81,6-13.81h3.32l2.22,13.81,2.76,17.15L236,101.57l-4.47,15,4.27,4.76Z"/><path class="cls-1" d="M251.85,95.1l2.84,3.4c1.06-.2,2.16-.45,3.3-.72l-.82-2.68,2,2.39a265.62,265.62,0,0,0,26.94-8.94S270,89.76,258,87.06a11.36,11.36,0,0,0-13,6.64c-1.27,3-1.07,5.55,3.43,5.55a28.72,28.72,0,0,0,4.53-.44Z"/><path class="cls-2" d="M316.61,151v1.39a3.21,3.21,0,0,1-.2,1.11,2.77,2.77,0,0,1-.22.46,3,3,0,0,1-2.57,1.5H214.17a3,3,0,0,1-2.57-1.5,2.77,2.77,0,0,1-.22-.46,3.21,3.21,0,0,1-.2-1.11V151a3,3,0,0,1,3-3.07h5.73v-.65a.13.13,0,0,1,.13-.13h3a.12.12,0,0,1,.12.13h0V148H225v-.65a.13.13,0,0,1,.12-.13h3a.13.13,0,0,1,.12.13h0V148h1.87v-.65a.13.13,0,0,1,.13-.13h3a.12.12,0,0,1,.12.13h0V148h1.87v-.65a.13.13,0,0,1,.12-.13h3a.13.13,0,0,1,.12.13h0V148h1.87v-.65a.12.12,0,0,1,.12-.13h3a.13.13,0,0,1,.13.13h0V148h1.87v-.65a.13.13,0,0,1,.12-.13h3a.13.13,0,0,1,.12.13h0V148h1.87v-.65a.12.12,0,0,1,.12-.13h23.43a.13.13,0,0,1,.13.13h0V148h1.87v-.65a.12.12,0,0,1,.12-.13h3a.13.13,0,0,1,.13.13V148h1.87v-.65a.12.12,0,0,1,.12-.13h3a.13.13,0,0,1,.13.13h0V148h1.87v-.65a.12.12,0,0,1,.12-.13h3a.13.13,0,0,1,.13.13h0V148h1.87v-.65a.12.12,0,0,1,.12-.13h3a.13.13,0,0,1,.13.13V148h1.87v-.65a.12.12,0,0,1,.12-.13h3a.13.13,0,0,1,.13.13h0V148h1.87v-.65a.12.12,0,0,1,.12-.13h3a.13.13,0,0,1,.13.13h0V148h8.72a3,3,0,0,1,3,3.07Z"/><path class="cls-2" d="M308.6,92.57H271.53v-.78h-16.8v.78H217.5a2.54,2.54,0,0,0-2.5,2.58h0v52.12a2.54,2.54,0,0,0,2.5,2.58h91.1a2.54,2.54,0,0,0,2.51-2.58h0V95.15a2.55,2.55,0,0,0-2.51-2.58Z"/><ellipse class="cls-6" cx="263.13" cy="110.77" rx="5.57" ry="5.72"/><ellipse class="cls-4" cx="261.34" cy="112.83" rx="5.57" ry="5.72"/><ellipse class="cls-5" cx="97.86" cy="58.99" rx="8.11" ry="8.32"/><path class="cls-5" d="M100.12,50.9a8.21,8.21,0,0,1,8.11,8.32,8.58,8.58,0,0,1-1,4A8.49,8.49,0,0,0,106,51.47,8,8,0,0,0,94.6,52.78,8.62,8.62,0,0,0,93.79,54,8,8,0,0,1,100.12,50.9Z"/><ellipse class="cls-5" cx="82.72" cy="34.52" rx="23.81" ry="24.45"/><path class="cls-5" d="M64,19.35a23.37,23.37,0,0,1,33-2.56c-.2-.19-.39-.39-.59-.57a23.39,23.39,0,0,0-33.62,2,24.92,24.92,0,0,0,2,34.52l.62.53A24.91,24.91,0,0,1,64,19.35Z"/><ellipse class="cls-7" cx="82.52" cy="43.02" rx="15.34" ry="15.75"/><path class="cls-7" d="M71.62,48s2,19.06-1.21,21.14S89,74.1,89,74.1,85.74,53.38,93.82,48Z"/><path class="cls-4" d="M91,65.81s6-2.88-2.64-1.85a30.74,30.74,0,0,1-16.13-2.91s-2.62-2.7-3,.2,1.21,8.29-7.67,9.12-17-1.66-20.18,4.56-1.61,33.15-1.61,33.15,6,22.38,10.89,25.7,47.22-1.24,47.22-1.24L110,110.16V84.05S108.34,74.93,97,77.42c0,0-7.26-1.66-6.86-5.39S91,65.81,91,65.81Z"/><path class="cls-5" d="M52.24,149.62c.25-1.12.41-1.75.41-1.75l-.13-.91-1.33-9.27-.56-3.91c4.85-2.07,6.06-11.6,6.06-11.6l.18-.12.83-.5h0l3-1.82.06,0,1.2.82,2.44,1.67a28,28,0,0,0,22.54,5.3,24.47,24.47,0,0,0,5.3-1.57l5.87-2,.18-.06.18,0,3.45.54h.06l.29,0-.8,5.66-1.16,8.23c3.06,1.66,5.77,4.78,8.14,8.62.53.85,1,1.74,1.53,2.66.64,1.19,1.26,2.42,1.84,3.69l.21.46c.22.5.45,1,.66,1.5H51.17c.08-.51.16-1,.24-1.45v0c0-.16.06-.31.08-.46C51.77,151.8,52,150.54,52.24,149.62Z"/><path class="cls-5" d="M49.83,70a32.47,32.47,0,0,1,2.82,18.65C51,99,57.49,124.66,57.49,124.66l4.85-1.24s-3.23-21.55-2.42-26.53.8-24.45-3.23-26.93S49.83,70,49.83,70Z"/><path class="cls-5" d="M96.76,78.57l1.7,45.89,3.23,2.07s4.64-50.36,2.21-50.36H99a2.25,2.25,0,0,0-2.22,2.28Z"/><ellipse class="cls-1" cx="59.71" cy="121.55" rx="2.02" ry="2.07"/><ellipse class="cls-1" cx="100.07" cy="123.63" rx="2.02" ry="2.07"/><polygon class="cls-5" points="69.4 23.33 69.4 39.08 72.95 39.08 77.47 34.11 76.87 39.08 92.56 39.08 91.6 34.11 93.53 39.08 96.03 39.08 96.03 23.33 69.4 23.33"/><ellipse class="cls-7" cx="66.98" cy="39.7" rx="1.21" ry="2.28"/><ellipse class="cls-7" cx="98.05" cy="39.7" rx="1.21" ry="2.28"/><path class="cls-7" d="M106.33,123.42S88,119.9,86.75,126.11s20.38,3.53,20.38,3.53Z"/><path class="cls-4" d="M105.92,80.73s44,36.06,35.92,44.76-38.74,6.22-38.74,6.22l2-10.36,17.75-2.08L114,110.16l-8.07.83Z"/><path class="cls-7" d="M41,140.83l5.65,4.55s4,12.85,10.09,9.12-5.65-17-5.65-17L44.18,135Z"/><path class="cls-4" d="M46.6,74.1,41,75.84S1.8,105.6.19,113.89s7.67,12.84,7.67,12.84l35.11,17,3.63-9.95-16.55-8.7s1.21-2.49-3.63-2.9-5.65-5.81-5.65-5.81,9.69-15.33,14.93-12,6.86,5.81,6.86,5.81Z"/><path class="cls-2" d="M127,151v1.39a3,3,0,0,1-.21,1.11,3.82,3.82,0,0,1-.21.46,3,3,0,0,1-2.58,1.5H24.52A3,3,0,0,1,22,154a3.82,3.82,0,0,1-.21-.46,3,3,0,0,1-.21-1.11V151a3,3,0,0,1,3-3.07h5.74v-.65a.12.12,0,0,1,.12-.13h3a.13.13,0,0,1,.13.13h0V148h1.87v-.65a.12.12,0,0,1,.12-.13h3a.13.13,0,0,1,.13.13h0V148h1.87v-.65a.12.12,0,0,1,.12-.13h3a.13.13,0,0,1,.13.13h0V148h1.87v-.65a.12.12,0,0,1,.12-.13h3a.13.13,0,0,1,.13.13h0V148h1.86v-.65a.13.13,0,0,1,.13-.13h3a.14.14,0,0,1,.13.13h0V148h1.87v-.65a.12.12,0,0,1,.12-.13h3a.13.13,0,0,1,.13.13h0V148h1.86v-.65a.13.13,0,0,1,.13-.13H84.47a.12.12,0,0,1,.12.13h0V148h1.87v-.65a.13.13,0,0,1,.13-.13h3a.12.12,0,0,1,.12.13V148h1.87v-.65a.13.13,0,0,1,.13-.13h3a.12.12,0,0,1,.12.13h0V148h1.87v-.65a.13.13,0,0,1,.13-.13h3a.12.12,0,0,1,.12.13h0V148h1.87v-.65a.13.13,0,0,1,.13-.13h3a.12.12,0,0,1,.12.13V148h1.87v-.65a.13.13,0,0,1,.13-.13h3a.12.12,0,0,1,.12.13h0V148H112v-.65a.13.13,0,0,1,.13-.13h3a.12.12,0,0,1,.12.13h0V148H124a3,3,0,0,1,3,3.07Z"/><path class="cls-2" d="M119,92.57H81.89v-.78H65.08v.78H27.86a2.55,2.55,0,0,0-2.51,2.58v52.12a2.55,2.55,0,0,0,2.51,2.58H119a2.55,2.55,0,0,0,2.51-2.58V95.15A2.55,2.55,0,0,0,119,92.57Z"/><ellipse class="cls-6" cx="73.48" cy="110.77" rx="5.57" ry="5.72"/><ellipse class="cls-4" cx="71.7" cy="112.83" rx="5.57" ry="5.72"/><rect class="cls-2" x="4.11" y="153.79" width="329.32" height="0.71"/></g></g></svg>