<svg xmlns="http://www.w3.org/2000/svg" xmlns:xlink="http://www.w3.org/1999/xlink" viewBox="0 0 296.84 212.37"><defs><style>.cls-1,.cls-6{fill:#cdac70;}.cls-1,.cls-14,.cls-3{opacity:0.1;}.cls-1,.cls-11,.cls-3{isolation:isolate;}.cls-2{fill:#525460;}.cls-11,.cls-15,.cls-3{fill:#040000;}.cls-16,.cls-4{fill:#fff;}.cls-5{opacity:0.2;}.cls-7{fill:url(#名称未設定グラデーション_3);}.cls-8{fill:#4b4b74;}.cls-9{fill:#f5b5b5;}.cls-10{fill:#caccd8;}.cls-11{opacity:0.05;}.cls-12{fill:#464361;}.cls-13{fill:#472727;}.cls-16{font-size:13.66px;font-family:ToppanBunkyuMidashiGothicStdN-ExtraBold-83pv-RKSJ-H, Toppan Bunkyu Midashi Gothic;}.cls-17{letter-spacing:0.25em;}.cls-18{fill:gray;}</style><linearGradient id="名称未設定グラデーション_3" x1="-557.26" y1="9216.25" x2="-557.26" y2="9379.86" gradientTransform="matrix(1, 0, 0, -1, 788.63, 9422.23)" gradientUnits="userSpaceOnUse"><stop offset="0" stop-color="#7f8080" stop-opacity="0.25"/><stop offset="0.54" stop-color="#7f8080" stop-opacity="0.12"/><stop offset="1" stop-color="#7f8080" stop-opacity="0.1"/></linearGradient></defs><title>reason_img2_1</title><g id="レイヤー_2" data-name="レイヤー 2"><g id="レイヤー_1-2" data-name="レイヤー 1"><ellipse class="cls-1" cx="168.03" cy="205.27" rx="102.46" ry="7.11"/><path class="cls-1" d="M9.67,27.05C2,36,.11,47.3,0,58.16c-.07,7.66,1,16,7.37,21.61,8.41,7.43,24.56,8.89,28.73,18.38,3.69,8.44-4.91,16.92-13.17,22.88s-17.75,13.24-16.2,22.1c1,5.66,6.34,10.11,11.69,13.84,10.17,7.1,21.61,13.32,34.5,16.35,23.38,5.48,48.64-.2,70.55-8.79,13.49-5.29,29.15-11.78,42.55-6.34,3.54,1.44,6.54,3.61,9.8,5.4,9.48,5.2,21.06,7.11,32.33,8.73,16.52,2.39,33.88,4.38,49.79.08s29.67-16.91,27.23-30.34c-2.29-12.66-16.92-20.91-28.57-29.55-4.11-3.05-8.3-7.1-7.27-11.53.81-3.52,4.64-6,8-8.25,17.95-12,31.15-28.65,37.22-46.87,2.86-8.6,3.9-18.5-2.5-25.75-5.15-5.85-14-8.66-22.4-11-15.6-4.29-31.59-7.92-48-8.89s-33.36.88-47.92,7.07c-7,3-13.32,6.88-20.37,9.74-20,8.12-43.62,7-66,5.75-8-.46-16.32-1.27-23.25-4.76-6-3-9.38-5.16-16.77-5.49C33,11.9,18,17.32,9.67,27.05Z"/><polygon class="cls-2" points="133.39 88.16 133.12 88.7 131.43 92.18 113.64 128.71 83.45 202.68 79.13 202.72 109.34 128.71 129.92 86.44 131.43 87.19 133.12 88.03 133.39 88.16"/><polygon class="cls-2" points="159.72 202.81 156.16 202.78 125.97 128.81 108.65 93.24 106.49 88.8 106.23 88.26 106.49 88.13 108.65 87.06 109.69 86.54 129.97 128.81 159.72 202.81"/><rect class="cls-2" x="117.09" y="76.51" width="3.86" height="126.21"/><polygon class="cls-3" points="170.26 128.71 166.27 128.71 148.94 93.14 148.94 128.71 145.09 128.71 145.09 92.18 127.3 128.71 123 128.71 143.58 86.44 145.09 87.19 145.09 76.51 148.94 76.51 148.94 86.96 149.98 86.44 170.26 128.71"/><path class="cls-3" d="M151.49,60.8v1.58a4.92,4.92,0,0,1-9.83.22V60.8h1.23v1.58a3.69,3.69,0,1,0,7.37,0V60.8Z"/><rect class="cls-2" x="28.54" y="28.85" width="177.42" height="107.22"/><rect class="cls-4" x="31.69" y="32.22" width="170.71" height="100.25"/><g class="cls-5"><rect class="cls-6" x="41.97" y="63.75" width="6.75" height="3.08"/></g><g class="cls-5"><rect class="cls-6" x="41.97" y="69.7" width="6.75" height="3.08"/></g><g class="cls-5"><rect class="cls-6" x="41.97" y="75.65" width="6.75" height="3.08"/></g><g class="cls-5"><rect class="cls-6" x="41.97" y="81.59" width="6.75" height="3.08"/></g><g class="cls-5"><rect class="cls-6" x="41.97" y="87.54" width="6.75" height="3.08"/></g><g class="cls-5"><rect class="cls-6" x="101.8" y="114.61" width="6.75" height="3.08"/></g><g class="cls-5"><rect class="cls-6" x="113.7" y="114.61" width="6.75" height="3.08"/></g><g class="cls-5"><rect class="cls-6" x="125.59" y="114.61" width="6.75" height="3.08"/></g><g class="cls-5"><rect class="cls-6" x="137.49" y="114.61" width="6.75" height="3.08"/></g><g class="cls-5"><rect class="cls-6" x="149.38" y="114.61" width="6.75" height="3.08"/></g><g class="cls-5"><rect class="cls-6" x="161.28" y="114.61" width="6.75" height="3.08"/></g><g class="cls-5"><rect class="cls-6" x="173.17" y="114.61" width="6.75" height="3.08"/></g><g class="cls-5"><rect class="cls-6" x="185.07" y="114.61" width="6.75" height="3.08"/></g><g class="cls-5"><rect class="cls-6" x="196.96" y="114.61" width="6.75" height="3.08"/></g><rect class="cls-6" x="54.88" y="53.25" width="124.05" height="23.48"/><polygon class="cls-2" points="201.46 87.99 144.87 75.61 144.56 76.69 202.01 90.58 201.46 87.99"/><path class="cls-7" d="M264.65,111.18a21.87,21.87,0,0,0,2.22-12.78c-.8-7.81-3.71-20.45-3.71-20.45s1.26-7.07-5.59-8.07a24.29,24.29,0,0,1-7.3-2.71,7,7,0,0,1-2.62-2.61l-.12.33c-.06-.11-.13-.22-.18-.33a.64.64,0,0,0,0,.12l-1.17-1.82-.43.45a13.13,13.13,0,0,1-1.19-2.14,6,6,0,0,0,.85-.27,1.7,1.7,0,0,0,.7-.44,1.82,1.82,0,0,0,.31-.79,9.39,9.39,0,0,0,.16-2.75,12.81,12.81,0,0,1-.16-2.15c.05-.77.32-1.52.36-2.29a5.83,5.83,0,0,0-1.45-3.75c-.5-.65-1.06-1.24-1.49-1.93s-.65-1.27-1.05-1.85a6.44,6.44,0,0,0-4.17-2.44,14.86,14.86,0,0,0-4.93.17,42.63,42.63,0,0,1-4.28.66c-1.25.07-2.26-.35-3.41.48a3.26,3.26,0,0,0-1.32,2.38,1.23,1.23,0,0,0,0,.47,4.16,4.16,0,0,0,.24.47c.51,1-.26,2.18-.16,3.3a2.2,2.2,0,0,0,1.95,1.92,2.59,2.59,0,0,0-.14.29,9.85,9.85,0,0,0,5,13,9.63,9.63,0,0,0,3,.8l.44.34c1,.77,2.12,1.7,3.2,2.7l0,0-.18-.1a9,9,0,0,1-1,.71,9.63,9.63,0,0,1-4.44,1.5s-3.25,1.73-4.37,7.42a19.16,19.16,0,0,1-9.6,4.72c-6.39,1-14.27,1.26-14.27,1.26a3.3,3.3,0,0,0-.16.33l-.72-.14a1,1,0,0,1,0,.24l-.28-.13c-2.26-1-6.77-2.43-7.34,1.54-.77,5.32,4.31,4.71,4.31,4.71a23.63,23.63,0,0,1,3.07-.94l.28,0a1.79,1.79,0,0,0,.2.39h.69a8.16,8.16,0,0,0,.87,1.4L221.3,92a16.92,16.92,0,0,1,5.29-.22c-1.11,8.27-2.42,17.34-2.42,17.34s-2.73,14.36-.82,15.86a28.9,28.9,0,0,1,3.4-.91,14.6,14.6,0,0,0,.28,2.64l1.22,8s.48,8.19,2.07,13.08l1.4,6.69,1.18,5.05.66,8.58a81,81,0,0,1,2,11c.62,5.76,4,15.08,4.44,16.3-1.15,1.63-3.51,4.39-6.48,4.68-4.23.41-4.33,3-1.37,3.88s9.18,0,9.18,0l8.78-2.17c-.26,1.62-.4,2.9-.2,3,.56.41,9.08,2.62,9.39-.91,0-.3,0-.58.06-.85a18.05,18.05,0,0,0-.89-6.69c-.07-.21-.13-.42-.19-.64a3,3,0,0,0,.35-.45s.61-9.54,1.07-13a8.64,8.64,0,0,0,.07-1c.22-4.1-1.28-14.89-1.28-14.89s-1.85-7-1.78-10.24a3,3,0,0,1,.14-.79.76.76,0,0,0,0-.18.33.33,0,0,1,0-.13A75.45,75.45,0,0,1,256,145a8,8,0,0,1,.24-1.69,11.76,11.76,0,0,0,.23-2.21c.11-2.61,0-7.13-.21-11.37l.06-.23a2.42,2.42,0,0,0-.12-1c0-.27,0-.54,0-.81s.14-.56.2-.85h.12v0s8-.39,9.84-2.53c0,0-1.86-5.77-2.89-10.47Zm-34.46-18-.13,0c.2-.71.44-1.55.72-2.42Zm8.11-23.66,0,0,0,0Zm10,123.82c-.44-1.49-2.15-7.53-2.09-10.41a2.68,2.68,0,0,1,.13-.74,5.46,5.46,0,0,0,.24-1.61,43,43,0,0,0-1-8.39s-2.58-7.27-2.38-13c0-.14,0-.29,0-.43q.06-.82.09-1.77h0c.1-2.23.08-4.91,0-7.42l0-.09c-.09-3.31-.25-6.29-.32-7.47.24,1.7,1.76,12.32,2.42,14.05a35.71,35.71,0,0,0,2,9l1.79,10.77s.46,12.81,1.22,16.43c.34,1.62.63,2.7.85,3.41-.31,1.45-.81,3.87-1.14,5.87-.2-1.31-.9-6.28-1.85-8.19Z"/><path class="cls-8" d="M240.65,193.71s-3,5.41-7.19,5.81-4.29,2.94-1.36,3.85,9.1,0,9.1,0l8.81-2.18s-1.07-8.7-2.48-9.15S240.65,193.71,240.65,193.71Z"/><path class="cls-8" d="M251.38,193.81s-2.23,10-1.67,10.42,9,2.58,9.31-.91c0-.3,0-.58.06-.85a17.71,17.71,0,0,0-.88-6.62,5.1,5.1,0,0,1-.34-2C258,192.39,251.38,193.81,251.38,193.81Z"/><path class="cls-9" d="M248.61,67S241.78,83.79,243,78.4c.8-3.56-4.39-8.3-8-11.09-1.83-1.43-3.24-2.33-3.24-2.33s12.82-15,11.91-8.5a9.76,9.76,0,0,0,.7,5.2A13.67,13.67,0,0,0,248.61,67Z"/><path class="cls-9" d="M205,90.85a3.63,3.63,0,0,0-1.56.1,21.43,21.43,0,0,0-3.05.92s-5,.61-4.27-4.66c.57-3.93,5-2.51,7.27-1.53.77.33,1.27.61,1.27.61Z"/><path class="cls-3" d="M205,90.85a3.63,3.63,0,0,0-1.56.1c-.55-1.38-.13-4.66-.05-5.27.77.33,1.27.61,1.27.61Z"/><path class="cls-10" d="M205,85.81l-1.31-.23s-.68,4.52.2,5.71h1.52Z"/><path class="cls-8" d="M231.39,94.06s-4-2.4-4.5.63-1.11,8.22-1.11,8.22l-1.11,6.6-1.44,13.23.2,2.25s4.28-1.44,5.28-.94,1.83-5.56,1.83-5.56l1.66-6.27.25-13.3Z"/><path class="cls-3" d="M231.39,94.06s-4-2.4-4.5.63-1.11,8.22-1.11,8.22l-1.11,6.6-1.44,13.23.2,2.25s4.28-1.44,5.28-.94,1.83-5.56,1.83-5.56l1.66-6.27.25-13.3Z"/><path class="cls-8" d="M229.23,78.48a19.28,19.28,0,0,1-10.51,5.65c-6.33,1-14.15,1.26-14.15,1.26a6.86,6.86,0,0,0,.87,7.28l15.94-.35a15.33,15.33,0,0,1,6.26,0Z"/><path class="cls-11" d="M229.23,78.48a19.28,19.28,0,0,1-10.51,5.65c-6.33,1-14.15,1.26-14.15,1.26a6.86,6.86,0,0,0,.87,7.28l15.94-.35a15.33,15.33,0,0,1,6.26,0Z"/><path class="cls-3" d="M243.71,61.54c-1.56,3.33-4.26,5.78-8.19,5.78H235c-1.83-1.43-3.24-2.33-3.24-2.33s12.82-15,11.91-8.5C243.4,58.45,243.08,60.05,243.71,61.54Z"/><path class="cls-9" d="M245.3,57.24a9.78,9.78,0,1,1-9.78-9.78,9.79,9.79,0,0,1,9.78,9.78Z"/><path class="cls-10" d="M251.27,117s-21.8,1.93-22.6-.86,2.22-10.31,2.22-10.31l-1-10.53,0-.4s2.73-11.38,2.64-12.29,4.39-10.37,5.31-12.32l.17-.35.17.1.08,0,1.07.62,4.22-1L248.61,67l.47,29.12Z"/><path class="cls-3" d="M239.94,70.26a1.75,1.75,0,0,0-2.08,1.09,14,14,0,0,1-.8,1.87l-.58,3.46-1.07,5.48-.78,24.2.35,4.3,2-3.47.35-22.62V81.76a20.48,20.48,0,0,1,1.63-7.07l.27-.63,1.69-2.18Z"/><path class="cls-8" d="M239.64,70A1.74,1.74,0,0,0,237.56,71a15.66,15.66,0,0,1-.81,1.88l-.58,3.46-1.06,5.47-.79,24.21.36,4.3,1.95-3.48L237,84.27V81.45a20.7,20.7,0,0,1,1.62-7.06l.28-.64,1.69-2.17Z"/><path class="cls-3" d="M246,63.71s-5.16,5.47-7,6.12c0,0,.91,4.15,1.82,5,0,0,5.41-5.52,6.37-6l.81-2Z"/><path class="cls-10" d="M246,63.4s-5.16,5.47-7,6.12c0,0,.91,4.15,1.82,5,0,0,5.41-5.52,6.37-6l.81-2Z"/><path class="cls-3" d="M238.29,69.91l0,.14-1.65,4.43-3,8.37-.08.23c-.49,1.53-3.12,9.79-3.64,12.19l0-.4s2.73-11.39,2.64-12.3,4.39-10.36,5.31-12.32a2.51,2.51,0,0,0,.34-.25Z"/><path class="cls-8" d="M238,69.91l-1.71,4.57-2.95,8.37-.08.23c-.52,1.63-3.48,10.89-3.72,12.58-.26,1.86-4,11.91-4,11.91L223.42,125c-1.9-1.47.8-15.69.8-15.69s3-21.1,3.76-28.11,4.59-9.07,4.59-9.07A9.61,9.61,0,0,0,237,70.62,9,9,0,0,0,238,69.91Z"/><path class="cls-3" d="M259.41,181.92c-.45,3.39-1.06,12.85-1.06,12.85-2.12,3.18-6.83,1.46-6.83,1.46a21.55,21.55,0,0,1-1.26-4.55c-.76-3.6-1.22-16.29-1.22-16.29l-1.77-10.66a35,35,0,0,1-2-8.95c-.71-1.87-2.43-14.16-2.43-14.16s.72,11,.26,16.84,2.32,13.65,2.32,13.65,1.57,7.33.76,9.61,2,11.68,2,11.68c-.23,2.74-8.29,1.62-8.29,1.62s-3.79-10.17-4.45-16.29a81.12,81.12,0,0,0-2-10.94l-.66-8.5-1.16-5-1.39-6.63c-1.57-4.85-2.05-13-2.05-13l-1.22-8c-.79-3.94.24-8.56.93-11,.3-1,.53-1.69.53-1.69.7.5,4.69,1.08,6.76,1.55a11.76,11.76,0,0,0,3.45.27A76.87,76.87,0,0,0,254.14,113l.52-.16.11.91L255,116l.45,3.85s1.36,20.53.55,23.31.56,12.13.56,12.13c-.76,2.22,1.62,11.24,1.62,11.24S259.87,178.53,259.41,181.92Z"/><path class="cls-12" d="M259.41,181.62c-.45,3.39-1.06,12.85-1.06,12.85-2.12,3.19-6.83,1.46-6.83,1.46a21.55,21.55,0,0,1-1.26-4.55c-.76-3.6-1.22-16.29-1.22-16.29l-1.77-10.67a36.09,36.09,0,0,1-2-9c-.71-1.88-2.43-14.17-2.43-14.17s.72,11,.26,16.85,2.32,13.65,2.32,13.65,1.57,7.34.76,9.62,2,11.68,2,11.68c-.23,2.73-8.29,1.62-8.29,1.62s-3.79-10.16-4.45-16.28a80.84,80.84,0,0,0-2-10.94l-.66-8.5-1.16-5-1.39-6.62c-1.57-4.86-2.05-13-2.05-13l-1.22-8c-.79-3.93.24-8.56.93-11,.3-1,.53-1.68.53-1.68.7.49,4.69,1.07,6.76,1.54a12.11,12.11,0,0,0,3.45.28,77.6,77.6,0,0,0,15.41-2.83l.52-.16.11.91.25,2.17.45,3.85s1.36,20.53.55,23.31.56,12.13.56,12.13c-.76,2.22,1.62,11.24,1.62,11.24S259.87,178.23,259.41,181.62Z"/><path class="cls-3" d="M245.3,57.24a9.78,9.78,0,0,1-1.3,4.87,5.09,5.09,0,0,1-4.28-1,23,23,0,0,1-2-2.42,15.09,15.09,0,0,0-1.39-1.38,4.76,4.76,0,0,0-1.1-.8,1.49,1.49,0,0,0-1.32,0c-.54.3-.72,1-1,1.5a2,2,0,0,1-1.12,1,1.19,1.19,0,0,1-1.34-.45c-.33-.57-.09-1.46-.64-1.81a4.22,4.22,0,0,0-.45-.18c-.72-.32-.8-1.28-.86-2.07a1.32,1.32,0,0,0-.44-1,2,2,0,0,0-1.13-.09,1.87,1.87,0,0,1-.34,0,9.78,9.78,0,0,1,18.71,4Z"/><path class="cls-13" d="M226,44.53a3.28,3.28,0,0,0-1.32,2.37,1.2,1.2,0,0,0,0,.46,2.82,2.82,0,0,0,.23.46c.5,1-.26,2.17-.16,3.27A2.19,2.19,0,0,0,226.93,53c.38,0,.81-.12,1.13.09a1.27,1.27,0,0,1,.44,1c.06.78.14,1.74.86,2.07l.45.18c.56.35.31,1.24.64,1.81a1.21,1.21,0,0,0,1.34.45,2,2,0,0,0,1.12-1c.31-.53.49-1.18,1-1.5a1.49,1.49,0,0,1,1.32,0,4.37,4.37,0,0,1,1.1.8,15.2,15.2,0,0,1,1.4,1.38,21.72,21.72,0,0,0,2,2.42,5.41,5.41,0,0,0,5.54.68,1.7,1.7,0,0,0,.68-.44,1.57,1.57,0,0,0,.31-.77,9.28,9.28,0,0,0,.16-2.73,14,14,0,0,1-.16-2.14c0-.76.33-1.5.36-2.27a5.85,5.85,0,0,0-1.42-3.72c-.5-.64-1.05-1.23-1.48-1.91s-.65-1.25-1-1.83a6.28,6.28,0,0,0-4.13-2.42,14.83,14.83,0,0,0-4.88.16,38.46,38.46,0,0,1-4.26.66C228.14,44.13,227.13,43.71,226,44.53Z"/><path class="cls-3" d="M238,69.91l-1.71,4.57-2.95,8.37-.08.23v0L237,70.62A10.31,10.31,0,0,0,238,69.91Z"/><path class="cls-9" d="M256.45,122.28s.18,5.54-1.31,6.93l-4-7.48,3.33-1.62Z"/><path class="cls-3" d="M265.72,124.31c-1.82,2.12-9.75,2.5-9.75,2.5l-7.85-12.37s-1.86-1.29-5.35-7.09a21.53,21.53,0,0,1-3.18-13.62c.2-3.34,2.38-12.94,2.38-12.94.34-2.16,5.23-15.7,5.23-15.7a7,7,0,0,0,2.59,2.59A24.14,24.14,0,0,0,257,70.36c6.79,1,5.54,8,5.54,8s.08,27.27-.34,30.54S265.72,124.31,265.72,124.31Z"/><polygon class="cls-10" points="256.56 123.35 256.33 125.37 253.57 124.36 251.55 121.3 253.07 120.11 256.56 123.35"/><path class="cls-3" d="M256.46,115.51l-1.44.14L241.12,117a22.1,22.1,0,0,1-6.69-.33L228,115.42c.3-1,.53-1.68.53-1.68.7.49,4.69,1.07,6.76,1.54a11.76,11.76,0,0,0,3.45.28,76.88,76.88,0,0,0,15.41-2.83l.63.75Z"/><g class="cls-14"><path class="cls-15" d="M228.67,113.81l-.14-.07a.08.08,0,0,1,0,0Z"/><path class="cls-15" d="M258.21,166.19s-2.38-9-1.62-11.24c0,0-1.36-9.35-.55-12.13s-.56-23.31-.56-23.31l-.45-3.85-.25-2.17-.11-.91-.52.16-.32.09,0,.35.25,2.17.45,3.85s1.36,20.54.56,23.32.55,12.13.55,12.13c-.76,2.22,1.62,11.23,1.62,11.23s1.66,12.05,1.21,15.43-1.06,12.85-1.06,12.85c-1.55,2.33-4.48,2-5.95,1.71l0,.06s4.71,1.72,6.83-1.47c0,0,.61-9.46,1.06-12.84S258.21,166.19,258.21,166.19Z"/><path class="cls-15" d="M246.22,181.42c.81-2.28-.76-9.62-.76-9.62s-2.78-7.85-2.32-13.65c.19-2.43.18-5.75.1-8.8C242.59,145.41,242,141,242,141s.72,11,.26,16.84,2.32,13.66,2.32,13.66,1.57,7.33.76,9.61,2,11.67,2,11.67c-.2,2.19-5.4,1.91-7.46,1.72l.08.2s8,1.12,8.29-1.61C248.25,193.1,245.41,183.69,246.22,181.42Z"/></g><path class="cls-8" d="M266,124.31c-1.82,2.12-9.75,2.5-9.75,2.5l-7.85-12.37s-1.86-1.29-5.35-7.09a21.53,21.53,0,0,1-3.18-13.62c.19-3.34,2.38-12.94,2.38-12.94.34-2.16,5.23-15.7,5.23-15.7a6.91,6.91,0,0,0,2.59,2.59,24.14,24.14,0,0,0,7.24,2.68c6.79,1,5.54,8,5.54,8s.07,27.27-.35,30.54S266,124.31,266,124.31Z"/><path class="cls-3" d="M249,71.8l-1.71.64,1.14.8-8.5,20.48c.2-3.33,2.38-12.94,2.38-12.94.34-2.16,5.24-15.7,5.24-15.7a6.81,6.81,0,0,0,2.58,2.59Z"/><polygon class="cls-3" points="251 108.3 259.69 106.06 260.83 109.59 251.95 111.75 251 108.3"/><path class="cls-3" d="M256,73.24s-3.94,3.72-2.45,12,3.87,17.26,3.87,17.26L251,120.29s4.48,4.66,6.68,5.23l6.41-14.23a21.7,21.7,0,0,0,2.2-12.67c-.79-7.73-3.68-20.26-3.68-20.26S262.57,70.74,256,73.24Z"/><path class="cls-8" d="M256.28,73.24s-3.95,3.72-2.47,12,3.87,17.26,3.87,17.26l-6.42,17.8s4.47,4.66,6.67,5.23l6.43-14.23a21.79,21.79,0,0,0,2.2-12.67c-.8-7.73-3.68-20.26-3.68-20.26S262.88,70.74,256.28,73.24Z"/><path class="cls-3" d="M251.47,120.67s5,6.93,4.63,8.77a1.12,1.12,0,0,1-1.85.86l-2-2.7-1.77-5.06S250.68,120.35,251.47,120.67Z"/><path class="cls-3" d="M250.86,120.67s5,6.93,4.63,8.77a1.12,1.12,0,0,1-1.84.86l-2-2.7-1.77-5.06S250.08,120.35,250.86,120.67Z"/><path class="cls-12" d="M251.17,120.67s5,6.93,4.63,8.77a1.12,1.12,0,0,1-1.85.86l-2-2.7-1.77-5.06S250.38,120.35,251.17,120.67Z"/><g class="cls-5"><rect class="cls-6" x="41.69" y="51.72" width="6.75" height="3.08"/></g><g class="cls-5"><rect class="cls-6" x="41.69" y="57.42" width="6.75" height="3.08"/></g><text class="cls-16" transform="translate(58.27 70.36) scale(0.99 1)">エンジニ<tspan class="cls-17" x="54.63" y="0">ア</tspan><tspan x="71.71" y="0">55</tspan><tspan class="cls-17" x="88.92" y="0">0</tspan><tspan x="100.94" y="0">万</tspan></text><g class="cls-5"><rect class="cls-6" x="42.23" y="114.4" width="6.75" height="3.08"/></g><g class="cls-5"><rect class="cls-6" x="66.01" y="114.4" width="6.75" height="3.08"/></g><line class="cls-6" x1="84.66" y1="117.48" x2="77.91" y2="117.48"/><g class="cls-5"><rect class="cls-6" x="89.8" y="114.4" width="6.75" height="3.08"/></g><line class="cls-6" x1="108.45" y1="117.48" x2="101.7" y2="117.48"/><g class="cls-5"><rect class="cls-6" x="54.4" y="114.4" width="6.75" height="3.08"/></g><g class="cls-5"><rect class="cls-6" x="77.62" y="114.4" width="6.75" height="3.08"/></g><g class="cls-5"><rect class="cls-6" x="42.25" y="105.79" width="6.75" height="3.08"/></g><g class="cls-5"><rect class="cls-6" x="41.97" y="93.76" width="6.75" height="3.08"/></g><g class="cls-5"><rect class="cls-6" x="41.97" y="99.46" width="6.75" height="3.08"/></g><rect class="cls-18" x="55.06" y="82.02" width="84.96" height="23.48"/><text class="cls-16" transform="translate(58.73 98.79) scale(0.99 1)">全体 45<tspan class="cls-17" x="47.64" y="0">4</tspan><tspan x="59.66" y="0">万</tspan></text></g></g></svg>