<svg xmlns="http://www.w3.org/2000/svg" viewBox="0 0 186.51 179.77"><defs><style>.cls-1{fill:#3e3c55;}.cls-2{fill:#cdac70;}.cls-3{fill:#f5b5b5;}.cls-4{fill:#2e2d40;}.cls-5{fill:#fff;}.cls-6{fill:#555785;}</style></defs><title>studyday3_1</title><g id="レイヤー_2" data-name="レイヤー 2"><g id="レイヤー_1-2" data-name="レイヤー 1"><path class="cls-1" d="M178.18,0h-63.1A13.41,13.41,0,0,0,102,10.46L70.11,151.89a10.85,10.85,0,0,0,8.2,13,11.28,11.28,0,0,0,1.85.25L145,168.29a14.31,14.31,0,0,0,14.79-11.75l18.09-100,1.35.39L182.72,38l-1.39-.35,5-27.91a8.26,8.26,0,0,0-6.66-9.6A8.73,8.73,0,0,0,178.18,0Z"/><path class="cls-2" d="M123.39,3.05H116A9.27,9.27,0,0,0,107,10.34L76.36,150.61a5.76,5.76,0,0,0,4.39,6.84,6,6,0,0,0,.85.12l64.66,4.23a7.44,7.44,0,0,0,7.81-6.1l26.11-145a6.51,6.51,0,0,0-5.26-7.57,6.3,6.3,0,0,0-1.15-.1h-7a3.07,3.07,0,0,0-3,2.27h0a2.71,2.71,0,0,1-2.62,2H128a4.64,4.64,0,0,1-4.63-4.28Z"/><path class="cls-1" d="M0,179.77s48.25-7.08,78.15,0"/><path class="cls-1" d="M140.75,135.17h-.38l-4.47-.29L92.08,132a4.56,4.56,0,0,1-4.15-5.52L110.79,21.71a7.22,7.22,0,0,1,7-5.65h43.13a5.13,5.13,0,0,1,5.13,5.13,5.59,5.59,0,0,1-.08.91L146.48,130.39a5.85,5.85,0,0,1-1.26,2.7l-.06.13h0a5.73,5.73,0,0,1-1.7,1.31l0,0A5.85,5.85,0,0,1,140.75,135.17ZM117.81,16.58a6.7,6.7,0,0,0-6.51,5.24L88.44,126.6a4,4,0,0,0,2.66,4.67,3.93,3.93,0,0,0,1,.2l48.3,3.17a5.27,5.27,0,0,0,2.73-.56h0a5.22,5.22,0,0,0,1.53-1.19l.09-.1a5.38,5.38,0,0,0,1.18-2.49L165.47,22l.26.05-.26-.05a4.61,4.61,0,0,0-3.72-5.35,5.42,5.42,0,0,0-.81-.07Z"/><path class="cls-3" d="M94,122.91s-8.23,9.6-6.5,10.23,9.81-6.23,9.29-8.66Z"/><path class="cls-3" d="M142.4,131.81s4.47,11.83,2.63,11.83-7.1-9.2-5.78-11.31Z"/><path class="cls-4" d="M145.18,60.22c-.74-1-1.65-1.95-2.42-3-1.8-2.33-2.42-5.45-4.83-7.24s-6.16-3.51-9.15-3.37c-3.93.18-7,3.23-9.76,6.08l-6.21,6.54c-1.5,1.58-3,3.26-3.59,5.36a8.79,8.79,0,0,0,.94,6.07,14.7,14.7,0,0,0,4.06,4.84c2.08-2.86,5-6.81,5-6.81l.68,9.83a28.64,28.64,0,0,0,11,1.14l1.1-4,1.15,3.81c4.44-.59,8.9-2.12,11.64-5.59A11.72,11.72,0,0,0,145.18,60.22Z"/><circle class="cls-3" cx="128.21" cy="60.85" r="8.15"/><path class="cls-3" d="M123,64.79s.53,6.31-2.89,6.83-7.1,0-7.1,2.1S115.59,95,115.59,95l6.57-.52,9.2-8.94,5-9.72s-6-2.63-3.41-10.52Z"/><path class="cls-5" d="M119,91.33l-2.63-7.09.53-9.73s5.77-.79,5.64-5.52l-4.33,1.84-10,1.58v9.2a10.34,10.34,0,0,0,.53,11l1.84,11.56,18.92-1.31,6-7.89,7.62-15-7.89-5.78,1-1.58-4-2.62.61,5-1.84,3.15S122.69,79.77,119,91.33Z"/><path class="cls-5" d="M109.81,72.94l-1.58-.53a5.81,5.81,0,0,0-3.15,5.52c0,4.21-12.62,45.73-12.62,45.73l5.78,1.58,7.89-19.19,4.73-16Z"/><path class="cls-5" d="M141.09,80h2.1s1.31-1,1.05,6.57.79,47.84.79,47.84l-7.62-.53-1.84-43.36Z"/><path class="cls-4" d="M135.92,134.61l-14.36-1-3.49-.22-7.95-.53c-.12-.42-.23-.79-.31-1.1-2.63-9.73.26-23.39.26-23.39a2.72,2.72,0,0,1,0-2.1c.53-.79.27-.53-.79-1.58s0,0,.53-1.31,0,0,0-1.06a2.3,2.3,0,0,0-.53-1.58,4,4,0,0,1,.71-.43c5-2.39,21,.56,21,.56l0,0a1.28,1.28,0,0,0,.09,1.68c.79.79-.53.79-.79,1.57s0,0,.26.79-.52,1.84-.52,1.84C136.81,112.53,137.17,124.41,135.92,134.61Z"/><path class="cls-4" d="M121.56,133.66l-3.49-.22c.59-2.7.94-4.26.94-4.26Z"/><path class="cls-4" d="M119.4,54.93s6.57,7.89,19.71,3.42l-3.68-6.57-8.67-2.63Z"/><path class="cls-6" d="M58.67,170.89s3.72,3.13,5.67,2.93,5.67-.19,4.11,2-8,3.32-10.75,3.52-8.8.39-8.41-.79.78-6.64,2.35-7A62.48,62.48,0,0,1,58.67,170.89Z"/><path class="cls-6" d="M37.36,167.82s2.74,4,4.67,4.35,5.51,1.33,3.43,3-8.61,1-11.3.5-8.57-2-7.88-3,2.54-6.19,4.15-6.14A61.57,61.57,0,0,1,37.36,167.82Z"/><path class="cls-4" d="M60.85,110.48s2.51,17.22,1.93,20.35-1,8-1,8a29.64,29.64,0,0,1,0,6.06c-.39,1.95-2.74,20.52-2.74,20.91a5.29,5.29,0,0,1,0,2.54c-.39,1-1.17.2,0,1.76s.4,2,.2,2-7.82.78-8.21,0,.2-1,0-2-.39-1.17-.78-1.37-1.17.2-.59-.78,2-2.15,1.57-2.73.19-4.89.19-4.89.39-9.58.59-15.44A40.63,40.63,0,0,0,50.27,133a22.28,22.28,0,0,1-5.08,13.09c-5.08,6.06-7.62,17.4-7.62,17.4a4.18,4.18,0,0,0-.59,3.32c.59,1.56,2.35.58.59,1.56s-7.82-.39-8.41-1,.79-1.36.39-2.93-1.95-1.17-.58-1.95,1.76-.59,1.76-1.37,3.52-17.78,9-22.67l.39-17.78s-4.89-12.51.19-13.68S60.85,110.48,60.85,110.48Z"/><path class="cls-3" d="M57.31,64.19S54,72.4,54.77,73.57s-9.58-3.91-9.58-3.91,3.32-8.21,3.32-9.19S57.31,64.19,57.31,64.19Z"/><circle class="cls-3" cx="54.86" cy="59.01" r="7.23"/><path class="cls-4" d="M45.19,66.34s5.08-.59,7.62,2.54a30.55,30.55,0,0,1,2.93,3.91s6.06,9.77,4.89,14.65a12.38,12.38,0,0,0-.78,1.37c-.39.78-.39,11.73,0,13.49a9.56,9.56,0,0,1,.39,4.88c-.39,2.54,3.12,6.65-1,7.43s-7.23.19-8.6-1.56-.19-2.94-4.49-2.94a10.36,10.36,0,0,1-7-2.93s2.15-2.34,1.37-2.73,0-1.37.39-2.35.39-1.76-.2-1.76-.19-.39.2-1.37S34.05,81.19,38.35,76.3s6.45-7.62,6.45-7.62S44,65.75,45.19,66.34Z"/><path class="cls-3" d="M56.33,84.9v8.6l6.25,20.72s4.11,10.75,0,10.75-3.88-10.26-3.88-10.26L49.88,99.17s-3.52-12.31-3.13-13.29S56.33,84.9,56.33,84.9Z"/><path class="cls-4" d="M53,72.2s5.86,2.35,4.3,8.6,0,6.06,0,6.06-8-.78-10.56,1l-.58-2.34S43.82,72,53,72.2Z"/><path class="cls-4" d="M57.33,53.58A2.86,2.86,0,0,0,60,53.16a2.19,2.19,0,0,0,.62-2.58,3.51,3.51,0,0,0-1.94-1.44A18.21,18.21,0,0,0,53.43,48a4.89,4.89,0,0,0-2.55.34c-.38.2-.71.48-1.09.68a13.06,13.06,0,0,1-2.25.7,5.59,5.59,0,0,0-3.45,3.17,6.52,6.52,0,0,0-.43,1.57,8.75,8.75,0,0,0,.46,4.39C45,61,46.7,63,46.8,65.33c1.06-.78,1.46-2.18,2.32-3.19a4.39,4.39,0,0,1,2.47-1.43,1.39,1.39,0,0,0,.73-.27,1.12,1.12,0,0,0,.27-.62l.74-3.46a3,3,0,0,1,.91-1.9A2.83,2.83,0,0,1,55.43,54a19.56,19.56,0,0,1,3.06-.28"/></g></g></svg>