<svg xmlns="http://www.w3.org/2000/svg" viewBox="0 0 408.49 196.22"><defs><style>.cls-1{fill:#f1f1f1;}.cls-2,.cls-7{font-size:11.11px;font-family:HiraKakuStd-W8-83pv-RKSJ-H, Hiragino Kaku Gothic Std;}.cls-2{fill:#040000;}.cls-3{fill:#ccab6f;}.cls-4,.cls-5,.cls-7{fill:#fff;}.cls-4,.cls-5{stroke:#fff;stroke-miterlimit:10;}.cls-4{stroke-width:3px;}.cls-6{fill:#1a1a1a;}</style></defs><title>1</title><g id="レイヤー_2" data-name="レイヤー 2"><g id="レイヤー_1-2" data-name="レイヤー 1"><rect class="cls-1" y="14.07" width="408.49" height="182.15"/><text class="cls-2" transform="translate(77.52 60.23)">自分に適切な学習方法・内容が分からない</text><text class="cls-2" transform="translate(77.85 96.16)">エラーの解決方法が分からず進まない</text><text class="cls-2" transform="translate(77.85 133.19)">プログラミングを学ぶ目的が明確になっていない</text><text class="cls-2" transform="translate(77.85 170.23)">結局モチベーションが続かない</text><rect class="cls-3" x="54.37" y="52.15" width="9.7" height="9.66" rx="0.13" transform="translate(-22.94 58.56) rotate(-45)"/><line class="cls-4" x1="212.81" y1="67.29" x2="212.81" y2="67.29"/><rect class="cls-3" x="54.37" y="88.82" width="9.7" height="9.66" rx="0.13" transform="translate(-48.88 69.31) rotate(-45)"/><line class="cls-5" x1="69.65" y1="103.83" x2="358.87" y2="103.83"/><rect class="cls-3" x="54.37" y="125.5" width="9.7" height="9.66" rx="0.13" transform="translate(-74.81 80.05) rotate(-45)"/><line class="cls-5" x1="69.65" y1="140.5" x2="358.87" y2="140.5"/><rect class="cls-3" x="54.37" y="162.17" width="9.7" height="9.66" rx="0.13" transform="translate(-100.74 90.79) rotate(-45)"/><line class="cls-5" x1="69.65" y1="177.16" x2="358.87" y2="177.16"/><line class="cls-5" x1="69.31" y1="68.77" x2="358.54" y2="68.77"/><rect class="cls-6" x="114.53" width="177.05" height="28.14" rx="14.07"/><text class="cls-7" transform="translate(137.25 18.37)">プログラミング学習の課題</text></g></g></svg>