<svg xmlns="http://www.w3.org/2000/svg" xmlns:xlink="http://www.w3.org/1999/xlink" viewBox="0 0 183.62 156.02"><defs><style>.cls-1{opacity:0.5;}.cls-2{fill:url(#名称未設定グラデーション_2);}.cls-3{fill:#fff;}.cls-11,.cls-4{fill:#cdac70;}.cls-4{opacity:0.4;}.cls-10,.cls-4{isolation:isolate;}.cls-5{fill:#dcdbdb;}.cls-6{fill:url(#名称未設定グラデーション_2-2);}.cls-7{fill:#f5f5f5;}.cls-8{fill:#f3a07b;}.cls-9{fill:#333;}.cls-10{fill:#040000;opacity:0.1;}.cls-12{fill:url(#名称未設定グラデーション_2-3);}.cls-13{fill:#b87a5d;}.cls-14{fill:#e85e44;}.cls-15{fill:url(#名称未設定グラデーション_2-4);}.cls-16{fill:url(#名称未設定グラデーション_2-5);}</style><linearGradient id="名称未設定グラデーション_2" x1="266.89" y1="-6275.18" x2="335.18" y2="-6113.91" gradientTransform="matrix(1, 0, 0, -1, -224.67, -6115.8)" gradientUnits="userSpaceOnUse"><stop offset="0" stop-color="#7f8080" stop-opacity="0.25"/><stop offset="0.54" stop-color="#7f8080" stop-opacity="0.12"/><stop offset="1" stop-color="#7f8080" stop-opacity="0.1"/></linearGradient><linearGradient id="名称未設定グラデーション_2-2" x1="282.58" y1="-6242.87" x2="282.58" y2="-6195.28" gradientTransform="matrix(1, 0, 0, -1, -205, -6108.45)" xlink:href="#名称未設定グラデーション_2"/><linearGradient id="名称未設定グラデーション_2-3" x1="-4612.61" y1="-6180.29" x2="-4612.61" y2="-6132.68" gradientTransform="translate(-4506.81 -6108.45) rotate(180)" xlink:href="#名称未設定グラデーション_2"/><linearGradient id="名称未設定グラデーション_2-4" x1="244.96" y1="-6180.22" x2="244.96" y2="-6135.84" gradientTransform="matrix(1, 0, 0, -1, -205, -6108.45)" xlink:href="#名称未設定グラデーション_2"/><linearGradient id="名称未設定グラデーション_2-5" x1="-576.47" y1="-6246.22" x2="-576.47" y2="-6201.84" gradientTransform="translate(-432.81 -6108.45) rotate(180)" xlink:href="#名称未設定グラデーション_2"/></defs><title>studyday2_1</title><g id="レイヤー_2" data-name="レイヤー 2"><g id="レイヤー_1-2" data-name="レイヤー 1"><g class="cls-1"><path class="cls-2" d="M131.21,0,51.41.19a3.3,3.3,0,0,0-3.28,3.29h0l.37,149.27A3.27,3.27,0,0,0,51.78,156h0l79.8-.19a3.29,3.29,0,0,0,3.28-3.29h0L134.5,3.27A3.27,3.27,0,0,0,131.21,0Z"/></g><rect class="cls-3" x="49.48" y="2.13" width="84.04" height="151.68" rx="3.27" transform="translate(-0.19 0.22) rotate(-0.14)"/><path class="cls-4" d="M112.44,5.88a6.81,6.81,0,0,1-6.7,5.81l-29,.07A6.8,6.8,0,0,1,70,6L54.62,6a3.2,3.2,0,0,0-3.19,3.2h0l.33,137.7A3.19,3.19,0,0,0,55,150.1h0l73.44-.17a3.2,3.2,0,0,0,3.19-3.2h0L131.27,9a3.19,3.19,0,0,0-3.2-3.18h0Z"/><rect class="cls-5" x="81.21" y="7.76" width="18.73" height="1.17" rx="0.48" transform="translate(-0.12 1.36) rotate(-0.86)"/><circle class="cls-5" cx="103.91" cy="8.03" r="0.7"/><g class="cls-1"><path class="cls-6" d="M101.31,110.57a23.73,23.73,0,1,0-37,19.68l0,.1a7.86,7.86,0,0,0,2.69,1.71l0-.1c1.11,1,5.79,2.48,11.16,2.46h.12a21.8,21.8,0,0,0,10.35-2.36,1.52,1.52,0,0,0,.07-.18A8.17,8.17,0,0,0,91,130.35c0-.09,0-.18,0-.27A23.69,23.69,0,0,0,101.31,110.57Z"/></g><circle class="cls-7" cx="77.58" cy="110.57" r="23.02"/><path class="cls-8" d="M68.79,120s-5.49.45-4,10.44a8,8,0,0,0,2.61,1.67l3.09-10.44Z"/><path class="cls-8" d="M86.58,120s5.49.45,4,10.44a7.94,7.94,0,0,1-2.6,1.67l-3.09-10.45Z"/><path class="cls-9" d="M69,103.66s-2.61,7.59-4,6.87c0,0,13.74,11.87,25.86,0a36.09,36.09,0,0,0-5.22-6.88Z"/><circle class="cls-9" cx="77.83" cy="102.95" r="10.2"/><path class="cls-10" d="M86.48,120H68.68L67,127.15s-1,3.3.24,4.75,12.55,4.74,20.88.24a9.2,9.2,0,0,0,.24-5.93c-1-3.33-.24-.24-.24-.24Z"/><path class="cls-10" d="M86.71,120H68.92l-1.66,7.12s-1,3.3.24,4.75,12.55,4.74,20.88.24a9.27,9.27,0,0,0,.24-5.93c-1-3.33-.24-.24-.24-.24Z"/><path class="cls-11" d="M86.58,120H68.79l-1.66,7.12s-1,3.3.24,4.75,12.54,4.74,20.88.24a9.34,9.34,0,0,0,.24-5.93c-1-3.33-.24-.24-.24-.24Z"/><path class="cls-10" d="M74.24,114.12h7.13V121A2.37,2.37,0,0,1,79,123.38H76.6A2.37,2.37,0,0,1,74.24,121v-6.89Z"/><path class="cls-8" d="M74.24,113.86h7.13v6.89A2.37,2.37,0,0,1,79,123.12H76.6a2.37,2.37,0,0,1-2.36-2.37v-6.89Z"/><path class="cls-10" d="M74.26,114.89a10.26,10.26,0,0,0,7.12,0V114H74.26Z"/><circle class="cls-8" cx="77.83" cy="105.16" r="10.2"/><path class="cls-9" d="M68.08,101.29H87.53s-1.66-7.86-9-7.36S68.08,101.29,68.08,101.29Z"/><ellipse class="cls-8" cx="67.84" cy="104.73" rx="0.95" ry="1.78"/><ellipse class="cls-8" cx="87.77" cy="104.73" rx="0.95" ry="1.78"/><path class="cls-10" d="M68.08,101.55H87.53s-1.66-7.86-9-7.35S68.08,101.55,68.08,101.55Z"/><g class="cls-1"><path class="cls-12" d="M82.07,48a23.73,23.73,0,1,1,37,19.68l0,.11a8,8,0,0,1-2.69,1.73l0-.11c-1.11,1-5.79,2.48-11.16,2.47H105a21.8,21.8,0,0,1-10.35-2.36,1.52,1.52,0,0,1-.07-.18,8.56,8.56,0,0,1-2.24-1.53,2.51,2.51,0,0,0,0-.27A23.74,23.74,0,0,1,82.07,48Z"/></g><circle class="cls-7" cx="105.8" cy="47.97" r="23.02"/><path class="cls-13" d="M96.78,56.74s-5.49.45-4,10.44a7.91,7.91,0,0,0,2.6,1.66L98.44,58.4Z"/><path class="cls-13" d="M114.57,56.74s5.49.45,4,10.44A7.85,7.85,0,0,1,116,68.84L112.91,58.4Z"/><path class="cls-9" d="M97,40.37S96.59,41.6,96,43c-1.3,3.12.19,15.05,3.31,16.32a17.72,17.72,0,0,0,12.9.6c4.16-1.52,5.45-15.12,2.5-18.42-.34-.39-.7-.78-1.08-1.15Z"/><circle class="cls-9" cx="105.82" cy="39.66" r="10.2"/><path class="cls-10" d="M114.47,56.74H96.67L95,63.86s-1,3.29.24,4.74,12.55,4.75,20.88.24a9.2,9.2,0,0,0,.24-5.93c-1-3.32-.24-.24-.24-.24Z"/><path class="cls-10" d="M114.7,56.74H96.91l-1.66,7.12s-1,3.29.24,4.74,12.55,4.75,20.88.24a9.27,9.27,0,0,0,.24-5.93c-1-3.32-.24-.24-.24-.24Z"/><path class="cls-14" d="M114.57,56.74H96.78l-1.66,7.12s-1,3.29.24,4.74,12.55,4.75,20.88.24a9.27,9.27,0,0,0,.24-5.93c-1-3.32-.24-.24-.24-.24Z"/><path class="cls-10" d="M102.23,50.83h7.12v6.89A2.37,2.37,0,0,1,107,60.09h-2.4a2.37,2.37,0,0,1-2.37-2.37h0V50.83h0Z"/><path class="cls-13" d="M102.23,50.57h7.12v6.89A2.36,2.36,0,0,1,107,59.82h-2.4a2.36,2.36,0,0,1-2.37-2.36h0V50.57Z"/><path class="cls-10" d="M102.25,51.6a10.32,10.32,0,0,0,7.12,0v-.88h-7.12Z"/><circle class="cls-13" cx="105.82" cy="41.87" r="10.2"/><path class="cls-9" d="M96.07,38h19.45s-1.66-7.86-9-7.36S96.07,38,96.07,38Z"/><ellipse class="cls-13" cx="95.83" cy="41.44" rx="0.95" ry="1.78"/><ellipse class="cls-13" cx="115.76" cy="41.44" rx="0.95" ry="1.78"/><path class="cls-10" d="M96.07,38.26h19.45s-1.66-7.86-9-7.35S96.07,38.26,96.07,38.26Z"/><g class="cls-1"><path class="cls-15" d="M0,27.39V61.65H54s4,7.84,10.84,10.12c0,0-2.19-5.55.09-10.12h15V27.39Z"/></g><path class="cls-3" d="M2.16,28.57V61h54a9.45,9.45,0,0,0,6.48,8.64,10.43,10.43,0,0,1,0-8.64H77.77V28.57Z"/><rect class="cls-11" x="8.64" y="35.05" width="43.2" height="4.32"/><rect class="cls-11" x="8.64" y="41.53" width="58.33" height="4.32"/><rect class="cls-11" x="8.64" y="48.01" width="51.85" height="4.32"/><g class="cls-1"><path class="cls-16" d="M183.62,93.4v34.26h-54s-4,7.84-10.84,10.12c0,0,2.19-5.56-.09-10.12h-15V93.4Z"/></g><path class="cls-3" d="M181.46,94.57V127h-54a9.45,9.45,0,0,1-6.48,8.64,10.43,10.43,0,0,0,0-8.64H105.85V94.57Z"/><rect class="cls-11" x="114.73" y="101.05" width="43.2" height="4.32"/><rect class="cls-11" x="114.73" y="107.53" width="58.33" height="4.32"/><rect class="cls-11" x="114.73" y="114.01" width="51.85" height="4.32"/></g></g></svg>