<svg xmlns="http://www.w3.org/2000/svg" xmlns:xlink="http://www.w3.org/1999/xlink" viewBox="0 0 271.42 181.25"><defs><style>.cls-1,.cls-6{fill:#cdac70;}.cls-1,.cls-10,.cls-5{opacity:0.1;}.cls-1,.cls-5,.cls-7{isolation:isolate;}.cls-2{fill:url(#名称未設定グラデーション_2);}.cls-3{fill:#f6bbbb;}.cls-4{fill:#454352;}.cls-11,.cls-5,.cls-7{fill:#040000;}.cls-7{opacity:0.05;}.cls-8{fill:#3e3c55;}.cls-9{fill:#fff;}.cls-12{opacity:0.8;}.cls-13{fill:none;stroke:#3e3c55;stroke-miterlimit:10;stroke-width:3px;}.cls-14{fill:#51b669;}.cls-15{fill:#eb647e;}</style><linearGradient id="名称未設定グラデーション_2" x1="143.62" y1="-6942.38" x2="143.62" y2="-6808.76" gradientTransform="matrix(1, 0, 0, -1, -80.89, -6761.31)" gradientUnits="userSpaceOnUse"><stop offset="0" stop-color="#7f8080" stop-opacity="0.25"/><stop offset="0.54" stop-color="#7f8080" stop-opacity="0.12"/><stop offset="1" stop-color="#7f8080" stop-opacity="0.1"/></linearGradient></defs><title>studyday1_1</title><g id="レイヤー_2" data-name="レイヤー 2"><g id="レイヤー_1-2" data-name="レイヤー 1"><path class="cls-1" d="M160.84,29.12c-16.92-.58-33-6.05-48.42-12S81.79,4.5,65.27,1.33C54.65-.7,42.5-1,34,4.7c-8.24,5.49-10.9,14.94-12.33,23.72C20.54,35,19.91,42,22.86,48.16c2.05,4.29,5.68,7.9,8.2,12,8.74,14.31,2.56,32-6.92,45.92-4.44,6.55-9.61,12.81-13,19.77s-5,15-2,22.09S19.15,160.3,26.83,164c15.61,7.57,34,9.74,51.93,11,39.69,2.72,79.59,1.54,119.39.37,14.73-.44,29.52-.88,44-3.16,8-1.27,16.35-3.27,22.19-8.1,7.42-6.16,9.25-16.57,4.29-24.29-8.34-12.93-31.37-16.15-37.21-30-3.2-7.65.09-16.16,4.75-23.25,10-15.2,26.75-28.54,27.63-45.93.61-11.93-7.44-23.89-19.9-29.54-13-5.92-31.16-5.17-40.78,4.63C193.2,25.76,175.78,29.64,160.84,29.12Z"/><path class="cls-2" d="M117.31,170.32a9.6,9.6,0,0,0-1-2.73,9.21,9.21,0,0,0-1.71-1.87c-1.89-1.72-4.22-3.47-6.73-3a9.4,9.4,0,0,0-2.24.82c-.36.17-.73.34-1.11.48a5.5,5.5,0,0,1-3.35.3c-.57-.16-1.11-.43-1.68-.61a5.71,5.71,0,0,0-.82-.18,13.33,13.33,0,0,0,1.59-.83c2.82-1.73,5.07-4.85,4.76-8.18a13.68,13.68,0,0,0-.88-3.26l-1-2.78a12.1,12.1,0,0,0-1.68-3.42A8.55,8.55,0,0,0,98,142.59a33.19,33.19,0,0,0-8.83-2.05l-.21,0V108.06a2.1,2.1,0,0,0-2.09-2.1H82.9c-.17-1.06-.35-2.13-.52-3.19A29.93,29.93,0,0,0,80,93.91c-.92-1.79-2.37-3.49-4.34-3.84a4.8,4.8,0,0,1-1.12-.26c-.58-.29-.89-.91-1.33-1.38-1.14-1.19-3-1.21-4.52-1.83A23,23,0,0,1,65,84.28a4.8,4.8,0,0,0-4.11-.82,2.58,2.58,0,0,1,0,.29l-.87-.4a9.72,9.72,0,0,1-2.66-1.6,7.58,7.58,0,0,1-1.89-3.42l-.12-.4a12.18,12.18,0,0,0,3.25-6.21l.21.69c0,.15.11.3.17.45a1.78,1.78,0,0,0,.52.74.71.71,0,0,0,.22.13.86.86,0,0,0,.23.06.85.85,0,0,0,.32,0A1.23,1.23,0,0,0,61,73a1.68,1.68,0,0,0,.09-.32c0-.07,0-.13,0-.2v-.27a.32.32,0,0,0,0-.13v-.07a.77.77,0,0,0,0-.15c0-.05,0,0,0-.05s0-.13,0-.19v0s0-.11,0-.17a.93.93,0,0,1,0-.1v0h0c0-.1-.05-.21-.07-.31a9.14,9.14,0,0,1-.15-2.76,30.14,30.14,0,0,1,.75-4l.06-.24.06-.28.12-.57h0l.09-.48.07-.43v-.05a12.57,12.57,0,0,0,.1-2.94h0a6.19,6.19,0,0,0-1.48-3.69c-.65-.73-1.52-1.27-2.13-2s-.89-1.6-1.48-2.31c-1.63-1.94-5.82-3.44-8.39-3.71-2.94-.29-7.7.46-10.07,2.2a9.64,9.64,0,0,0-2.09,2.45,12.18,12.18,0,0,1-4.2,4.18,4.92,4.92,0,0,0-1.91,1.21,3.13,3.13,0,0,0-.51,1.35,26.38,26.38,0,0,0-.54,5.17h0v.65a4.53,4.53,0,0,0,.41,1.89c0,.09.08.18.13.27l0,.05a10.66,10.66,0,0,1,.83,1.43,2,2,0,0,1,.13.43,3.43,3.43,0,0,1-.07,1.15h0a1.36,1.36,0,0,1,0,.17l0,.11a.25.25,0,0,1,0,.12l-.06.33h0a2.28,2.28,0,0,0,.06.9,1.17,1.17,0,0,0,.58.79,1.59,1.59,0,0,0,.47.14l.5.09a2.47,2.47,0,0,1,.59.22,2.6,2.6,0,0,1,.51.32l.22.22a4.74,4.74,0,0,1,.37.51c0,.09.11.19.15.28a6.33,6.33,0,0,1,.45,1.19c.07.24.13.48.18.73l.06.33a3.06,3.06,0,0,1,.05.32h0a.78.78,0,0,0,.21,0,1.41,1.41,0,0,0,.72-1,1.6,1.6,0,0,0,0-.21c.06-.27.13-.55.19-.83a12.13,12.13,0,0,0,4.77,5.26l.21.65A4.45,4.45,0,0,1,40.77,84a3.72,3.72,0,0,1-1.93,1.5,1.27,1.27,0,0,0-.43-.37,2,2,0,0,0-2.09.59c-1,1-1.9,2.3-3.28,2.61a3.82,3.82,0,0,0-1.46.4,3.41,3.41,0,0,0-.67.89,3.13,3.13,0,0,1-2.68,1.33c-.47,0-1-.13-1.37.22s-.26.67-.52.92-.93.18-1.42.16a2.81,2.81,0,0,0-2.32,1.33,8.66,8.66,0,0,0-1.05,2.61v0l-.19.16a2.85,2.85,0,0,0-.58.94A44.63,44.63,0,0,0,17.1,112.5a1.7,1.7,0,0,1-.17.73,5.14,5.14,0,0,1-.38.42,1.46,1.46,0,0,0,.2,2.06l0,0a1.64,1.64,0,0,1,.28-.37c0,.12-.06.24-.08.35a9.31,9.31,0,0,0,0,2.3q.36,5.45.75,10.89c.07,1,.14,2.05.23,3.07.18,2,.45,4,.79,5.93a2,2,0,0,0,.05.26A7.17,7.17,0,0,0,14,142.11c-.28.71-.4,1.48-.74,2.15s-1,1.34-1.4,2.07a6.32,6.32,0,0,0-.48,4.18,14,14,0,0,0,3.92,7.16H15a4.07,4.07,0,0,0-1.78.64,12.12,12.12,0,0,0-5.63,12.3,5.29,5.29,0,0,0,1.09,2.57,4.07,4.07,0,0,0,1.9,1.16,6.17,6.17,0,0,0,1.4.26c3.22.26,6.33-1.23,9.56-1.35a24.34,24.34,0,0,1,3.19.15c1.56.13,3.11.21,4.67.24a6.17,6.17,0,0,0,5.57-2.5,6.87,6.87,0,0,0,1-1.56c1.37-.08,2.89-.2,4-.28l0,.15a2.08,2.08,0,0,0,.57,1.45,2,2,0,0,0,.78.32,33.84,33.84,0,0,0,8,1.31,34.88,34.88,0,0,0,3.82-.29l4.77-.55a23.17,23.17,0,0,1,4.11.89c1.38.47,2.67,1.16,4,1.71a39.69,39.69,0,0,0,9.85,2.17,2,2,0,0,0,1.64-.26c.54-.52.36-1.39.21-2.13q-.09-.45-.15-.9a45.19,45.19,0,0,1,6.6,2.29l.38.16c.1.57.63,1,1.13,1.64a4.46,4.46,0,0,0,.58.72,2.08,2.08,0,0,0,.83.3,38.4,38.4,0,0,0,10.7.48,10.88,10.88,0,0,1,2.21-.07,9.6,9.6,0,0,1,1.59.35l3,.87a20.26,20.26,0,0,0,6.82,1.14,8.29,8.29,0,0,0,1.4-.2,6.52,6.52,0,0,0,4.41-3.09C118.55,175.53,118,172.78,117.31,170.32Z"/><path class="cls-3" d="M32.68,169.81c-.55-1.26-1.07-2.7-.52-3.95a3.39,3.39,0,0,1,1.74-1.64,8.26,8.26,0,0,1,2.35-.58,32.63,32.63,0,0,1,7.65-.1,12.53,12.53,0,0,1-.54,4.38c-.31,1.3-.48,1.5-1.83,1.56C40.65,169.53,32.89,170.27,32.68,169.81Z"/><ellipse class="cls-4" cx="55.96" cy="150.89" rx="37.38" ry="10.46"/><ellipse class="cls-5" cx="55.96" cy="150.89" rx="37.38" ry="10.46"/><path class="cls-3" d="M62.67,95.68a11.65,11.65,0,0,1-6,5.45,15.22,15.22,0,0,1-4.76.91,13.73,13.73,0,0,1-5.26-.64A12.17,12.17,0,0,1,41.16,97,26.91,26.91,0,0,1,38,90.63,7,7,0,0,1,37.33,87c1.34-.31,2.82-.76,3.51-2a4.33,4.33,0,0,0,.09-3.43c-.1-.33-.21-.66-.32-1-.26-.75-1.17-2.19-.53-2.84.4-.41,2.08-.62,2.66-.89,1.78-.82,3.42-2,5.38-2.4a13.06,13.06,0,0,1,5.12.33,1.7,1.7,0,0,1,.63.23,1.48,1.48,0,0,1,.47.71c.49,1.17.77,2.46,1.16,3.68a7.53,7.53,0,0,0,1.89,3.39A9.46,9.46,0,0,0,60,84.45l2.32,1.06a3.2,3.2,0,0,1,1.1.71A2.82,2.82,0,0,1,64,87.64,13.37,13.37,0,0,1,62.67,95.68Z"/><path class="cls-5" d="M55.48,79.48a12,12,0,0,1-14.55,2.16c-.1-.33-.21-.66-.32-1-.26-.75-1.16-2.19-.52-2.84.4-.41,2.07-.62,2.65-.89,1.78-.82,3.42-2,5.38-2.4a13,13,0,0,1,5.12.33,1.82,1.82,0,0,1,.64.23,1.56,1.56,0,0,1,.47.71C54.82,77,55.1,78.26,55.48,79.48Z"/><circle class="cls-3" cx="46.81" cy="70.63" r="12.03"/><path class="cls-6" d="M83.45,109.66l-1-6a29.28,29.28,0,0,0-2.41-8.77c-.91-1.77-2.37-3.46-4.33-3.81a4.76,4.76,0,0,1-1.13-.26c-.58-.28-.89-.9-1.33-1.36-1.14-1.19-3-1.2-4.53-1.8a23.55,23.55,0,0,1-3.68-2.3,4.88,4.88,0,0,0-4.11-.82,20.72,20.72,0,0,1-1.45,6.86,10.27,10.27,0,0,1-13.65,5A9.58,9.58,0,0,1,44,95.27,12.91,12.91,0,0,1,39.48,88c-.17-.69-.36-1.48-1-1.8a2,2,0,0,0-2.09.58c-1,.94-1.9,2.29-3.28,2.6a3.9,3.9,0,0,0-1.45.39,3.35,3.35,0,0,0-.68.88A3.14,3.14,0,0,1,28.3,92c-.48,0-1-.14-1.37.21s-.26.67-.52.91-.93.18-1.42.16a2.86,2.86,0,0,0-2.33,1.31,8.75,8.75,0,0,0-1.05,2.58c2.86,6.36,5.48,12.73,8.33,19.09a1.56,1.56,0,0,1,.21.79,1.92,1.92,0,0,1-.36.78c-1.4,2.25-1.35,5.08-1.2,7.73s.34,5.44-.84,7.81c-.32.65-.74,1.25-1,1.9-.72,1.47-1,6.19-.56,7.77h59.1c-1.12-3.09-.69-9.31-.46-12.6a45.68,45.68,0,0,0-.44-6.9C84,118.8,84.23,114.35,83.45,109.66Z"/><path class="cls-3" d="M17.09,116.51a9.15,9.15,0,0,0,0,2.28l.76,10.79c.07,1,.14,2,.23,3,.18,2,.45,3.92.78,5.87a1.05,1.05,0,0,0,1.08,1A38.34,38.34,0,0,0,30,140c5.15-.29,10.29-.94,15.45-.83,1.32,0,2.87,0,3.68-1a2.76,2.76,0,0,0-.72-3.59,6.06,6.06,0,0,0-3.82-1c-1.79,0-3.58.23-5.36.13a26.29,26.29,0,0,1-4.81-.89L30,131.63a17.49,17.49,0,0,1,1.17-3.9,20.09,20.09,0,0,0,1.71-7A7.69,7.69,0,0,0,30,114.32a9.54,9.54,0,0,0-5.74-1.3c-1.45,0-4-.31-5.28.26C17.89,113.74,17.28,115.48,17.09,116.51Z"/><path class="cls-4" d="M86.48,141.17a5.59,5.59,0,0,1,2.76-.08,33.72,33.72,0,0,1,8.84,2,8.7,8.7,0,0,1,3.43,2.41,11.86,11.86,0,0,1,1.68,3.4l1,2.75a13.37,13.37,0,0,1,.88,3.22c.31,3.29-1.94,6.39-4.77,8.1s-6.17,2.32-9.41,3-6.51,1.34-9.74,2.09a39.6,39.6,0,0,1-4.59.9c-3.46.4-7.08-.18-10.36,1a40.74,40.74,0,0,1-4,1.46,25,25,0,0,1-2.73.41l-6.23.71a34.72,34.72,0,0,1-3.81.3,34.41,34.41,0,0,1-8-1.29,1.54,1.54,0,0,1-1.35-1.76q-.41-3.5-.7-7a3.56,3.56,0,0,1,.3-2.22,3.49,3.49,0,0,1,2.48-1.18,63.61,63.61,0,0,1,11.94-.83c1.52-1.52,4-1.53,6-2.35A18.93,18.93,0,0,0,62.24,155a27.89,27.89,0,0,1,11.64-3.68,10.14,10.14,0,0,0,2.39-.34c1.54-.47,2.94-1.78,4.52-1.46a3.61,3.61,0,0,1,.79-1.63c.22-.19.5-.32.7-.53a2.1,2.1,0,0,0,.41-1.75,5.24,5.24,0,0,1,0-1.85,2.93,2.93,0,0,1,.29-.65A3.55,3.55,0,0,1,86.48,141.17Z"/><path class="cls-7" d="M86.48,141.17a5.59,5.59,0,0,1,2.76-.08,33.72,33.72,0,0,1,8.84,2,8.7,8.7,0,0,1,3.43,2.41,11.86,11.86,0,0,1,1.68,3.4l1,2.75a13.37,13.37,0,0,1,.88,3.22c.31,3.29-1.94,6.39-4.77,8.1s-6.17,2.32-9.41,3-6.51,1.34-9.74,2.09a39.6,39.6,0,0,1-4.59.9c-3.46.4-7.08-.18-10.36,1a40.74,40.74,0,0,1-4,1.46,25,25,0,0,1-2.73.41l-6.23.71a34.72,34.72,0,0,1-3.81.3,34.41,34.41,0,0,1-8-1.29,1.54,1.54,0,0,1-1.35-1.76q-.41-3.5-.7-7a3.56,3.56,0,0,1,.3-2.22,3.49,3.49,0,0,1,2.48-1.18,63.61,63.61,0,0,1,11.94-.83c1.52-1.52,4-1.53,6-2.35A18.93,18.93,0,0,0,62.24,155a27.89,27.89,0,0,1,11.64-3.68,10.14,10.14,0,0,0,2.39-.34c1.54-.47,2.94-1.78,4.52-1.46a3.61,3.61,0,0,1,.79-1.63c.22-.19.5-.32.7-.53a2.1,2.1,0,0,0,.41-1.75,5.24,5.24,0,0,1,0-1.85,2.93,2.93,0,0,1,.29-.65A3.55,3.55,0,0,1,86.48,141.17Z"/><path class="cls-8" d="M35.09,171.42a6.2,6.2,0,0,1-5.58,2.49c-1.56,0-3.11-.12-4.67-.25a26.27,26.27,0,0,0-3.2-.14c-3.22.12-6.34,1.6-9.55,1.34a7.45,7.45,0,0,1-1.41-.26,4,4,0,0,1-1.9-1.16,5.18,5.18,0,0,1-1.09-2.54,12,12,0,0,1,5.63-12.18,4.11,4.11,0,0,1,1.79-.64,4.38,4.38,0,0,1,1.81.4l0,0a13.65,13.65,0,0,1,4.48,3,2.42,2.42,0,0,0,.68.55,2.24,2.24,0,0,0,.81.15l3.43.22a7.22,7.22,0,0,1,1.73.24,12,12,0,0,1,1.81.78,22.71,22.71,0,0,0,5.9,1.36.89.89,0,0,1,.52.21.76.76,0,0,1,.16.34A6.67,6.67,0,0,1,35.09,171.42Z"/><path class="cls-5" d="M17,158.5a20.38,20.38,0,0,0-3.44,4.3,21.52,21.52,0,0,0-2.81,8.5,16.54,16.54,0,0,0,0,3.3,4,4,0,0,1-1.9-1.16,5.15,5.15,0,0,1-1.09-2.53,12,12,0,0,1,5.63-12.19,4.09,4.09,0,0,1,1.79-.63,4.21,4.21,0,0,1,1.81.39Z"/><path class="cls-3" d="M83.49,165c1.92-.05,4.07-.15,5.49,1.15s1.52,3.24,1.61,5.06l.1,2.11a4.21,4.21,0,0,1-.2,1.9,2.92,2.92,0,0,1-2.88,1.49,9.53,9.53,0,0,1-3.26-1,46.13,46.13,0,0,0-8.89-2.8c.1-1.46.27-2.91.5-4.35.16-1,.18-2.68.85-3.51s1.63-.41,2.6-.24A21.39,21.39,0,0,0,83.49,165Z"/><path class="cls-4" d="M32.71,143.8c0,.27-.41,0-.45-.28a6.39,6.39,0,0,0-3.92-4.7,12.82,12.82,0,0,0-6.3-.69c-3.2.3-6.8,1.53-8,4.52-.28.7-.4,1.46-.74,2.13s-1,1.33-1.4,2a6.2,6.2,0,0,0-.48,4.16,15,15,0,0,0,6.34,9.15,37.53,37.53,0,0,0,10.33,4.73,179.28,179.28,0,0,0,29.28,7,27.47,27.47,0,0,1,4.77,1c1.38.46,2.68,1.16,4,1.7a40.21,40.21,0,0,0,9.85,2.15,2,2,0,0,0,1.65-.26c.54-.5.36-1.38.2-2.11a11.36,11.36,0,0,1,1.34-8c.56-.94,1.29-1.9,1.18-3a3,3,0,0,0-2.65-2.38,13.63,13.63,0,0,0-3.81.26,2,2,0,0,1-1.29-.12,2.74,2.74,0,0,1-.51-.45,5.71,5.71,0,0,0-6.67-.94c-.47.26-1.18-.32-1.67-.54l-5.49-2.49C52,153.77,45.66,150.9,39,149.1a4.25,4.25,0,0,1-1.49-.62c-.33-.27-.57-.62-.88-.91a11.11,11.11,0,0,0-2.39-1.33C33.42,145.79,32.52,144.7,32.71,143.8Z"/><path class="cls-8" d="M117.46,178a6.52,6.52,0,0,1-4.41,3.06,9.5,9.5,0,0,1-1.39.2,20.78,20.78,0,0,1-6.83-1.13l-3-.85a9.52,9.52,0,0,0-1.6-.36A10.8,10.8,0,0,0,98,179a39.3,39.3,0,0,1-10.72-.48,1.89,1.89,0,0,1-.83-.3,4,4,0,0,1-.58-.71c-.82-1-1.71-1.56-.73-2.87.56-.76,1.6-1.14,2-2a4.46,4.46,0,0,0-.1-3c-.35-1.24-1.52-1.77-1.93-2.91a2.06,2.06,0,0,1,1-2.33,4.12,4.12,0,0,1,2.66-.38c.91.12,1.8.37,2.71.44,2.68.22,5.43-1.17,8-.39.57.18,1.11.45,1.68.6a5.57,5.57,0,0,0,3.35-.29c.38-.14.75-.31,1.12-.48a8.73,8.73,0,0,1,2.23-.8c2.51-.44,4.84,1.3,6.74,3a7.32,7.32,0,0,1,2.76,4.56C118.09,173,118.66,175.75,117.46,178Z"/><path class="cls-5" d="M117.46,178a6.52,6.52,0,0,1-4.41,3.06,8.59,8.59,0,0,0,.93-4.48,14.25,14.25,0,0,0-2.64-6.9,24.83,24.83,0,0,0-2.92-3.55c-.83-.83-1.85-1.5-2.74-2.26a8.76,8.76,0,0,1,2.23-.81c2.51-.43,4.84,1.31,6.74,3a9.74,9.74,0,0,1,1.71,1.86,9.42,9.42,0,0,1,1,2.7C118.09,173,118.66,175.75,117.46,178Z"/><path class="cls-6" d="M21.47,97.32a2.68,2.68,0,0,0-.59.93,43.81,43.81,0,0,0-3.68,15.06A1.54,1.54,0,0,1,17,114a3.88,3.88,0,0,1-.39.42,1.44,1.44,0,0,0,.18,2l.07.06a2.79,2.79,0,0,1,2.38-1.15c4.4-.35,8.69,1.7,13.1,1.54-.31-1.07-.76-2.1-1-3.19-1.12-4.83,1.68-10.09,0-14.74a3.84,3.84,0,0,0-1.82-2.25,4.74,4.74,0,0,0-1.16-.31c-1.12-.2-3.34-1.06-4.41-.72-.4.13-.56.5-.89.73A8.18,8.18,0,0,0,21.47,97.32Z"/><rect class="cls-8" x="30.74" y="106.84" width="58.3" height="37.12" rx="2.08"/><circle class="cls-9" cx="59.75" cy="125.4" r="1.57"/><path class="cls-8" d="M38.5,51.11a9.91,9.91,0,0,0-2.09,2.42,11.89,11.89,0,0,1-4.2,4.14,5,5,0,0,0-1.91,1.2,3.09,3.09,0,0,0-.51,1.34,25.87,25.87,0,0,0-.54,5.12,5.67,5.67,0,0,0,.41,2.52A8.41,8.41,0,0,1,30.8,70a6.67,6.67,0,0,1-.21,1.87,1.58,1.58,0,0,0,.64,1.66,4,4,0,0,0,1,.23c1.74.38,2.32,2.42,2.58,4.11.59,0,.86-.71,1-1.26l1.81-8.06c.2-.87.53-1.88,1.4-2.19a4.53,4.53,0,0,1,1.83,0c2.39.2,4.41-1.65,6.75-2.16a8.73,8.73,0,0,1,2.28-.15c1.85.09,4,.85,4.38,2.57.07.28.11.61.37.75s.54,0,.81,0c1.17-.12,1.86,1.2,2.2,2.28l1.23,3.92C59,74.2,59.31,74.9,60,75a1.19,1.19,0,0,0,1.19-1,4.73,4.73,0,0,0-.23-1.69c-.58-2.58.3-5.21.84-7.79s.64-5.55-1.17-7.53c-.66-.72-1.52-1.26-2.13-2s-.89-1.58-1.48-2.28c-1.64-1.93-5.83-3.41-8.4-3.66C45.64,48.64,40.88,49.39,38.5,51.11Z"/><g class="cls-10"><path class="cls-11" d="M60,73.15c-.64-.08-1-.79-1.13-1.37L57.6,67.86c-.34-1.08-1-2.4-2.2-2.28-.27,0-.57.14-.81,0s-.3-.47-.37-.75c-.39-1.73-2.53-2.48-4.38-2.57a8.73,8.73,0,0,0-2.28.15c-2.34.52-4.36,2.35-6.75,2.16a4.53,4.53,0,0,0-1.83,0c-.88.3-1.2,1.31-1.4,2.19l-1.81,8c-.12.56-.39,1.24-1,1.27-.26-1.69-.84-3.73-2.58-4.11a4.57,4.57,0,0,1-1-.23,1.05,1.05,0,0,1-.5-.56c0,.24-.11.48-.14.73a1.58,1.58,0,0,0,.64,1.66,4,4,0,0,0,1,.23c1.74.38,2.32,2.42,2.58,4.11.59,0,.86-.71,1-1.26l1.81-8.06c.2-.87.53-1.88,1.4-2.19a4.53,4.53,0,0,1,1.83,0c2.39.2,4.41-1.65,6.75-2.16a8.73,8.73,0,0,1,2.28-.15c1.85.09,4,.85,4.38,2.57.07.28.11.61.37.75s.54,0,.81,0c1.17-.12,1.86,1.2,2.2,2.28l1.23,3.92C59,74.2,59.32,74.9,60,75a1.19,1.19,0,0,0,1.19-1A3.45,3.45,0,0,0,61,72.54,1.08,1.08,0,0,1,60,73.15Z"/><path class="cls-11" d="M30.8,68.17A8.69,8.69,0,0,0,29.67,66a4.22,4.22,0,0,1-.39-1.57c0,.3,0,.59,0,.88a5.68,5.68,0,0,0,.42,2.52c.29.6.76,1.12,1,1.72A3.88,3.88,0,0,0,30.8,68.17Z"/><path class="cls-11" d="M61.76,62.61c-.47,2.28-1.22,4.6-1,6.88a44.58,44.58,0,0,1,1-5,13.31,13.31,0,0,0,.3-3.88A14.27,14.27,0,0,1,61.76,62.61Z"/></g><g class="cls-12"><line class="cls-13" x1="86.28" y1="75.94" x2="249.69" y2="75.94"/><path class="cls-13" d="M100.8,75.94s7.81,1.08,3.77-7.3,11-6.8,11-6.8"/><path class="cls-13" d="M152.84,75.94s7.81-1.08,3.77,7.3,11,6.8,11,6.8"/><path class="cls-13" d="M227.77,75.94S220,74.86,224,83.24,213,90,213,90"/><line class="cls-13" x1="213.03" y1="90.04" x2="169.91" y2="90.04"/><circle class="cls-6" cx="86.28" cy="75.94" r="4.77"/><circle class="cls-14" cx="115.63" cy="61.78" r="4.77"/><circle class="cls-6" cx="115.63" cy="75.94" r="4.77"/><circle class="cls-6" cx="134.56" cy="75.94" r="4.77"/><circle class="cls-15" cx="167.67" cy="89.97" r="4.77"/><circle class="cls-15" cx="192.68" cy="89.97" r="4.77"/><circle class="cls-6" cx="191.37" cy="75.94" r="4.77"/><circle class="cls-6" cx="248.48" cy="75.94" r="4.77"/><circle class="cls-6" cx="225.12" cy="75.94" r="4.77"/><rect class="cls-6" x="78.27" y="32.07" width="16.01" height="11.03"/><rect class="cls-14" x="107.68" y="32.07" width="16.01" height="11.03"/><rect class="cls-15" x="159.6" y="32.07" width="16.01" height="11.03"/></g><g class="cls-10"><path class="cls-6" d="M22.57,78.26S3,70,.46,84.87A3.61,3.61,0,0,0,1,89.09s.4-1,2.28,0A9.88,9.88,0,0,0,5.41,90a4.8,4.8,0,0,0,3-.16h0s6.42-.35,11.83-8.76c0,0,2.32-1.43,2.43-2l-3.87.26s.3,2.84-1.31,4.54c0,0,1.43-4.4.74-4.52-.14,0-2,.22-2,.22s.49,4.94-2.1,7.49c0,0,2.4-5,1.36-7.4l-2.86.55s.79,5.19-2,8.21c0,0,2.32-5.33,1.42-8l-2.73.92s.66,5.07-1.71,7.58c0,0,2.07-6.43,1.09-7.32a14.38,14.38,0,0,0-3,1.57s.39,3.66-1.11,5c0,0,.92-4.45.47-4.63,0,0-2.86,2.16-3.74,4a10.82,10.82,0,0,1,3.38-4.44,6.06,6.06,0,0,0-3.4.48s1-1.89,4.09-1A13.66,13.66,0,0,1,8.12,81a13.24,13.24,0,0,0-5.06-1.15s2.28-1.3,5.78.88l2.73-1S7.78,77.8,5.88,77.81c0,0,2.52-1,6.4,1.74L15.07,79a22.21,22.21,0,0,0-5.25-2.37s2.54-.4,6.06,2.24l1.91-.16s-2.31-1.37-3-1.7-.67-.55-.67-.55a9.22,9.22,0,0,1,4.48,2.14S22.56,78.5,22.57,78.26Z"/></g><g class="cls-10"><path class="cls-6" d="M21.85,63.53S14.93,47.51,5,54.86a3,3,0,0,0-2.1,2.79s.83-.38,1.35,1.33A8.13,8.13,0,0,0,5,60.71a3.93,3.93,0,0,0,1.9,1.63h0s4,3.46,12,1.54c0,0,2.2.47,2.57.22L19,62A5.23,5.23,0,0,1,15.66,64s3.36-1.8,3-2.26c-.06-.1-1.34-1-1.34-1S14.82,63.9,11.85,64c0,0,4.28-1.62,5-3.62l-2-1.31s-2.53,3.53-5.93,3.72c0,0,4.42-1.85,5.43-4l-2.16-1s-2.49,3.4-5.32,3.52c0,0,4.89-2.64,4.82-3.72A11.21,11.21,0,0,0,9,56.8s-1.85,2.39-3.5,2.32c0,0,3.09-2.12,2.92-2.48a12.3,12.3,0,0,0-4.51.26,8.93,8.93,0,0,1,4.54-.72,4.94,4.94,0,0,0-2.29-1.65s1.66-.55,3,1.74a11.41,11.41,0,0,1,2.53.64,10.7,10.7,0,0,0-2.35-3.56s2.09.52,2.93,3.81l2.18,1s-1.14-3.32-2.28-4.39c0,0,2.06.86,2.81,4.68l2,1.25a18.37,18.37,0,0,0-1.77-4.4s1.74,1.21,2.33,4.78l1.22,1s-.59-2.13-.82-2.73-.09-.7-.09-.7a7.52,7.52,0,0,1,1.44,3.83A18.59,18.59,0,0,0,21.85,63.53Z"/></g></g></g></svg>