<!--?xml version="1.0" encoding="utf-8"?-->
<!-- Generator: Adobe Illustrator 18.1.1, SVG Export Plug-In . SVG Version: 6.00 Build 0)  -->

<svg version="1.1" id="_x32_" xmlns="http://www.w3.org/2000/svg" xmlns:xlink="http://www.w3.org/1999/xlink" x="0px" y="0px" viewBox="0 0 512 512" style="width: 256px; height: 256px; opacity: 1;" xml:space="preserve">
<style type="text/css">
	.st0{fill:#4B4B4B;}
</style>
<g>
	<polygon class="st0" points="256.008,275.876 173.562,193.446 132.928,234.081 256.008,357.161 379.072,234.081 338.438,193.446 	
		" style="fill: rgb(255, 255, 255);"></polygon>
	<path class="st0" d="M256.008,0C114.606,0.007,0.015,114.605,0,255.992C0.015,397.394,114.606,511.984,256.008,512
		C397.394,511.984,511.984,397.394,512,255.992C511.984,114.605,397.394,0.007,256.008,0z M408.585,408.585
		c-39.11,39.087-92.93,63.197-152.577,63.205c-59.655-0.008-113.483-24.118-152.594-63.205
		c-39.086-39.119-63.196-92.938-63.204-152.593c0.008-59.647,24.118-113.467,63.204-152.585
		c39.111-39.079,92.939-63.19,152.594-63.197c59.647,0.007,113.467,24.118,152.577,63.197
		c39.087,39.118,63.197,92.938,63.205,152.585C471.782,315.647,447.664,369.466,408.585,408.585z" style="fill: rgb(255, 255, 255);"></path>
</g>
</svg>
