<svg xmlns="http://www.w3.org/2000/svg" xmlns:xlink="http://www.w3.org/1999/xlink" viewBox="0 0 478 290.17"><defs><style>.cls-1,.cls-3,.cls-7{fill:#cdac70;}.cls-1{opacity:0.2;}.cls-1,.cls-20,.cls-21,.cls-22,.cls-30,.cls-4,.cls-5,.cls-7{isolation:isolate;}.cls-2{fill:none;stroke:#525460;stroke-miterlimit:10;stroke-width:2px;}.cls-30,.cls-4{fill:#040000;}.cls-4{opacity:0.25;}.cls-5{fill:#fff;opacity:0.5;}.cls-6{opacity:0.7;}.cls-7{opacity:0.6;}.cls-8{fill:url(#名称未設定グラデーション_2);}.cls-20,.cls-21,.cls-22,.cls-30,.cls-9{opacity:0.1;}.cls-10{fill:url(#名称未設定グラデーション_2-2);}.cls-11{fill:url(#名称未設定グラデーション_2-3);}.cls-12{fill:url(#名称未設定グラデーション_2-4);}.cls-13{fill:url(#名称未設定グラデーション_2-5);}.cls-14{fill:url(#名称未設定グラデーション_2-6);}.cls-15{fill:url(#名称未設定グラデーション_2-7);}.cls-16{fill:url(#名称未設定グラデーション_2-8);}.cls-17{fill:url(#名称未設定グラデーション_2-9);}.cls-18{fill:url(#名称未設定グラデーション_2-10);}.cls-19{fill:url(#名称未設定グラデーション_2-11);}.cls-20{fill:url(#名称未設定グラデーション_2-12);}.cls-21{fill:url(#名称未設定グラデーション_2-13);}.cls-22{fill:url(#名称未設定グラデーション_2-14);}.cls-23{fill:url(#名称未設定グラデーション_2-15);}.cls-24{fill:url(#名称未設定グラデーション_2-16);}.cls-25{fill:url(#名称未設定グラデーション_2-17);}.cls-26{fill:url(#名称未設定グラデーション_2-18);}.cls-27{fill:url(#名称未設定グラデーション_2-19);}.cls-28{fill:url(#名称未設定グラデーション_2-20);}.cls-29{fill:#525460;}.cls-31{fill:#e0e0e0;}.cls-32{fill:#f3a07b;}.cls-33{fill:#5180c1;}.cls-34{fill:#70351c;}.cls-35{fill:url(#名称未設定グラデーション_2-21);}.cls-36{fill:#f6b495;}.cls-37{fill:#54ba94;}.cls-38{fill:#23295f;}.cls-39{fill:url(#名称未設定グラデーション_2-22);}.cls-40{fill:url(#名称未設定グラデーション_2-23);}.cls-41{fill:#3d3f49;}</style><linearGradient id="名称未設定グラデーション_2" x1="225.26" y1="5244.99" x2="273.4" y2="5244.99" gradientTransform="matrix(1, 0, 0, -1, -105, 5504.11)" gradientUnits="userSpaceOnUse"><stop offset="0" stop-color="#7f8080" stop-opacity="0.25"/><stop offset="0.54" stop-color="#7f8080" stop-opacity="0.12"/><stop offset="1" stop-color="#7f8080" stop-opacity="0.1"/></linearGradient><linearGradient id="名称未設定グラデーション_2-2" x1="239.43" y1="5313.41" x2="306.06" y2="5313.41" xlink:href="#名称未設定グラデーション_2"/><linearGradient id="名称未設定グラデーション_2-3" x1="239.43" y1="5314.31" x2="306.06" y2="5314.31" xlink:href="#名称未設定グラデーション_2"/><linearGradient id="名称未設定グラデーション_2-4" x1="256.15" y1="5380.57" x2="290.19" y2="5380.57" xlink:href="#名称未設定グラデーション_2"/><linearGradient id="名称未設定グラデーション_2-5" x1="211.11" y1="5307.29" x2="269.75" y2="5307.29" xlink:href="#名称未設定グラデーション_2"/><linearGradient id="名称未設定グラデーション_2-6" x1="210.2" y1="5307.29" x2="268.84" y2="5307.29" xlink:href="#名称未設定グラデーション_2"/><linearGradient id="名称未設定グラデーション_2-7" x1="208.45" y1="5330.91" x2="262.96" y2="5330.91" xlink:href="#名称未設定グラデーション_2"/><linearGradient id="名称未設定グラデーション_2-8" x1="279.85" y1="5326.19" x2="338.79" y2="5326.19" xlink:href="#名称未設定グラデーション_2"/><linearGradient id="名称未設定グラデーション_2-9" x1="280.76" y1="5326.19" x2="339.7" y2="5326.19" xlink:href="#名称未設定グラデーション_2"/><linearGradient id="名称未設定グラデーション_2-10" x1="146.91" y1="5446.73" x2="162.72" y2="5446.73" gradientTransform="matrix(1, 0, 0, -1, 0, 5575)" xlink:href="#名称未設定グラデーション_2"/><linearGradient id="名称未設定グラデーション_2-11" x1="173.62" y1="5440.97" x2="184.53" y2="5440.97" gradientTransform="matrix(1, 0, 0, -1, 0, 5575)" xlink:href="#名称未設定グラデーション_2"/><linearGradient id="名称未設定グラデーション_2-12" x1="295.88" y1="5338.76" x2="299.97" y2="5338.76" xlink:href="#名称未設定グラデーション_2"/><linearGradient id="名称未設定グラデーション_2-13" x1="230.06" y1="5330.91" x2="237.29" y2="5330.91" xlink:href="#名称未設定グラデーション_2"/><linearGradient id="名称未設定グラデーション_2-14" x1="235.48" y1="5300.25" x2="256.14" y2="5300.25" xlink:href="#名称未設定グラデーション_2"/><linearGradient id="名称未設定グラデーション_2-15" x1="262.33" y1="5392.02" x2="288.55" y2="5392.02" xlink:href="#名称未設定グラデーション_2"/><linearGradient id="名称未設定グラデーション_2-16" x1="155.23" y1="5476.1" x2="197.01" y2="5476.1" gradientTransform="matrix(1, 0, 0, -1, 0, 5575)" xlink:href="#名称未設定グラデーション_2"/><linearGradient id="名称未設定グラデーション_2-17" x1="250.72" y1="5416.7" x2="300.68" y2="5416.7" xlink:href="#名称未設定グラデーション_2"/><linearGradient id="名称未設定グラデーション_2-18" x1="250.27" y1="5417.15" x2="300.21" y2="5417.15" xlink:href="#名称未設定グラデーション_2"/><linearGradient id="名称未設定グラデーション_2-19" x1="270.91" y1="5387.51" x2="298.93" y2="5387.51" xlink:href="#名称未設定グラデーション_2"/><linearGradient id="名称未設定グラデーション_2-20" x1="270.91" y1="5387.06" x2="298.93" y2="5387.06" xlink:href="#名称未設定グラデーション_2"/><linearGradient id="名称未設定グラデーション_2-21" x1="376.81" y1="5271.86" x2="376.81" y2="5428.03" xlink:href="#名称未設定グラデーション_2"/><linearGradient id="名称未設定グラデーション_2-22" x1="240.81" y1="5284.84" x2="240.81" y2="5362.45" gradientTransform="matrix(1, 0, 0, -1, 0, 5575)" xlink:href="#名称未設定グラデーション_2"/><linearGradient id="名称未設定グラデーション_2-23" x1="240.27" y1="5357.62" x2="240.27" y2="5426.55" gradientTransform="matrix(1, 0, 0, -1, 0, 5575)" xlink:href="#名称未設定グラデーション_2"/></defs><title>coachtech_reason1_1</title><g id="レイヤー_2" data-name="レイヤー 2"><g id="レイヤー_1-2" data-name="レイヤー 1"><path class="cls-1" d="M332,255.63H304.87v-15.3H332Zm-26-1.14h24.88v-13H306Z"/><path class="cls-1" d="M359.21,254.87H332V239.56h27.17Zm-26-1.15h24.88v-13H333.18Z"/><path class="cls-1" d="M386.38,254.87H359.21V239.56h27.17Zm-26-1.15h24.88v-13H360.35Z"/><path class="cls-1" d="M386.38,239.56H359.21V224.25h27.17Zm-26-1.15h24.88v-13H360.35Z"/><path class="cls-1" d="M359.21,239.56H332V224.25h27.17Zm-26-1.15h24.88v-13H333.18Z"/><path class="cls-1" d="M53.06,254.87H25.89V239.56H53.06Zm-26-1.15H51.91v-13H27Z"/><path class="cls-1" d="M80.23,254.87H53.06V239.56H80.23Zm-26-1.15H79.08v-13H54.21Z"/><path class="cls-1" d="M107.4,254.87H80.23V239.56H107.4Zm-26-1.15h24.87v-13H81.38Z"/><path class="cls-1" d="M134.57,255.63H107.4v-15.3h27.17Zm-26-1.14h24.87v-13H108.55Z"/><path class="cls-1" d="M107.4,239.56H80.23V224.25H107.4Zm-26-1.15h24.87v-13H81.38Z"/><path class="cls-1" d="M80.23,239.56H53.06V224.25H80.23Zm-26-1.15H79.08v-13H54.21Z"/><path class="cls-2" d="M359.7,207.55s-5-17.08.94-29.65A27,27,0,0,0,362.82,161a44.85,44.85,0,0,0-2.4-7.94"/><path class="cls-3" d="M364.14,145.08c0,2.09-3.79,8.16-3.79,8.16s-3.78-6.07-3.78-8.16a3.79,3.79,0,1,1,7.58,0Z"/><path class="cls-3" d="M370.41,156.69c-1.15,1.75-7.62,4.79-7.62,4.79s.12-7.16,1.25-8.92a3.79,3.79,0,0,1,6.37,4.12Z"/><path class="cls-3" d="M370.13,176.5c-1.87.94-9,.29-9,.29s3.71-6.12,5.58-7.06a3.79,3.79,0,0,1,3.42,6.77Z"/><path class="cls-3" d="M366.55,191.45c-1.68,1.24-8.8,1.8-8.8,1.8s2.62-6.65,4.31-7.9a3.79,3.79,0,0,1,4.51,6.09Z"/><path class="cls-3" d="M354.83,161.89c1.5,1.46,8.5,3,8.5,3s-1.72-7-3.22-8.42a3.79,3.79,0,0,0-5.28,5.44h0Z"/><path class="cls-3" d="M350.86,179.41c1.87,1,9,.29,9,.29s-3.71-6.12-5.59-7.06a3.79,3.79,0,1,0-3.41,6.77Z"/><path class="cls-3" d="M349.34,197c1.69,1.25,8.81,1.81,8.81,1.81s-2.61-6.64-4.3-7.9a3.79,3.79,0,0,0-4.51,6.09Z"/><path class="cls-4" d="M364.14,145.08c0,2.09-3.79,8.16-3.79,8.16s-3.78-6.07-3.78-8.16a3.79,3.79,0,1,1,7.58,0Z"/><path class="cls-4" d="M370.41,156.69c-1.15,1.75-7.62,4.79-7.62,4.79s.12-7.16,1.25-8.92a3.79,3.79,0,0,1,6.37,4.12Z"/><path class="cls-4" d="M370.13,176.5c-1.87.94-9,.29-9,.29s3.71-6.12,5.58-7.06a3.79,3.79,0,0,1,3.42,6.77Z"/><path class="cls-4" d="M366.55,191.45c-1.68,1.24-8.8,1.8-8.8,1.8s2.62-6.65,4.31-7.9a3.79,3.79,0,0,1,4.51,6.09Z"/><path class="cls-4" d="M354.83,161.89c1.5,1.46,8.5,3,8.5,3s-1.72-7-3.22-8.42a3.79,3.79,0,0,0-5.28,5.44h0Z"/><path class="cls-4" d="M350.86,179.41c1.87,1,9,.29,9,.29s-3.71-6.12-5.59-7.06a3.79,3.79,0,1,0-3.41,6.77Z"/><path class="cls-4" d="M349.34,197c1.69,1.25,8.81,1.81,8.81,1.81s-2.61-6.64-4.3-7.9a3.79,3.79,0,0,0-4.51,6.09Z"/><path class="cls-2" d="M83.6,207.68s-5.11-17.33,1-30.07a27.37,27.37,0,0,0,2.22-17.18,46.4,46.4,0,0,0-2.43-8.08"/><path class="cls-3" d="M88.11,144.31c0,2.13-3.85,8.29-3.85,8.29s-3.85-6.18-3.85-8.29a3.85,3.85,0,0,1,7.7,0Z"/><path class="cls-3" d="M94.47,156.06c-1.15,1.79-7.73,4.87-7.73,4.87s.11-7.27,1.27-9.05a3.85,3.85,0,0,1,6.54,4.05Z"/><path class="cls-3" d="M94.19,176.17c-1.92,1-9.13.29-9.13.29s3.77-6.2,5.66-7.16a3.85,3.85,0,1,1,3.47,6.87Z"/><path class="cls-3" d="M90.56,191.33c-1.7,1.27-9,1.84-9,1.84s2.68-6.76,4.38-8a3.85,3.85,0,0,1,4.59,6.19Z"/><path class="cls-3" d="M78.66,161.34c1.53,1.48,8.62,3,8.62,3s-1.74-7-3.26-8.53a3.84,3.84,0,1,0-5.43,5.44l.07.08Z"/><path class="cls-3" d="M74.63,179.14c1.91,1,9.13.29,9.13.29s-3.77-6.2-5.67-7.16a3.85,3.85,0,0,0-3.46,6.87Z"/><path class="cls-3" d="M73.09,197c1.71,1.26,9,1.83,9,1.83s-2.68-6.75-4.38-8a3.85,3.85,0,0,0-4.59,6.19h0Z"/><path class="cls-5" d="M88.11,144.31c0,2.13-3.85,8.29-3.85,8.29s-3.85-6.18-3.85-8.29a3.85,3.85,0,0,1,7.7,0Z"/><path class="cls-5" d="M94.47,156.06c-1.15,1.79-7.73,4.87-7.73,4.87s.11-7.27,1.27-9.05a3.85,3.85,0,0,1,6.54,4.05Z"/><path class="cls-5" d="M94.19,176.17c-1.92,1-9.13.29-9.13.29s3.77-6.2,5.66-7.16a3.85,3.85,0,1,1,3.47,6.87Z"/><path class="cls-5" d="M90.56,191.33c-1.7,1.27-9,1.84-9,1.84s2.68-6.76,4.38-8a3.85,3.85,0,0,1,4.59,6.19Z"/><path class="cls-5" d="M78.66,161.34c1.53,1.48,8.62,3,8.62,3s-1.74-7-3.26-8.53a3.84,3.84,0,1,0-5.43,5.44l.07.08Z"/><path class="cls-5" d="M74.63,179.14c1.91,1,9.13.29,9.13.29s-3.77-6.2-5.67-7.16a3.85,3.85,0,0,0-3.46,6.87Z"/><path class="cls-5" d="M73.09,197c1.71,1.26,9,1.83,9,1.83s-2.68-6.75-4.38-8a3.85,3.85,0,0,0-4.59,6.19h0Z"/><path class="cls-2" d="M54.47,207.25s-3.89-13.19.73-22.93a20.78,20.78,0,0,0,1.69-13.08A35.69,35.69,0,0,0,55,165.09"/><path class="cls-3" d="M57.91,159c0,1.62-2.93,6.31-2.93,6.31s-2.93-4.69-2.93-6.31a2.93,2.93,0,0,1,5.86,0Z"/><path class="cls-3" d="M62.76,167.91c-.88,1.36-5.9,3.71-5.9,3.71s.09-5.53,1-6.89a2.94,2.94,0,0,1,4.93,3.19h0Z"/><path class="cls-3" d="M62.55,183.24c-1.45.72-7,.22-7,.22s2.87-4.73,4.32-5.46a2.93,2.93,0,0,1,2.64,5.24Z"/><path class="cls-3" d="M59.78,194.8c-1.31,1-6.82,1.39-6.82,1.39s2-5.14,3.33-6.12a2.94,2.94,0,0,1,3.49,4.72Z"/><path class="cls-3" d="M50.71,171.94c1.15,1.13,6.57,2.29,6.57,2.29s-1.32-5.36-2.49-6.5a2.93,2.93,0,0,0-4.08,4.21Z"/><path class="cls-3" d="M47.64,185.49c1.45.73,7,.23,7,.23s-2.87-4.73-4.32-5.46a2.93,2.93,0,1,0-2.64,5.23Z"/><path class="cls-3" d="M46.47,199.08c1.3,1,6.81,1.4,6.81,1.4s-2-5.15-3.33-6.13a2.93,2.93,0,1,0-3.48,4.72h0Z"/><path class="cls-4" d="M57.91,159c0,1.62-2.93,6.31-2.93,6.31s-2.93-4.69-2.93-6.31a2.93,2.93,0,0,1,5.86,0Z"/><path class="cls-4" d="M62.76,167.91c-.88,1.36-5.9,3.71-5.9,3.71s.09-5.53,1-6.89a2.94,2.94,0,0,1,4.93,3.19h0Z"/><path class="cls-4" d="M62.55,183.24c-1.45.72-7,.22-7,.22s2.87-4.73,4.32-5.46a2.93,2.93,0,0,1,2.64,5.24Z"/><path class="cls-4" d="M59.78,194.8c-1.31,1-6.82,1.39-6.82,1.39s2-5.14,3.33-6.12a2.94,2.94,0,0,1,3.49,4.72Z"/><path class="cls-4" d="M50.71,171.94c1.15,1.13,6.57,2.29,6.57,2.29s-1.32-5.36-2.49-6.5a2.93,2.93,0,0,0-4.08,4.21Z"/><path class="cls-4" d="M47.64,185.49c1.45.73,7,.23,7,.23s-2.87-4.73-4.32-5.46a2.93,2.93,0,1,0-2.64,5.23Z"/><path class="cls-4" d="M46.47,199.08c1.3,1,6.81,1.4,6.81,1.4s-2-5.15-3.33-6.13a2.93,2.93,0,1,0-3.48,4.72h0Z"/><g class="cls-6"><rect class="cls-7" y="31.61" width="478" height="193.26"/><path class="cls-4" d="M0,31.61V225.25H478V31.61ZM21.24,48.45H228.38V120H21.24Zm0,88.4H228.38v71.57H21.24Zm435.52,71.57H249.62V136.85H456.76Zm0-88.41H249.62V48.45H456.76Z"/></g><g class="cls-6"><path class="cls-8" d="M158,232.24s-33.16-12.12-37.7,4.94L133,269.51l1.36,20.66H162V272.65s-4.08-17.51,6.36-28.28Z"/><g class="cls-9"><path class="cls-10" d="M163.51,136c-1.41-.46-3.1-.88-4.25.05a10.33,10.33,0,0,0-1.47,2.09c-1.72,2.25-5.18,1.83-7.92,2.64-4,1.19-6.51,5.17-7.93,9.07-6.3,17.22.72,36.92-4.76,54.41-1.61,5.15-4.25,10.86-1.64,15.59.86,1.58,2.29,2.9,2.71,4.65.59,2.37-.54,5.47,1.44,6.92a6.13,6.13,0,0,0,2.15.76c4.47,1.18,7.85,4.66,11.26,7.75s7.5,6.08,12.12,5.88a19.3,19.3,0,0,0,4.39-.87l22.93-6.38c2.29-.64,4.79-1.42,6.12-3.38a9.67,9.67,0,0,0,1.28-4.1,108.79,108.79,0,0,0,1.12-16.43,14.21,14.21,0,0,0-.77-5.35c-.76-2-2.29-3.51-3.41-5.29-2.15-3.44-2.73-7.58-3.26-11.59-.84-6.38-1.69-12.88-.52-19.21.5-2.72,1.37-5.36,1.94-8.06a38.21,38.21,0,0,0,.44-13.36c-.54-3.7-1.68-7.44-4.21-10.22a10.72,10.72,0,0,0-6.35-3.45c-3.1-.38-4.65,1.41-7.41,2.07C173.42,141.25,167.44,137.34,163.51,136Z"/></g><path class="cls-11" d="M163.51,135.13c-1.41-.47-3.1-.88-4.25.05a10.06,10.06,0,0,0-1.47,2.09c-1.72,2.25-5.18,1.83-7.92,2.64-4,1.18-6.51,5.17-7.93,9.07-6.3,17.22.72,36.92-4.76,54.41-1.61,5.14-4.25,10.86-1.64,15.59.86,1.58,2.29,2.9,2.71,4.64.59,2.37-.54,5.48,1.44,6.92a6,6,0,0,0,2.15.77c4.47,1.17,7.85,4.65,11.26,7.75s7.49,6.11,12.12,5.9a19.86,19.86,0,0,0,4.39-.87l22.93-6.39c2.29-.63,4.79-1.41,6.12-3.37a9.71,9.71,0,0,0,1.28-4.1,108.79,108.79,0,0,0,1.12-16.43,14.29,14.29,0,0,0-.77-5.36c-.76-1.94-2.29-3.5-3.41-5.28-2.15-3.44-2.73-7.58-3.26-11.59-.84-6.38-1.69-12.88-.52-19.21.5-2.72,1.37-5.36,1.94-8.06a38.26,38.26,0,0,0,.44-13.37c-.54-3.69-1.68-7.43-4.21-10.21a10.72,10.72,0,0,0-6.35-3.45c-3.1-.38-4.65,1.4-7.41,2.07C173.42,140.33,167.44,136.45,163.51,135.13Z"/><path class="cls-12" d="M157.05,101.14s.46,17.06-5,16.62S167.48,146,167.48,146l17.71-9.43S174.75,120,182,109.67,157.05,101.14,157.05,101.14Z"/><g class="cls-9"><path class="cls-13" d="M126.62,246.16s-3.63,24.7-12.72,18-7.72-18-7.72-18,17.71-47.59,16.81-54.78,30.23-63,30.23-63l11.53,91.76S130.25,232.69,126.62,246.16Z"/></g><path class="cls-14" d="M125.71,246.16s-3.63,24.7-12.71,18-7.73-18-7.73-18,17.72-47.59,16.81-54.78,30.23-63,30.23-63l11.53,91.76S129.34,232.69,125.71,246.16Z"/><path class="cls-15" d="M158,111.92S140.24,124,133.42,123.59L128.13,125a29,29,0,0,0-21,22.38l-.09.42c-2.71,14.37-3.63,53.89-3.63,53.89s.46,10.33,5,13l29.08,19.75s-.9-21.55,10-23.79-2.72-.9-2.72-.9l-20-11.67s.45-17.52,5.9-23.35,24.53-36.35,24.53-36.35l-5.45-18.86Z"/><g class="cls-9"><path class="cls-16" d="M177.49,123.59s11.15,2.92,19,4.35a7.84,7.84,0,0,1,5.68,4.29c2.36,4.86,6,13.66,5.33,21l6.81,26.49,19.52,23.35-17.71,8.08-20-22,16.34,41.76L182,232.24s-9.08-67.35-6.81-78.57Z"/></g><path class="cls-17" d="M178.39,123.59s11.16,2.92,19,4.35a7.84,7.84,0,0,1,5.68,4.29c2.35,4.86,6,13.66,5.33,21l6.81,26.49,19.52,23.35L217,211.14l-20-22,16.37,41.76-30.44,1.34s-9.08-67.35-6.81-78.57Z"/><polygon class="cls-18" points="156.46 110.49 162.72 140.88 152.51 146.04 146.91 118.67 156.46 110.49"/><polygon class="cls-19" points="173.62 143.12 178.39 123.59 184.53 135.04 181.35 144.47 173.62 143.12"/><path class="cls-20" d="M190.88,149s0,30.53,4.09,32.77"/><path class="cls-21" d="M132.29,156.59s-9.42,30.07-6.75,33.22"/><path class="cls-22" d="M130.48,197.89s18.17,11.74,20.66,11.93"/><g class="cls-9"><path class="cls-23" d="M157.5,102.94s.07,2.63-.17,5.79a21,21,0,0,0,22.59,12.36,15.39,15.39,0,0,1,2.56-9.61C189.75,101.14,157.5,102.94,157.5,102.94Z"/></g><ellipse class="cls-24" cx="176.12" cy="98.9" rx="20.89" ry="20.65"/><g class="cls-9"><path class="cls-25" d="M189.38,90.22c2.53.33,5.74-.5,6.24-3,.62-3.13-3.62-5.17-4.27-8.29-.25-1.17,0-2.4-.1-3.59C191,73,189,71.12,187,69.73A32.89,32.89,0,0,0,165.35,64a4.86,4.86,0,0,0-2.68.84,10.1,10.1,0,0,0-1.73,2.68c-2,3.13-6.36,3.5-9.52,5.45-3.69,2.3-5.52,6.76-5.68,11.06s1.07,8.53,2.29,12.66c1.05,3.51,2.14,7.12,4.44,10s6.09,4.88,9.69,4c-1.65-1.17-.45-3.9,1.34-4.86s4-1.12,5.53-2.44,2-3.48,2.49-5.45a14.17,14.17,0,0,1,3.36-6.81C178.48,87.63,185,89.63,189.38,90.22Z"/></g><path class="cls-26" d="M188.91,89.77c2.53.34,5.74-.5,6.24-3,.62-3.13-3.62-5.16-4.27-8.29-.25-1.17,0-2.4-.1-3.59-.28-2.39-2.24-4.24-4.23-5.63a32.88,32.88,0,0,0-21.66-5.71,4.85,4.85,0,0,0-2.67.84,10.1,10.1,0,0,0-1.73,2.68c-2,3.13-6.36,3.5-9.52,5.45-3.69,2.29-5.52,6.76-5.68,11.06s1.07,8.52,2.29,12.66c1,3.51,2.14,7.12,4.43,10s6.1,4.88,9.7,4c-1.65-1.18-.45-3.91,1.34-4.86s4-1.12,5.53-2.44,2-3.49,2.48-5.45a14.19,14.19,0,0,1,3.37-6.81C178,87.18,184.52,89.18,188.91,89.77Z"/><g class="cls-9"><path class="cls-27" d="M172.51,101.69a27.27,27.27,0,0,1-2.27,8.16,65.89,65.89,0,0,0-4.33,9.48h0a150.76,150.76,0,0,1,12.62,10.78A9.93,9.93,0,0,0,189,132.63a6.63,6.63,0,0,0,4.67-5.22,17,17,0,0,0-1.06-10,7.42,7.42,0,0,1,0-6.12,2.39,2.39,0,0,1,1.09-1.36s-8.18-1.8-8.63.44-6.81,4.49-8.17.45l-.39-8.91a1.94,1.94,0,0,0-2-1.86h0A2,2,0,0,0,172.51,101.69Z"/></g><path class="cls-28" d="M172.51,102.14a27.41,27.41,0,0,1-2.27,8.17,65.28,65.28,0,0,0-4.33,9.47h0a150.76,150.76,0,0,1,12.62,10.78A9.93,9.93,0,0,0,189,133.08a6.63,6.63,0,0,0,4.67-5.22,17,17,0,0,0-1.06-10,7.42,7.42,0,0,1,0-6.12,2.39,2.39,0,0,1,1.09-1.36s-8.18-1.8-8.63.45-6.81,4.49-8.17.44l-.39-8.9a2,2,0,0,0-2-1.87h0A2,2,0,0,0,172.51,102.14Z"/></g><path class="cls-29" d="M158.4,232s-31.83-11.77-36.19,4.79l12.21,31.38,1.3,20.08h26.6v-17s-3.93-17,6.12-27.47Z"/><path class="cls-30" d="M163.73,138.53c-1.35-.45-3-.86-4.08.05a10.19,10.19,0,0,0-1.41,2c-1.65,2.19-5,1.78-7.6,2.56-3.86,1.15-6.24,5-7.61,8.8-6.05,16.72.69,35.86-4.57,52.84-1.53,5-4.08,10.54-1.58,15.14.83,1.53,2.19,2.81,2.61,4.51.56,2.29-.53,5.32,1.38,6.72a6.08,6.08,0,0,0,2.06.76c4.29,1.15,7.54,4.52,10.81,7.53s7.2,5.91,11.63,5.71a18.82,18.82,0,0,0,4.21-.84l22-6.2c2.21-.63,4.59-1.38,5.88-3.28a9.66,9.66,0,0,0,1.23-4,105.25,105.25,0,0,0,1.07-16,14.25,14.25,0,0,0-.72-5.2c-.77-1.89-2.21-3.4-3.28-5.13-2.06-3.34-2.62-7.37-3.13-11.26-.81-6.19-1.62-12.51-.5-18.66.48-2.63,1.31-5.2,1.86-7.82a37.25,37.25,0,0,0,.42-13c-.51-3.59-1.62-7.23-4-9.92a10.22,10.22,0,0,0-6.1-3.35c-3-.38-4.46,1.36-7.11,2C173.25,143.57,167.5,139.79,163.73,138.53Z"/><path class="cls-31" d="M163.73,137.66c-1.35-.45-3-.86-4.08.05a10.41,10.41,0,0,0-1.41,2c-1.65,2.19-5,1.78-7.6,2.57-3.86,1.15-6.24,5-7.61,8.8-6.05,16.72.69,35.85-4.57,52.83-1.53,5-4.08,10.55-1.58,15.15.83,1.53,2.19,2.81,2.61,4.5.56,2.3-.53,5.32,1.38,6.72a6.09,6.09,0,0,0,2.06.77c4.29,1.15,7.54,4.52,10.81,7.53s7.2,5.9,11.63,5.71a18.29,18.29,0,0,0,4.21-.85l22-6.19c2.21-.63,4.59-1.38,5.88-3.28a9.51,9.51,0,0,0,1.23-4,106.47,106.47,0,0,0,1.08-16,14,14,0,0,0-.73-5.2c-.77-1.89-2.2-3.4-3.28-5.13-2.06-3.34-2.62-7.36-3.13-11.26-.81-6.19-1.62-12.51-.5-18.66.48-2.63,1.31-5.2,1.87-7.82a37.74,37.74,0,0,0,.42-13c-.52-3.58-1.62-7.22-4-9.92a10.26,10.26,0,0,0-6.09-3.36c-3-.38-4.46,1.36-7.11,2C173.25,142.7,167.5,138.92,163.73,137.66Z"/><path class="cls-32" d="M157.53,104.64s.44,16.57-4.79,16.13,14.82,27.47,14.82,27.47l17-9.16s-10-16.13-3.06-26.16S157.53,104.64,157.53,104.64Z"/><path class="cls-30" d="M128.32,245.47s-3.49,24-12.21,17.44-7.41-17.44-7.41-17.44,17-46.22,16.13-53.19,29-61.21,29-61.21l11.07,89.11S131.8,232.39,128.32,245.47Z"/><path class="cls-33" d="M127.45,245.47s-3.49,24-12.21,17.44-7.42-17.44-7.42-17.44,17-46.22,16.14-53.19,29-61.21,29-61.21l11.07,89.11S130.93,232.39,127.45,245.47Z"/><path class="cls-33" d="M158.4,115.1s-17,11.78-23.54,11.34l-5.08,1.4a28.06,28.06,0,0,0-20.13,21.72l-.08.42c-2.62,14-3.49,52.32-3.49,52.32s.44,10,4.8,12.63l27.9,19.2s-.87-20.92,9.59-23.1-2.61-.87-2.61-.87l-19.19-11.34s.44-17,5.67-22.67,23.54-35.32,23.54-35.32l-5.23-18.33Z"/><path class="cls-30" d="M177.15,126.44s10.71,2.84,18.21,4.21a7.6,7.6,0,0,1,5.45,4.17c2.26,4.72,5.71,13.26,5.11,20.39l6.54,25.72,18.75,22.67-17,7.86L195,190.1l15.69,40.56L181.51,232s-8.72-65.4-6.54-76.3Z"/><path class="cls-33" d="M178,126.44s10.72,2.84,18.21,4.21a7.58,7.58,0,0,1,5.45,4.17c2.26,4.72,5.71,13.26,5.11,20.39l6.54,25.72,18.76,22.67-17,7.85L195.9,190.08l15.69,40.57L182.38,232s-8.72-65.4-6.54-76.3Z"/><polygon class="cls-31" points="156.97 113.72 162.98 143.23 153.17 148.24 147.8 121.66 156.97 113.72"/><polygon class="cls-31" points="173.44 145.41 178.02 126.44 183.91 137.56 180.86 146.72 173.44 145.41"/><path class="cls-30" d="M190,151.08s0,29.64,3.92,31.82"/><path class="cls-30" d="M133.77,158.47s-9.05,29.2-6.51,32.26"/><path class="cls-30" d="M132,198.6s17.44,11.4,19.84,11.59"/><path class="cls-30" d="M158,106.39s.07,2.55-.16,5.62a20.06,20.06,0,0,0,21.69,12,15.17,15.17,0,0,1,2.45-9.33C188.91,104.64,158,106.39,158,106.39Z"/><circle class="cls-32" cx="175.84" cy="102.46" r="20.06"/><path class="cls-30" d="M188.56,94c2.43.33,5.53-.48,6-2.89.59-3-3.48-5-4.11-8-.23-1.15.05-2.33-.09-3.48-.27-2.33-2.15-4.12-4.07-5.47a31.25,31.25,0,0,0-20.79-5.54,4.67,4.67,0,0,0-2.58.81A9.75,9.75,0,0,0,161.26,72c-1.88,3-6.12,3.4-9.13,5.3-3.55,2.21-5.3,6.56-5.46,10.74s1,8.28,2.21,12.29c1,3.41,2.05,6.92,4.25,9.71s5.86,4.74,9.31,3.9c-1.58-1.15-.43-3.79,1.28-4.72s3.83-1.08,5.32-2.37,1.91-3.38,2.38-5.29A13.94,13.94,0,0,1,174.66,95C178.11,91.5,184.32,93.46,188.56,94Z"/><path class="cls-34" d="M188.15,93.6c2.43.32,5.52-.49,6-2.89.59-3-3.48-5-4.1-8-.24-1.15,0-2.33-.09-3.48-.3-2.34-2.19-4.14-4.1-5.48a31.25,31.25,0,0,0-20.79-5.55,4.59,4.59,0,0,0-2.57.82,9.45,9.45,0,0,0-1.66,2.61c-1.88,3-6.12,3.39-9.13,5.29-3.55,2.21-5.3,6.56-5.46,10.74s1,8.28,2.21,12.29c1,3.41,2.05,6.92,4.25,9.71s5.86,4.75,9.31,3.9c-1.59-1.14-.43-3.79,1.28-4.72s3.83-1.08,5.32-2.37,1.91-3.38,2.38-5.29a14,14,0,0,1,3.23-6.61C177.67,91.08,183.9,93,188.15,93.6Z"/><path class="cls-30" d="M172.37,105.17a26.54,26.54,0,0,1-2.18,7.93,63.63,63.63,0,0,0-4.16,9.18h0a144.6,144.6,0,0,1,12.11,10.47,9.45,9.45,0,0,0,10,2.45,6.4,6.4,0,0,0,4.48-5.07,16.81,16.81,0,0,0-1-9.73,7.28,7.28,0,0,1,0-5.94,2.39,2.39,0,0,1,1-1.32s-7.85-1.74-8.29.44-6.54,4.36-7.84.43l-.36-8.65a1.9,1.9,0,0,0-1.89-1.81h0A1.88,1.88,0,0,0,172.37,105.17Z"/><path class="cls-34" d="M172.37,105.61a26.4,26.4,0,0,1-2.18,7.92,63.25,63.25,0,0,0-4.16,9.19h0a144.6,144.6,0,0,1,12.11,10.47,9.43,9.43,0,0,0,10,2.44,6.37,6.37,0,0,0,4.48-5.06,16.81,16.81,0,0,0-1-9.73,7.26,7.26,0,0,1,0-6,2.37,2.37,0,0,1,1-1.33s-7.85-1.74-8.29.44-6.53,4.38-7.85.46l-.36-8.65a1.89,1.89,0,0,0-1.89-1.81h0A1.89,1.89,0,0,0,172.37,105.61Z"/><path class="cls-35" d="M328.21,229.65s-7.88-7.88-10.78-18.37h.68l-.32-.91h.32l-1-2.91c2.91-2.86,5.06-5.62,5.4-7.2.59-2.65,1.18-17,1.54-26.93l.31.08a8.43,8.43,0,0,0,.87-4.46,17.35,17.35,0,0,0-.64-5l-1.42-14.22a9.74,9.74,0,0,0-3.73-6.68L305,131.92a9.25,9.25,0,0,1,2.82-2.5,6.5,6.5,0,0,0,2.34-1.48c1-1.36.15-3.37.83-4.91.51-1.14,1.78-1.79,2.52-2.82,1.51-2.11.41-5-.72-7.35L306.25,99.3a60.85,60.85,0,0,0-6.19-10.85c-7.78-10.13-22.75-15.17-34.95-10.78a13.86,13.86,0,0,0-8.17,7,17.89,17.89,0,0,1-1.57,3.51c-1.68,2.33-4.94,2.77-7.28,4.45-3,2.15-4.08,6.21-3.67,9.86s2.1,7,3.75,10.34,3.53,7,6.38,9.6c1.34,1.22,3,2.35,3.39,4.11.36,1.5-.28,3.06-.14,4.62a4.62,4.62,0,0,0,.55,1.85c-6.44.81-11,6.16-13.05,14.12-.13.49-.18.76-.18.76l-.91,8.25c0,.35,0,.7,0,1a11,11,0,0,0,1.15,5.36v28.94L217.81,209c-4.13,1.84-3.22,16.53,5.05,19.28s15.62-14.66,15.62-14.66c5-.34,13.49-7.05,18-12.25a8.3,8.3,0,0,0,2.4,2.5c-3.28,7.4-9.77,22.72-8.74,25.82.63,1.88,16.75,2,34.19,1.68a7.86,7.86,0,0,0,1.39.62,6.31,6.31,0,0,0,5.36-.79C310,230.62,328.21,229.65,328.21,229.65Zm-23.27-56.12c.38-1.06,1.64-1.64,3.32-1.91v11.16Zm-1.61-39.22h0l.06-.08Z"/><path class="cls-36" d="M262,159.58s-.87,30.95-1.74,34.88-13.51,15.68-20.06,16.13c0,0-7,16.57-14.83,13.95s-8.72-16.56-4.79-18.31l26.17-16.57V156.53Z"/><path class="cls-37" d="M261.3,197.51s-11.34,24.41-10,28.34,74.12,0,74.12,0-13.52-13.52-10.9-28.34Z"/><path class="cls-36" d="M270,125.13s1.74,17-1.31,20.93,12.21,6.13,13.52,6.13,15.26-4.8,17.87-6.13,4.8-10.9,4.8-10.9-13.08,2.62-17-12.62Z"/><path class="cls-3" d="M265.45,81.52a13.16,13.16,0,0,0-7.76,6.68,17.52,17.52,0,0,1-1.49,3.33c-1.59,2.22-4.69,2.63-6.89,4.21-2.83,2.05-3.88,5.9-3.49,9.38s2,6.67,3.56,9.8c1.65,3.28,3.35,6.64,6.06,9.12,1.26,1.14,2.81,2.23,3.21,3.9.35,1.43-.26,2.93-.14,4.39.32,3.63,4.65,5.31,8.27,5.72,1.57.17,3.37.18,4.48-1a7.94,7.94,0,0,0,1.21-2.1,10.05,10.05,0,0,1,17.93-.18c.85,1.63,1.34,3.61,2.89,4.59,2.36,1.53,5.52-.26,7.27-2.47s3-5,5.48-6.31a5.9,5.9,0,0,0,2.22-1.41c1-1.28.15-3.19.8-4.65.49-1.1,1.68-1.7,2.38-2.68,1.44-2,.39-4.77-.67-7L304.54,102a58.49,58.49,0,0,0-5.88-10.3C291.25,82.13,277,77.34,265.45,81.52Z"/><path class="cls-30" d="M281.35,149.11s17,0,21.37-15.69L317,144.52a9.2,9.2,0,0,1,3.52,6.36l1.35,13.51s1.53,5-.22,8.06c0,0-18.09-4.59-18.53.66l12.63,35.31s-19.62.44-24.85-3.06c0,0-21.36,4.36-26.59-.44s-10.47-4.35-6.13-15.26c0,0-8.72-8.72-4.79-20.93s.22.22.22.22-8.47-4.14-8-12l.88-7.85s0-.26.16-.72c2.66-10.34,9.8-16.08,19.85-12.42a9.15,9.15,0,0,0,5.93-.15S269.15,150,281.35,149.11Z"/><path class="cls-38" d="M281.35,148.24s17,0,21.37-15.69L317,143.65a9.2,9.2,0,0,1,3.52,6.36l1.35,13.5s1.53,5-.22,8.07c0,0-18.09-4.59-18.53.65l12.63,35.32s-19.62.44-24.85-3.06c0,0-21.36,4.36-26.59-.44s-10.47-4.36-6.13-15.26c0,0-8.72-8.72-4.79-20.93s.22.22.22.22-8.47-4.14-8-12l.88-7.85s0-.26.16-.73c2.66-10.33,9.8-16.07,19.85-12.41a9.19,9.19,0,0,0,5.93-.16S269.15,149.11,281.35,148.24Z"/><path class="cls-36" d="M321.68,163.07s-.87,31-1.74,34.88-13.52,15.69-20.06,16.13c0,0-7,16.56-14.82,13.95s-8.72-16.57-4.8-18.31l26.16-16.57V160Z"/><path class="cls-30" d="M303,164.16s10,6.8,18.75,6.23c0,0,.88-11.68-1.74-12.34S306,158.05,303,164.16Z"/><path class="cls-38" d="M303,163.72s10,6.8,18.75,6.24c0,0,.88-11.69-1.74-12.34S306,157.62,303,163.72Z"/><path class="cls-30" d="M288.77,123.39,270.89,126s.4,3.93.48,8.45A20.08,20.08,0,0,0,292.42,131,19.49,19.49,0,0,1,288.77,123.39Z"/><circle class="cls-36" cx="278.3" cy="115.11" r="20.06"/><path class="cls-30" d="M283.59,111.25a6.29,6.29,0,0,1-2.68.38c-3.55,0-7.09-.15-10.64-.38-2.67-.18-5.54-.5-7.61-2.22-2.79-2.29-3.23-6.64-1.79-10s4.37-5.78,7.47-7.66A22.38,22.38,0,0,1,274,88.87c5.74-1.56,12.1.36,16.67,4.18s7.48,9.36,9,15.11c.53,2,1.22,4.36,3.19,5-1.32,2.18-4.52,2.53-6.82,1.43-3.39-1.61-5.12-7.78-8.17-8.75C284.48,104.73,286.45,109.93,283.59,111.25Z"/><path class="cls-3" d="M283.59,110.81a6.14,6.14,0,0,1-2.68.39c-3.55,0-7.09-.15-10.64-.39-2.67-.18-5.54-.49-7.61-2.21-2.79-2.3-3.23-6.65-1.79-10s4.37-5.77,7.47-7.65A22.12,22.12,0,0,1,274,88.44c5.74-1.56,12.11.36,16.67,4.19s7.48,9.35,9,15.1c.54,2,1.22,4.37,3.19,5-1.31,2.18-4.51,2.53-6.81,1.43-3.39-1.61-5.13-7.78-8.17-8.75C284.48,104.29,286.45,109.49,283.59,110.81Z"/><path class="cls-30" d="M258,188.57A77.12,77.12,0,0,1,278.08,186"/><path class="cls-30" d="M303,165s-6.54,4.79-4.79,7.41"/><g class="cls-6"><polygon class="cls-39" points="347.85 212.55 133.77 212.55 133.77 231.27 146.23 231.27 146.23 234.92 146.23 290.16 335.83 290.16 335.83 234.92 335.83 231.27 347.85 231.27 347.85 212.55"/></g><rect class="cls-31" x="148.16" y="223.45" width="185.74" height="66.71"/><rect class="cls-30" x="148.16" y="226.94" width="185.74" height="10.46"/><rect class="cls-31" x="135.95" y="216.04" width="209.72" height="17.88"/><rect class="cls-29" x="166" y="211.64" width="40.11" height="5.67" rx="2.49"/><g class="cls-6"><rect class="cls-40" x="190.42" y="148.45" width="99.7" height="68.93" rx="10.8"/></g><rect class="cls-41" x="192.2" y="149.72" width="94.44" height="67.66" rx="10.27"/><rect class="cls-29" x="193.5" y="149.72" width="94.44" height="67.66" rx="10.27"/><circle class="cls-31" cx="245.14" cy="183.08" r="3.05"/><path class="cls-30" d="M120.25,224.76s2.58,3.78,10.23,4.94"/><path class="cls-1" d="M168.53,30.61H141.36V15.31h27.17Zm-26-1.14h24.87v-13H142.51Z"/><path class="cls-1" d="M195.7,30.61H168.53V15.31H195.7Zm-26-1.14h24.87v-13H169.68Z"/><path class="cls-1" d="M222.87,30.61H195.7V15.31h27.17Zm-26-1.14h24.87v-13H196.85Z"/><path class="cls-1" d="M250,30.61H222.87V15.31H250Zm-26-1.14h24.87v-13H224Z"/><path class="cls-1" d="M222.87,15.31H195.7V0h27.17Zm-26-1.15h24.87v-13H196.85Z"/><path class="cls-1" d="M195.7,15.31H168.53V0H195.7Zm-26-1.15h24.87v-13H169.68Z"/><path class="cls-1" d="M67.88,30.61H40.71V15.31H67.88Zm-26-1.14H66.74v-13H41.86Z"/><path class="cls-1" d="M95.05,30.61H67.88V15.31H95.05ZM69,29.47H93.91v-13H69Z"/><path class="cls-1" d="M95.05,15.31H67.88V0H95.05ZM69,14.16H93.91v-13H69Z"/><path class="cls-1" d="M305.15,30.61H278V15.31h27.17Zm-26-1.14H304v-13H279.13Z"/><path class="cls-1" d="M332.32,30.61H305.15V15.31h27.17Zm-26-1.14h24.87v-13H306.3Z"/><path class="cls-1" d="M332.32,15.31H305.15V0h27.17Zm-26-1.15h24.87v-13H306.3Z"/></g></g></svg>