<svg xmlns="http://www.w3.org/2000/svg" xmlns:xlink="http://www.w3.org/1999/xlink" viewBox="0 0 333.84 231.31"><defs><style>.cls-1{fill:#fff;}.cls-2,.cls-3{fill:#cdac70;}.cls-11,.cls-2,.cls-30{opacity:0.1;}.cls-11,.cls-2,.cls-29,.cls-6,.cls-7,.cls-8{isolation:isolate;}.cls-4{fill:#444052;}.cls-11,.cls-5{fill:#3e3c55;}.cls-6{fill:#ea5957;}.cls-6,.cls-7,.cls-8{opacity:0.8;}.cls-7{fill:#f6cc56;}.cls-8{fill:#89c351;}.cls-9{opacity:0.3;}.cls-10{fill:none;stroke:#3e3c55;stroke-miterlimit:10;}.cls-12{fill:url(#名称未設定グラデーション_2);}.cls-13{fill:#92d2de;}.cls-14{fill:url(#名称未設定グラデーション_2-2);}.cls-15{fill:#f6f4a7;}.cls-16{fill:url(#名称未設定グラデーション_2-3);}.cls-17{fill:url(#名称未設定グラデーション_2-4);}.cls-18{fill:url(#名称未設定グラデーション_2-5);}.cls-19{fill:#e968a3;}.cls-20{fill:url(#名称未設定グラデーション_2-6);}.cls-21{fill:url(#名称未設定グラデーション_2-7);}.cls-22{fill:url(#名称未設定グラデーション_2-8);}.cls-23{fill:url(#名称未設定グラデーション_2-9);}.cls-24{fill:url(#名称未設定グラデーション_2-10);}.cls-25{fill:url(#名称未設定グラデーション_2-11);}.cls-26{fill:url(#名称未設定グラデーション_2-12);}.cls-27{fill:#2f3c5b;}.cls-28{fill:#e48a99;}.cls-29,.cls-31{fill:#040000;}.cls-29{opacity:0.05;}.cls-32{fill:url(#名称未設定グラデーション_2-13);}</style><linearGradient id="名称未設定グラデーション_2" x1="125.84" y1="1192.24" x2="125.84" y2="1204.84" gradientTransform="matrix(1, 0, 0, -1, 0, 1292.48)" gradientUnits="userSpaceOnUse"><stop offset="0" stop-color="#7f8080" stop-opacity="0.25"/><stop offset="0.54" stop-color="#7f8080" stop-opacity="0.12"/><stop offset="1" stop-color="#7f8080" stop-opacity="0.1"/></linearGradient><linearGradient id="名称未設定グラデーション_2-2" x1="152.67" y1="1194.97" x2="152.67" y2="1207.58" xlink:href="#名称未設定グラデーション_2"/><linearGradient id="名称未設定グラデーション_2-3" x1="204.34" y1="1152.05" x2="204.34" y2="1164.66" xlink:href="#名称未設定グラデーション_2"/><linearGradient id="名称未設定グラデーション_2-4" x1="89.64" y1="1214.71" x2="89.64" y2="1227.32" xlink:href="#名称未設定グラデーション_2"/><linearGradient id="名称未設定グラデーション_2-5" x1="115.52" y1="1196.64" x2="115.52" y2="1209.25" xlink:href="#名称未設定グラデーション_2"/><linearGradient id="名称未設定グラデーション_2-6" x1="219.58" y1="1152.14" x2="219.58" y2="1164.75" xlink:href="#名称未設定グラデーション_2"/><linearGradient id="名称未設定グラデーション_2-7" x1="242.45" y1="1214.54" x2="242.45" y2="1227.15" xlink:href="#名称未設定グラデーション_2"/><linearGradient id="名称未設定グラデーション_2-8" x1="241.03" y1="1174.45" x2="241.03" y2="1187.06" xlink:href="#名称未設定グラデーション_2"/><linearGradient id="名称未設定グラデーション_2-9" x1="250.92" y1="1171.63" x2="250.92" y2="1184.23" xlink:href="#名称未設定グラデーション_2"/><linearGradient id="名称未設定グラデーション_2-10" x1="209.25" y1="1156.55" x2="209.25" y2="1169.15" xlink:href="#名称未設定グラデーション_2"/><linearGradient id="名称未設定グラデーション_2-11" x1="210.67" y1="1194.66" x2="210.67" y2="1207.27" xlink:href="#名称未設定グラデーション_2"/><linearGradient id="名称未設定グラデーション_2-12" x1="65.55" y1="1078.4" x2="128.39" y2="1078.4" gradientTransform="matrix(1, 0, 0, -1, -33.81, 1226.05)" xlink:href="#名称未設定グラデーション_2"/><linearGradient id="名称未設定グラデーション_2-13" x1="85.18" y1="1174.45" x2="85.18" y2="1187.06" xlink:href="#名称未設定グラデーション_2"/></defs><title>coachtech_howto_content3_1</title><g id="レイヤー_2" data-name="レイヤー 2"><g id="レイヤー_1-2" data-name="レイヤー 1"><rect class="cls-1" width="333.84" height="231.31"/><path class="cls-2" d="M179.72,38.64c-19.65,0-38.58-6.13-56.69-12.93S87,11.35,67.65,8.1C55.23,6,41.14,6.15,31.47,13.57c-9.31,7.14-12,19-13.25,30-1,8.24-1.39,16.89,2.3,24.44,2.57,5.24,7,9.57,10,14.57,10.78,17.39,4.39,39.53-6,57.26C19.7,148.1,14,156.07,10.32,164.86S5.16,183.64,9,192.35s12.24,14.92,21.3,19.22C48.68,220.32,70.1,222.25,91,223c46.16,1.73,92.38-1.36,138.49-4.46,17.06-1.15,34.2-2.31,50.9-5.73,9.28-1.9,18.82-4.73,25.38-11,8.33-7.94,10-20.94,3.9-30.31-10.23-15.72-37.1-18.76-44.47-35.75-4.06-9.35-.61-20,4.48-29,10.92-19.28,29.77-36.53,30-58.13.18-14.84-9.69-29.34-24.38-35.84C259.86,6,238.9,7.64,228.17,20.2,217.11,33.13,197.07,38.67,179.72,38.64Z"/><path class="cls-3" d="M277.45,183.68s-3.47-2.29-6.91-.66c0,0,1.06,2,5.41,1.84Z"/><path class="cls-3" d="M277.88,183.8s1.05,4-1.59,6.76c0,0-1.59-1.66,0-5.72Z"/><path class="cls-3" d="M282.21,179.94s-.26-3.42-8-2.28a3.68,3.68,0,0,0,2.67,3.25C279.61,182,280.85,181.07,282.21,179.94Z"/><path class="cls-3" d="M282.68,179.92s3.27,1.05.36,8.29a3.7,3.7,0,0,1-2.55-3.36C280.11,182,281.27,181,282.68,179.92Z"/><path class="cls-3" d="M287.05,175.07s.44-5.63-7.45-5c0,0-.56,5.08,6.06,6.4Z"/><path class="cls-3" d="M292.27,168.71s-1.09-6.37-9-4.47c0,0,0,5.51,7.68,6Z"/><path class="cls-3" d="M296.08,162.15s-1.81-6.21-9.63-4.35c0,0,1.86,5.58,9.11,5.5Z"/><path class="cls-3" d="M299.7,155.74s-1.77-6.45-9.32-4.52c0,0,2.52,6.12,8.82,5.61Z"/><path class="cls-3" d="M302,149.64s-1.36-7.87-8.39-6.13c0,0,2.05,7.17,7.88,7.28Z"/><path class="cls-3" d="M304.22,142.28s-1.64-7.95-8.76-5.64c0,0,2.8,7.5,8.25,6.73Z"/><path class="cls-3" d="M305.57,135.43s-2.59-7.94-8.1-7.73c0,0,2.66,8.39,7.63,9.32Z"/><path class="cls-3" d="M306.43,128.75s-2.82-9.57-7.3-8.83c0,0,2,7.31,7.15,10.32Z"/><path class="cls-3" d="M306.91,120.76s-2.64-8-7.06-8.29c0,0,1.81,7.85,7,10.36Z"/><path class="cls-3" d="M307.46,113.33s-3.3-8-6.21-8.16c0,0,1.43,7.85,5.93,9.47Z"/><path class="cls-3" d="M307.82,106.41s-2-8.68-4.94-9.39c0,0,.4,7.09,4.65,10Z"/><path class="cls-3" d="M308.92,97.35s-2.13-6.91-4.5-8c0,0,.47,8.14,4,9.65Z"/><path class="cls-3" d="M309.83,91.4l.43-12.18s-4.41,9.19-.75,14.33Z"/><path class="cls-3" d="M313.25,79.29s3.18-8.89,3.95-9.39c0,0-6.24,5.77-5.63,13.2Z"/><path class="cls-3" d="M287.27,175s5.59-.74,5.42,7.18c0,0-5.05.82-6.7-5.72Z"/><path class="cls-3" d="M292.53,168.5s6.47,0,5.93,8.08c0,0-5.43,1-7.22-6.55Z"/><path class="cls-3" d="M296.14,162.66s5.87-2.75,9.63,4.36c0,0-5.43,2.29-10.15-3.21Z"/><path class="cls-3" d="M299.83,155.8s6-2.94,9.54,4c0,0-6.26,2.15-10-2.92Z"/><path class="cls-3" d="M302,149.81s5.78-5.52,10.4.07c0,0-5.91,4.54-10.67,1.16Z"/><path class="cls-3" d="M303.89,142.09s5.82-5.64,10.4.26c0,0-6.53,4.64-10.61.93Z"/><path class="cls-3" d="M305,135.2s4.48-7,9.76-5.48c0,0-4.65,7.48-9.71,7.14Z"/><path class="cls-3" d="M306.3,128.7s4.52-8.89,8.79-7.34c0,0-3.26,6.83-8.91,8.84Z"/><path class="cls-3" d="M306.61,120.31s4.65-7,9-6.14c0,0-3.8,7.1-9.45,8.17Z"/><path class="cls-3" d="M307,113.17s3.59-7.85,6.52-7.92c0,0-1.73,7.8-6.28,9.24Z"/><path class="cls-3" d="M307.68,106.23s4-8,7-8c0,0-2.05,6.79-6.88,8.66Z"/><path class="cls-3" d="M308.28,97.83s3-6.57,5.47-7.32c0,0-1.49,8-5.14,9.07Z"/><path class="cls-3" d="M310.19,91.17,316.88,81s-1.71,10-7.67,12.14Z"/><path class="cls-3" d="M314.78,80.11s7.77-5.36,8.05-6.23c0,0-3.95,7.51-11.29,8.84Z"/><path class="cls-3" d="M315.25,77.7s8.92-8.58,11.2-8.57A14.56,14.56,0,0,0,315,77.24Z"/><path class="cls-4" d="M308.37,99.11l.32,0c1.68-13.13,4.12-20.89,6.89-21.85l-.11-.31C312.54,78,310.09,85.66,308.37,99.11Z"/><path class="cls-4" d="M305.9,130.49l.49,0c.11-1.23.18-2.48.24-3.73.47-10.87,1.2-20.84,2.15-28.32l-.28-.36c-1,7.5-1.89,17.78-2.36,28.66C306.08,128,306,129.28,305.9,130.49Z"/><path class="cls-4" d="M268.29,189.93A64.19,64.19,0,0,0,286,176.82a71.38,71.38,0,0,0,12.94-18.35c4.15-8.45,6.68-18.84,7.53-28.93l-.51.24c-1.91,22.64-12.21,38.12-20.41,46.54a63,63,0,0,1-17.53,13Z"/><path class="cls-5" d="M302.83,20.74H31.53a2.41,2.41,0,0,0-2.41,2.41v7H305.24v-7A2.41,2.41,0,0,0,302.83,20.74Z"/><path class="cls-1" d="M29.12,30.19V188.65A4.87,4.87,0,0,0,34,193.53H300.37a4.87,4.87,0,0,0,4.87-4.88h0V30.19Z"/><circle class="cls-6" cx="33.49" cy="25.39" r="1.13"/><circle class="cls-7" cx="36.6" cy="25.39" r="1.13"/><circle class="cls-8" cx="39.7" cy="25.39" r="1.13"/><g class="cls-9"><rect class="cls-10" x="39.7" y="39.79" width="255.23" height="143.99"/><rect class="cls-10" x="73.02" y="39.79" width="188.6" height="143.99"/><rect class="cls-10" x="106.33" y="39.79" width="121.97" height="143.99"/><rect class="cls-10" x="139.65" y="39.79" width="55.34" height="143.99"/><line class="cls-10" x1="167.32" y1="39.79" x2="167.32" y2="183.78"/><rect class="cls-10" x="39.7" y="60.68" width="255.23" height="102.21"/><rect class="cls-10" x="39.7" y="81.29" width="255.23" height="60.98"/><rect class="cls-10" x="39.7" y="101.91" width="255.23" height="19.76"/></g><rect class="cls-11" x="79.65" y="47.84" width="20.05" height="7.34"/><rect class="cls-11" x="48.31" y="67.88" width="14.96" height="7.34"/><rect class="cls-11" x="112.12" y="47.84" width="20.05" height="7.34"/><rect class="cls-11" x="142.62" y="47.84" width="20.05" height="7.34"/><rect class="cls-11" x="170.85" y="47.84" width="20.05" height="7.34"/><rect class="cls-11" x="202.47" y="47.84" width="20.05" height="7.34"/><rect class="cls-11" x="234.66" y="47.84" width="20.05" height="7.34"/><rect class="cls-11" x="268.82" y="47.84" width="20.05" height="7.34"/><rect class="cls-12" x="119.33" y="87.63" width="13.02" height="12.61"/><rect class="cls-13" x="119.55" y="87.85" width="12.58" height="12.17"/><rect class="cls-14" x="146.16" y="84.9" width="13.02" height="12.61"/><rect class="cls-15" x="146.39" y="85.12" width="12.58" height="12.17"/><rect class="cls-16" x="197.83" y="127.82" width="13.02" height="12.61"/><rect class="cls-15" x="198.06" y="128.03" width="12.58" height="12.17"/><rect class="cls-17" x="83.13" y="65.16" width="13.02" height="12.61"/><rect class="cls-15" x="83.35" y="65.38" width="12.58" height="12.17"/><rect class="cls-18" x="109.01" y="83.23" width="13.02" height="12.61"/><rect class="cls-19" x="109.23" y="83.45" width="12.58" height="12.17"/><rect class="cls-20" x="213.06" y="127.73" width="13.02" height="12.61"/><rect class="cls-13" x="213.29" y="127.94" width="12.58" height="12.17"/><rect class="cls-21" x="235.93" y="65.33" width="13.02" height="12.61"/><rect class="cls-13" x="236.16" y="65.55" width="12.58" height="12.17"/><rect class="cls-22" x="234.52" y="105.42" width="13.02" height="12.61"/><rect class="cls-13" x="234.75" y="105.64" width="12.58" height="12.17"/><rect class="cls-23" x="244.4" y="108.24" width="13.02" height="12.61"/><rect class="cls-13" x="244.63" y="108.46" width="12.58" height="12.17"/><rect class="cls-24" x="202.74" y="123.32" width="13.02" height="12.61"/><rect class="cls-19" x="202.97" y="123.54" width="12.58" height="12.17"/><rect class="cls-25" x="204.15" y="85.21" width="13.02" height="12.61"/><rect class="cls-19" x="204.38" y="85.43" width="12.58" height="12.17"/><rect class="cls-11" x="48.31" y="87.65" width="14.96" height="7.34"/><rect class="cls-11" x="48.31" y="108.26" width="14.96" height="7.34"/><rect class="cls-11" x="48.31" y="128.87" width="14.96" height="7.34"/><rect class="cls-11" x="48.31" y="149.48" width="14.96" height="7.34"/><rect class="cls-11" x="48.31" y="170.09" width="14.96" height="7.34"/><path class="cls-26" d="M93.77,106.06c.42-.27.25-1-.18-1.22a2,2,0,0,0-1.44-.07.6.6,0,0,0-.31-.62V104a.78.78,0,0,0-.17-1.1,2.23,2.23,0,0,0-1.35-.23,1.79,1.79,0,0,0-.56-1.53.51.51,0,0,0-.31-.15c-.28,0-.36.36-.38.63a12.16,12.16,0,0,1-.35,2.09l-8.78,14.68C79,119.84,82,115.61,81,117a12.83,12.83,0,0,1-1.73,2.15,8.73,8.73,0,0,1-2,1.3A2.28,2.28,0,0,1,76,120.1a5.47,5.47,0,0,1-1.28-1.26,26.72,26.72,0,0,1-2.07-3.08,4,4,0,0,1-.47-1.1,10.07,10.07,0,0,0-.24-1.84,3.19,3.19,0,0,0-.38-.6l-.61-.8v0c-.06-1.19-1-2.11-1.94-2.9a5.21,5.21,0,0,0-2.61-1.5c-.54-.07-1.1,0-1.64,0s-.86-.23-1.31-.3a5.4,5.4,0,0,0-1.27,0l-.18-.17a5.14,5.14,0,0,0,2.28-1.92c.42-.68.65-1.45,1-2.15s1.17-1.55,1.7-2.36a8.74,8.74,0,0,0,1-6.66,16.11,16.11,0,0,0-3.11-6.11,12,12,0,0,0-11.53-4.12l-.85.16a11.16,11.16,0,0,0-2.1.67,5.43,5.43,0,0,0-2.29,1.79,4.78,4.78,0,0,0-.4.74,6.17,6.17,0,0,0-.19.61,6.44,6.44,0,0,0-.1,1.91l.06.65,0,.33c0,.21.05.43.09.65s.08.65.11,1a5.07,5.07,0,0,1,0,.68v.17a2.26,2.26,0,0,1-.08.51,2.76,2.76,0,0,1-.08.27,3.46,3.46,0,0,1-.4.73,10.11,10.11,0,0,1-.71.88l-.25.28-.24.28a10.26,10.26,0,0,0-.88,1.2,5.84,5.84,0,0,0-.35.65,3.39,3.39,0,0,0-.2.53,3.64,3.64,0,0,0-.15.73.65.65,0,0,1,0,.19v.37a2.2,2.2,0,0,0,0,.36c0,.12,0,.24.08.36a2,2,0,0,0,.14.34.21.21,0,0,0,0,.1l.05.09.09.18a1.4,1.4,0,0,1,.09.29v.2a1.14,1.14,0,0,1-.42.72l-.17.15-.09.08-.18.14-.18.14a3.49,3.49,0,0,0-.43.43,15.62,15.62,0,0,0-4.72.46,6.54,6.54,0,0,1-1.7.31.86.86,0,0,1-.73-.31,1.06,1.06,0,0,1-.08-.68,5.87,5.87,0,0,0-.45-2.77,1.47,1.47,0,0,0-.45-.65.63.63,0,0,0-.75,0,7,7,0,0,1-.2,4.7,16,16,0,0,1-1.08,2c-.65,1.09-1,2.35-1.58,3.49.64,2.17.5,4.49.85,6.73A30.69,30.69,0,0,0,34.36,122a9.74,9.74,0,0,0,2.35,4.11,2.17,2.17,0,0,0,1.45.63,2.56,2.56,0,0,0,1.13-.43,4.72,4.72,0,0,0,1-.7,3.37,3.37,0,0,0,.28-.38,1.63,1.63,0,0,0,.21.53c.69-1.48,1.45-2.94,2.26-4.36a3.39,3.39,0,0,0,.68-.46.42.42,0,0,0,0,.15c0,.14-.07.29-.11.41l-.12.39-.09.29a3.43,3.43,0,0,1-.12.33c0,.12-.09.25-.14.37a1.79,1.79,0,0,1-.1.26,5,5,0,0,1-.28.63l.24.1.06,0,.22.06h.49a2.35,2.35,0,0,0,.6-.1l.11.45a16.46,16.46,0,0,1,.54,3.11A24.87,24.87,0,0,0,45.1,131c.11.6.35,1.18.43,1.79a7.15,7.15,0,0,1,0,1.73l-.39,4.16a3.58,3.58,0,0,1-.36,1.47c-.19.34-.51.72-.31,1.06a6.42,6.42,0,0,1,1-.19c-.12.44-.23.88-.34,1.33a2.35,2.35,0,0,0-.08,1,7.37,7.37,0,0,1,.31.94,3.12,3.12,0,0,1-.5,1.43c-.49,1.21,0,2.56.57,3.75L47,153l1.27,2.9c.38.84.76,1.72,1.13,2.59a83.27,83.27,0,0,1,4.07,12.21,1.46,1.46,0,0,0,.22.53c.21.28.6.37.92.55a1.72,1.72,0,0,1,.19,2.75c.18,2.13-1.41,4.18-2.23,6.14-1.88,4.52-1.54,9.62-2.19,14.48l.73-.43a.78.78,0,0,1,.24.16c0,.09,0,.18-.06.28a4.28,4.28,0,0,1-.47,1.18,6.34,6.34,0,0,0-1.17,2.22,13.08,13.08,0,0,0,.09,1.53v.14c-.07-.06-.16-.06-.31.06a1.79,1.79,0,0,0-.46.87c-.13.36-.23.73-.33,1.1l-.38,1.3a15.11,15.11,0,0,1-.76,2.3,9,9,0,0,0-.68,1.56,5,5,0,0,0-.12,1.34,3.91,3.91,0,0,0,.19,1.27,3.16,3.16,0,0,0,1.84,1.76,8.71,8.71,0,0,0,2.57.48,2.21,2.21,0,0,0,.68,0,1.76,1.76,0,0,0,.65-.34A5.43,5.43,0,0,0,54.49,208a5.29,5.29,0,0,0-.16-.9c.08-1.61-.16-3.22,0-4.82,0,.18.06.36.08.54l.29,1.8a.42.42,0,0,0-.1-.17,4.11,4.11,0,0,0-.11,2.06,11.41,11.41,0,0,0,.6,2l.38,1.08a2.61,2.61,0,0,0,.46.89,2.42,2.42,0,0,0,1.34.62,14.77,14.77,0,0,0,3.24.57.69.69,0,0,0,.42-.08l.19-.16a2,2,0,0,1,.32-.18,2.07,2.07,0,0,0,1-1.18,1.89,1.89,0,0,0-.18-1.52,3.75,3.75,0,0,0-.44-.53l-1.93-2a12.78,12.78,0,0,0-1-1,.35.35,0,0,0-.31-.1,10.05,10.05,0,0,1-.36-4.28c0-.43.26-1.32.35-2.05a3.23,3.23,0,0,0,1-.56,1.61,1.61,0,0,0,.59-.88,146.29,146.29,0,0,1,4-14.65c.14-.47.28-.95.43-1.43l.18-.62c.06-.2.1-.33.14-.5l.24-.84.06-.23v0l.29-1c0-.14.07-.27.1-.4.11-.44.22-.89.32-1.33a.58.58,0,0,0,0-.19.76.76,0,0,0,0-.47h0a.42.42,0,0,0-.11-.16l-.1-.1a1.47,1.47,0,0,1-.1-.13,1,1,0,0,1-.2-.37v-.4c0-.13,0-.28,0-.43s.08-.38.13-.57.07-.22.11-.33.08-.28.13-.41a1,1,0,0,0,.25-.69c.18-.44.37-.87.58-1.29a3.77,3.77,0,0,0,.52-1.39,5.29,5.29,0,0,0-.17-1.31c-.28-1.84.57-3.63,1.19-5.37a22.56,22.56,0,0,0,1-3.95,8.63,8.63,0,0,1,.86-3,4.3,4.3,0,0,0,.47-.8,3.44,3.44,0,0,0,.12-.91,10,10,0,0,1,.89-3.6,2.19,2.19,0,0,0,.23-.71v-.11l.15,0a19.37,19.37,0,0,0,.32-4.86,7.4,7.4,0,0,0-2.48-4.69h0a1.54,1.54,0,0,0,.71-1.37,2.7,2.7,0,0,0-1-2.1,1,1,0,0,1-.34-.35,1,1,0,0,1,0-.46,2.32,2.32,0,0,0-1.43-2.15.72.72,0,0,1-.24-.14.58.58,0,0,1-.06-.41,2.53,2.53,0,0,0-1.22-2.31,3.91,3.91,0,0,0,.06-1.83,1.36,1.36,0,0,0-1.34-1c.5-1.36-.21-2.86,0-4.29.08-.62.32-1.21.35-1.83a3.67,3.67,0,0,1,.17-1.66c.27-.49.92-.87.75-1.41-.07-.23-.28-.39-.38-.61s.3-.56.5-.44a3.11,3.11,0,0,0,.28-.23,4.92,4.92,0,0,0,.17.85c.14.46.35.9.5,1.36a11.33,11.33,0,0,0,.63,2.1c.57,1,1.76,1.55,2.57,2.4.48.5.82,1.13,1.31,1.61a7.23,7.23,0,0,0,1.21.91L75.57,128a2.74,2.74,0,0,0,.89.44,1.52,1.52,0,0,0,1.78-1.21.19.19,0,0,0,0-.08,1.84,1.84,0,0,1-.64-.39.2.2,0,0,0,.11,0,4.14,4.14,0,0,0,1.68-.89,22.68,22.68,0,0,0,4.49-5.48c1.37-2.08,8-7.59,8-7.59v-2.23A8,8,0,0,0,94,108.7a2.42,2.42,0,0,0,.55-1.41A1.26,1.26,0,0,0,93.77,106.06Zm-54.69,5.35c-.12.81-.28,1.62-.46,2.42a26.45,26.45,0,0,1-.78,2.73l-.1.28-.29-.53c-.21-.44-.38-.9-.56-1.36L35.8,112a1.38,1.38,0,0,1-.07-1.17,1.24,1.24,0,0,1,.62-.46,11.42,11.42,0,0,1,2.39-.81,7.34,7.34,0,0,0,.77-.21,11.16,11.16,0,0,0-.43,2Zm1.21-3.67a.42.42,0,0,1,0-.43,1,1,0,0,1,.28-.2l.08,0c-.11.23-.24.46-.36.69Zm2.26-3.19a5.23,5.23,0,0,0-.87.89,8.73,8.73,0,0,0-.75,1.15.84.84,0,0,0-.31-.85,1.73,1.73,0,0,1-.28-.19.59.59,0,0,1,.12-.83h0a1.72,1.72,0,0,1,.88-.3l1.3-.19c0,.11-.07.22-.1.32ZM54.73,199a4.61,4.61,0,0,0-.07-1.17h.48C55,198.24,54.87,198.64,54.73,199Z"/><path class="cls-27" d="M53.41,84c-2.26.36-4.78,1.23-5.65,3.35-.65,1.6-.15,3.4,0,5.12a3.87,3.87,0,0,1-.05,1.36,4.77,4.77,0,0,1-1.2,1.88,10,10,0,0,0-1.72,2.41A3.53,3.53,0,0,0,44.7,101a2.05,2.05,0,0,1,.28.76c0,.59-.59,1-1,1.34-1.69,1.41-1.62,4-1.64,6.16a31.08,31.08,0,0,1-2.93,13,4,4,0,0,0,4.45-.58,14.33,14.33,0,0,1-1,2.91c1.44.7,3.17-.44,3.89-1.87s.8-3.07,1.31-4.58,1.41-2.83,1.81-4.35a4.11,4.11,0,0,1,.52-1.46,3.91,3.91,0,0,1,.9-.77,8.74,8.74,0,0,0,3.19-4.33,17.62,17.62,0,0,0,5.34.62,6,6,0,0,0,4.57-2.51c.42-.67.64-1.45,1-2.14.47-.85,1.17-1.55,1.69-2.36a8.72,8.72,0,0,0,1-6.65,15.84,15.84,0,0,0-3.1-6.1A12,12,0,0,0,53.41,84Z"/><path class="cls-3" d="M39.15,112.23c-.13.81-.28,1.61-.46,2.41a25.1,25.1,0,0,1-.78,2.73,2.57,2.57,0,0,0-.25,1.25,2.46,2.46,0,0,0,.3.75c1,1.83,2.43,3.6,2.55,5.7a3,3,0,0,0,.28,1.52q1.18-2.57,2.63-5a15.39,15.39,0,0,0,2.42-5.39,10.28,10.28,0,0,0,0-2.77,6.06,6.06,0,0,0-1-2.91c-.69-.89-2.54-2.24-3.77-2C39.62,108.88,39.33,111.08,39.15,112.23Z"/><path class="cls-28" d="M75.54,122.1a12.22,12.22,0,0,0,3.8-2.12,13.18,13.18,0,0,0,1.73-2.14l3.17-4.58a8.47,8.47,0,0,0,1.7-3.55,11.66,11.66,0,0,0,3.17-7.21c0-.27.11-.62.38-.63a.46.46,0,0,1,.31.15,1.77,1.77,0,0,1,.56,1.52,2.14,2.14,0,0,1,1.35.24c.38.27.48.94.07,1.16a.58.58,0,0,1,.4.66,2.17,2.17,0,0,1,1.45.07c.43.24.6,1,.18,1.22a1.25,1.25,0,0,1,.81,1.2,2.4,2.4,0,0,1-.56,1.42c-1.22,1.63-3.37,2.29-4.78,3.77A11.27,11.27,0,0,0,88,114.94l-4.09,6.23a22.3,22.3,0,0,1-4.5,5.48,4.1,4.1,0,0,1-1.67.89,1.85,1.85,0,0,1-1.76-.49,2.86,2.86,0,0,1-.51-1.75C75.43,124.25,75.61,123.16,75.54,122.1Z"/><path class="cls-27" d="M61.82,208.69a3.18,3.18,0,0,1,.44.53,1.84,1.84,0,0,1,.18,1.52,2,2,0,0,1-1,1.17,1.92,1.92,0,0,0-.31.18l-.19.16a.72.72,0,0,1-.43.08,15.48,15.48,0,0,1-3.24-.56,2.61,2.61,0,0,1-1.34-.63,2.42,2.42,0,0,1-.45-.89l-.39-1.07a12.31,12.31,0,0,1-.59-2,4.12,4.12,0,0,1,.11-2.06.71.71,0,0,1,.14.42,4.7,4.7,0,0,0,.82,2,1.8,1.8,0,0,0,.33.4,2,2,0,0,0,1,.41,12.77,12.77,0,0,0,2.05.26.55.55,0,0,0,.28,0,.51.51,0,0,0,.24-.28,1.37,1.37,0,0,0,0-.85c-.19-.52-.7-.86-.94-1.36s.06-.77.44-.46a12.64,12.64,0,0,1,.94,1Z"/><path class="cls-28" d="M58.27,201.27c-.11,1.72-.18,3.59.76,5,.34.51.8.95,1.18,1.44a1.83,1.83,0,0,1,.43.87,1.35,1.35,0,0,1-1.17,1.3,3.65,3.65,0,0,1-1.86-.29,4.45,4.45,0,0,1-1.59-.74,4.56,4.56,0,0,1-1.2-2.91l-.38-2.47a5.83,5.83,0,0,1,.35-3.73l.63-1.85a.85.85,0,0,1,.28-.46.81.81,0,0,1,.48-.09c.61,0,2.14.25,2.43.89S58.32,200.6,58.27,201.27Z"/><path class="cls-29" d="M58.27,201.27c-.11,1.72-.18,3.59.76,5,.34.51.8.95,1.18,1.44a1.83,1.83,0,0,1,.43.87,1.35,1.35,0,0,1-1.17,1.3,3.65,3.65,0,0,1-1.86-.29,4.45,4.45,0,0,1-1.59-.74,4.56,4.56,0,0,1-1.2-2.91l-.38-2.47a5.83,5.83,0,0,1,.35-3.73l.63-1.85a.85.85,0,0,1,.28-.46.81.81,0,0,1,.48-.09c.61,0,2.14.25,2.43.89S58.32,200.6,58.27,201.27Z"/><path class="cls-27" d="M71.84,150.13a0,0,0,0,1,0,.05,1.93,1.93,0,0,1-.23.7,9.93,9.93,0,0,0-.89,3.6,3.56,3.56,0,0,1-.12.91,4.45,4.45,0,0,1-.47.79,8.63,8.63,0,0,0-.86,3,23.25,23.25,0,0,1-1,3.93c-.63,1.75-1.47,3.53-1.19,5.37a5.29,5.29,0,0,1,.17,1.31,3.77,3.77,0,0,1-.52,1.39,12.26,12.26,0,0,0-.56,1.29c-.19.46-.35.94-.5,1.43a2,2,0,0,0,.11,1.76,2.37,2.37,0,0,1,.32.39,1.1,1.1,0,0,1,0,.67q-.33,1.41-.72,2.82c-.19.74-.4,1.46-.62,2.19-1.58,5.33-3.39,10.6-4.45,16.06-.15.79-1.16,1.35-1.94,1.52a2.53,2.53,0,0,1-2.23-.6c-.05,0-.1-.1-.15-.15a4.68,4.68,0,0,1-.88-3.45c.28-5.62,3.11-10.76,4.45-16.22a31.24,31.24,0,0,0,.88-6c.31-6.78.44-13.95-1.48-20.46-.4-1.36-.87-2.89-.15-4.1a4.08,4.08,0,0,1,2.12-1.55,13.68,13.68,0,0,1,10.58.28c0,.14,0,.27,0,.41a4.24,4.24,0,0,0,.21,1.87A2.18,2.18,0,0,1,71.84,150.13Z"/><path class="cls-27" d="M48.63,203l-.36,1.31a14.3,14.3,0,0,1-.76,2.29,10.23,10.23,0,0,0-.68,1.56,4.65,4.65,0,0,0-.11,1.34,3.9,3.9,0,0,0,.18,1.27,3.13,3.13,0,0,0,1.85,1.75,8.6,8.6,0,0,0,2.57.48,2.15,2.15,0,0,0,.67,0,1.78,1.78,0,0,0,.65-.35,5.4,5.4,0,0,0,1.91-3.95,4.41,4.41,0,0,0-.2-1c-.09-.12-1,.38-.6.81.56.63-1.1.3-2,.25a6.82,6.82,0,0,1-1.1-.18l-1.37-.28c-.45-.1-1-.26-1.13-.68s.18-.95.45-1.37a8.7,8.7,0,0,0,1.07-3.77c0-.26.36-1.93-.31-1.41a2,2,0,0,0-.46.86C48.83,202.27,48.73,202.64,48.63,203Z"/><path class="cls-29" d="M65.72,175.68a2,2,0,0,1-.11-1.77l.21-.65-5.39-1.83-.06,1.45a32.13,32.13,0,0,1-.87,6c-1.35,5.46-4.18,10.6-4.45,16.21a4.45,4.45,0,0,0,1,3.61,2.54,2.54,0,0,0,2.22.6c.79-.17,1.79-.74,2-1.52,1.06-5.46,2.86-10.73,4.45-16.07.49-1.65.94-3.32,1.33-5a.94.94,0,0,0,0-.66A1.48,1.48,0,0,0,65.72,175.68Z"/><path class="cls-28" d="M50.83,197.09a6.34,6.34,0,0,0-1.17,2.22,13.08,13.08,0,0,0,.09,1.53,4.75,4.75,0,0,1-.22,1.24q-.8,2.85-1.81,5.61a1.44,1.44,0,0,0-.15.76,1.34,1.34,0,0,0,.89.89,9.57,9.57,0,0,0,4.13.46,2.27,2.27,0,0,0,1.16-.29,2,2,0,0,0,.65-1.62c.1-1.75-.2-3.51,0-5.25.07-.63.21-1.26.3-1.89a5.44,5.44,0,0,0-.08-2.63,6.06,6.06,0,0,0-1-1.66,5.21,5.21,0,0,0-1.37-1.36c-.17-.1-.63-.4-.8-.21s0,.35-.06.47a5.07,5.07,0,0,1-.09.54A4.59,4.59,0,0,1,50.83,197.09Z"/><path class="cls-29" d="M61.18,152.32a1.5,1.5,0,0,0-.1,1.23c.18.74.48,1.46.72,2.18a30.24,30.24,0,0,1,.93,4,11.45,11.45,0,0,1,.51,3.79,27,27,0,0,1,2.86,9c.11.8-1.68,1.84-1.64,2.65.07,1.62,1.35,1.75.41,3-.05.07.35,1.51.3,1.57-.39.47-.88.85-1.3,1.28a9.73,9.73,0,0,0-1.36,2c-2.46,4.44-6,9.47-4.91,14.43a.89.89,0,0,1-.47.89,2.51,2.51,0,0,1-1,.24h-.17a4.7,4.7,0,0,1-.88-3.45c.29-5.62,3.11-10.76,4.45-16.22a31.34,31.34,0,0,0,.88-6c.31-6.78.44-13.94-1.48-20.45-.4-1.36-.87-2.89-.15-4.1a4,4,0,0,1,2.12-1.55,13.63,13.63,0,0,1,10.58.28c0,.13,0,.27,0,.4a4.21,4.21,0,0,0,.21,1.87,2.36,2.36,0,0,1,.21.82s.1-1.1.1-1.08c-2.19.31-4.5,1.75-6.71,2.07a15.53,15.53,0,0,0-3.36.74A1.51,1.51,0,0,0,61.18,152.32Z"/><path class="cls-27" d="M45.94,140.3q-.45,1.41-.78,2.85a2.35,2.35,0,0,0-.08,1,6.82,6.82,0,0,1,.3.94,3.22,3.22,0,0,1-.49,1.43c-.5,1.2,0,2.56.56,3.74L47,153.81l1.28,2.9c.38.86.76,1.72,1.13,2.59a83,83,0,0,1,4.07,12.19,1.44,1.44,0,0,0,.21.53,2.59,2.59,0,0,0,.92.55,1.74,1.74,0,0,1,.2,2.76c.18,2.12-1.41,4.16-2.23,6.13C50.7,186,51,191.06,50.4,195.92l.73-.43c.7.32.68,1.31,1.06,2,.56,1,2,1.15,3.1,1.08a2.51,2.51,0,0,0,1-.24.89.89,0,0,0,.47-.89c-1.1-5,2.45-10,4.91-14.43a9.73,9.73,0,0,1,1.36-2c.42-.44.91-.81,1.3-1.28a7,7,0,0,0,1.15-4.83,27.1,27.1,0,0,0-3.08-11.41,11.42,11.42,0,0,0-.51-3.78,29.72,29.72,0,0,0-.93-4c-.25-.74-.54-1.45-.72-2.19a1.17,1.17,0,0,1,.79-1.68,15.53,15.53,0,0,1,3.36-.74L72,150a19.29,19.29,0,0,0,.32-4.85A7.45,7.45,0,0,0,67,139a1.14,1.14,0,0,0-1,.06A39.38,39.38,0,0,0,45.94,140.3Z"/><path class="cls-28" d="M52.81,99.38a3.77,3.77,0,0,1-.33,2.17,3.36,3.36,0,0,1-.85,1,6.35,6.35,0,0,1-2.49,1.24,2.74,2.74,0,0,0-1.5.66c-.53.64-.17,1.61.28,2.31a6,6,0,0,0,3.28,2.7c1.13.31,2.3.12,3.44.32.83.14,1.61.48,2.43.68a7.16,7.16,0,0,0,6.57-1.83,9.4,9.4,0,0,1-3.11-3.32,4.74,4.74,0,0,1-.24-3.17c.29-1,1-2,.75-3.11a3.23,3.23,0,0,0-2.26-2.14,14.76,14.76,0,0,0-2.86-.56c-.54-.08-3.93-.83-4.14-.46-.12.21.59,1.45.67,1.72A6.53,6.53,0,0,1,52.81,99.38Z"/><circle class="cls-28" cx="57.08" cy="94.99" r="6.87"/><path class="cls-3" d="M53.45,106.34l4.66.79a17.71,17.71,0,0,0,3.48.35,10.26,10.26,0,0,1,1.92,0c.44.07.86.24,1.3.3s1.1,0,1.65,0a5.25,5.25,0,0,1,2.61,1.5A4.55,4.55,0,0,1,71,112.2a.89.89,0,0,1-.06.4,1.07,1.07,0,0,1-.34.36,11.59,11.59,0,0,0-2,2.68,10.22,10.22,0,0,1-2.32,2.5c-.2-.13-.59.21-.5.44s.31.38.39.61c.16.53-.49.91-.76,1.41a3.8,3.8,0,0,0-.16,1.66c0,.61-.28,1.2-.36,1.82-.19,1.43.52,2.94,0,4.29a1.35,1.35,0,0,1,1.34,1,3.91,3.91,0,0,1-.06,1.83,2.49,2.49,0,0,1,1.22,2.3.41.41,0,0,0,.2.52l.09,0a2.32,2.32,0,0,1,1.43,2.15.71.71,0,0,0,.38.81,2.7,2.7,0,0,1,1,2.09,1.53,1.53,0,0,1-.71,1.38,13,13,0,0,1-3.13.93q-1.5.35-3,.54c-.94.07-1.89.1-2.83.08l-6.23,0c-1.75,0-3.51,0-5.26-.13a14.78,14.78,0,0,0-4.88.11c-.19-.33.12-.72.32-1.06a3.57,3.57,0,0,0,.35-1.47l.4-4.15a8.24,8.24,0,0,0,0-1.72c-.09-.61-.32-1.19-.44-1.8a24.7,24.7,0,0,1-.07-3.55,16.46,16.46,0,0,0-.54-3.11l-1.24-5.08a19.58,19.58,0,0,0-.61-2.54q-1.43-3.67-3-7.26a.82.82,0,0,1,.06-.65l1-1.84a11.2,11.2,0,0,1,.94-1.51,5.93,5.93,0,0,1,3.48-2.13,6.12,6.12,0,0,1,4.05.6c.48.25.92.56,1.41.82A6,6,0,0,0,53.45,106.34Z"/><path class="cls-3" d="M70,110.87,71.61,113a2.83,2.83,0,0,1,.38.59,10.07,10.07,0,0,1,.24,1.84,3.72,3.72,0,0,0,.48,1.1,25.31,25.31,0,0,0,2.06,3.07,5.55,5.55,0,0,0,1.29,1.27,2.08,2.08,0,0,0,1.73.3,1.07,1.07,0,0,0-.57.52,6.29,6.29,0,0,0-.4,4,4,4,0,0,0,.45,1.31,1.93,1.93,0,0,0,1,.9,1.51,1.51,0,0,1-1.7,1.3h-.09a3,3,0,0,1-.89-.45L73,127.11a7.66,7.66,0,0,1-1.21-.91c-.49-.49-.83-1.1-1.3-1.6-.81-.85-2-1.37-2.57-2.4a11.59,11.59,0,0,1-.64-2.1c-.14-.46-.35-.9-.49-1.36a6.09,6.09,0,0,1,.53-4.34A17.77,17.77,0,0,1,70,110.87Z"/><path class="cls-27" d="M63.87,91.07a9.07,9.07,0,0,0-2.42-2.52,8.24,8.24,0,0,0-4.36-1.84,4.52,4.52,0,0,0-2,.32c0-1.94-.51-3.24-1.72-3-2.26.36-4.78,1.23-5.65,3.35-.65,1.6-.15,3.4,0,5.12a3.87,3.87,0,0,1-.05,1.36,4.77,4.77,0,0,1-1.2,1.88,10,10,0,0,0-1.72,2.41A3.53,3.53,0,0,0,44.7,101a2.05,2.05,0,0,1,.28.76c0,.59-.59,1-1,1.34-1.69,1.41-1.62,4-1.64,6.16a31.08,31.08,0,0,1-2.93,13,4,4,0,0,0,4.45-.58,14.33,14.33,0,0,1-1,2.91c1.44.7,3.17-.44,3.89-1.87s.8-3.07,1.31-4.58,1.41-2.83,1.81-4.35a4.11,4.11,0,0,1,.52-1.46,3.91,3.91,0,0,1,.9-.77c1.48-1.06-.7-9.1-.12-10.83.85.19,2.44-4,3.34-8.19a4.35,4.35,0,0,0,2,.2,2.34,2.34,0,0,1,.7,0,1.67,1.67,0,0,1,.6.25A16.46,16.46,0,0,0,59.81,94a11.7,11.7,0,0,0,4.72.4A4.7,4.7,0,0,0,63.87,91.07Z"/><g class="cls-30"><path class="cls-31" d="M40.18,122.29a31.21,31.21,0,0,0,3-13c0-2.2-.06-4.76,1.63-6.16.45-.38,1.07-.75,1-1.34a2.05,2.05,0,0,0-.28-.76,3.57,3.57,0,0,1,.11-2.88,10,10,0,0,1,1.72-2.41,4.69,4.69,0,0,0,1.2-1.87,4.2,4.2,0,0,0,.05-1.37c-.17-1.72-.67-3.52,0-5.12.85-2,3.22-2.93,5.42-3.31a1.19,1.19,0,0,0-.59,0c-2.26.36-4.78,1.23-5.65,3.35-.65,1.6-.15,3.4,0,5.12a3.94,3.94,0,0,1-.05,1.37,4.8,4.8,0,0,1-1.2,1.87,10,10,0,0,0-1.72,2.41A3.53,3.53,0,0,0,44.7,101a2.05,2.05,0,0,1,.28.76c0,.59-.59,1-1,1.34-1.69,1.41-1.62,4-1.64,6.16a31.07,31.07,0,0,1-2.93,13,3.83,3.83,0,0,0,2.18.41A3.88,3.88,0,0,1,40.18,122.29Z"/><path class="cls-31" d="M43.62,124.61a14.93,14.93,0,0,0,1-2.91,3.77,3.77,0,0,1-1,.64,14.94,14.94,0,0,1-.84,2.26,2.08,2.08,0,0,0,1.32.17A1.82,1.82,0,0,1,43.62,124.61Z"/><path class="cls-31" d="M55.94,87a4.55,4.55,0,0,1,1.31-.31h-.16a4.51,4.51,0,0,0-1.16.09C55.93,86.87,55.94,87,55.94,87Z"/><path class="cls-31" d="M60.62,94A15.69,15.69,0,0,1,58.54,93a1.76,1.76,0,0,0-.62-.25,2,2,0,0,0-.64,0,1.78,1.78,0,0,1,.44.21A16.46,16.46,0,0,0,59.81,94a9.33,9.33,0,0,0,3.48.45A8.09,8.09,0,0,1,60.62,94Z"/><path class="cls-31" d="M55.27,92.56a1.29,1.29,0,0,1,0,.19,4.36,4.36,0,0,0,1,0A4.78,4.78,0,0,1,55.27,92.56Z"/></g><path class="cls-28" d="M41,124.43a2.56,2.56,0,0,1-.68,2,4.37,4.37,0,0,1-1,.7,2.56,2.56,0,0,1-1.13.43,2.16,2.16,0,0,1-1.45-.63,9.66,9.66,0,0,1-2.35-4.1,30.69,30.69,0,0,1-1.77-6.06c-.34-2.23-.19-4.55-.83-6.72.56-1.13.93-2.39,1.57-3.48a16.68,16.68,0,0,0,1.09-2,7.05,7.05,0,0,0,.19-4.71.65.65,0,0,1,.75,0,1.68,1.68,0,0,1,.46.66,5.93,5.93,0,0,1,.45,2.76,1.13,1.13,0,0,0,.07.68.85.85,0,0,0,.74.31,6.54,6.54,0,0,0,1.69-.31,15.88,15.88,0,0,1,5.23-.43,2.6,2.6,0,0,1,1,.25,1,1,0,0,1,.52.85l-4.18.61a1.75,1.75,0,0,0-.88.3.58.58,0,0,0-.11.82,1.42,1.42,0,0,0,.28.2.83.83,0,0,1,.16,1.18.61.61,0,0,1-.2.19,1.1,1.1,0,0,0-.28.2c-.17.23.06.53.13.81a1,1,0,0,1-.5,1,3.44,3.44,0,0,1-1.17.39,12.37,12.37,0,0,0-2.38.81,1.26,1.26,0,0,0-.62.47,1.38,1.38,0,0,0,.07,1.17L37,115.76a13.4,13.4,0,0,0,.56,1.36c.28.57.62,1.12.91,1.7s.47,1.08.68,1.64C39.68,122,40.78,122.85,41,124.43Z"/><rect class="cls-32" x="78.67" y="105.42" width="13.02" height="12.61"/><rect class="cls-13" x="78.9" y="105.64" width="12.58" height="12.17"/><path class="cls-28" d="M89.29,104.68a1.26,1.26,0,0,0-.47.7.26.26,0,0,0,.11.31.31.31,0,0,0,.19,0,1.76,1.76,0,0,0,.85-.4.75.75,0,0,0-.26.21.27.27,0,0,0,0,.3A.39.39,0,0,0,90,106a2.74,2.74,0,0,0,1.21-.06,1.71,1.71,0,0,0-.5.3.68.68,0,0,0-.23.52.28.28,0,0,0,.09.19.24.24,0,0,0,.14,0,3.07,3.07,0,0,0,1.13,0,.58.58,0,0,0,.47-.28.71.71,0,0,0-.11-.55,3,3,0,0,1-.28-1.37.57.57,0,0,0,0-.29.51.51,0,0,0-.25-.18,2.12,2.12,0,0,0-1.38-.28A2.79,2.79,0,0,0,89.29,104.68Z"/></g></g></svg>