<svg xmlns="http://www.w3.org/2000/svg" xmlns:xlink="http://www.w3.org/1999/xlink" viewBox="0 0 334 231.31"><defs><style>.cls-1,.cls-10{fill:#fff;}.cls-2,.cls-22{fill:#cdac70;}.cls-10,.cls-14,.cls-2,.cls-9{opacity:0.1;}.cls-10,.cls-2,.cls-6,.cls-9{isolation:isolate;}.cls-3{fill:#cfcfda;}.cls-4{fill:url(#名称未設定グラデーション_2);}.cls-5{fill:#94b0dc;}.cls-15,.cls-6,.cls-9{fill:#040000;}.cls-6{opacity:0.05;}.cls-7{fill:#5e536d;}.cls-8{fill:#cbcbd6;}.cls-11{fill:#b96c92;}.cls-12{fill:#49477c;}.cls-13{fill:#61335c;}.cls-16{fill:url(#名称未設定グラデーション_2-2);}.cls-17{fill:#ada2b1;}.cls-18{fill:#f6c0cc;}.cls-19{fill:#555784;}.cls-20{fill:#aa7378;}.cls-21{fill:none;}.cls-23{fill:#d2ddea;}.cls-24{fill:#444052;}</style><linearGradient id="名称未設定グラデーション_2" x1="214.62" y1="975.16" x2="214.62" y2="1125.07" gradientTransform="matrix(1, 0, 0, -1, -19.44, 1183.07)" gradientUnits="userSpaceOnUse"><stop offset="0" stop-color="#7f8080" stop-opacity="0.25"/><stop offset="0.54" stop-color="#7f8080" stop-opacity="0.12"/><stop offset="1" stop-color="#7f8080" stop-opacity="0.1"/></linearGradient><linearGradient id="名称未設定グラデーション_2-2" x1="106.11" y1="974.99" x2="106.11" y2="1132.76" xlink:href="#名称未設定グラデーション_2"/></defs><title>coachtech_howto_content1_1</title><g id="レイヤー_2" data-name="レイヤー 2"><g id="レイヤー_1-2" data-name="レイヤー 1"><rect class="cls-1" width="333.84" height="231.31"/><path class="cls-2" d="M334,61.84c0,.43-.06.86-.1,1.27a35.93,35.93,0,0,1-2.69,10.72c-4.84,11.39-14.49,20-24.81,27l-.65.43c-1.87,1.25-3.77,2.45-5.68,3.62l-.15.1-.12.07-.34.21-.83.5-.45.29-2.1,1.26-1.85,1.11h0l-3.5,2.09c-3.89,2.32-7.76,4.68-11.51,7.22l-.58.4-.81.57c-1.4,1-2.79,2-4.15,3-.27.2-.53.41-.8.63a36.77,36.77,0,0,0-7.27,7.37,17.39,17.39,0,0,0-3.21,7.85c-.57,4.56,1,8.95,3.21,13.25,1.42,2.76,3.1,5.48,4.65,8.18.5.89,1,1.77,1.43,2.65a37.2,37.2,0,0,1,2.15,4.83,14.87,14.87,0,0,1,.17,10.69c-1.54,4-4.68,6.5-8.41,8.54-2,1.1-4.17,2.05-6.37,3a63.09,63.09,0,0,0-9.09,4.52c-.18.11-.35.23-.52.35-.36.24-.72.49-1.06.75h0c-.58.43-1.13.9-1.66,1.37-.32.29-.63.58-.93.89s-.49.47-.72.72c-.46.47-.9.95-1.33,1.44l-.34.4-.95,1.12c-.41.49-.81,1-1.21,1.48-.57.71-1.15,1.43-1.7,2.14-.17.2-.33.41-.49.61-.94,1.14-1.88,2.28-2.88,3.33l-.11.13a20.76,20.76,0,0,1-8.27,5.76c-7.93,2.73-15.79-1.35-23.42-5.7h0l-.21-.12-.09-.06h0l-.66-.37-.31-.18L200.9,206l-.19-.11c-1.09-.62-2.18-1.22-3.25-1.78-.66-.34-1.31-.67-2-1a54.86,54.86,0,0,0-6.77-2.7,60,60,0,0,0-9.26-2.21c-1.28-.2-2.57-.36-3.86-.48-.83-.07-1.67-.13-2.51-.17A59.83,59.83,0,0,0,153,200c-.89.26-1.77.57-2.65.87l-.48.17c-.81.28-1.61.61-2.4.94l-.29.12h0l0,0c-4.09,1.74-8,4-12.12,5.71l-1.09.45a32.11,32.11,0,0,1-7.92,2.18,29.83,29.83,0,0,1-8.44-.21,59.18,59.18,0,0,1-7.45-1.73h0l-.16-.05-.68-.2-.31-.09-.4-.12c-5.74-1.74-11.5-3.81-17.42-4.38l-.86-.07a37.53,37.53,0,0,0-5.51,0,84.22,84.22,0,0,0-16.43,3.45l-.33.09-.89.26-.64.18-1.25.36-.28.08h0c-9,2.56-17.87,4.75-26.64,2.21a31.65,31.65,0,0,1-10.46-5.47,57.63,57.63,0,0,1-6.36-5.73c-1.86-1.91-3.62-3.92-5.33-5.91-5.71-6.66-11.34-13.72-13.83-22.09A43.12,43.12,0,0,1,.72,162c-.13-1.87-.18-3.75-.18-5.63q0-1.87.06-3.75c0-.9.05-1.81.08-2.72v-.43c0-.42,0-.86,0-1.27q.36-11.79.73-23.59c.17-5.24.34-10.56,2-15.55.19-.57.4-1.14.62-1.71s.35-.85.53-1.26C8.2,98,15.2,91.34,21.41,84.54a81.07,81.07,0,0,0,6.37-7.72c3-4.2,5.11-8.66,5.58-13.7,0-.42.07-.83.09-1.26s0-.86,0-1.31c-.15-7.3-4.07-14.29-5.68-21.31a20.75,20.75,0,0,1-.24-9.47c.07-.31.15-.6.24-.9,2.8-9.46,13.72-14.43,23.68-16,10.34-1.67,20.87-1.19,31.19.28l2,.32c2.14.34,4.26.75,6.37,1.19,5.12,1.06,10.19,2.31,15.34,3.34,6.59,1.33,12.55.06,19.13-.85q5-.7,10.12-1c2.82-.16,5.65-.21,8.48-.17a119.77,119.77,0,0,1,33.57,5.29c7.31,2.25,14.5,5.24,21.93,6.86a47.87,47.87,0,0,0,7.72,1.11l.62,0c17.59.77,33.75-9.65,51.21-11.6l.59-.06a55.79,55.79,0,0,1,5.78-.29c16.28.07,32.06,7,47,13.87,4.56,2.08,9.19,4.23,12.9,7.58C331.81,44.54,334.44,53.23,334,61.84Z"/><path class="cls-2" d="M179.43,148.18V107.33h11.35l-.28-.27-.08-.06-.16-.15-.22-.18-.18-.14-.2-.15a2.43,2.43,0,0,0-.32-.24l-.08-.06h-9.83v-2.24l-.27.15-.28.17a0,0,0,0,1,0,0l-.06,0-.18.14-.17.12c-.18.13-.35.29-.52.42l-.17.15-.33.3c-.45.42-.88.84-1.33,1.24a4.29,4.29,0,0,1-.35.28,6,6,0,0,1-.76.57,2.2,2.2,0,0,1-.32.21l-.19.09-.17.09h0a6.19,6.19,0,0,1-1.25.44v39.92H156a.5.5,0,0,0,0,.13c.1.38.19.76.29,1.14h16.73v43.79h.26l.29,0,.54,0,.87.1a2.63,2.63,0,0,1,.39.06l.47.06H176l.76.13.16,0,.37.07.53.1h0l1.28,0h0l.17,0,.22,0V149.46h26.32v-.18c0-.35.06-.7.1-1.05a0,0,0,0,1,0,0Zm39.38,0h-1.15v1.27H219Zm-12.93,0v0c0,.35-.06.7-.1,1v.18h9.89v-.06l.71-1.19ZM27.55,29.76a20.62,20.62,0,0,0,.23,9.47V28.86C27.7,29.15,27.62,29.44,27.55,29.76Zm162.94,77.3c0-.32-.05-.65-.06-1h-2.74a1,1,0,0,0,0,.17c0,.19.06.37.09.57s0,.26.05.39l0,.14h2.62Zm-21.12,41.81h0l-.31-.18c.31-.19.61-.35.91-.51h-61.2a2.33,2.33,0,0,0,.11.28,1.42,1.42,0,0,0,.08.18l.11.2.19.34c.06.12.1.18.16.28h60.92C169.93,149.19,169.6,149,169.37,148.87ZM91,118l0,.07V118Zm0-6.13a1.47,1.47,0,0,1-.32.29,4.43,4.43,0,0,1,.3.38l0,.09a.69.69,0,0,1,0,.13l0,0-.06.11,0,0a.64.64,0,0,1-.1.13l-.06.06a.69.69,0,0,1-.13.11l0,0h0l0,0a6,6,0,0,1,.59.83v-2.38l-.06.09Zm77.9,36.31H160c2.35.85,6.11.57,8.63.21l.49-.07ZM188,149.44l-.06-.08-.07-.07a1.49,1.49,0,0,1-.23-.28,1.74,1.74,0,0,1-.11-.18c-.07-.12-.15-.26-.22-.41s0,0,0-.06a1.78,1.78,0,0,1-.08-.18h-7.81V107.33h8.45l0-.15c0-.12,0-.25-.05-.39s-.06-.36-.09-.57a.9.9,0,0,0,0-.16h-8.26V74.63h-.13l-.14,0-.1,0-.13.05-.08,0-.74.36c-.41.19-.83.38-1.25.55l-.25.1-.31.12-.62.23-.41.13q-.37.12-.75.21c-.12,0-.25.06-.37.09l-.37.07-.38.06-.34,0v29.31h-82V70.15l-.17.1c-1,.57-2.37.46-3.26,1.21-1.15,1-.94,2.74-.55,4.16,0,.13.07.25.1.38a.53.53,0,0,0,0,.12h0a.11.11,0,0,0,0,.08,1.46,1.46,0,0,1,0,.2l0,.16,0,.11v0a.68.68,0,0,1,0,.14,2.28,2.28,0,0,1,0,.26v0a2.57,2.57,0,0,1-1.77,2.24,2.53,2.53,0,0,1-.91.1v26.57H79.45l.12,1.26H84.7v40.86H75.46c0,.21-.07.43-.12.64s0,.19-.07.29l-.1.34H84.7V158h1l.61,0h.26l1-.05.38,0,.25,0,.35,0h.22l.18,0H89l.52.07.27,0,.15,0,.43.06h.06l.67.08v-8.71h82v1.87l.7.54.36.29c.41.34.83.71,1.22,1.08l.33.32.39.41.05.05.31.33.2.24.34.43c.11.15.22.29.32.44a4.73,4.73,0,0,1,.28.44,4.51,4.51,0,0,1,.29.54h.61l0,.11.07.13c.08.19.15.37.21.55s.05.14.07.22a1.42,1.42,0,0,1,0,.22c0,.07,0,.13,0,.2l0,.2a.78.78,0,0,1,0,.16v.15a3.84,3.84,0,0,1,0,.48,4.18,4.18,0,0,0,.41-.09v-9.31H188Zm-97-1.26V107.33h82v40.85Zm78.9,0H159.09c.27.11.5.21.69.31,2.26,1.14,6.41.83,9.11.45l.48-.07-.31-.18C169.37,148.5,169.67,148.34,170,148.18Zm-131.69,0q.4.65.84,1.26H75.17c0-.11.07-.22.1-.34s0-.18.07-.28.09-.44.12-.65Zm130.63,0H160c2.35.85,6.11.57,8.63.21l.49-.07Zm-130.63,0q.4.65.84,1.26H75.17c0-.11.07-.22.1-.34s0-.18.07-.28.09-.44.12-.65ZM188,149.44l-.06-.08-.07-.07a1.49,1.49,0,0,1-.23-.28,1.74,1.74,0,0,1-.11-.18c-.07-.12-.15-.26-.22-.41s0,0,0-.06a1.78,1.78,0,0,1-.08-.18h-7.81V107.33h8.45l0-.15c0-.12,0-.25-.05-.39s-.06-.36-.09-.57a.9.9,0,0,0,0-.16h-8.26V74.63h-.13l-.14,0-.1,0-.13.05-.08,0-.74.36c-.41.19-.83.38-1.25.55l-.25.1-.31.12-.62.23-.41.13q-.37.12-.75.21c-.12,0-.25.06-.37.09l-.37.07-.38.06-.34,0v29.31h-82V70.15l-.17.1c-1,.57-2.37.46-3.26,1.21-1.15,1-.94,2.74-.55,4.16,0,.13.07.25.1.38a.53.53,0,0,0,0,.12h0s0,.06,0,.08a1.46,1.46,0,0,1,0,.2l0,.16,0,.11a.15.15,0,0,0,0,.09v.1a2.28,2.28,0,0,1,0,.26v0a2.5,2.5,0,0,1-2.68,2.34v26.57H79.45l.12,1.26H84.7v40.86H75.46c0,.21-.07.43-.12.64s0,.19-.07.29l-.1.34H84.7V158h1l.61,0h.26l1-.05.38,0,.25,0,.35,0h.22l.18,0H89l.52.07.27,0,.15,0,.43.06h.06l.67.08v-8.71h19.24a13.24,13.24,0,0,1-.81-1.26H91.06V107.33h82v40.85H170c-.28.16-.59.32-.9.51l.31.18h0l1,.57h2.72v1.86l.7.54.35.29c.42.34.83.71,1.23,1.09l.32.31c.14.14.27.29.4.41l.05.05.3.34.21.24c.12.14.23.28.34.43a4.25,4.25,0,0,1,.31.43c.1.15.2.28.29.44a5.44,5.44,0,0,1,.29.54h.61l0,.11.07.14q.12.27.21.54a1.41,1.41,0,0,1,.06.22.9.9,0,0,1,.06.22,1.42,1.42,0,0,0,0,.2l0,.2a.78.78,0,0,1,0,.16v.15a3.84,3.84,0,0,1,0,.48,4.18,4.18,0,0,0,.41-.09v-9.3H188Zm-19.14-1.26H160c2.35.85,6.11.57,8.63.21l.49-.07Zm21.59-41.12c0-.32-.05-.65-.06-1h-2.74a1,1,0,0,0,0,.17c0,.19.06.37.09.57s0,.26.05.39l0,.14h2.62ZM38.28,148.18c.26.43.54.85.83,1.26H75.17c0-.11.07-.22.1-.34s0-.18.07-.28.09-.44.12-.65Zm149.77,1.26-.07-.08-.07-.07a3.11,3.11,0,0,1-.23-.28l-.11-.18c-.07-.12-.14-.26-.22-.41a.14.14,0,0,0,0-.06,1.48,1.48,0,0,1-.09-.18h-7.81V107.33h8.45l0-.15c0-.12,0-.25-.05-.39s-.06-.36-.09-.57a.9.9,0,0,0,0-.16h-8.26V74.63h-.13l-.14,0-.1,0-.13.05-.08,0-.74.36c-.41.19-.83.38-1.25.55l-.25.1-.31.12-.62.23-.41.13q-.37.12-.75.21c-.12,0-.25.06-.37.09l-.37.07-.38.06-.34,0v29.31h-82V70.15l-.17.1c-1,.57-2.37.46-3.26,1.21-1.15,1-.94,2.74-.55,4.16,0,.13.07.25.1.38a.53.53,0,0,0,0,.12h0a.29.29,0,0,0,0,.09,1.33,1.33,0,0,1,0,.19l0,.17,0,.1a.34.34,0,0,0,0,.1.14.14,0,0,1,0,.09,1.18,1.18,0,0,1,0,.26v0a2.55,2.55,0,0,1-1.76,2.24,2.58,2.58,0,0,1-.91.11v26.56H79.45l.12,1.26H84.7v40.86H75.46c0,.21-.07.43-.12.64s0,.19-.07.29l-.1.34H84.7V158h1l.61,0h.26l1-.05.38,0,.25,0,.35,0h.22l.18,0H89l.52.07.27,0,.15,0,.43.06h.06l.67.08v-8.71h19.24a13.24,13.24,0,0,1-.81-1.26H91.06V107.33h82v40.85H170c-.28.16-.59.32-.9.51l.31.18h0l1,.57h2.72v1.86l.7.54.35.29c.42.34.83.71,1.23,1.09l.32.31c.14.14.27.29.4.41l.05.05.3.34.21.24c.12.14.23.28.34.43a4.25,4.25,0,0,1,.31.43c.1.15.2.28.29.44a5.44,5.44,0,0,1,.29.54h.61l0,.11.07.14q.12.27.21.54a1.41,1.41,0,0,1,.06.22.9.9,0,0,1,.06.22,1.42,1.42,0,0,0,0,.2l0,.2a.78.78,0,0,1,0,.16v.15a3.84,3.84,0,0,1,0,.48,4.18,4.18,0,0,0,.41-.09v-9.3h8.64Zm2.44-42.38c0-.32,0-.65-.05-1h-2.75a1,1,0,0,0,0,.17c0,.19.06.37.09.57s0,.26.05.39l0,.14h2.62ZM38.28,148.18q.4.65.84,1.26H75.17c0-.11.07-.22.1-.34s0-.18.07-.28.09-.44.12-.65Zm149.78,1.26-.07-.08-.07-.07a1.49,1.49,0,0,1-.23-.28,1.74,1.74,0,0,1-.11-.18c-.07-.12-.14-.26-.22-.41s0,0,0-.06a1.78,1.78,0,0,1-.08-.18h-7.82V107.33h8.45l0-.15c0-.12,0-.25-.05-.39s-.06-.36-.09-.57a.9.9,0,0,0,0-.16h-8.26V74.63h-.13l-.14,0-.1,0-.13.05-.08,0-.74.36c-.41.19-.83.38-1.25.55l-.25.1-.31.12-.62.23-.41.13q-.37.12-.75.21c-.12,0-.25.06-.37.09l-.37.07-.38.06-.34,0v29.31h-82V70.15l-.17.1c-1,.57-2.37.46-3.26,1.21-1.15,1-.94,2.74-.55,4.16,0,.13.07.25.1.38a.53.53,0,0,0,0,.12h0a.29.29,0,0,0,0,.09,1.33,1.33,0,0,1,0,.19l0,.17,0,.1a.34.34,0,0,0,0,.1.14.14,0,0,1,0,.09,1.18,1.18,0,0,1,0,.26v0a2.55,2.55,0,0,1-1.76,2.24,2.58,2.58,0,0,1-.91.11v26.56H79.45l.12,1.26H84.7v40.86H75.46c0,.21-.07.43-.12.64s0,.19-.07.29l-.1.34H84.7V158h1l.61,0h.26l1-.05.38,0,.25,0,.35,0h.22l.18,0H89l.52.07.27,0,.15,0,.43.06h.06l.67.08v-8.71h19.24a13.24,13.24,0,0,1-.81-1.26H91.06V107.33h82v40.85H170c-.28.16-.59.32-.9.51l.31.18h0l1,.57h2.72v1.86l.7.54.35.29c.42.34.83.71,1.23,1.09l.32.31c.14.14.27.29.4.41l.05.05.3.34.21.24c.12.14.23.28.34.43a4.25,4.25,0,0,1,.31.43c.1.15.2.28.29.44a5.44,5.44,0,0,1,.29.54h.61l0,.11.07.14q.12.27.21.54a1.41,1.41,0,0,1,.06.22.9.9,0,0,1,.06.22,1.42,1.42,0,0,0,0,.2l0,.2a.78.78,0,0,1,0,.16v.15a3.84,3.84,0,0,1,0,.48,4.18,4.18,0,0,0,.41-.09v-9.3h8.65Zm2.44-42.38c0-.32,0-.65-.06-1h-2.75a1,1,0,0,0,0,.17c0,.19.06.37.09.57s0,.26.05.39l0,.14h2.62ZM38.29,148.18c.26.43.55.85.84,1.26h36c0-.11.07-.22.1-.34s0-.18.07-.28.09-.44.12-.65Zm149.77,1.26-.06-.08-.07-.07a2.09,2.09,0,0,1-.24-.28l-.11-.18c-.06-.12-.14-.26-.21-.41s0,0,0-.06l-.09-.18h-7.82V107.33h8.45l0-.15c0-.12,0-.25-.05-.39s-.06-.36-.09-.57a.9.9,0,0,0,0-.16h-8.26V74.63h-.13l-.14,0-.1,0-.13.05-.08,0-.74.36c-.41.19-.83.38-1.25.55l-.25.1-.31.12-.62.23-.41.13q-.37.12-.75.21c-.12,0-.25.06-.37.09l-.37.07-.38.06-.34,0v29.31h-82V70.15l-.17.1c-1,.57-2.37.46-3.26,1.21-1.15,1-.94,2.74-.55,4.16,0,.13.07.25.1.38a.53.53,0,0,0,0,.12h0a.29.29,0,0,0,0,.09,1.33,1.33,0,0,1,0,.19l0,.17,0,.1a.34.34,0,0,0,0,.1.14.14,0,0,1,0,.09,1.18,1.18,0,0,1,0,.26v0a2.55,2.55,0,0,1-1.76,2.24,2.58,2.58,0,0,1-.91.11v26.56H79.45l.12,1.26H84.7v40.86H75.46c0,.21-.07.43-.12.64s0,.19-.07.29l-.1.34H84.7V158h1l.61,0h.26l1-.05.38,0,.25,0,.35,0h.22l.18,0H89l.52.07.27,0,.15,0,.43.06h.06l.67.08v-8.71h19.24a13.24,13.24,0,0,1-.81-1.26H91.06V107.33h82v40.85H170c-.28.16-.59.32-.9.51l.31.18h0l1,.57h2.72v1.86l.7.54.35.29c.42.34.83.71,1.23,1.09l.32.31c.14.14.27.29.4.41l.05.05.3.34.21.24c.12.14.23.28.34.43a4.25,4.25,0,0,1,.31.43c.1.15.2.28.29.44a5.44,5.44,0,0,1,.29.54h.61l0,.11.07.14q.12.27.21.54a1.41,1.41,0,0,1,.06.22.9.9,0,0,1,.06.22,1.42,1.42,0,0,0,0,.2l0,.2a.78.78,0,0,1,0,.16v.15a3.84,3.84,0,0,1,0,.48,4.18,4.18,0,0,0,.41-.09v-9.3h8.65Zm2.45-42.38c0-.32,0-.65-.06-1h-2.76a1,1,0,0,0,0,.17c0,.19.06.37.09.57s0,.26.05.39l0,.14h2.62ZM38.29,148.18q.41.65.84,1.26h36c0-.11.07-.22.1-.34s0-.18.07-.28.09-.44.12-.65Zm149.78,1.26-.07-.08-.07-.07a2,2,0,0,1-.23-.28,1.74,1.74,0,0,1-.11-.18c-.07-.12-.14-.26-.22-.41s0,0,0-.06l-.08-.18h-7.83V107.33h8.45l0-.15c0-.12,0-.25-.05-.39s-.06-.36-.09-.57a.9.9,0,0,0,0-.16h-8.26V74.63h-.13l-.14,0-.1,0-.13.05-.08,0-.74.36c-.41.19-.83.38-1.25.55l-.25.1-.31.12-.62.23-.41.13q-.37.12-.75.21c-.12,0-.25.06-.37.09l-.37.07-.38.06-.34,0v29.31h-82V70.15l-.17.1c-1,.57-2.37.46-3.26,1.21-1.15,1-.94,2.74-.55,4.16,0,.13.07.25.1.38a.53.53,0,0,0,0,.12h0a.29.29,0,0,0,0,.09,1.33,1.33,0,0,1,0,.19l0,.17,0,.1a.34.34,0,0,0,0,.1.14.14,0,0,1,0,.09,1.18,1.18,0,0,1,0,.26v0a2.55,2.55,0,0,1-1.76,2.24,2.58,2.58,0,0,1-.91.11v26.56H79.45l.12,1.26H84.7v40.86H75.46c0,.21-.07.43-.12.64s0,.19-.07.29l-.1.34H84.7V158h1l.61,0h.26l1-.05.38,0,.25,0,.35,0h.22l.18,0H89l.52.07.27,0,.15,0,.43.06h.06l.67.08v-8.71h19.24a13.24,13.24,0,0,1-.81-1.26H91.06V107.33h82v40.85H170c-.28.16-.59.32-.9.51l.31.18h0l1,.57h2.72v1.86l.7.54.35.29c.42.34.83.71,1.23,1.09l.32.31c.14.14.27.29.4.41l.05.05.3.34.21.24c.12.14.23.28.34.43a4.25,4.25,0,0,1,.31.43c.1.15.2.28.29.44a5.44,5.44,0,0,1,.29.54h.61l0,.11.07.14q.12.27.21.54a1.41,1.41,0,0,1,.06.22.9.9,0,0,1,.06.22,1.42,1.42,0,0,0,0,.2l0,.2a.78.78,0,0,1,0,.16v.15a3.84,3.84,0,0,1,0,.48,4.18,4.18,0,0,0,.41-.09v-9.3h8.66Zm2.44-42.38c0-.32,0-.65-.06-1h-2.76a1,1,0,0,0,0,.17c0,.19.06.37.09.57s0,.26.05.39l0,.14h2.62ZM38.3,148.18q.41.65.84,1.26h36c0-.11.07-.22.1-.34s0-.18.07-.28.09-.44.12-.65Zm149.77,1.26-.06-.08-.07-.07a1.49,1.49,0,0,1-.23-.28,1.74,1.74,0,0,1-.11-.18c-.07-.12-.15-.26-.22-.41s0,0,0-.06a1.78,1.78,0,0,1-.08-.18h-7.84V107.33h8.45l0-.15c0-.12,0-.25-.05-.39s-.06-.36-.09-.57a.9.9,0,0,0,0-.16h-8.26V74.63h-.13l-.14,0-.1,0-.13.05-.08,0-.74.36c-.41.19-.83.38-1.25.55l-.25.1-.31.12-.62.23-.41.13q-.37.12-.75.21c-.12,0-.25.06-.37.09l-.37.07-.38.06-.34,0v29.31h-82V70.15l-.17.1c-1,.57-2.37.46-3.26,1.21-1.15,1-.94,2.74-.55,4.16,0,.13.07.25.1.38a.53.53,0,0,0,0,.12h0a.29.29,0,0,0,0,.09,1.33,1.33,0,0,1,0,.19l0,.17,0,.1a.34.34,0,0,0,0,.1.14.14,0,0,1,0,.09,1.18,1.18,0,0,1,0,.26v0a2.55,2.55,0,0,1-1.76,2.24,2.58,2.58,0,0,1-.91.11v26.56H79.45l.12,1.26H84.7v40.86H75.46c0,.21-.07.43-.12.64s0,.19-.07.29l-.1.34H84.7V158h1l.61,0h.26l1-.05.38,0,.25,0,.35,0h.22l.18,0H89l.52.07.27,0,.15,0,.43.06h.06l.67.08v-8.71h19.24a13.24,13.24,0,0,1-.81-1.26H91.06V107.33h82v40.85H170c-.28.16-.59.32-.9.51l.31.18h0l1,.57h2.72v1.86l.7.54.35.29c.42.34.83.71,1.23,1.09l.32.31c.14.14.27.29.4.41l.05.05.3.34.21.24c.12.14.23.28.34.43a4.25,4.25,0,0,1,.31.43c.1.15.2.28.29.44a5.44,5.44,0,0,1,.29.54h.61l0,.11.07.14q.12.27.21.54a1.41,1.41,0,0,1,.06.22.9.9,0,0,1,.06.22,1.42,1.42,0,0,0,0,.2l0,.2a.78.78,0,0,1,0,.16v.15a3.84,3.84,0,0,1,0,.48,4.18,4.18,0,0,0,.41-.09v-9.3h8.66Zm2.45-42.38c0-.32-.05-.65-.06-1h-2.77a1,1,0,0,0,0,.17c0,.19.06.37.09.57s0,.26.05.39l0,.14h2.62ZM38.3,148.18q.41.65.84,1.26h36c0-.11.07-.22.1-.34s0-.18.07-.28.09-.44.12-.65Zm149.78,1.26-.07-.08-.07-.07a3.11,3.11,0,0,1-.23-.28l-.11-.18c-.07-.12-.14-.26-.22-.41a.09.09,0,0,0,0-.06l-.08-.18h-7.84V107.33h8.45l0-.15c0-.12,0-.25-.05-.39s-.06-.36-.09-.57a.9.9,0,0,0,0-.16h-8.26V74.63h-.13l-.14,0-.1,0-.13.05-.08,0-.74.36c-.41.19-.83.38-1.25.55l-.25.1-.31.12-.62.23-.41.13q-.37.12-.75.21c-.12,0-.25.06-.37.09l-.37.07-.38.06-.34,0v29.31h-82V70.15l-.17.1c-1,.57-2.37.46-3.26,1.21-1.15,1-.94,2.74-.55,4.16,0,.13.07.25.1.38a.53.53,0,0,0,0,.12h0a.29.29,0,0,0,0,.09,1.33,1.33,0,0,1,0,.19l0,.17,0,.1a.34.34,0,0,0,0,.1.14.14,0,0,1,0,.09,1.18,1.18,0,0,1,0,.26v0a2.55,2.55,0,0,1-1.76,2.24,2.58,2.58,0,0,1-.91.11v26.56H79.45l.12,1.26H84.7v40.86H75.46c0,.21-.07.43-.12.64s0,.19-.07.29l-.1.34H84.7V158h1l.61,0h.26l1-.05.38,0,.25,0,.35,0h.22l.18,0H89l.52.07.27,0,.15,0,.43.06h.06l.67.08v-8.71h19.24a13.24,13.24,0,0,1-.81-1.26H91.06V107.33h82v40.85H170c-.28.16-.59.32-.9.51l.31.18h0l1,.57h2.72v1.86l.7.54.35.29c.42.34.83.71,1.23,1.09l.32.31c.14.14.27.29.4.41l.05.05.3.34.21.24c.12.14.23.28.34.43a4.25,4.25,0,0,1,.31.43c.1.15.2.28.29.44a5.44,5.44,0,0,1,.29.54h.61l0,.11.07.14q.12.27.21.54a1.41,1.41,0,0,1,.06.22.9.9,0,0,1,.06.22,1.42,1.42,0,0,0,0,.2l0,.2a.78.78,0,0,1,0,.16v.15a3.84,3.84,0,0,1,0,.48,4.18,4.18,0,0,0,.41-.09v-9.3h8.67Zm2.44-42.38c0-.32,0-.65-.06-1h-2.77a1,1,0,0,0,0,.17c0,.19.06.37.09.57s0,.26.05.39l0,.14h2.62ZM38.31,148.18q.4.65.84,1.26h36c0-.11.07-.22.1-.34s0-.18.07-.28.09-.44.12-.65Zm149.77,1.26-.06-.08-.07-.07a1.49,1.49,0,0,1-.23-.28,1.74,1.74,0,0,1-.11-.18c-.07-.12-.15-.26-.22-.41s0,0,0-.06a1.78,1.78,0,0,1-.08-.18h-7.85V107.33h8.45l0-.15c0-.12,0-.25-.05-.39s-.06-.36-.09-.57a.9.9,0,0,0,0-.16h-8.26V74.63h-.13l-.14,0-.1,0-.13.05-.08,0-.74.36c-.41.19-.83.38-1.25.55l-.25.1-.31.12-.62.23-.41.13q-.37.12-.75.21c-.12,0-.25.06-.37.09l-.37.07-.38.06-.34,0v29.31h-82V70.15l-.17.1c-1,.57-2.37.46-3.26,1.21-1.15,1-.94,2.74-.55,4.16,0,.13.07.25.1.38l0,.12h0a.29.29,0,0,0,0,.09,1.33,1.33,0,0,1,0,.19l0,.17,0,.1a.34.34,0,0,0,0,.1.14.14,0,0,1,0,.09,1.18,1.18,0,0,1,0,.26v0a2.55,2.55,0,0,1-1.76,2.24,2.58,2.58,0,0,1-.91.11v26.56H79.45l.12,1.26H84.7v40.86H75.46c0,.21-.07.43-.12.64s0,.19-.07.29l-.1.34H84.7V158h1l.61,0h.26l1-.05.38,0,.25,0,.35,0h.22l.18,0H89l.52.07.27,0,.15,0,.43.06h.06l.67.08v-8.71h19.24a13.24,13.24,0,0,1-.81-1.26H91.06V107.33h82v40.85H170c-.28.16-.59.32-.9.51l.31.18h0l1,.57h2.72v1.86l.7.54.35.29c.42.34.83.71,1.23,1.09.11.1.22.2.32.31s.27.29.4.41l.05.05.3.34.21.24c.12.14.23.28.34.43a4.25,4.25,0,0,1,.31.43c.1.15.2.28.29.44a5.44,5.44,0,0,1,.29.54h.61l0,.11.07.14q.12.27.21.54a1.41,1.41,0,0,1,.06.22.9.9,0,0,1,.06.22,1.42,1.42,0,0,0,0,.2l0,.2a.78.78,0,0,1,0,.16v.15a3.84,3.84,0,0,1,0,.48,4.18,4.18,0,0,0,.41-.09v-9.3h8.67Zm2.45-42.38c0-.32,0-.65-.06-1h-2.78a1,1,0,0,0,0,.17c0,.19.06.37.09.57s0,.26.05.39l0,.14h2.62Zm75-45.22V17.34a55.78,55.78,0,0,0-5.78.28l-.59.07V61.84H181.31l-.19-.24.28-.36h0l1.28-1.57L184,58.1h0l23.4-28.88a49,49,0,0,1-7.72-1.11l-20.21,25V23q-3.19-.62-6.37-1.37v30L144.13,16c-2.82,0-5.64,0-8.47.17l35.72,44.09.93,1.14.2.25-.2.24H91.06V14.6c-2.11-.44-4.23-.85-6.36-1.19V61.83H33.45c0,.42,0,.85-.08,1.26H84.7v43H27.78V76.81a79.36,79.36,0,0,1-6.36,7.71v21.54H4.58c-.18.42-.37.84-.53,1.27H21.42v40.85H.72c0,.42,0,.85,0,1.26H21.42v49.62a56.73,56.73,0,0,0,6.36,5.74V149.44H84.7v54.2a36.19,36.19,0,0,1,5.51,0l.86.07V149.44h82v48.14c.84,0,1.68.1,2.51.17,1.3.11,2.58.27,3.86.48V149.44h79.74v39.31c2.2-1,4.37-1.91,6.37-3v-34.9c-2.2-4.29-3.78-8.67-3.21-13.24a17.47,17.47,0,0,1,3.21-7.86V107.33H296l2.1-1.27H265.55V63.11h68.29c0-.43.07-.84.1-1.27Zm-6.38,1.27v43H179.43V64.26l.06-.07,1.06-1.08Zm-168.12,0h82v43h-82ZM27.78,148.18V107.33H84.7v40.85Zm63.28,0V107.33h82v40.85Zm88.37,0V107.33h79.74v40.85Zm11.06-41.12c0-.32-.05-.65-.06-1h-2.74a1,1,0,0,0,0,.17c0,.19.06.37.09.57s0,.26.05.39l0,.14h2.62ZM188,149.44l-.06-.08-.07-.07a1.49,1.49,0,0,1-.23-.28,1.74,1.74,0,0,1-.11-.18c-.07-.12-.15-.26-.22-.41s0,0,0-.06a1.78,1.78,0,0,1-.08-.18h-7.81V107.33h8.45l0-.15c0-.12,0-.25-.05-.39s-.06-.36-.09-.57a.9.9,0,0,0,0-.16h-8.26V74.63h-.13l-.14,0-.1,0-.13.05-.08,0-.74.36c-.41.19-.83.38-1.25.55l-.25.1-.31.12-.62.23-.41.13q-.37.12-.75.21c-.12,0-.25.06-.37.09l-.37.07-.38.06-.34,0v29.31h-82V70.15l-.17.1c-1,.57-2.37.46-3.26,1.21-1.15,1-.94,2.74-.55,4.16,0,.13.07.25.1.38a.53.53,0,0,0,0,.12h0a.29.29,0,0,0,0,.09,1.33,1.33,0,0,1,0,.19l0,.17,0,.1a.34.34,0,0,0,0,.1.14.14,0,0,1,0,.09,1.18,1.18,0,0,1,0,.26v0a2.55,2.55,0,0,1-1.76,2.24,2.58,2.58,0,0,1-.91.11v26.56H79.45l.12,1.26H84.7v40.86H75.46c0,.21-.07.43-.12.64s0,.19-.07.29l-.1.34H84.7V158h1l.61,0h.26l1-.05.38,0,.25,0,.35,0h.22l.18,0H89l.52.07.27,0,.15,0,.43.06h.06l.67.08v-8.71h19.24a13.24,13.24,0,0,1-.81-1.26H91.06V107.33h82v40.85H170c-.28.16-.59.32-.9.51l.31.18h0l1,.57h2.72v1.86l.7.54.35.29c.42.34.83.71,1.23,1.09l.32.31c.14.14.27.29.4.41l.05.05.3.34.21.24c.12.14.23.28.34.43a4.25,4.25,0,0,1,.31.43c.1.15.2.28.29.44a5.44,5.44,0,0,1,.29.54h.61l0,.11.07.14q.12.27.21.54a1.41,1.41,0,0,1,.06.22.9.9,0,0,1,.06.22,1.42,1.42,0,0,0,0,.2l0,.2a.78.78,0,0,1,0,.16v.15a3.84,3.84,0,0,1,0,.48,4.18,4.18,0,0,0,.41-.09v-9.3H188ZM38.27,148.18q.4.65.84,1.26H75.17c0-.11.07-.22.1-.34s0-.18.07-.28.09-.44.12-.65Zm152.21-41.12c0-.32,0-.65-.06-1h-2.73a1,1,0,0,0,0,.17c0,.19.06.37.09.57s0,.26.05.39l0,.14h2.62ZM188,149.44l-.07-.08-.07-.07a3.11,3.11,0,0,1-.23-.28,1.74,1.74,0,0,1-.11-.18c-.07-.12-.14-.26-.22-.41a.09.09,0,0,0,0-.06l-.08-.18h-7.8V107.33h8.45l0-.15c0-.12,0-.25-.05-.39s-.06-.36-.09-.57a.9.9,0,0,0,0-.16h-8.26V74.63h-.13l-.14,0-.1,0-.13.05-.08,0-.74.36c-.41.19-.83.38-1.25.55l-.25.1-.31.12-.62.23-.41.13q-.37.12-.75.21c-.12,0-.25.06-.37.09l-.37.07-.38.06-.34,0v29.31h-82V70.15l-.17.1c-1,.57-2.37.46-3.26,1.21-1.15,1-.94,2.74-.55,4.16,0,.13.07.25.1.38a.53.53,0,0,0,0,.12h0a.29.29,0,0,0,0,.09,1.33,1.33,0,0,1,0,.19l0,.17,0,.1a.34.34,0,0,0,0,.1.14.14,0,0,1,0,.09,1.18,1.18,0,0,1,0,.26v0a2.55,2.55,0,0,1-1.76,2.24,2.58,2.58,0,0,1-.91.11v26.56H79.45l.12,1.26H84.7v40.86H75.46c0,.21-.07.43-.12.64s0,.19-.07.29l-.1.34H84.7V158h1l.61,0h.26l1-.05.38,0,.25,0,.35,0h.22l.18,0H89l.52.07.27,0,.15,0,.43.06h.06l.67.08v-8.71h19.24a13.24,13.24,0,0,1-.81-1.26H91.06V107.33h82v40.85H170c-.28.16-.59.32-.9.51l.31.18h0l1,.57h2.72v1.86l.7.54.35.29c.42.34.83.71,1.23,1.09l.32.31c.14.14.27.29.4.41l.05.05.3.34.21.24c.12.14.23.28.34.43a4.25,4.25,0,0,1,.31.43c.1.15.2.28.29.44a5.44,5.44,0,0,1,.29.54h.61l0,.11.07.14q.12.27.21.54a1.41,1.41,0,0,1,.06.22.9.9,0,0,1,.06.22,1.42,1.42,0,0,0,0,.2l0,.2a.78.78,0,0,1,0,.16v.15a3.84,3.84,0,0,1,0,.48,4.18,4.18,0,0,0,.41-.09v-9.3H188ZM38.27,148.18q.4.65.84,1.26H75.17c0-.11.07-.22.1-.34s0-.18.07-.28.09-.44.12-.65Zm152.21-41.12c0-.32,0-.65-.06-1h-2.73a1,1,0,0,0,0,.17c0,.19.06.37.09.57s0,.26.05.39l0,.14h2.62ZM188,149.44l-.07-.08-.07-.07a3.11,3.11,0,0,1-.23-.28,1.74,1.74,0,0,1-.11-.18c-.07-.12-.14-.26-.22-.41a.09.09,0,0,0,0-.06l-.08-.18h-7.8V107.33h8.45l0-.15c0-.12,0-.25-.05-.39s-.06-.36-.09-.57a.9.9,0,0,0,0-.16h-8.26V74.63h-.13l-.14,0-.1,0-.13.05-.08,0-.74.36c-.41.19-.83.38-1.25.55l-.25.1-.31.12-.62.23-.41.13q-.37.12-.75.21c-.12,0-.25.06-.37.09l-.37.07-.38.06-.34,0v29.31h-82V70.15l-.17.1c-1,.57-2.37.46-3.26,1.21-1.15,1-.94,2.74-.55,4.16,0,.13.07.25.1.38a.53.53,0,0,0,0,.12h0a.29.29,0,0,0,0,.09,1.33,1.33,0,0,1,0,.19l0,.17,0,.1a.34.34,0,0,0,0,.1.14.14,0,0,1,0,.09,1.18,1.18,0,0,1,0,.26v0a2.55,2.55,0,0,1-1.76,2.24,2.58,2.58,0,0,1-.91.11v26.56H79.45l.12,1.26H84.7v40.86H75.46c0,.21-.07.43-.12.64s0,.19-.07.29l-.1.34H84.7V158h1l.61,0h.26l1-.05.38,0,.25,0,.35,0h.22l.18,0H89l.52.07.27,0,.15,0,.43.06h.06l.67.08v-8.71h19.24a13.24,13.24,0,0,1-.81-1.26H91.06V107.33h82v40.85H170c-.28.16-.59.32-.9.51l.31.18h0l1,.57h2.72v1.86l.7.54.35.29c.42.34.83.71,1.23,1.09l.32.31c.14.14.27.29.4.41l.05.05.3.34.21.24c.12.14.23.28.34.43a4.25,4.25,0,0,1,.31.43c.1.15.2.28.29.44a5.44,5.44,0,0,1,.29.54h.61l0,.11.07.14q.12.27.21.54a1.41,1.41,0,0,1,.06.22.9.9,0,0,1,.06.22,1.42,1.42,0,0,0,0,.2l0,.2a.78.78,0,0,1,0,.16v.15a3.84,3.84,0,0,1,0,.48,4.18,4.18,0,0,0,.41-.09v-9.3H188ZM38.27,148.18q.4.65.84,1.26H75.17c0-.11.07-.22.1-.34s0-.18.07-.28.09-.44.12-.65Zm152.21-41.12c0-.32,0-.65-.06-1h-2.73a1,1,0,0,0,0,.17c0,.19.06.37.09.57s0,.26.05.39l0,.14h2.62ZM188,149.44l-.07-.08-.07-.07a3.11,3.11,0,0,1-.23-.28,1.74,1.74,0,0,1-.11-.18c-.07-.12-.14-.26-.22-.41a.09.09,0,0,0,0-.06l-.08-.18h-7.8V107.33h8.45l0-.15c0-.12,0-.25-.05-.39s-.06-.36-.09-.57a.9.9,0,0,0,0-.16h-8.26V74.63h-.13l-.14,0-.1,0-.13.05-.08,0-.74.36c-.41.19-.83.38-1.25.55l-.25.1-.31.12-.62.23-.41.13q-.37.12-.75.21c-.12,0-.25.06-.37.09l-.37.07-.38.06-.34,0v29.31h-82V70.15l-.17.1c-1,.57-2.37.46-3.26,1.21-1.15,1-.94,2.74-.55,4.16,0,.13.07.25.1.38a.53.53,0,0,0,0,.12h0a.29.29,0,0,0,0,.09,1.33,1.33,0,0,1,0,.19l0,.17,0,.1a.34.34,0,0,0,0,.1.14.14,0,0,1,0,.09,1.18,1.18,0,0,1,0,.26v0a2.55,2.55,0,0,1-1.76,2.24,2.58,2.58,0,0,1-.91.11v26.56H79.45l.12,1.26H84.7v40.86H75.46c0,.21-.07.43-.12.64s0,.19-.07.29l-.1.34H84.7V158h1l.61,0h.26l1-.05.38,0,.25,0,.35,0h.22l.18,0H89l.52.07.27,0,.15,0,.43.06h.06l.67.08v-8.71h19.24a13.24,13.24,0,0,1-.81-1.26H91.06V107.33h82v40.85H170c-.28.16-.59.32-.9.51l.31.18h0l1,.57h2.72v1.86l.7.54.35.29c.42.34.83.71,1.23,1.09l.32.31c.14.14.27.29.4.41l.05.05.3.34.21.24c.12.14.23.28.34.43a4.25,4.25,0,0,1,.31.43c.1.15.2.28.29.44a5.44,5.44,0,0,1,.29.54h.61l0,.11.07.14q.12.27.21.54a1.41,1.41,0,0,1,.06.22.9.9,0,0,1,.06.22,1.42,1.42,0,0,0,0,.2l0,.2a.78.78,0,0,1,0,.16v.15a3.84,3.84,0,0,1,0,.48,4.18,4.18,0,0,0,.41-.09v-9.3H188ZM38.27,148.18q.4.65.84,1.26H75.17c0-.11.07-.22.1-.34s0-.18.07-.28.09-.44.12-.65Zm152.21-41.12c0-.32,0-.65-.06-1h-2.73a1,1,0,0,0,0,.17c0,.19.06.37.09.57s0,.26.05.39l0,.14h2.62ZM188,149.44l-.07-.08-.07-.07a3.11,3.11,0,0,1-.23-.28,1.74,1.74,0,0,1-.11-.18c-.07-.12-.14-.26-.22-.41a.09.09,0,0,0,0-.06l-.08-.18h-7.8V107.33h8.45l0-.15c0-.12,0-.25-.05-.39s-.06-.36-.09-.57a.9.9,0,0,0,0-.16h-8.26V74.63h-.13l-.14,0-.1,0-.13.05-.08,0-.74.36c-.41.19-.83.38-1.25.55l-.25.1-.31.12-.62.23-.41.13q-.37.12-.75.21c-.12,0-.25.06-.37.09l-.37.07-.38.06-.34,0v29.31h-82V70.15l-.17.1c-1,.57-2.37.46-3.26,1.21-1.15,1-.94,2.74-.55,4.16,0,.13.07.25.1.38a.53.53,0,0,0,0,.12h0a.29.29,0,0,0,0,.09,1.33,1.33,0,0,1,0,.19l0,.17,0,.1a.34.34,0,0,0,0,.1.14.14,0,0,1,0,.09,1.18,1.18,0,0,1,0,.26v0a2.55,2.55,0,0,1-1.76,2.24,2.58,2.58,0,0,1-.91.11v26.56H79.45l.12,1.26H84.7v40.86H75.46c0,.21-.07.43-.12.64s0,.19-.07.29l-.1.34H84.7V158h1l.61,0h.26l1-.05.38,0,.25,0,.35,0h.22l.18,0H89l.52.07.27,0,.15,0,.43.06h.06l.67.08v-8.71h19.24a13.24,13.24,0,0,1-.81-1.26H91.06V107.33h82v40.85H170c-.28.16-.59.32-.9.51l.31.18h0l1,.57h2.72v1.86l.7.54.35.29c.42.34.83.71,1.23,1.09l.32.31c.14.14.27.29.4.41l.05.05.3.34.21.24c.12.14.23.28.34.43a4.25,4.25,0,0,1,.31.43c.1.15.2.28.29.44a5.44,5.44,0,0,1,.29.54h.61l0,.11.07.14q.12.27.21.54a1.41,1.41,0,0,1,.06.22.9.9,0,0,1,.06.22,1.42,1.42,0,0,0,0,.2l0,.2a.78.78,0,0,1,0,.16v.15a3.84,3.84,0,0,1,0,.48,4.18,4.18,0,0,0,.41-.09v-9.3H188ZM38.27,148.18q.4.65.84,1.26H75.17c0-.11.07-.22.1-.34s0-.18.07-.28.09-.44.12-.65Zm152.21-41.12c0-.32,0-.65-.06-1h-2.73a1,1,0,0,0,0,.17c0,.19.06.37.09.57s0,.26.05.39l0,.14h2.62ZM188,149.44l-.07-.08-.07-.07a3.11,3.11,0,0,1-.23-.28,1.74,1.74,0,0,1-.11-.18c-.07-.12-.14-.26-.22-.41a.09.09,0,0,0,0-.06l-.08-.18h-7.8V107.33h8.45l0-.15c0-.12,0-.25-.05-.39s-.06-.36-.09-.57a.9.9,0,0,0,0-.16h-8.26V74.63h-.13l-.14,0-.1,0-.13.05-.08,0-.74.36c-.41.19-.83.38-1.25.55l-.25.1-.31.12-.62.23-.41.13q-.37.12-.75.21c-.12,0-.25.06-.37.09l-.37.07-.38.06-.34,0v29.31h-82V70.15l-.17.1c-1,.57-2.37.46-3.26,1.21-1.15,1-.94,2.74-.55,4.16,0,.13.07.25.1.38a.53.53,0,0,0,0,.12h0a.29.29,0,0,0,0,.09,1.33,1.33,0,0,1,0,.19l0,.17,0,.1a.34.34,0,0,0,0,.1.14.14,0,0,1,0,.09,1.18,1.18,0,0,1,0,.26v0a2.55,2.55,0,0,1-1.76,2.24,2.58,2.58,0,0,1-.91.11v26.56H79.45l.12,1.26H84.7v40.86H75.46c0,.21-.07.43-.12.64s0,.19-.07.29l-.1.34H84.7V158h1l.61,0h.26l1-.05.38,0,.25,0,.35,0h.22l.18,0H89l.52.07.27,0,.15,0,.43.06h.06l.67.08v-8.71h19.24a13.24,13.24,0,0,1-.81-1.26H91.06V107.33h82v40.85H170c-.28.16-.59.32-.9.51l.31.18h0l1,.57h2.72v1.86l.7.54.35.29c.42.34.83.71,1.23,1.09l.32.31c.14.14.27.29.4.41l.05.05.3.34.21.24c.12.14.23.28.34.43a4.25,4.25,0,0,1,.31.43c.1.15.2.28.29.44a5.44,5.44,0,0,1,.29.54h.61l0,.11.07.14q.12.27.21.54a1.41,1.41,0,0,1,.06.22.9.9,0,0,1,.06.22,1.42,1.42,0,0,0,0,.2l0,.2a.78.78,0,0,1,0,.16v.15a3.84,3.84,0,0,1,0,.48,4.18,4.18,0,0,0,.41-.09v-9.3H188ZM38.27,148.18q.4.65.84,1.26H75.17c0-.11.07-.22.1-.34s0-.18.07-.28.09-.44.12-.65Zm152.21-41.12c0-.32,0-.65-.06-1h-2.73a1,1,0,0,0,0,.17c0,.19.06.37.09.57s0,.26.05.39l0,.14h2.62ZM188,149.44l-.07-.08-.07-.07a3.11,3.11,0,0,1-.23-.28,1.74,1.74,0,0,1-.11-.18c-.07-.12-.14-.26-.22-.41a.09.09,0,0,0,0-.06l-.08-.18h-7.8V107.33h8.45l0-.15c0-.12,0-.25-.05-.39s-.06-.36-.09-.57a.9.9,0,0,0,0-.16h-8.26V74.63h-.13l-.14,0-.1,0-.13.05-.08,0-.74.36c-.41.19-.83.38-1.25.55l-.25.1-.31.12-.62.23-.41.13q-.37.12-.75.21c-.12,0-.25.06-.37.09l-.37.07-.38.06-.34,0v29.31h-82V70.15l-.17.1c-1,.57-2.37.46-3.26,1.21-1.15,1-.94,2.74-.55,4.16,0,.13.07.25.1.38a.53.53,0,0,0,0,.12h0a.29.29,0,0,0,0,.09,1.33,1.33,0,0,1,0,.19l0,.17,0,.1a.34.34,0,0,0,0,.1.14.14,0,0,1,0,.09,1.18,1.18,0,0,1,0,.26v0a2.55,2.55,0,0,1-1.76,2.24,2.58,2.58,0,0,1-.91.11v26.56H79.45l.12,1.26H84.7v40.86H75.46c0,.21-.07.43-.12.64s0,.19-.07.29l-.1.34H84.7V158h1l.61,0h.26l1-.05.38,0,.25,0,.35,0h.22l.18,0H89l.52.07.27,0,.15,0,.43.06h.06l.67.08v-8.71h19.24a13.24,13.24,0,0,1-.81-1.26H91.06V107.33h82v40.85H170c-.28.16-.59.32-.9.51l.31.18h0l1,.57h2.72v1.86l.7.54.35.29c.42.34.83.71,1.23,1.09l.32.31c.14.14.27.29.4.41l.05.05.3.34.21.24c.12.14.23.28.34.43a4.25,4.25,0,0,1,.31.43c.1.15.2.28.29.44a5.44,5.44,0,0,1,.29.54h.61l0,.11.07.14q.12.27.21.54a1.41,1.41,0,0,1,.06.22.9.9,0,0,1,.06.22,1.42,1.42,0,0,0,0,.2l0,.2a.78.78,0,0,1,0,.16v.15a3.84,3.84,0,0,1,0,.48,4.18,4.18,0,0,0,.41-.09v-9.3H188ZM38.27,148.18q.4.65.84,1.26H75.17c0-.11.07-.22.1-.34s0-.18.07-.28.09-.44.12-.65Zm152.21-41.12c0-.32,0-.65-.06-1h-2.73a1,1,0,0,0,0,.17c0,.19.06.37.09.57s0,.26.05.39l0,.14h2.62ZM188,149.44l-.07-.08-.07-.07a3.11,3.11,0,0,1-.23-.28,1.74,1.74,0,0,1-.11-.18c-.07-.12-.14-.26-.22-.41a.09.09,0,0,0,0-.06l-.08-.18h-7.8V107.33h8.45l0-.15c0-.12,0-.25-.05-.39s-.06-.36-.09-.57a.9.9,0,0,0,0-.16h-8.26V74.63h-.13l-.14,0-.1,0-.13.05-.08,0-.74.36c-.41.19-.83.38-1.25.55l-.25.1-.31.12-.62.23-.41.13q-.37.12-.75.21c-.12,0-.25.06-.37.09l-.37.07-.38.06-.34,0v29.31h-82V70.15l-.17.1c-1,.57-2.37.46-3.26,1.21-1.15,1-.94,2.74-.55,4.16,0,.13.07.25.1.38a.53.53,0,0,0,0,.12h0a.11.11,0,0,0,0,.08,1.46,1.46,0,0,1,0,.2l0,.16,0,.11a.15.15,0,0,0,0,.09v.1a2.28,2.28,0,0,1,0,.26v0a2.5,2.5,0,0,1-2.68,2.34v26.57H79.45l.12,1.26H84.7v40.86H75.46c0,.21-.07.43-.12.64s0,.19-.07.29l-.1.34H84.7V158h1l.61,0h.26l1-.05.38,0,.25,0,.35,0h.22l.18,0H89l.52.07.27,0,.15,0,.43.06h.06l.67.08v-8.71h19.24a13.24,13.24,0,0,1-.81-1.26H91.06V107.33h82v40.85h-14c.27.11.5.21.69.31,2.26,1.14,6.41.83,9.11.45l.48-.07h0l1,.57h2.72v1.86l.7.54.35.29c.42.34.83.71,1.23,1.09l.32.31c.14.14.27.29.4.41l.05.05.3.34.21.24c.12.14.23.28.34.43a4.25,4.25,0,0,1,.31.43c.1.15.2.28.29.44a5.44,5.44,0,0,1,.29.54h.61l0,.11.07.14q.12.27.21.54a1.41,1.41,0,0,1,.06.22.9.9,0,0,1,.06.22,1.42,1.42,0,0,0,0,.2l0,.2a.78.78,0,0,1,0,.16v.15a3.84,3.84,0,0,1,0,.48,4.18,4.18,0,0,0,.41-.09v-9.3H188ZM38.27,148.18q.4.65.84,1.26H75.17c0-.11.07-.22.1-.34s0-.18.07-.28.09-.44.12-.65Zm131.69,0H159.09c.27.11.5.21.69.31,2.26,1.14,6.41.83,9.11.45l.48-.07-.31-.18C169.37,148.5,169.67,148.34,170,148.18Zm9.48,0V107.33h11.35l-.28-.27-.08-.06-.17-.15-.21-.18-.18-.14-.2-.15a2.43,2.43,0,0,0-.32-.24l-.08-.06h-9.84v-2.24l-.27.15-.28.17a0,0,0,0,1,0,0l-.06,0-.18.14-.17.12c-.18.13-.35.29-.52.42l-.17.15-.33.3c-.45.42-.88.84-1.33,1.24a4.29,4.29,0,0,1-.35.28,6,6,0,0,1-.76.57,2.2,2.2,0,0,1-.32.21l-.19.09-.17.09h0a6.19,6.19,0,0,1-1.25.44v39.92H156a.5.5,0,0,0,0,.13c.1.38.19.76.29,1.14h16.73v43.79a.29.29,0,0,1,.13,0h.13l.29,0,.54,0,.86.1a2.76,2.76,0,0,1,.4.06l.47.06H176l.76.13.16,0,.37.07.53.1h0l1.28,0h0l.17,0,.22,0V149.46h25.62c0-.42.08-.85.12-1.26Zm25.74,0-.12,1.26h11l.75-1.26Zm13.63,0h-1.15v1.27H219Zm-39.37,0V107.33h11.35l-.28-.27-.08-.06-.17-.15-.21-.18-.18-.14-.2-.15a2.43,2.43,0,0,0-.32-.24l-.08-.06h-9.84v-2.24l-.27.15-.28.17a0,0,0,0,1,0,0l-.06,0-.18.14-.17.12c-.18.13-.35.29-.52.42l-.17.15-.33.3c-.45.42-.88.84-1.33,1.24a4.29,4.29,0,0,1-.35.28,6,6,0,0,1-.76.57,2.2,2.2,0,0,1-.32.21l-.19.09-.17.09h0a6.19,6.19,0,0,1-1.25.44v39.92H156a.5.5,0,0,0,0,.13c.1.38.19.76.29,1.14h16.73v43.79h.26l.29,0,.54,0,.87.1a2.63,2.63,0,0,1,.39.06l.47.06H176l.76.13.16,0,.37.07.53.1h0l1.28,0h0l.17,0,.22,0V149.46h26.32v-.18c0-.35.06-.7.1-1.05a0,0,0,0,1,0,0Zm26.45,0v0c0,.35-.06.7-.1,1v.18h9.9v-.06l.7-1.19Zm12.93,0h-1.15v1.27H219Z"/><path class="cls-1" d="M273.79,166.51l-8.24-.14-6.38-.11-13-.21h-.57l-11-.18h0l-21.94-.38-11.9-.19-1.48,0h-.58l-1.11,0H197l-6.17-.12-3.54-.06-.94,0h-.41l-6.48-.1-6.37-.11L121.79,164h-.7l-19.45-.32-1.22,0h0l-9.33-.15-6.37-.1-5.74-.1h-.49l-22.68-.37h0l-7.52-.16-20.51-.34-2.07,0h0l-4.26-.08L.72,162c-.13-1.87-.18-3.75-.18-5.63,0-1.25,0-2.5.06-3.74l20.83.45,4,.09h.07l2.27,0,9.57.21,5.13.11,30.45.65,2.13,0,9.64.21,1.2,0,2.14,0,2.81.06h.22l9.13.2,13.06.28.81,0,31.22.67h.52l27.26.59,4.18.09h1.22l1,0,1.2,0h0l5.39.12h.59l1.7,0h.7l.66,0,3.74.08,13.33.29h.6l.9,0,36.74.78h.55l13.64.29,5.69.12.68.1,4.64.64c.5.89,1,1.77,1.44,2.65A37.07,37.07,0,0,1,273.79,166.51Z"/><path class="cls-3" d="M273.79,166.51l-8.24-.14-6.38-.11-13-.21h-.57l-11-.18h0l-21.94-.38-11.9-.19-1.48,0h-.58l-1.11,0H197l-6.17-.12-3.54-.06-.94,0h-.41l-6.48-.1-6.37-.11L121.79,164h-.7l-19.45-.32-1.22,0h0l-9.33-.15-6.37-.1-5.74-.1h-.49l-22.68-.37h0l-7.52-.16-20.51-.34-2.07,0h0l-4.26-.08L.72,162c-.13-1.87-.18-3.75-.18-5.63l20.89.42,4.3.08h.07l2,0,12.09.23,6.82.14,11.54.23,11.43.22h0l6.57.13h.14l7.2.14h.27l.86,0,6.37.13h.13l3.3.06,1.12,0,2.05,0h0l18.74.37h.75l55.9,1.1,6.37.13,5.43.11h.72L190,160l.83,0h.66l13.43.27h1.54l16,.32h0l17.47.34h0l4.93.1h.47l13.84.28,6.36.13,6.1.12A36.13,36.13,0,0,1,273.79,166.51Z"/><path class="cls-4" d="M250.09,193.27l-.52.34c-.36.24-.71.49-1.06.76h0c-.57.43-1.13.89-1.66,1.37-.32.29-.63.58-.93.88l-.72.73c-.45.47-.9,1-1.33,1.44l-.34.39c-.32.38-.63.76-.95,1.12s-.81,1-1.2,1.49q-.87,1.07-1.71,2.13l-.49.62c-.94,1.14-1.88,2.28-2.87,3.33l-25.11,0h-6.92l-.09-.06h0l-.66-.37-.31-.18L200.89,206l-.18-.11c-1.1-.61-2.18-1.21-3.26-1.78-.65-.34-1.31-.67-2-1a54.24,54.24,0,0,0-6.77-2.7,60,60,0,0,0-9.26-2.21c-1.28-.2-2.57-.36-3.86-.47-.83-.08-1.67-.14-2.51-.18A59.83,59.83,0,0,0,152.94,200c-.89.27-1.77.57-2.64.87l-.49.17.09-.43a7.49,7.49,0,0,1,2.61-3.48c.57-7,6.45-12.53,6.45-12.53l13.94-6,.17-.12a33.91,33.91,0,0,1,6.37-3.4,4,4,0,0,1,.59-.17c2.55-.5,4.78-2.52,6.6-3.62.8-.49,1-2.22.85-4a2.82,2.82,0,0,0,0-.41l-.42,0-.08-.21-.1-.29-.05-.14h-.38c-.17-.42-.32-.83-.45-1.21a22.2,22.2,0,0,1-.93-3.4.5.5,0,0,1,0-.13,10.06,10.06,0,0,1-.16-1.55,5.74,5.74,0,0,1,.06-1.17,4.37,4.37,0,0,1,.12-.49l-.26,0h0l-.69.06h-.21l-.09.06-4.36.39-.42,0h-.21v-.05l-.41,0h-.21c0-.15.06-.3.08-.45l-.45,0-.17,0a35.31,35.31,0,0,1-4.6-.06c-6-.4-13.19-1.76-13.19-1.76s-8.16,1.81-14.07-1a10.17,10.17,0,0,1-3-2h0a9.33,9.33,0,0,1-2-2.91,7.5,7.5,0,0,1-.45-1.31,3.86,3.86,0,0,1-.1-1.27c.51-5.69,16-1.85,19.17-.24a4.49,4.49,0,0,0,.56.24c2.36.86,6.12.57,8.63.22l.5-.07-.25-.15-.07,0a15,15,0,0,1,4.23-1.78,10.24,10.24,0,0,1,2.76-.29,16.81,16.81,0,0,1,2.83.24h.06a2.92,2.92,0,0,0,.72-.18,1.64,1.64,0,0,0,1.1-2,5,5,0,0,1,.31-2.82s1.41.37,1.25-1.42h0a5.73,5.73,0,0,0-.24-1.09q-.09-.3-.15-.6v0a13.19,13.19,0,0,1,.46-6l.72-.91,0-.11,0-.07-.38-2h0l-.09-.47-.2-6.74s-.11-10.58,3.36-12.09l0-.47-.07-.83a8.53,8.53,0,0,1-2.37-1.14,2.19,2.19,0,0,1-.5-.55h0a.9.9,0,0,1-.13-.71,1.49,1.49,0,0,1,.46-.72,7.45,7.45,0,0,0,2.24-4s.37-.61,1-1.57a2.39,2.39,0,0,1,.13-.21c-.64-2.28-1.38-4.6-2.06-6.61-.07-.19-.13-.38-.19-.56L184,92c-.06-.19-.13-.37-.19-.57l-.24,0a15.51,15.51,0,0,1-2.64.23,14.45,14.45,0,0,1-14.54-14.35,14.18,14.18,0,0,1,.36-3.19c.05-.23.1-.45.17-.67s.07-.24.11-.36a2.51,2.51,0,0,0-1.53.19c-.71.31-1.34.83-2,1.19a5.08,5.08,0,0,1-3.61.3h0a4.86,4.86,0,0,1-1.61-.8,1.56,1.56,0,0,0,.31,0h.09l.24,0h.07l.28-.08h.05l.26-.09.07,0,.29-.13h0a1.51,1.51,0,0,0,.28-.15l.06,0,.24-.15,0,0,.29-.19a7.92,7.92,0,0,0,.94-.89A17.66,17.66,0,0,0,164,68.52l1.72-3.39c.35-.68.71-1.36,1.11-2a8.38,8.38,0,0,1,1-1.26,5.28,5.28,0,0,1,1.06-.88,5.59,5.59,0,0,1,2.55-.75c1.41-.1,2.9.12,4.33.08A17.88,17.88,0,0,0,181.32,59a17.2,17.2,0,0,1,2.63-.86h0A6.49,6.49,0,0,1,185,58a6.92,6.92,0,0,1,3,.74,11.52,11.52,0,0,1,3.61,2.65c.15.15.29.32.43.49.35.41.69.85,1,1.26s.55.69.86,1c1.4,1.57,3.1,2.8,4.47,4.42a7.54,7.54,0,0,1,2,5.94h0v0h0c0,.15-.06.28-.1.44a.83.83,0,0,1,0,.15l-.09.3-.06.16A3,3,0,0,1,200,76a7.83,7.83,0,0,0-.6,2.41v.36h0a15.33,15.33,0,0,0,.89,3.14,5.09,5.09,0,0,1,.27,1.45v.27h0v.25h0a3,3,0,0,1-.06.42h0v.13a1.18,1.18,0,0,1-.07.2.11.11,0,0,1,0,.07l-.07.15,0,.07a.46.46,0,0,1-.09.15l0,.06a1.46,1.46,0,0,1-.16.19l-.1.11.42.25.12.07a66.91,66.91,0,0,0,7.06,1.21,7,7,0,0,1,2.2.8A19.68,19.68,0,0,1,218.7,97c1.34,2.85,2.93,6,3.77,6.55a9.25,9.25,0,0,1,2,2.53c.25.43.48.87.67,1.26.45.88.73,1.55.73,1.55s6.6,4.43,5.8,8.76c0,0,1.43,4.84,2.85,6.24s4.68,12.7,4.68,12.7a8.34,8.34,0,0,1,1.12,3.72c-.1,1.61,1.22,5,1.22,5s.29,1.42.66,2.85c.12.43.24.85.37,1.26a4.51,4.51,0,0,0,.8,1.71c.81.7.41,2.21.41,2.21a26,26,0,0,0,1.53,3.33,2.38,2.38,0,0,1,.28,1.17,11.57,11.57,0,0,1-.08,2s-.07.57-.12,1.34c-.07,1.25-.07,3,.43,3.7a2.85,2.85,0,0,1,.37,1.2c.24,1.71,0,4.33.75,5,.91.8.51,8.15.51,8.15S248.83,188.25,250.09,193.27Z"/><path class="cls-5" d="M213.62,175l-1,.79-4.67,3.8-.95.76-4.1,3.35s-11.53,6.66-23.5,12.29c-1.28.6-2.58,1.19-3.86,1.77-.83-.08-1.67-.14-2.51-.18A59.83,59.83,0,0,0,152.93,200a12.46,12.46,0,0,1-.05-2.66c.57-6.93,6.4-12.45,6.4-12.45L173.07,179h0l6.35-2.73,9.59-4.13,3,.36,5.52.65Z"/><path class="cls-6" d="M213.62,175l-1,.79-4.67,3.8-.95.76-4.1,3.35s-11.53,6.66-23.5,12.29c-1.28.6-2.58,1.19-3.86,1.77-.83-.08-1.67-.14-2.51-.18A59.83,59.83,0,0,0,152.93,200a12.46,12.46,0,0,1-.05-2.66c.57-6.93,6.4-12.45,6.4-12.45L173.07,179h0l6.35-2.73,9.59-4.13,3,.36,5.52.65Z"/><path class="cls-7" d="M201.32,202.77l0,.29-.18,1.37,0,.21v.08l-.07.52-.1.76-.19-.11c-1.09-.62-2.18-1.22-3.26-1.79-.65-.34-1.31-.67-2-1a57.1,57.1,0,0,0-6.77-2.69l.62-1.14,3.86,1.12,5.48,1.6,1,.29.8.23Z"/><path class="cls-6" d="M201.32,202.77l0,.29-.18,1.37,0,.21v.08l-.07.52-.1.76-.19-.11c-1.09-.62-2.18-1.22-3.26-1.79-.65-.34-1.31-.67-2-1a57.1,57.1,0,0,0-6.77-2.69l.62-1.14,3.86,1.12,5.48,1.6,1,.29.8.23Z"/><polygon class="cls-8" points="192.65 198.48 200.11 201.47 201.22 204.77 193.56 201.77 192.65 198.48"/><polygon class="cls-6" points="192.65 198.48 200.11 201.47 201.22 204.77 193.56 201.77 192.65 198.48"/><path class="cls-7" d="M241.37,201.8c-.58.71-1.15,1.42-1.71,2.14-.17.2-.33.4-.49.61-.94,1.14-1.88,2.28-2.87,3.33l-.12.13-31.68.06h0l-.22-.13-.09-.05h0l-.65-.38-.31-.18L200.9,206l-.19-.11,0-.69,0-.59h0l0-1.07h0l0-.45.47,0Z"/><path class="cls-9" d="M211.19,208h-.3l-2.84,0H208l-3.77-.05-.65-.37-.06-2.31v-.6l0-1,7.14-.37h.3l.08,1.28,0,.61.18,2.86Z"/><path class="cls-7" d="M210.89,208h0l-3.1,0-3.6-.05h0l-.66-.37-.31-.18-.05-2.13v-.6l0-1,7.46-.4v0l.09,1.28,0,.6.19,2.86Z"/><path class="cls-10" d="M210.89,208h0l-3.1,0-3.6-.05h0l-.66-.37-.31-.18-.05-2.13v-.6l0-1,7.46-.4v0l.09,1.28,0,.6.19,2.86Z"/><path class="cls-9" d="M201.28,203.06l40.09-1.26c-.58.71-1.15,1.42-1.71,2.14-.17.2-.33.4-.49.61l-28.14.51h-.29l-7.24.13h-.29l-2.05,0H201a1.09,1.09,0,0,1-.25,0l0-.59h0l0-1.07h0l0-.45Z"/><path class="cls-8" d="M243.86,198.8l-.34.39-1,1.13c-.41.49-.81,1-1.21,1.48-.57.71-1.15,1.42-1.7,2.14l-28.69.52h-.28l-7.23.14h-.29l-2,0h-.1l-.25,0h-.07a1.53,1.53,0,0,1-1.18-1.69l.09-.63.09-.6,0-.34.1-.68,0-.19Z"/><path class="cls-7" d="M245.47,195.28l1.37.47-.94.88c-.24.24-.48.48-.71.73-.46.47-.9.95-1.33,1.44l-.34.39-1,1.13-41.93,1.14h-.52l-.21-.81-1.71-6.49,40.54.94h0l2.33.06Z"/><path class="cls-5" d="M248.5,194.38c-.58.43-1.13.89-1.66,1.37-.32.28-.63.58-.94.88s-.48.48-.71.72c-.46.47-.9,1-1.33,1.45l-.34.39a189,189,0,0,1-30.41,1.18,41.6,41.6,0,0,0-12.48,1.09h0l-.48.12-.4.1-1.09.32c-.86.25-1.66.53-2.43.82l-.76.3a54.86,54.86,0,0,0-6.77-2.7,57.62,57.62,0,0,0-9.27-2.21c-1.28-.2-2.56-.36-3.85-.48-.84-.07-1.67-.13-2.51-.17A59.83,59.83,0,0,0,152.94,200c-.89.26-1.77.57-2.65.87l0-.09a7.38,7.38,0,0,1,2.58-3.45c4.42-3.84,12.86-7.64,12.86-7.64l4.49-1.9h0l2.84-1.19,6.37-2.68,13.45-5.66.15-.06,3.11-1.31,2.85-1.2a22.52,22.52,0,0,1,6.06-.75h.79c.19,0,.39,0,.59,0h.36c.49,0,1,.06,1.47.11l.52.06h.09l.38,0,.49.06.48.07,1,.16,1.46.28.73.16c.73.16,1.47.34,2.21.53l.69.19.46.13.58.17c1.35.4,2.7.85,4,1.33l.72.27.69.25s0,0,0,0l1.23.48c2.31.93,4.59,2,6.74,3l.74.37.38.19.76.39.75.4.37.19.37.2.36.2q1.28.69,2.46,1.38l.67.4.33.19,1.28.79.62.38.89.57.57.37.29.19c.19.12.37.24.54.37l.31.21c.21.13.41.28.6.41l.29.21.08.06.71.51h0l.43.33.42.32c.29.21.54.41.78.62l.35.28.17.14.17.15.28.26.21.19.2.19a8.76,8.76,0,0,1,.71.78c.17.21.33.41.47.61Z"/><path class="cls-11" d="M180.25,158.49a7.09,7.09,0,0,1-2.45.5c-5.84.43-17.61-1.8-17.61-1.8s-14.82,3.3-18.86-5.9,14.92-4.6,18.45-2.8c2.26,1.14,6.41.83,9.11.45,1.53-.22,2.59-.45,2.59-.45S184,156.69,180.25,158.49Z"/><path class="cls-12" d="M196.48,142l-3.33,16.1-9.88.85-4.94.43c1.21-5-9.27-10.69-9.27-10.69,5.34-3.2,8.47-1.71,9.57-1.8a.53.53,0,0,0,.22,0c1.05-.15,2.09-.77,1.8-2.17a5.06,5.06,0,0,1,.29-2.8s1.91.5,1-2.5a12.6,12.6,0,0,1,.3-6.6l.7-.9,1.11-3.4,4.54,4.6Z"/><path class="cls-6" d="M196.48,142.09l-3.33,16.1-9.88.85-4.94.44c1.21-5-9.27-10.7-9.27-10.7,5.34-3.2,8.47-1.71,9.57-1.8l.22,0c1.05-.15,2.09-.77,1.8-2.17a5.06,5.06,0,0,1,.29-2.8s1.91.5,1-2.5a12.6,12.6,0,0,1,.3-6.6l.7-.9,1.13-3.39,4.53,4.59Z"/><path class="cls-9" d="M185.29,158c-.49.35-1,.66-1.41,1l-4.94.44c1.21-5-9.28-10.7-9.28-10.7,5.35-3.2,8.47-1.71,9.58-1.8a.56.56,0,0,0,.22,0c1.34,1.69,3,3.64,4,4.13C185.29,151.89,189.22,155.19,185.29,158Z"/><path class="cls-9" d="M180.25,158.49a7.09,7.09,0,0,1-2.45.5c.52-4.27-7-8.94-8.91-10.05,1.53-.22,2.59-.45,2.59-.45S184,156.69,180.25,158.49Z"/><path class="cls-12" d="M184.68,158c-.48.35-1,.66-1.41,1l-4.94.44c1.21-5-9.27-10.7-9.27-10.7,5.34-3.2,8.47-1.71,9.57-1.8a.53.53,0,0,0,.22,0c1.34,1.69,3,3.64,4,4.13C184.68,151.89,188.61,155.19,184.68,158Z"/><path class="cls-6" d="M184.68,158.19q-.72.52-1.41,1l-4.94.44c1.21-5-9.27-10.7-9.27-10.7,5.34-3.2,8.47-1.71,9.57-1.8a1.46,1.46,0,0,0,.22,0c1.34,1.69,3,3.65,4,4.13C184.68,152.09,188.61,155.39,184.68,158.19Z"/><path class="cls-11" d="M205.25,89.51s-19,26.29-17.44,21.49c1-3.16-1.76-12.2-3.77-18-1-3-1.88-5.17-1.88-5.17s10.89-9.3,10.69-7.2c0,.55.76,1.42,2,2.4A91.81,91.81,0,0,0,205.25,89.51Z"/><path class="cls-9" d="M194.84,83A14.36,14.36,0,0,1,184,93c-1-3-1.88-5.17-1.88-5.17s10.88-9.3,10.68-7.2C192.8,81.16,193.61,82,194.84,83Z"/><path class="cls-11" d="M195.42,78.41A14.42,14.42,0,1,1,181,64.12h0a14.29,14.29,0,0,1,14.42,14.15Z"/><path class="cls-9" d="M248.5,194.38c-.58.43-1.13.89-1.66,1.37-.32.28-.63.58-.94.88s-.48.48-.71.72a41.1,41.1,0,0,1-6.46-2.23h0a11.94,11.94,0,0,1-3.84-2.45c-2.59-2.81-11.1-10.13-27.86-12.34a77.5,77.5,0,0,0-12.18-.61l-1.71.05-.26-1.53.15-.06,3.11-1.31,2.85-1.2a22.93,22.93,0,0,1,6.06-.75h.79c.19,0,.39,0,.59,0h.36l1.47.11.52.06h.09l.38,0,.49.07.48.06,1,.16c.49.08,1,.18,1.46.29l.73.15c.73.16,1.47.34,2.21.53l.69.19.46.13.58.17c1.35.4,2.7.85,4.05,1.33l.72.27.69.25,0,0c.41.15.82.32,1.23.48,2.31.93,4.59,2,6.74,3l.74.37.38.19.76.39.75.4.37.19.37.2.36.2c.85.46,1.66.92,2.46,1.39l.67.39.33.2,1.28.78.62.38.89.57.57.38.29.18.54.37.31.21.6.46.29.21.09.06.7.51h0l.43.33.42.32c.28.21.53.42.77.62l.35.28.17.15.17.14.29.26.2.19.2.19a10.55,10.55,0,0,1,.72.78c.17.21.32.41.47.61Z"/><path class="cls-12" d="M246.88,179.48s1.44,9.17,2.69,14.13c-.36.24-.71.49-1.06.76h0c-.57.43-1.13.89-1.66,1.37-.32.29-.63.58-.93.88a40.84,40.84,0,0,1-4.84-1.46c-2.63-1-5.06-2.18-6.18-3.39-2.54-2.76-10.77-9.86-26.91-12.21a79.13,79.13,0,0,0-12.59-.76c-.73,0-1.48,0-2.24.07l-.11-.69-1-5.73-.91-5.38v0l-.1-.6v0l0-.24-.17-1-.47-2.75-.22-1.3s0-.15,0-.41v-.38a1,1,0,0,0,0-.22.43.43,0,0,1,0-.16l0-.18v-.07c0-.09,0-.19,0-.28s0,0,0,0c0-.18,0-.38-.06-.58s0-.27,0-.4c-.06-.53-.13-1.1-.2-1.71s-.13-1-.21-1.56l-.06-.42a1,1,0,0,0,0-.25h0a1.2,1.2,0,0,0,0-.2c0-.29-.09-.54-.13-.81a1.22,1.22,0,0,0,0-.17c0-.13-.05-.28-.08-.4s-.06-.32-.09-.48v0a.73.73,0,0,0-.05-.2c0-.07,0-.19-.06-.29s-.07-.33-.11-.48l-.06-.21a3,3,0,0,0-.09-.32,5,5,0,0,0-.57-1.43h0l-.07-.08-.07-.07a2.15,2.15,0,0,1-.23-.28l-.11-.18c-.07-.12-.14-.26-.22-.41a.09.09,0,0,0,0-.06l-.08-.18c-1.39-3.11-3.16-11-3.16-11L183,131.72h0l-.12-.6-.35-1.82v-.22h0l-.19-6.48s-.11-10.49,3.32-12l-.1-1.3s-2.67-.78-3-2a.83.83,0,0,1,0-.54h0a1.69,1.69,0,0,1,.42-.57l.14-.14a7.44,7.44,0,0,0,2.08-3.86s.42-.69,1.1-1.76c2.11-3.33,6.72-10.28,8.78-11a16.16,16.16,0,0,0,4.73-2.8l.47.1h0a69.16,69.16,0,0,0,7,1.2,6.86,6.86,0,0,1,2.18.8,19.52,19.52,0,0,1,8.9,9.18c1.34,2.85,2.91,5.9,3.74,6.52a6.65,6.65,0,0,1,1.42,1.66c.27.41.52.85.75,1.26.68,1.25,1.15,2.38,1.15,2.38s6.55,4.4,5.74,8.69c0,0,1.42,4.8,2.83,6.21s4.63,12.59,4.63,12.59a8.31,8.31,0,0,1,1.11,3.7c-.1,1.61,1.21,5,1.21,5s.21,1.06.52,2.27c.1.42.22.86.34,1.27a6.28,6.28,0,0,0,1,2.24c.8.7.4,2.2.4,2.2a26.08,26.08,0,0,0,1.51,3.3,1.45,1.45,0,0,1,.23.67,9.88,9.88,0,0,1,0,2.43s0,.35-.08.86c-.1,1.21-.18,3.36.39,4.13a2.29,2.29,0,0,1,.29.75c.35,1.63,0,4.67.81,5.35C247.28,172.18,246.88,179.48,246.88,179.48Z"/><path class="cls-11" d="M202.73,160.59s-.58,1.34-1.41,3.33c-1.65,3.93-4.31,10.37-5.46,13.76-1.72,5.1-8.67,8.1-8.67,8.1s-13.81,4.7-18.65,1.2,9.08-11.2,11.59-11.7,4.74-2.5,6.56-3.6c.86-.51.95-2.5.81-4.45a37.61,37.61,0,0,0-.61-4.35Z"/><path class="cls-9" d="M221.58,113.6s5.24-2.3,7.47,1.3S221.58,113.6,221.58,113.6Z"/><path class="cls-9" d="M240.93,159.89s-36.18.3-29.33,4.9,7.86,6.79,15.83,4.59S240.93,159.89,240.93,159.89Z"/><path class="cls-9" d="M195.42,78.41a14.25,14.25,0,0,1-1.93,7.15,4.38,4.38,0,0,1-1.49-.94,6.48,6.48,0,0,1-1.06-1.87,16.37,16.37,0,0,0-2.4-3.8A3.3,3.3,0,0,0,186,77.47c-1.68.16-2.88,2.72-4.48,2.17-.49-.16-1.2-3.24-1.48-3.8-.66-1.34-1-1-2.21-.4-2.27,1.07-4.72,2-7.21,1.52a3.83,3.83,0,0,1-2.26-1.18,8.55,8.55,0,0,0-.76-.93,1.47,1.47,0,0,0-.47-.27,14.43,14.43,0,0,1,28.31,3.83Z"/><path class="cls-13" d="M181.8,79.35c1.61.53,2.81-2,4.48-2.18a3.27,3.27,0,0,1,2.56,1.48,16.37,16.37,0,0,1,2.4,3.8,6.75,6.75,0,0,0,1.07,1.87,4.73,4.73,0,0,0,1.6,1l2.18,1c1.26.57,2.87,1.06,3.85,0,.78-.86.67-2.28.32-3.42a11,11,0,0,1-.9-3.48c0-1.31.75-2.47,1-3.76a7.49,7.49,0,0,0-2-5.95c-1.36-1.6-3-2.82-4.43-4.39-.79-.89-1.48-1.88-2.3-2.75a11.64,11.64,0,0,0-3.58-2.64,7,7,0,0,0-3-.73,11.24,11.24,0,0,0-3.67,1,17.78,17.78,0,0,1-5.57,1.33c-2.29.07-4.79-.57-6.81.67-1.43.88-2.29,2.53-3.1,4.11l-1.72,3.37A17.21,17.21,0,0,1,162,73.26a5,5,0,0,1-3.48,1.88,4.91,4.91,0,0,0,5.17.47c.69-.35,1.31-.86,2-1.17a2.06,2.06,0,0,1,2.17.13,7.6,7.6,0,0,1,.77.93,3.83,3.83,0,0,0,2.26,1.18c2.49.47,4.94-.46,7.21-1.52,1.19-.57,1.56-.94,2.21.4C180.6,76.1,181.31,79.18,181.8,79.35Z"/><path class="cls-9" d="M202.73,160.59s-.58,1.34-1.41,3.33c-.68.33-1.39.69-2.08,1.05-1.84.94-3.47,1.81-3.47,1.81l-8.26.45a37.61,37.61,0,0,0-.61-4.35Z"/><path class="cls-9" d="M216.34,121.1l-2,7s-2,4.19-1,8.19-.6,10.1-.6,10.1l-3.14,8s-3.93,8.2-4.63,8.2a36.82,36.82,0,0,0-5.11,2.38c-1.83.94-3.46,1.81-3.46,1.81l-9.28.5c-3.06-8-.95-9.37.58-9.5a3.46,3.46,0,0,1,1.15.11l2-12.6v-7.8s.6-7.49,1.91-9.89a22,22,0,0,0,1.91-5,18.86,18.86,0,0,1-1.51-3.79,26.64,26.64,0,0,1-.4-3.2s-1.41.2-1.82-11.2,8.17-14.5,8.17-14.5c10.28-3.09,16.23,5.5,20.36,11.7S216.34,121.1,216.34,121.1Z"/><path class="cls-9" d="M215.13,120.5l-2,7s-2,4.21-1,8.2-.61,10.1-.61,10.1l-3.12,8s-3.94,8.19-4.64,8.19a38,38,0,0,0-5.1,2.39c-1.83.94-3.47,1.82-3.47,1.82l-4.13.22-.91-5.33a71.34,71.34,0,0,0-1.48-10.22l1-6.17V136.9s.61-7.5,1.92-9.9a23.13,23.13,0,0,0,1.91-5,18.77,18.77,0,0,1-1.51-3.8,26.39,26.39,0,0,1-.4-3.2s-1.42.2-1.82-11.2,8.17-14.49,8.17-14.49c10.28-3.1,16.23,5.49,20.36,11.69S215.13,120.5,215.13,120.5Z"/><path class="cls-12" d="M215.73,120.5l-2,7s-2,4.21-1,8.2-.6,10.1-.6,10.1l-3.12,8s-3.94,8.19-4.65,8.19a37.55,37.55,0,0,0-5.09,2.39c-1.84.94-3.47,1.82-3.47,1.82l-9.28.49c-3.05-8-.94-9.37.56-9.5a3.18,3.18,0,0,1,1.15.11l2-12.6V136.9s.6-7.5,1.91-9.9a22.65,22.65,0,0,0,1.92-5,18.77,18.77,0,0,1-1.51-3.8,26.67,26.67,0,0,1-.41-3.2s-1.41.2-1.81-11.2,8.17-14.49,8.17-14.49c10.28-3.1,16.23,5.49,20.36,11.69S215.73,120.5,215.73,120.5Z"/><path class="cls-9" d="M199.54,164.07c-1.83.94-3.47,1.81-3.47,1.81l-9.27.5c-3.06-8-1-9.37.56-9.5,2.22,1.59,5.1,3.77,5.29,4.51S196.58,163.26,199.54,164.07Z"/><path class="cls-12" d="M199.24,164.37c-1.84.94-3.47,1.82-3.47,1.82l-9.27.49c-3.06-8-.95-9.37.56-9.5,2.22,1.59,5.1,3.77,5.29,4.51S196.28,163.56,199.24,164.37Z"/><g class="cls-14"><path class="cls-15" d="M200.45,84.38c-1,1.07-2.59.57-3.86,0l-2.18-1a4.82,4.82,0,0,1-1.6-1,6.78,6.78,0,0,1-1.06-1.88,16.56,16.56,0,0,0-2.41-3.79,3.28,3.28,0,0,0-2.55-1.49c-1.68.17-2.88,2.72-4.48,2.18-.49-.16-1.2-3.24-1.48-3.81-.66-1.33-1-.95-2.21-.39-2.27,1.06-4.72,2-7.21,1.51a3.77,3.77,0,0,1-2.26-1.17,7.6,7.6,0,0,0-.77-.93,2.06,2.06,0,0,0-2.17-.13c-.7.31-1.32.82-2,1.17a4.81,4.81,0,0,1-3.12.43,4.41,4.41,0,0,1-2.55,1,4.91,4.91,0,0,0,5.17.48c.68-.35,1.3-.87,2-1.17a2.06,2.06,0,0,1,2.17.13,6.17,6.17,0,0,1,.76.93,3.82,3.82,0,0,0,2.26,1.17c2.49.47,4.95-.45,7.21-1.51,1.19-.57,1.56-.94,2.21.39.29.57,1,3.65,1.48,3.81,1.61.54,2.81-2,4.48-2.18a3.29,3.29,0,0,1,2.56,1.49,16.37,16.37,0,0,1,2.4,3.8,6.75,6.75,0,0,0,1.07,1.87,4.73,4.73,0,0,0,1.6,1l2.18,1c1.26.57,2.87,1.06,3.85,0a2.73,2.73,0,0,0,.58-2Z"/><path class="cls-15" d="M200.4,75.25a7.81,7.81,0,0,0-.51,1.91,10.21,10.21,0,0,0,.45-1.55C200.37,75.49,200.38,75.37,200.4,75.25Z"/></g><path class="cls-9" d="M143.76,198.78s-1.82,4.79-5.35,4.89Z"/><path class="cls-16" d="M145.59,189.09a29.78,29.78,0,0,0-2.3-4l-.38-.55h.26a1.2,1.2,0,0,0,.87-.29h0c2.24-1.85-2.34-12.53-4.82-12.7-1.7-.14-5-.26-7.29-.34l-.62,0c0-.11-.05-.23-.08-.35a10.35,10.35,0,0,1-4.25-2.22c-1.41-1.51-3.13-3.31-3.13-3.31a6.63,6.63,0,0,1-2.08-1.35,1.22,1.22,0,0,1-.35-.77c0-1-3.41-3.86-4.26-4.57l-.19-.16s-.3-1.51-1.41-1.81c-.46-.13-1-.84-1.49-1.63a22.71,22.71,0,0,1-1.24-2.4s-1.4-1.62-2.51-3.2a13.42,13.42,0,0,1-.82-1.26,3.5,3.5,0,0,1-.52-1.28c-.1-1.41-1.72-1.51-1.72-1.51a18,18,0,0,1-1.41-3.53c0-.7-2.13-2.11-2.13-2.11L100.38,136s.91-2.61-2.32-4.63-3.64-7.75-3.64-7.75l-2.85-6.12-.28-.63a1.67,1.67,0,0,0,.62-.59,1.81,1.81,0,0,0,.18-1.52,6.67,6.67,0,0,0-1-2.13.44.44,0,0,0-.08-.11c-.18-.24-.3-.38-.3-.38a1.43,1.43,0,0,0,.32-.28l.06-.1a1.52,1.52,0,0,0,0-1.59,2.21,2.21,0,0,0-.18-.34c-1-1.61-1.21-5.44-1.21-5.44l-2.43-6.74S86.92,93.58,84.7,91a6,6,0,0,0-2.11-1.59,4.77,4.77,0,0,0-2-1.49l0,0c0-.24-.08-.49-.11-.74s0-.41-.07-.61a15.67,15.67,0,0,0,2.16.14,15,15,0,0,0,2.11-.14A16.09,16.09,0,0,0,98.21,74.47h0a16.11,16.11,0,0,0,.46-3.79,15.46,15.46,0,0,0-.34-3.25,1.42,1.42,0,0,0,0-.2c-.08-.4-.19-.78-.3-1.17a2.25,2.25,0,0,1-.08-.24,8.09,8.09,0,0,0,2.3.26,1.45,1.45,0,0,0,.76-.21,1.6,1.6,0,0,0,.44-.67c.14-.33.27-.67.38-1l0-.08h0a6.48,6.48,0,0,0,.23-1,3.82,3.82,0,0,0,0-.83,3,3,0,0,0,0-.43,2.61,2.61,0,0,0-.1-.57.36.36,0,0,1,0,.14,2.74,2.74,0,0,0-.15-.4c-.82-1.67-3.16-2.33-3.65-4.12-.23-.85,0-1.94-.7-2.51a2.94,2.94,0,0,0-1-.44c-1.51-.48-2.68-1.62-4-2.5a7.08,7.08,0,0,0-1.38-.75A3.76,3.76,0,0,0,88,50.59c-.27.12-.52.28-.79.42a4.59,4.59,0,0,1-2.51.31c-.58,0-1.14-.16-1.69-.24-1.4-.21-3-.2-4,.86a8.61,8.61,0,0,1-1,1.24c-.78.6-1.88.31-2.84.12s-2.21-.11-2.58.79a6.17,6.17,0,0,0-.2.85,2.56,2.56,0,0,1-1.73,1.56,18.5,18.5,0,0,1-2.38.43,9,9,0,0,0-3.57,1.5,3.42,3.42,0,0,0-1.15,1.27.21.21,0,0,0,0-.1,1.44,1.44,0,0,0-.11.68,1.35,1.35,0,0,0,0,.4,1.31,1.31,0,0,0,.09.28,4.44,4.44,0,0,1,.22.61,1.15,1.15,0,0,1,0,.26,1.78,1.78,0,0,1-.29,1,2.75,2.75,0,0,1-.19.28,9.39,9.39,0,0,1-.76.91,3.8,3.8,0,0,0-.6.93l0,0,0-.05a1.94,1.94,0,0,0-.14.79,1.28,1.28,0,0,0,.11.61,1.06,1.06,0,0,0,.17.26,5.34,5.34,0,0,0,.92.63A3.53,3.53,0,0,1,64,69.92a23.22,23.22,0,0,1-.24,4.56v0c-.09.59-.33,1.69-.41,2.79h0v.12s0,0,0,0v.39A3.25,3.25,0,0,0,63.94,80h0a1.35,1.35,0,0,0,.45.33,1.48,1.48,0,0,0,1.13-.18c-.18.45-.36.89-.56,1.32h0l-.09.23c-.23.51-.46,1-.7,1.5a8.06,8.06,0,0,0-4.21.44s-.61,4.64-2.63,5.13-9.4,6.65-9.4,6.65L37.27,106l-.26.26s-.27.37-.71,1c-1.63,2.34-5.62,8.21-7,11.4a34.43,34.43,0,0,0-1.51,5.17,85.12,85.12,0,0,0-2,12.34h0c.08,1.22-.43,12.49-.25,16.91a11,11,0,0,0,.14,1.52,12.28,12.28,0,0,1,.14,2.19c0,1.45,0,3.41-.08,5.54-.18,5.75-.56,12.51-.56,12.51a55.18,55.18,0,0,0,2.63,6.42c.17.29.31.44.4.42.61-.1,2.33,4.13,2.33,4.13s.67,0,1.84-.1l.34,0c.09.19.18.39.29.58s.2.4.29.6a6.05,6.05,0,0,0,.28.57c1.18,2.34,2.49,4.58,3.33,4.81,1.82.5,6.78,3,7.18,4.13s7.24,2.25,10.18,2.25h1.44v.51a2.9,2.9,0,0,0,2.85,2.65l2.21,0h.1l-.07.49,0,.11-.06.49-.61,4.56h.21l6.06.1H67v-.19l.89-.26.34-.1a84.1,84.1,0,0,1,16.42-3.44,36.19,36.19,0,0,1,5.51,0l.86.07c5.92.57,11.67,2.63,17.42,4.37h.7l1.83,0h.28l5.84.06h.58l.13-4.72v-.6l1.91,0a2.89,2.89,0,0,0,2.24-1h0a2.78,2.78,0,0,0,.65-1.29,3.17,3.17,0,0,0,.07-.61v-.43a3,3,0,0,1-.2,3.73h0a6,6,0,0,1-1.21,1,9.71,9.71,0,0,0-3,2.64h0c-.37.63-.15.89-.15.89H135c4.09-1.75,8-4,12.12-5.72l0,0h0l.29-.11C148.36,199.79,148.91,193.08,145.59,189.09ZM77.47,138.46l.17-.42.32-.8.1.15,6,8.81.53.59-.9.1c-1.09.11-2.21.21-2.67.21a27.05,27.05,0,0,1-3.84-.7l-1.48-.67a8.09,8.09,0,0,0-.27-1.83h0l-.07-.22,1.75-4.42Zm27.37,27.67c2.48,1.76,5.57,3.75,8.65,5.67l-1.41,0-7.48.17c-2.79-.61-6.89-1.55-8-1.94-.51-.19-2.75-.8-5.58-1.54-2-.51-4.22-1.1-6.36-1.64l-4.36-1.11a.7.7,0,0,0-.18-.34A8.14,8.14,0,0,1,79,163.27a12.37,12.37,0,0,1-.63-2.07s-2.58-.29-3-1.14c-.14-.25-.08-.54.29-.89a2.49,2.49,0,0,0,.62-.85h0a2.57,2.57,0,0,0,.15-.47,3.79,3.79,0,0,0,0-1.5h0a4.53,4.53,0,0,0-.26-.94,17.82,17.82,0,0,1,3.24,1.07,14.6,14.6,0,0,0,5.34.71c1.35,0,2.61-.08,3.4-.13h.14L89,157s.86.15,2.1.31c.79.09,1.74.18,2.74.24.38,0,.76,0,1.15.05l.66.65.18.18c1.94,1.86,3.93,3.68,5.82,5.25,1.12.91,2.2,1.75,3.22,2.46Z"/><polygon class="cls-17" points="101.11 172.78 127.12 172.18 136.19 177.18 137.61 188.88 113.72 182.08 101.11 172.78"/><polygon class="cls-6" points="101.11 172.78 127.12 172.18 136.19 177.18 137.61 188.88 113.72 182.08 101.11 172.78"/><path class="cls-18" d="M86,154.79a24.6,24.6,0,0,1,2.72,3s9.17,1.6,11.39-.4-4.35-8.7-4.35-8.7l-5.85.3-4.74,2.8Z"/><path class="cls-19" d="M72.58,145.29l4.44,2a26.84,26.84,0,0,0,3.83.7c1,0,5.24-.51,5.24-.51L89.92,149s-3.42,6.39-1.2,8.79c0,0-7,.7-9.58-.5a23.94,23.94,0,0,0-6.15-1.6Z"/><path class="cls-6" d="M73.19,145.39l4.43,2a27.05,27.05,0,0,0,3.84.7c1,0,5.24-.5,5.24-.5l3.83,1.51s-3.43,6.4-1.21,8.8c0,0-7,.7-9.58-.5a23.94,23.94,0,0,0-6.15-1.6Z"/><path class="cls-18" d="M82.76,98s-29.22-6.6-24-7.5c3.34-.57,6.4-8.07,8.17-13.42,1-3,1.6-5.38,1.6-5.38s16.84,7.8,13,10.4c-1.47,1-1.64,3.57-1.28,6.36A49.63,49.63,0,0,0,82.76,98Z"/><path class="cls-7" d="M111.29,201.38l0,.5h0l0,1.3,0,.59-.18,4.28v.44h-2.09v-.33l-.4-.12c-5.74-1.75-11.5-3.81-17.42-4.38l-.86-.07a37.53,37.53,0,0,0-5.51,0,84.22,84.22,0,0,0-16.43,3.45l-.33.09-.89.26.07-4.37v-1.39h1.9l15.64-.1,6.37,0Z"/><path class="cls-9" d="M69.26,200.27l-.21,1.4h0l-.11.82-.09.59h0l-.57,4-.34.1-.89.25v.19h-.64l-1.24.36H60.29l.06-.45L61,203h0l.08-.6.16-1.18,7.75-.86Z"/><path class="cls-7" d="M69,200.27v0l-.2,1.36-.12.82-.08.6-.62,4.1-.89.26v.19h-.64l-1.24.35-.29.08h0L60,208l.67-5,.07-.63.07-.5h0l.09-.69Z"/><polygon class="cls-9" points="117.24 202.17 117.22 203.29 117.21 203.88 117.21 203.89 117.14 208.12 117.14 208.17 111 208.41 109.88 208.46 109.2 208.48 108.9 208.5 108.89 208.17 108.89 208.05 108.74 203.75 108.74 203.75 108.72 203.15 108.67 201.77 108.98 201.79 110.97 201.88 111.27 201.9 117.24 202.17"/><polygon class="cls-7" points="117.54 202.17 117.53 203.29 117.52 203.89 117.41 208.12 117.39 208.57 110.99 208.51 110.04 208.51 110.03 208.51 109.2 208.5 109.2 208.48 109.19 208.26 109.19 208.05 109.04 203.75 109.02 203.15 108.98 201.79 108.98 201.77 111.27 201.88 117.54 202.17"/><path class="cls-10" d="M69,200.27v0l-.2,1.36-.12.82-.08.6-.62,4.1-.89.26v.19h-.64l-1.24.35-.29.08h0L60,208l.67-5,.07-.63.07-.5h0l.09-.69Z"/><polygon class="cls-10" points="117.54 202.17 117.53 203.29 117.52 203.89 117.41 208.12 117.39 208.57 110.99 208.51 110.04 208.51 110.03 208.51 109.2 208.5 109.2 208.48 109.19 208.26 109.19 208.05 109.04 203.75 109.02 203.15 108.98 201.79 108.98 201.77 111.27 201.88 117.54 202.17"/><path class="cls-9" d="M81.56,82.11c-1.47,1-1.64,3.57-1.28,6.36A16,16,0,0,1,67,77.08c1-3,1.6-5.38,1.6-5.38S85.39,79.51,81.56,82.11Z"/><path class="cls-18" d="M98.39,72.11a15.87,15.87,0,1,1-.67-4.58A15.95,15.95,0,0,1,98.39,72.11Z"/><path class="cls-9" d="M97.72,67.53a17.33,17.33,0,0,0-3.87-.76A1.25,1.25,0,0,0,93,67c-.38.32-.32.89-.37,1.37a2.79,2.79,0,0,1-1.43,2.2c-1,.57-2.37.46-3.26,1.22-1.14,1-1,2.73-.56,4.15a5.37,5.37,0,0,1,.29,1.73A2.52,2.52,0,0,1,85,80a2.49,2.49,0,0,1-1.84-1c-.81-1-.71-2.45-.92-3.73a7,7,0,0,0-2-3.82,3.81,3.81,0,0,0-1.74-1.07,2,2,0,0,0-1.93.5c-.64.69-.52,1.75-.61,2.69A6,6,0,0,1,73.47,78a18.35,18.35,0,0,1-4.57,1.86,3.61,3.61,0,0,0-.44.22,15.83,15.83,0,0,1,5.93-21.7,16.05,16.05,0,0,1,23.33,9.2Z"/><path class="cls-20" d="M68.6,79.51a19.07,19.07,0,0,0,4.57-1.86,6,6,0,0,0,2.5-4.33c.08-.94,0-2,.62-2.7a2,2,0,0,1,1.92-.49A3.79,3.79,0,0,1,80,71.2,7,7,0,0,1,82,75c.21,1.28.1,2.71.91,3.74a2.55,2.55,0,0,0,3.55.41,2.47,2.47,0,0,0,1-1.82,5.37,5.37,0,0,0-.29-1.73c-.39-1.42-.57-3.19.55-4.15.89-.75,2.24-.66,3.27-1.22a2.82,2.82,0,0,0,1.43-2.2c0-.48,0-1.06.36-1.37a1.34,1.34,0,0,1,.87-.22c2.16,0,4.22,1.21,6.39,1.09a1.33,1.33,0,0,0,.75-.21,1.43,1.43,0,0,0,.44-.67c.58-1.32,1-2.86.4-4.15-.81-1.66-3.16-2.31-3.63-4.09-.23-.85,0-1.93-.71-2.5a2.8,2.8,0,0,0-1-.43c-1.5-.47-2.67-1.61-4-2.48s-3-1.52-4.42-.86c-.28.13-.51.29-.78.43-1.28.61-2.79.28-4.19.06s-3-.19-4,.86a8.46,8.46,0,0,1-1,1.23c-.77.59-1.87.31-2.83.12s-2.21-.11-2.59.78a8.26,8.26,0,0,0-.2.86A2.52,2.52,0,0,1,70.49,58a17.6,17.6,0,0,1-2.37.43A8.94,8.94,0,0,0,64.55,60c-.74.53-1.46,1.35-1.27,2.23.07.31.25.59.31.9.2.91-.57,1.71-1.19,2.41s-1.15,1.79-.53,2.49a4.83,4.83,0,0,0,.92.63,3.49,3.49,0,0,1,1.06,2.77,23.11,23.11,0,0,1-.24,4.55c-.19,1.29-1.12,5,.6,5.77C65.21,82.16,67.57,79.88,68.6,79.51Z"/><path class="cls-21" d="M79.64,149.39s-3.73.2-3.43,1.6S79.64,149.39,79.64,149.39Z"/><path class="cls-17" d="M147.13,202.09h0l0,0c-4.09,1.74-8,4-12.11,5.71l-1.09.45a32.13,32.13,0,0,1-7.92,2.19,29.91,29.91,0,0,1-8.45-.22,7.21,7.21,0,0,1,.83-3.3h0a12.67,12.67,0,0,1,2.64-2.16,5.26,5.26,0,0,0,1.56-1.52h0a2.82,2.82,0,0,0,.13-2.7,5.29,5.29,0,0,0-.29-.52,4.35,4.35,0,0,0-.61-.75H72.28l-16.55-.1H54.14c-2.93,0-9.78-1.1-10.19-2.2s-5.34-3.6-7.15-4.1c-.91-.25-2.38-2.83-3.61-5.34-.2-.4-.39-.8-.57-1.18l-.27-.57v0c-.36-.78-.67-1.49-.91-2l-.12-.28-.06-.16c0-.05-.05-.11-.07-.17h0l-.07-.16-.16-.38L76,165.5l3.57.9.54.14,4.58,1.16,6.36,1.64c2.7.71,4.82,1.28,5.31,1.46,1.05.39,5.17,1.32,7.94,1.93h0c1.52.34,2.64.57,2.64.57s3.56.69,8.22,1.63l.9.18,1.21.24.73.15h0l2.52.51,1.82.38c2,.4,3.89.81,5.68,1.2l1.39.3.54.11.53.12c2.06.46,3.78.87,4.88,1.18a7.35,7.35,0,0,1,1.11.4,16.29,16.29,0,0,1,6,5.48,30.46,30.46,0,0,1,2.67,4.5C148.32,193.43,148,199.62,147.13,202.09Z"/><path class="cls-9" d="M70.77,177.29s-1.91,8.4-7.86,11.39S70.77,177.29,70.77,177.29Z"/><path class="cls-9" d="M83.47,182.48s-6.45,3.7-5.54,6.4Z"/><path class="cls-9" d="M141.64,193.08s-1.82,7.6-5.74,7.69Z"/><polygon class="cls-9" points="117.54 202.17 117.52 203.89 111.19 203.79 109.04 203.75 68.55 203.09 67.12 203.06 60.65 202.96 60.89 201.17 68.96 200.27 68.76 201.67 111.3 201.38 111.27 201.88 117.54 202.17"/><path class="cls-8" d="M119.44,203.33l-61-1a2.88,2.88,0,0,1-2.85-2.8l0-1.35h66.84v2.28a2.89,2.89,0,0,1-2.9,2.88Z"/><path class="cls-9" d="M75.91,169.6a22.28,22.28,0,0,0-3.43,3.3c-1.11,1.49-7.16,4.18-7.16,4.18-7.68,7.94-25.6,10-32.14,10.45l-.57-1.18c-1-2-1.67-3.77-1.67-3.77L76,165.49l3.57.9a6.65,6.65,0,0,0,.66,1,.75.75,0,0,1,.18.34C80.76,169.07,75.91,169.6,75.91,169.6Z"/><path class="cls-19" d="M80.12,166.52c.34,1.35-4.51,1.87-4.51,1.87a22,22,0,0,0-3.43,3.29c-1.11,1.51-7.15,4.2-7.15,4.2-7.78,8.05-26.1,10-32.4,10.47-1.37.1-2.18.13-2.18.13s-1.72-4.2-2.31-4.1-3-6.8-3-6.8,1-18,.5-20.1.2-16.89.11-18.29,1.81-13.39,3.52-17.4,7.66-12.28,7.66-12.28l10.9-10.8s7.36-6.1,9.37-6.6S59.79,85,59.79,85c4.84-2,10.59,2.2,10.59,2.2,5-.1,4.53.8,4.53.8l2.93.6.07.81,3.65,39.17-4.31,10.82-2.06,5.18a8.1,8.1,0,0,1-.2,5.3c-1.11,2.8.8,6.09.8,6.09s1.21,2.51-.4,4,2.73,2,2.73,2a11.15,11.15,0,0,0,1.81,4.21A.8.8,0,0,1,80.12,166.52Z"/><path class="cls-9" d="M58.78,155.09s-2,3.8,1.61,4.4,13-.4,14.21-.4S58.78,155.09,58.78,155.09Z"/><path class="cls-9" d="M58.37,142.39c.51.9,11.39,10,15.12,11.6Z"/><path class="cls-9" d="M66.13,136s5.46,9.68,7.26,11.2.3-5.41.3-5.41Z"/><path class="cls-9" d="M50.81,108.4S64.62,117.3,64,123.6,50.81,108.4,50.81,108.4Z"/><path class="cls-9" d="M34.48,137.1S31,164.79,59,164.29C59,164.29,36.09,155.89,34.48,137.1Z"/><path class="cls-18" d="M142.75,185.18c-4-.1-15.42-4.2-15.42-4.2l.06-.31,1.85-8.79,2.3.07c2.24.08,5.56.2,7.27.33C141.54,172.48,146.78,185.28,142.75,185.18Z"/><path class="cls-9" d="M77.9,89.42l3.66,39.17-4.31,10.82c-3.36-4.87-7.15-10.35-8.21-11.82-2-2.8-6.15-16.49-6.15-16.49s-1.21-12.1,7-18.49C73.39,89.85,76,89.23,77.9,89.42Z"/><path class="cls-9" d="M129.44,177.87a10.14,10.14,0,0,1-3,3.7s-5.27-3-11.24-6.67C119.65,175.8,125.13,176.92,129.44,177.87Z"/><path class="cls-9" d="M127.93,181l-.54-.31,1.85-8.8,2.3.07C132.76,177.63,127.93,181,127.93,181Z"/><path class="cls-19" d="M82.36,90.71s-3.42-5.1-11.59,1.3-6.95,18.49-6.95,18.49S68,124.2,70,127s13.91,20.1,13.91,20.1,12.49,14.09,20.66,19.79S127.32,181,127.32,181s5-3.5,3.53-9.4a10.25,10.25,0,0,1-4.23-2.2c-1.41-1.5-3.13-3.3-3.13-3.3s-2.42-1-2.42-2.09-4.43-4.7-4.43-4.7-.31-1.51-1.41-1.8-2.73-4-2.73-4-3.73-4.3-3.82-5.7-1.73-1.5-1.73-1.5a17.89,17.89,0,0,1-1.41-3.5c0-.7-2.12-2.09-2.12-2.09L100.1,137s.9-2.59-2.32-4.59-3.63-7.69-3.63-7.69L91,118a1.74,1.74,0,0,0,.81-2.1,7,7,0,0,0-1.41-2.6s1.21-.7.2-2.3-1.21-5.4-1.21-5.4L87,98.93S86.5,92.51,82.36,90.71Z"/><path class="cls-9" d="M90.83,135.49s10.48-2.7,7.36-.5S90.83,135.49,90.83,135.49Z"/><path class="cls-9" d="M89.42,146.79s8-1.4,6.15.4S89.42,146.79,89.42,146.79Z"/><path class="cls-9" d="M73.69,100s10.69,2.79,13.21,8.69Z"/><g class="cls-14"><path class="cls-15" d="M63.74,69.78A3.45,3.45,0,0,0,62.68,67a6.44,6.44,0,0,1-.92-.62l0-.05a1.35,1.35,0,0,0,.13,1.44,4.83,4.83,0,0,0,.92.63,2.78,2.78,0,0,1,1,1.87C63.75,70.12,63.75,70,63.74,69.78Z"/><path class="cls-15" d="M63.27,62a2.32,2.32,0,0,0,.13.37,1.53,1.53,0,0,0,.08-.87,2.29,2.29,0,0,0-.12-.37A1.44,1.44,0,0,0,63.27,62Z"/><path class="cls-15" d="M101.7,62.78a8.1,8.1,0,0,1-.67,2.3,1.45,1.45,0,0,1-.44.66,1.33,1.33,0,0,1-.75.21c-2.17.12-4.23-1.06-6.39-1.09a1.34,1.34,0,0,0-.87.22c-.37.32-.31.89-.36,1.37a2.82,2.82,0,0,1-1.43,2.2c-1,.57-2.38.47-3.27,1.22a3.43,3.43,0,0,0-.75,3.3,2.59,2.59,0,0,1,.87-1.9c.89-.76,2.23-.66,3.26-1.22a2.82,2.82,0,0,0,1.43-2.2c0-.48,0-1.06.37-1.37a1.3,1.3,0,0,1,.86-.22c2.17,0,4.22,1.21,6.39,1.09a1.36,1.36,0,0,0,.76-.21,1.6,1.6,0,0,0,.44-.67A5.78,5.78,0,0,0,101.7,62.78Z"/><path class="cls-15" d="M85.51,78a2.59,2.59,0,0,1-2.74-.86c-.81-1-.7-2.45-.92-3.74a7,7,0,0,0-2-3.81,3.84,3.84,0,0,0-1.75-1.07,2,2,0,0,0-1.92.5c-.64.68-.54,1.75-.62,2.68A6,6,0,0,1,73.07,76,19.49,19.49,0,0,1,68.5,77.9c-1,.38-3.39,2.65-4.4,2.2a1.72,1.72,0,0,1-.92-1.3c0,1.19.16,2.32,1,2.7s3.37-1.82,4.4-2.2a18.69,18.69,0,0,0,4.57-1.87,6,6,0,0,0,2.5-4.32c.08-.94,0-2,.62-2.7a2,2,0,0,1,1.92-.49A3.91,3.91,0,0,1,80,71a7.08,7.08,0,0,1,2,3.83c.22,1.28.11,2.71.92,3.73a2.53,2.53,0,0,0,3.54.43,2.49,2.49,0,0,0,1-1.83A4,4,0,0,0,87.24,76,2.6,2.6,0,0,1,85.51,78Z"/></g><path class="cls-22" d="M17.13,137.06a2.79,2.79,0,0,0-.35.66l-.06.19-.13,0a1.81,1.81,0,0,0-.57-.05v-.23c0-.81-.08-2-.86-1.47s-.22,1.24.27,1.74l.12.12c-.44.32-.53,1.05-.6,1.81a4.31,4.31,0,0,1-1.15,2.07l-.12.13a1.58,1.58,0,0,0-1.26-.32l-.06-.21c-.35-1.26-1.08-3.43-2-3.91l.12-.15c.4-.52.84-1.28.19-1.47s-.72.66-.68,1.3a.86.86,0,0,0,0,.23.93.93,0,0,0-.68.33l-.11-.12c-.53-.62-1.5-1.61-1.8-.85s.58,1.59,1.19,2.12l0,0c-.41,1.63,1.36,3,2.32,3.55l.12.07A14.15,14.15,0,0,0,9,147l3.69.65s2.44-2.09,2.12-4h0c2.44-.49,3-3.07,2.61-4.6l.05,0a2.68,2.68,0,0,0,1.12-.85A.9.9,0,0,0,17.13,137.06Z"/><path class="cls-9" d="M17.13,137.06a2.79,2.79,0,0,0-.35.66l-.06.19-.13,0a1.81,1.81,0,0,0-.57-.05v-.23c0-.81-.08-2-.86-1.47s-.22,1.24.27,1.74l.12.12c-.44.32-.53,1.05-.6,1.81a4.31,4.31,0,0,1-1.15,2.07l-.12.13a1.58,1.58,0,0,0-1.26-.32l-.06-.21c-.35-1.26-1.08-3.43-2-3.91l.12-.15c.4-.52.84-1.28.19-1.47s-.72.66-.68,1.3a.86.86,0,0,0,0,.23.93.93,0,0,0-.68.33l-.11-.12c-.53-.62-1.5-1.61-1.8-.85s.58,1.59,1.19,2.12l0,0c-.41,1.63,1.36,3,2.32,3.55l.12.07A14.15,14.15,0,0,0,9,147l3.69.65s2.44-2.09,2.12-4h0c2.44-.49,3-3.07,2.61-4.6l.05,0a2.68,2.68,0,0,0,1.12-.85A.9.9,0,0,0,17.13,137.06Z"/><path class="cls-22" d="M9.8,138.11l-.43,1.25a5.66,5.66,0,0,1-.54-.43c-.61-.52-1.46-1.42-1.19-2.12s1.27.24,1.8.85C9.66,137.92,9.8,138.11,9.8,138.11Z"/><path class="cls-22" d="M10.71,137.4c-.22.28-.42.49-.42.49,0-.22-.06-.44-.08-.66,0-.64,0-1.49.68-1.3S11.1,136.88,10.71,137.4Z"/><path class="cls-22" d="M16.26,137.59a5.32,5.32,0,0,1-.05.74,4.78,4.78,0,0,1-.54-.47c-.49-.5-1-1.28-.27-1.74S16.28,136.78,16.26,137.59Z"/><path class="cls-22" d="M18.79,138.13a2.76,2.76,0,0,1-1.13.86,2.43,2.43,0,0,1-.38.13l-.5-.71q.09-.34.21-.69a2.53,2.53,0,0,1,.37-.66A.89.89,0,0,1,18.79,138.13Z"/><path class="cls-9" d="M9.44,137.67c.22.25.36.44.36.44l-.43,1.25a5.66,5.66,0,0,1-.54-.43,2.38,2.38,0,0,1,.49-1.1Z"/><path class="cls-9" d="M10.71,137.4c-.22.28-.42.49-.42.49,0-.22-.06-.44-.08-.66A.84.84,0,0,1,10.71,137.4Z"/><path class="cls-22" d="M12.82,142.36l-1.07.47-.57-.32c-1.12-.69-3.39-2.42-1.87-4.46s2.78,1.62,3.28,3.42C12.74,142,12.82,142.36,12.82,142.36Z"/><path class="cls-9" d="M15.67,137.86a.9.9,0,0,1,.59-.27,5.32,5.32,0,0,1-.05.74A4.78,4.78,0,0,1,15.67,137.86Z"/><path class="cls-9" d="M17.68,139l-.38.14-.52-.71q.09-.34.21-.69A1.8,1.8,0,0,1,17.68,139Z"/><path class="cls-22" d="M15,143.59l-.18,0c-3.59.54-1.19-1.38-1.19-1.38a4.68,4.68,0,0,0,.38-.39,4,4,0,0,0,1.15-2.07c.12-1.16.25-2.24,1.62-1.92S18.41,142.92,15,143.59Z"/><rect class="cls-23" x="8.09" y="152.46" width="6.86" height="1.79"/><rect class="cls-23" x="7" y="146.64" width="8.96" height="6.24"/><rect class="cls-9" x="8.09" y="152.46" width="6.86" height="1.79"/><rect class="cls-9" x="7" y="146.64" width="8.96" height="6.24"/><rect class="cls-23" x="8.54" y="152.46" width="6.86" height="1.79"/><path class="cls-9" d="M12.59,141.46c.15.53.23.9.23.9l-1.07.47-.57-.32A2.74,2.74,0,0,1,12.59,141.46Z"/><path class="cls-9" d="M15,143.59l-.18,0c-3.59.54-1.19-1.38-1.19-1.38a4.68,4.68,0,0,0,.38-.39A2.37,2.37,0,0,1,15,143.59Z"/><path class="cls-22" d="M9.18,147s2-7.12,4.83-4.94-1.15,5.59-1.15,5.59Z"/><circle class="cls-9" cx="10.19" cy="139.17" r="0.23"/><circle class="cls-9" cx="10.18" cy="140.22" r="0.23"/><circle class="cls-9" cx="16.71" cy="139.38" r="0.23"/><circle class="cls-9" cx="11.45" cy="144.73" r="0.23"/><circle class="cls-9" cx="16.25" cy="141.11" r="0.23"/><circle class="cls-9" cx="13.92" cy="143.42" r="0.23"/><circle class="cls-9" cx="10.96" cy="139.62" r="0.23"/><circle class="cls-9" cx="16.09" cy="140.05" r="0.23"/><circle class="cls-9" cx="15.32" cy="141.78" r="0.23"/><circle class="cls-9" cx="12.96" cy="144.56" r="0.23"/><circle class="cls-9" cx="12.47" cy="143.46" r="0.23"/><circle class="cls-9" cx="11.3" cy="140.98" r="0.23"/><rect class="cls-9" x="8.54" y="152.46" width="6.86" height="0.65"/><rect class="cls-23" x="7.45" y="146.64" width="8.96" height="6.24"/><circle class="cls-9" cx="13.26" cy="145.56" r="0.23"/><circle class="cls-9" cx="11.91" cy="145.84" r="0.23"/><path class="cls-22" d="M278.08,113.73s2.25-6.67,8.18-4.22c0,0-2.75,6-7.88,5.28Z"/><path class="cls-22" d="M277.15,107.05s2.5-6.69,8.42-3.74c0,0-3.44,6.16-8.13,4.75Z"/><path class="cls-22" d="M276.89,100.91s3.34-6.55,8.13-5.64c0,0-3.45,6.94-7.94,7.09Z"/><path class="cls-22" d="M277,95s3.76-7.93,7.58-6.69c0,0-2.69,6.09-7.64,8Z"/><path class="cls-22" d="M277.68,88s3.38-6.57,7.3-6.27c0,0-2.63,6.58-7.5,8.07Z"/><path class="cls-22" d="M278.21,81.46s4-6.49,6.54-6.26c0,0-2.31,6.63-6.46,7.43Z"/><path class="cls-22" d="M278.81,75.4s2.94-7.26,5.6-7.5c0,0-1.3,6.11-5.43,8.1Z"/><path class="cls-22" d="M279.07,67.38s2.79-5.72,5-6.31c0,0-1.51,7-4.76,7.85Z"/><path class="cls-22" d="M279.07,62.09l1.26-10.64S283,60,279.06,64Z"/><path class="cls-22" d="M277.71,51.12s-1.6-8.15-2.2-8.68c0,0,4.69,5.84,3.16,12.21Z"/><path class="cls-22" d="M277.77,118.71q-2.11,1.47-4.15,3l-.8.62a9,9,0,0,1-2.53-.79C273,117.88,276,118.13,277.77,118.71Z"/><path class="cls-22" d="M278.13,113.89s-4.33-5.57-9.12-1.33c0,0,4.57,4.74,9.19,2.43Z"/><path class="cls-22" d="M277.47,106.92s-4.34-5.69-9.15-1.16c0,0,5.1,4.9,9.17,2.22Z"/><path class="cls-22" d="M277.44,100.8s-3-6.73-7.82-6.07c0,0,3.07,7.12,7.55,7.5Z"/><path class="cls-22" d="M277.15,95s-2.76-8.33-6.71-7.55c0,0,1.94,6.36,6.6,8.86Z"/><path class="cls-22" d="M278,87.64s-3.13-6.7-7.06-6.55c0,0,2.38,6.67,7.18,8.35Z"/><path class="cls-22" d="M278.66,81.39s-2.1-7.3-4.66-7.75c0,0,.47,7,4.27,8.86Z"/><path class="cls-22" d="M279,75.27s-2.43-7.44-5.07-7.85c0,0,.89,6.18,4.86,8.44Z"/><path class="cls-22" d="M279.56,67.89s-1.72-6.11-3.8-7.09c0,0,.23,7.16,3.28,8.57Z"/><path class="cls-22" d="M278.79,61.85l-4.49-9.74s.15,9,5.08,11.55Z"/><path class="cls-22" d="M276.25,51.63s-6.09-5.7-6.22-6.48c0,0,2.47,7.05,8.71,9.18Z"/><path class="cls-22" d="M276.17,49.47s-6.66-8.64-8.67-8.93a12.85,12.85,0,0,1,8.9,8.56Z"/><path class="cls-24" d="M279.32,69H279c.29-11.63-.81-18.69-3.1-19.9l.14-.25C278.5,50.1,279.62,57.08,279.32,69Z"/><path class="cls-24" d="M277.27,96.58l-.44,0c.07-1.08.17-2.18.29-3.27,1-9.5,1.75-18.26,1.92-24.89l.29-.27c-.17,6.64-.74,15.69-1.79,25.21C277.43,94.41,277.33,95.51,277.27,96.58Z"/><path class="cls-24" d="M278.5,114.81q.31,1.5.66,2.94l-.57.4c-.24-1-.46-2-.65-3-.11-.59-.21-1.19-.31-1.78-.27-1.67-.47-3.36-.62-5.07,0-.31-.06-.62-.08-.93s-.05-.73-.08-1.1v-.17c-.07-1.29-.12-2.6-.13-3.9,0-.9,0-1.81,0-2.71s.07-1.93.12-2.9a1.67,1.67,0,0,1,0-.38c0-.13,0-.26,0-.4v-.08l.11.07.09.06.22.15v.2q-.13,2.06-.15,4a1.22,1.22,0,0,0,0,.27v1.9c0,1.26.07,2.49.16,3.7,0,.18,0,.36,0,.54a1.21,1.21,0,0,0,0,.19c0,.18,0,.36.05.53l.06.67v.08c.18,1.83.43,3.59.74,5.3Q278.35,114.1,278.5,114.81Z"/><path class="cls-22" d="M306.35,100.85l-.65.43c-1.87,1.25-3.77,2.45-5.68,3.62v.57l-.11,0,0-.45,0-.48h0v-.16a3.71,3.71,0,0,1,.21-.33C300.74,103,303.05,100.17,306.35,100.85Z"/><path class="cls-22" d="M300.31,97.61s3.83-6,9-1.93c0,0-4.66,5.32-8.94,3Z"/><path class="cls-22" d="M301.32,91.56s4.63-5.73,9.13-3.86c0,0-4.82,6.09-9.25,5.32Z"/><path class="cls-22" d="M302.69,85.79s5.32-7,8.81-5c0,0-3.9,5.41-9.14,6.28Z"/><path class="cls-22" d="M304.77,79.07s4.68-5.74,8.45-4.63c0,0-3.94,5.89-9,6.37Z"/><path class="cls-22" d="M306.65,72.79s5.22-5.54,7.7-4.79c0,0-3.64,6-7.87,6Z"/><path class="cls-22" d="M308.5,67s4.38-6.5,7-6.18c0,0-2.54,5.7-7,6.82Z"/><path class="cls-22" d="M310.41,59.19s3.93-5,6.21-5.16c0,0-2.92,6.56-6.28,6.72Z"/><path class="cls-22" d="M311.51,54,315,43.86s.79,8.93-3.84,12Z"/><path class="cls-22" d="M312.45,43s.14-8.3-.34-8.94c0,0,3.37,6.67.56,12.59Z"/><path class="cls-22" d="M290.57,110.44a7.94,7.94,0,0,1,3.61-2l-3.5,2.09Z"/><path class="cls-22" d="M299.84,104.51h0l-.09.55-.07.54-.29.06a5.66,5.66,0,0,1-.81.12c-4.42.32-7.4-4.44-7.4-4.44,4.44-2.53,7.3,1,8.27,2.51C299.7,104.23,299.82,104.48,299.84,104.51Z"/><path class="cls-22" d="M300.64,97.56s-3.07-6.45-8.71-3c0,0,4,5.83,8.51,4Z"/><path class="cls-22" d="M301.88,91.56s-1.52-7.19-6.39-7.53c0,0,1.53,7.59,5.83,8.88Z"/><path class="cls-22" d="M302.83,85.8s-1-8.71-5-8.76c0,0,.58,6.62,4.64,10Z"/><path class="cls-22" d="M305.17,78.8s-1.67-7.2-5.55-7.84c0,0,.94,7,5.29,9.64Z"/><path class="cls-22" d="M307.1,72.81s-.54-7.57-2.94-8.53c0,0-1,7,2.33,9.55Z"/><path class="cls-22" d="M308.67,66.89s-.84-7.78-3.33-8.72c0,0-.42,6.22,3,9.25Z"/><path class="cls-22" d="M310.79,59.79s-.43-6.34-2.25-7.71c0,0-1.26,7.05,1.43,9.05Z"/><path class="cls-22" d="M311.29,53.72l-2.38-10.45s-1.72,8.79,2.59,12.35Z"/><path class="cls-22" d="M310.92,43.2s-4.77-6.81-4.74-7.61c0,0,.95,7.4,6.61,10.76Z"/><path class="cls-22" d="M311.29,41.07s-4.73-9.81-6.62-10.51a12.84,12.84,0,0,1,6.94,10.21Z"/><path class="cls-24" d="M310.32,60.8l-.29-.06c2.7-11.32,3.09-18.46,1.1-20.11l.19-.22C313.44,42.17,313.09,49.22,310.32,60.8Z"/><path class="cls-24" d="M302.58,87.4l-.42-.12c.29-1,.63-2.1,1-3.13,3-9.09,5.51-17.52,7.05-24l.34-.2c-1.54,6.46-4,15.21-7,24.3C303.2,85.31,302.88,86.36,302.58,87.4Z"/><path class="cls-24" d="M302.76,86.81l-.06.19q-.57,2-1,3.9c0,.09,0,.18-.06.29-.12.57-.24,1.14-.35,1.71a.53.53,0,0,1,0,.12c-.27,1.42-.5,2.82-.68,4.19a1.36,1.36,0,0,1,0,.2h0c-.06.4-.1.8-.14,1.19v.09c-.21,1.82-.33,3.59-.38,5.32,0,.29,0,.6,0,.89v.57l-.12,0,0-.45-.11.07-.08.54a2.47,2.47,0,0,1-.29.06v-.39c0-.47,0-.94.06-1.42.08-1.68.23-3.38.44-5.09.08-.66.17-1.34.27-2h0c.19-1.34.43-2.68.71-4,.17-.89.37-1.77.57-2.65h0c.22-1,.46-1.89.72-2.81,0-.13.06-.25.1-.37h0c0-.14.08-.29.11-.42l0,0,.08.1.08.07Z"/></g></g></svg>