<svg xmlns="http://www.w3.org/2000/svg" xmlns:xlink="http://www.w3.org/1999/xlink" viewBox="0 0 333.84 232.92"><defs><style>.cls-1{fill:#fff;}.cls-2{opacity:0.5;}.cls-3{fill:url(#名称未設定グラデーション_2);}.cls-4{fill:#bcbcbb;}.cls-5{fill:#dcdbdb;}.cls-6{fill:#e0e0e0;}.cls-7{fill:#f5f5f5;}.cls-8{fill:#cdac70;}.cls-9{fill:#333;}.cls-10{fill:#040000;opacity:0.1;isolation:isolate;}.cls-11{fill:#f3a07b;}.cls-12{fill:url(#名称未設定グラデーション_2-2);}.cls-13{fill:#fbfbfc;}.cls-14{fill:url(#名称未設定グラデーション_2-3);}.cls-15{fill:#efeeee;}</style><linearGradient id="名称未設定グラデーション_2" x1="365.17" y1="1019.24" x2="454.37" y2="1229.88" gradientTransform="matrix(1, 0, 0, -1, -278.73, 1227.37)" gradientUnits="userSpaceOnUse"><stop offset="0" stop-color="#7f8080" stop-opacity="0.25"/><stop offset="0.54" stop-color="#7f8080" stop-opacity="0.12"/><stop offset="1" stop-color="#7f8080" stop-opacity="0.1"/></linearGradient><linearGradient id="名称未設定グラデーション_2-2" x1="433.15" y1="995.53" x2="522.01" y2="1205.37" xlink:href="#名称未設定グラデーション_2"/><linearGradient id="名称未設定グラデーション_2-3" x1="196.22" y1="1162.27" x2="196.22" y2="1208.57" gradientTransform="matrix(1, 0, 0, -1, 0, 1294.2)" xlink:href="#名称未設定グラデーション_2"/></defs><title>coachtech_howto_content2_1</title><g id="レイヤー_2" data-name="レイヤー 2"><g id="レイヤー_1-2" data-name="レイヤー 1"><rect class="cls-1" y="1.61" width="333.84" height="231.31"/><g class="cls-2"><path class="cls-3" d="M180.77.17,75.33.42A4.35,4.35,0,0,0,71,4.76l.48,194.36a4.33,4.33,0,0,0,4.35,4.32h0l105.44-.25a4.34,4.34,0,0,0,4.32-4.35L185.1,4.48A4.33,4.33,0,0,0,180.77.17Z"/><rect class="cls-1" x="72.79" y="0.13" width="111.03" height="200.4" rx="3.97" transform="translate(-0.24 0.31) rotate(-0.14)"/><path class="cls-4" d="M180.92,55.53h0l-.11-46.28a4.21,4.21,0,0,0-4.23-4.2L156,5.1a9,9,0,0,1-8.85,7.67l-38.35.1a9,9,0,0,1-8.89-7.64l-20.32,0a4.22,4.22,0,0,0-4.2,4.23l.11,46.67.33,135.25a4.22,4.22,0,0,0,4.24,4.2l97-.24a4.22,4.22,0,0,0,4.2-4.22Z"/><rect class="cls-5" x="114.7" y="7.56" width="24.74" height="1.55" rx="0.58" transform="translate(-0.11 1.91) rotate(-0.86)"/><circle class="cls-5" cx="144.69" cy="7.91" r="0.93"/><rect class="cls-6" x="119.35" y="30.13" width="51.69" height="4.12"/><rect class="cls-6" x="119.35" y="38.38" width="51.69" height="4.12"/><ellipse class="cls-7" cx="93.73" cy="34.62" rx="9.76" ry="9.81"/><path class="cls-8" d="M97.94,41.48H89.47a2.55,2.55,0,0,0-2.06,1.1,12.73,12.73,0,0,0,12.52.07A2.54,2.54,0,0,0,97.94,41.48Z"/><path class="cls-9" d="M89.54,34.87s-1.24,3.61-1.92,3.27c0,0,6.53,5.64,12.3,0a16.87,16.87,0,0,0-2.48-3.27Z"/><circle class="cls-9" cx="93.73" cy="34.53" r="4.85"/><path class="cls-10" d="M92,39.8h3.39v1.32a1.56,1.56,0,0,1-1.56,1.55h-.29A1.55,1.55,0,0,1,92,41.12V39.8Z"/><path class="cls-11" d="M92.38,39.72h2.67a.36.36,0,0,1,.36.36v1a1.56,1.56,0,0,1-1.56,1.56h-.29A1.56,1.56,0,0,1,92,41v-.95a.36.36,0,0,1,.35-.37Z"/><path class="cls-10" d="M92,40.21a4.91,4.91,0,0,0,3.38,0v-.39H92Z"/><circle class="cls-11" cx="93.73" cy="35.58" r="4.85"/><path class="cls-9" d="M89.09,33.74h9.25s-.79-3.73-4.29-3.49A6.26,6.26,0,0,0,89.09,33.74Z"/><ellipse class="cls-11" cx="88.98" cy="35.38" rx="0.45" ry="0.85"/><ellipse class="cls-11" cx="98.45" cy="35.38" rx="0.45" ry="0.85"/><path class="cls-10" d="M89.09,33.87h9.25s-.79-3.74-4.29-3.49A6.26,6.26,0,0,0,89.09,33.87Z"/><rect class="cls-6" x="119.35" y="61.53" width="51.69" height="4.12"/><rect class="cls-6" x="119.35" y="69.77" width="51.69" height="4.12"/><ellipse class="cls-6" cx="93.73" cy="66.01" rx="9.76" ry="9.81"/><rect class="cls-6" x="119.35" y="92.92" width="51.69" height="4.12"/><rect class="cls-6" x="119.35" y="101.17" width="51.69" height="4.12"/><ellipse class="cls-6" cx="93.73" cy="97.41" rx="9.76" ry="9.81"/><rect class="cls-6" x="119.35" y="124.32" width="51.69" height="4.12"/><rect class="cls-6" x="119.35" y="132.56" width="51.69" height="4.12"/><ellipse class="cls-6" cx="93.73" cy="128.8" rx="9.76" ry="9.81"/><rect class="cls-6" x="119.35" y="155.71" width="51.69" height="4.12"/><rect class="cls-6" x="119.35" y="163.96" width="51.69" height="4.12"/><ellipse class="cls-6" cx="93.73" cy="160.2" rx="9.76" ry="9.81"/></g><path class="cls-12" d="M248.63,24.58l-105.44.26a4.33,4.33,0,0,0-4.32,4.34l.48,193.41a4.33,4.33,0,0,0,4.34,4.32h0l105.45-.26a4.31,4.31,0,0,0,4.31-4.33L253,28.91a4.33,4.33,0,0,0-4.34-4.33Z"/><rect class="cls-1" x="140.65" y="23.59" width="111.03" height="200.4" rx="3.97" transform="translate(-0.3 0.48) rotate(-0.14)"/><path class="cls-13" d="M248.78,79.32l-.11-46.61a4.23,4.23,0,0,0-4.23-4.21l-20.62.05A9,9,0,0,1,215,36.23l-38.34.09a9,9,0,0,1-8.89-7.63l-20.32,0a4.21,4.21,0,0,0-4.2,4.22l.11,46.67"/><path id="c36a71a1-8927-4a8e-aa0b-340c78108d04" class="cls-13" d="M143.32,79.64l.33,135.25a4.22,4.22,0,0,0,4.23,4.2l97-.23a4.23,4.23,0,0,0,4.21-4.23L248.78,79"/><rect class="cls-6" x="152.65" y="47.89" width="20.61" height="20.61"/><g class="cls-2"><rect class="cls-14" x="128.16" y="85.63" width="136.11" height="46.3"/></g><rect class="cls-1" x="129.78" y="87.53" width="132.87" height="42.81"/><rect class="cls-8" x="182.77" y="103.39" width="51.69" height="4.12"/><rect class="cls-8" x="182.77" y="111.63" width="51.69" height="4.12"/><rect class="cls-6" x="182.77" y="149.05" width="51.69" height="4.12"/><rect class="cls-15" x="182.77" y="157.3" width="51.69" height="4.12"/><rect class="cls-8" x="197.05" y="64.38" width="23.15" height="7.29"/><ellipse class="cls-7" cx="157.16" cy="107.87" rx="9.76" ry="9.81"/><path class="cls-8" d="M161.36,114.74h-8.47a2.51,2.51,0,0,0-2.06,1.09,12.7,12.7,0,0,0,12.52.07A2.53,2.53,0,0,0,161.36,114.74Z"/><path class="cls-9" d="M153,108.12s-1.24,3.61-1.92,3.28c0,0,6.53,5.64,12.29,0a16.84,16.84,0,0,0-2.48-3.28Z"/><circle class="cls-9" cx="157.15" cy="107.79" r="4.85"/><path class="cls-10" d="M155.45,113.06h3.38v1.31a1.56,1.56,0,0,1-1.55,1.56H157a1.56,1.56,0,0,1-1.55-1.56v-1.31Z"/><path class="cls-11" d="M155.8,113h2.68a.35.35,0,0,1,.35.35h0v1a1.55,1.55,0,0,1-1.55,1.56H157a1.56,1.56,0,0,1-1.55-1.56v-1a.36.36,0,0,1,.36-.36h0Z"/><path class="cls-10" d="M155.45,113.46a4.94,4.94,0,0,0,3.39,0V113h-3.39Z"/><circle class="cls-11" cx="157.15" cy="108.84" r="4.85"/><path class="cls-9" d="M152.5,107h9.25s-.79-3.74-4.28-3.5A6.31,6.31,0,0,0,152.5,107Z"/><ellipse class="cls-11" cx="152.4" cy="108.63" rx="0.45" ry="0.85"/><ellipse class="cls-11" cx="161.88" cy="108.63" rx="0.45" ry="0.85"/><path class="cls-10" d="M152.5,107.12h9.25s-.79-3.73-4.28-3.49A6.28,6.28,0,0,0,152.5,107.12Z"/><ellipse class="cls-6" cx="163.5" cy="153.85" rx="9.76" ry="9.81"/><ellipse class="cls-6" cx="163.5" cy="191.59" rx="9.76" ry="9.81"/><rect class="cls-6" x="182.77" y="185.52" width="51.69" height="4.12"/><rect class="cls-15" x="182.77" y="193.77" width="51.69" height="4.12"/><rect class="cls-6" x="182.77" y="47.89" width="51.69" height="4.12"/><rect class="cls-6" x="182.77" y="56.14" width="51.69" height="4.12"/><rect class="cls-5" x="182.56" y="31.03" width="24.74" height="1.55" rx="0.58" transform="translate(-0.46 2.93) rotate(-0.86)"/><circle class="cls-5" cx="212.56" cy="31.39" r="0.93"/></g></g></svg>