<svg xmlns="http://www.w3.org/2000/svg" viewBox="0 0 402.31 198.32"><defs><style>.cls-1{fill:#f2f2f2;stroke:#666;stroke-miterlimit:10;stroke-width:3px;}.cls-10,.cls-2{fill:#fff;}.cls-10,.cls-3,.cls-6,.cls-7{font-size:8.68px;}.cls-3,.cls-4,.cls-9{fill:#1a1a1a;}.cls-10,.cls-3,.cls-4,.cls-8{font-family:HiraKakuStd-W8-83pv-RKSJ-H, Hiragino Kaku Gothic Std;}.cls-4{font-size:14.46px;}.cls-5{letter-spacing:0.25em;}.cls-7{letter-spacing:0.25em;}.cls-8{font-size:15px;fill:#ccab6f;text-decoration:underline;}</style></defs><title>2</title><g id="レイヤー_2" data-name="レイヤー 2"><g id="レイヤー_1-2" data-name="レイヤー 1"><rect class="cls-1" x="1.5" y="25.43" width="399.31" height="171.38" rx="9"/><rect class="cls-2" x="29.65" y="52.82" width="139.54" height="60.43" rx="8.39"/><text class="cls-3" transform="translate(73.38 73.58)">毎日チャット<tspan x="4.34" y="15.18">週一の面談</tspan><tspan x="-30.37" y="30.37">オーダーメイドカリキュラム</tspan></text><rect class="cls-2" x="233.13" y="52.82" width="139.54" height="60.43" rx="8.39"/><text class="cls-4" transform="translate(247.92 91.33)">12<tspan class="cls-5" x="22.36" y="0">0</tspan><tspan x="37.15" y="0">時</tspan><tspan class="cls-5" x="51.61" y="0">間</tspan><tspan x="69.69" y="0">/</tspan><tspan class="cls-6" x="77.95" y="-2.2" xml:space="preserve">  </tspan><tspan class="cls-7" x="83.72" y="-2.2">2</tspan><tspan class="cls-6" x="92.6" y="-2.2">ヶ月</tspan></text><rect class="cls-2" x="186.6" y="79.74" width="31.12" height="3.43" transform="translate(1.61 166.8) rotate(-45)"/><rect class="cls-2" x="186.6" y="79.74" width="31.12" height="3.43" transform="translate(299.23 276.59) rotate(-138.4)"/><rect class="cls-2" x="26.96" y="159.61" width="22.15" height="3.43"/><rect class="cls-2" x="26.96" y="167.58" width="22.15" height="3.43"/><text class="cls-8" transform="translate(57.2 171)">短期間で本当の力を身に付けることができます！</text><text class="cls-3" transform="translate(127.4 149.07)">質と量を兼ね備えたことによって！！</text><ellipse class="cls-9" cx="28.58" cy="21.85" rx="25.36" ry="21.85"/><text class="cls-10" transform="translate(12.26 25.72)">つまり！</text><polygon class="cls-9" points="49.34 41.12 49.94 31.34 39.54 40.95 49.34 41.12"/></g></g></svg>