<svg xmlns="http://www.w3.org/2000/svg" viewBox="0 0 835.48 745.29"><defs><style>.cls-1{fill:#2e2d40;}.cls-2{fill:#f6bbbb;}.cls-3{fill:#555785;}.cls-10,.cls-12,.cls-4{fill:#040000;}.cls-4{opacity:0.4;}.cls-10,.cls-13,.cls-4{isolation:isolate;}.cls-5{fill:#3e3c55;}.cls-6{fill:#cdac70;}.cls-7{fill:#f2f2f2;}.cls-8{fill:#e6e6e5;}.cls-9{fill:#f5b5b5;}.cls-10{opacity:0.1;}.cls-11{fill:none;stroke:#040000;stroke-miterlimit:10;stroke-width:7px;}.cls-13{font-size:30px;fill:#4e4d4d;font-family:HiraKakuStd-W8-83pv-RKSJ-H, Hiragino Kaku Gothic Std;}.cls-14{letter-spacing:-0.03em;}.cls-15{letter-spacing:-0.05em;}.cls-16{letter-spacing:-0.03em;}</style></defs><title>アセット 1</title><g id="レイヤー_2" data-name="レイヤー 2"><g id="レイヤー_1-2" data-name="レイヤー 1"><g id="レイヤー_1-2-2" data-name="レイヤー 1-2"><path class="cls-1" d="M121.24,290.36c6.36-10.19,19-10.66,19-10.66s12.26-1.49,20.13,14c7.33,14.47,17.45,28.44,1.63,31.82l-2.86-8.43-1.77,9.06a63.68,63.68,0,0,1-6.77.11c-17-.52-33.09.15-32.57-5.61C118.67,313,115.12,300.17,121.24,290.36Z"/><path class="cls-2" d="M144.15,309.56s-8.22,10.91-3.29,19.74-11.51,18.19-11.51,18.19l-12.06-24.94s14.25-8.84,10.42-17.15Z"/><ellipse class="cls-2" cx="138.67" cy="300.72" rx="14.25" ry="13.51"/><path class="cls-2" d="M188,316.34l-11.91-14.57s-4.2-15.27-10.27-14.49,2.4,18.31,2.4,18.31L180,321.71Z"/><polygon class="cls-2" points="127.71 510.15 123.87 529.38 115.65 531.45 117.84 508.59 127.71 510.15"/><polygon class="cls-2" points="44.94 489.36 30.14 508.59 24.12 511.19 19.18 503.39 33.98 485.2 44.94 489.36"/><path class="cls-3" d="M131,339.18l9.14-11.42s17.71,3.1,19.36,4.66-4.39,30.14-4.39,30.14-1.09,7.8-6,11.95l-4.93,3.12-40.56-7.79-1.52-17.11a43.51,43.51,0,0,1,12.48-34.34h0l7.06.91Z"/><path class="cls-3" d="M157.3,333.46l2.74-1,12.61-1s4.39-1,3.29-3.12-2.19-2.6,0-3.11,2.74-1,2.19-2.6-3.84-4.68-3.84-4.68l9.32-7.28s.51.34,1.32,1c4.63,3.55,19.27,16.36,8.55,29.18-12.61,15.07-27.41,23.9-39.46,20.78Z"/><path class="cls-1" d="M145.25,375v7.28s4.93,8.83,3.28,17.15-2.19,12.47-2.19,12.47a67.63,67.63,0,0,1-3.83,20.79c-3.84,10.39,8.76,78.47-7.13,79.51s-24.66,2.07-29.6-3.12S114,414.53,114,414.53s-44.94,88.86-54.26,85.22S26.86,487.8,29.6,483.12s71.8-108.61,71.8-108.61l2.19-4.67Z"/><path class="cls-1" d="M118.94,525.74s8.77-.52,8.77,2.08,4.38,11.43,4.38,11.43,3.29,10.39-5.48,9.35-14.25-10.39-14.25-10.39l2.19-9.87Z"/><path class="cls-1" d="M27.4,507.55s7.68-4.68,7.13-1.56-1.1,11.43-4.93,12-15.35,3.64-15.9,4.68S0,527.82,0,521.06s8.22-11.95,8.22-11.95l9.32-6.76s6-.52,7.12,3.12S27.4,507.55,27.4,507.55Z"/><ellipse class="cls-1" cx="138.65" cy="279.75" rx="9.1" ry="8.63"/><path class="cls-1" d="M148.71,277.48a8.81,8.81,0,0,0-8.15-8.58,8.34,8.34,0,0,1,1,0,8.64,8.64,0,1,1,0,17.25h-1A8.83,8.83,0,0,0,148.71,277.48Z"/><polygon class="cls-1" points="124.05 289.38 136.49 283.2 153.66 285.73 157.21 300.61 148.37 300.29 145.9 294.82 145.9 300.19 141.81 300.05 139.45 291.34 137.97 300.61 123.46 300.33 124.05 289.38"/><path class="cls-2" d="M124.8,376.24l19.17.49s16.37,3,15.45-3.24-16.88-4.08-16.88-4.08l-17.48-2.52Z"/><path class="cls-3" d="M109.62,317.51a4.1,4.1,0,0,0-4.51,2.66c-3.75,11.22-15.32,48.76-3.83,53.91,13.54,6.06,23.41,5.79,23.41,5.79L130,367.53l-4.81-4.28L120,331.93l-2.46-13.28Z"/><polygon class="cls-4" points="113.18 338.4 115.37 359.18 134.56 366.98 113.18 362.3 113.18 338.4"/><path class="cls-5" d="M216.64,269.77h0a25.67,25.67,0,0,0-15,10.33l-1.8,2.63-.09.11-31.45,8.73a2.15,2.15,0,0,0-1.58,2.6v.05l2.44,8.49a2.32,2.32,0,0,0,2.82,1.53h0l31.46-8.33h0l3.16,1.13a29.73,29.73,0,0,0,18.16.59h0Z"/><ellipse class="cls-3" cx="186.98" cy="293.42" rx="3.59" ry="1.83" transform="translate(-69.29 58.08) rotate(-14.93)"/><ellipse class="cls-5" cx="185.12" cy="294.03" rx="1.32" ry="1.25"/><ellipse class="cls-6" cx="220.62" cy="283.84" rx="6.92" ry="14.68" transform="translate(-81.72 89.35) rotate(-19.39)"/><path class="cls-4" d="M215,285.58c-2.53-7.39-1.84-14.28,1.48-15.77a2.94,2.94,0,0,0-.59.12c-3.66,1.12-4.49,8.25-1.87,15.92s7.71,13,11.37,11.85a3.12,3.12,0,0,0,.39-.15C222.17,298,217.47,292.85,215,285.58Z"/><path class="cls-6" d="M216.22,269.8l71.39-52.5a466.49,466.49,0,0,0,36.29-29.82c20.35-18.39,48-33.09,80.13-40.92,78.14-19,140,14.7,168.19,64.22,43,75.66,76,198.45-114.76,133.09-41.72-14.29-83.95-15.81-116-23.34l-116-22.67Z"/><ellipse class="cls-7" cx="430.53" cy="177.82" rx="3.84" ry="3.64"/><polygon class="cls-7" points="356 186.23 357 186.23 357 185.28 357.19 185.28 357.19 186.23 358.19 186.23 358.19 186.41 357.19 186.41 357.19 187.36 357 187.36 357 186.41 356 186.41 356 186.23"/><polygon class="cls-7" points="255.7 265.22 256.7 265.22 256.7 264.27 256.89 264.27 256.89 265.22 257.89 265.22 257.89 265.4 256.89 265.4 256.89 266.35 256.7 266.35 256.7 265.4 255.7 265.4 255.7 265.22"/><polygon class="cls-7" points="262.82 289.64 263.82 289.64 263.82 288.69 264.02 288.69 264.02 289.64 265.02 289.64 265.02 289.83 264.02 289.83 264.02 290.77 263.82 290.77 263.82 289.83 262.82 289.83 262.82 289.64"/><polygon class="cls-7" points="569.21 310.43 570.21 310.43 570.21 309.48 570.4 309.48 570.4 310.43 571.4 310.43 571.4 310.61 570.4 310.61 570.4 311.56 570.21 311.56 570.21 310.61 569.21 310.61 569.21 310.43"/><polygon class="cls-7" points="525.36 197.14 526.36 197.14 526.36 196.19 526.55 196.19 526.55 197.14 527.55 197.14 527.55 197.33 526.55 197.33 526.55 198.27 526.36 198.27 526.36 197.33 525.36 197.33 525.36 197.14"/><polygon class="cls-7" points="354.9 293.8 355.9 293.8 355.9 292.85 356.1 292.85 356.1 293.8 357.1 293.8 357.1 293.98 356.1 293.98 356.1 294.93 355.9 294.93 355.9 293.98 354.9 293.98 354.9 293.8"/><polygon class="cls-7" points="459.59 163.88 460.59 163.88 460.59 162.94 460.78 162.94 460.78 163.88 461.78 163.88 461.78 164.07 460.78 164.07 460.78 165.01 460.59 165.01 460.59 164.07 459.59 164.07 459.59 163.88"/><path class="cls-8" d="M459.21,238.7l1.24.18c-.39,2.36-.7,4.77-.92,7.16l-1.26-.1C458.5,243.52,458.81,241.09,459.21,238.7Z"/><path class="cls-8" d="M462.61,224.49l1.21.35c-.73,2.29-1.39,4.63-1.94,7l-1.23-.27C461.21,229.18,461.88,226.81,462.61,224.49Z"/><path class="cls-8" d="M468,210.87l1.15.5c-1.06,2.18-2,4.41-2.94,6.64l-1.17-.42C466,215.33,467,213.07,468,210.87Z"/><path class="cls-8" d="M475.39,198.1l1.06.63c-1.35,2-2.65,4.11-3.86,6.2l-1.11-.57C472.7,202.24,474,200.13,475.39,198.1Z"/><path class="cls-8" d="M484.52,186.39l1,.77c-1.64,1.82-3.23,3.72-4.73,5.65l-1-.72C481.26,190.15,482.86,188.23,484.52,186.39Z"/><path class="cls-8" d="M495.25,176l.84.89c-1.89,1.6-3.73,3.28-5.49,5l-.91-.84C491.47,179.27,493.34,177.57,495.25,176Z"/><path class="cls-8" d="M507.37,167l.71,1c-2.09,1.34-4.17,2.76-6.16,4.23l-.77-.94C503.16,169.8,505.26,168.37,507.37,167Z"/><path class="cls-8" d="M518.41,160.8v1.35c-1.31.65-2.61,1.33-3.88,2l-.63-1C515.38,162.34,516.88,161.55,518.41,160.8Z"/><path class="cls-8" d="M459.12,253.41h-1.26V257h1.26Q459.09,255.2,459.12,253.41Z"/><path class="cls-8" d="M533.2,341.08l1.24.18c-.39,2.36-.69,4.77-.92,7.15l-1.25-.1C532.49,345.89,532.8,343.46,533.2,341.08Z"/><path class="cls-8" d="M536.6,326.87l1.21.35c-.73,2.28-1.38,4.63-1.94,7l-1.23-.26C535.21,331.56,535.87,329.19,536.6,326.87Z"/><path class="cls-8" d="M542,313.24l1.15.5c-1,2.18-2,4.41-2.93,6.65L539,320C540,317.71,541,315.44,542,313.24Z"/><path class="cls-8" d="M549.38,300.47l1.06.64c-1.35,2-2.65,4.1-3.86,6.2l-1.1-.57C546.69,304.62,548,302.51,549.38,300.47Z"/><path class="cls-8" d="M558.51,288.76l1,.78c-1.63,1.82-3.22,3.72-4.72,5.64l-1-.71C555.25,292.52,556.86,290.6,558.51,288.76Z"/><path class="cls-8" d="M569.24,278.34l.84.89c-1.88,1.59-3.73,3.27-5.49,5l-.91-.84C565.47,281.64,567.33,280,569.24,278.34Z"/><path class="cls-8" d="M581.37,269.39l.7,1c-2.09,1.33-4.16,2.76-6.15,4.23l-.78-.94C577.16,272.18,579.25,270.74,581.37,269.39Z"/><path class="cls-8" d="M592.4,263.17v1.35c-1.31.65-2.61,1.34-3.88,2l-.63-1C589.37,264.71,590.87,263.92,592.4,263.17Z"/><path class="cls-8" d="M533.11,355.79h-1.26v3.6h1.26C533.09,358.18,533.09,357,533.11,355.79Z"/><path class="cls-8" d="M280,289.63l1.24.18c-.39,2.36-.69,4.77-.92,7.16l-1.25-.11C279.27,294.45,279.58,292,280,289.63Z"/><path class="cls-8" d="M283.38,275.42l1.21.35c-.73,2.29-1.38,4.63-1.94,7l-1.23-.26C282,280.11,282.65,277.74,283.38,275.42Z"/><path class="cls-8" d="M288.81,261.8l1.15.5c-1,2.17-2,4.41-2.93,6.64l-1.18-.42C286.75,266.26,287.75,264,288.81,261.8Z"/><path class="cls-8" d="M296.16,249l1.06.64c-1.35,2-2.65,4.11-3.86,6.2l-1.1-.57C293.47,253.17,294.79,251.06,296.16,249Z"/><path class="cls-8" d="M305.29,237.32l1,.77c-1.63,1.82-3.22,3.72-4.73,5.64l-1-.71C302,241.08,303.63,239.15,305.29,237.32Z"/><path class="cls-8" d="M316,226.89l.84.89c-1.89,1.59-3.73,3.27-5.49,5l-.91-.83C312.24,230.2,314.11,228.5,316,226.89Z"/><path class="cls-8" d="M328.15,217.94l.7,1c-2.09,1.33-4.16,2.76-6.15,4.23l-.78-.94C323.94,220.73,326,219.29,328.15,217.94Z"/><path class="cls-8" d="M339.18,211.73v1.35c-1.31.65-2.61,1.33-3.88,2l-.63-1C336.15,213.27,337.65,212.48,339.18,211.73Z"/><path class="cls-8" d="M279.89,304.34h-1.26v3.6h1.26Q279.86,306.13,279.89,304.34Z"/><polygon class="cls-7" points="523.53 245.05 524.46 245.05 524.46 244.17 524.64 244.17 524.64 245.05 525.57 245.05 525.57 245.22 524.64 245.22 524.64 246.11 524.46 246.11 524.46 245.22 523.53 245.22 523.53 245.05"/><polygon class="cls-7" points="534.24 298.25 535.17 298.25 535.17 297.36 535.35 297.36 535.35 298.25 536.28 298.25 536.28 298.42 535.35 298.42 535.35 299.3 535.17 299.3 535.17 298.42 534.24 298.42 534.24 298.25"/><polygon class="cls-7" points="565.66 344.86 566.59 344.86 566.59 343.98 566.77 343.98 566.77 344.86 567.7 344.86 567.7 345.04 566.77 345.04 566.77 345.92 566.59 345.92 566.59 345.04 565.66 345.04 565.66 344.86"/><path class="cls-5" d="M366.59,285.74c-20.75-29.25-12.57-68.91,18.27-88.58s72.68-11.92,93.43,17.33,12.56,68.9-18.28,88.58a70.47,70.47,0,0,1-62.19,6.44c-3.25,11-15.26,17.39-26.84,14.31s-18.34-14.47-15.09-25.45A20.9,20.9,0,0,1,366.59,285.74Z"/><path class="cls-6" d="M421.58,213.64c15.43,0,26.05,8.11,26.05,19.78,0,7.72-3.95,13.07-11.56,17.32-7.16,3.94-9.59,6.83-9.59,11.82h0a3.16,3.16,0,0,1-3.25,3.08h-7.89a3.16,3.16,0,0,1-3.25-3v-.38c-.7-8,2.26-13,9.71-17.17,6.95-3.94,9.88-6.44,9.88-11.27s-4.94-8.39-11.07-8.39c-4.66,0-8.35,2.15-10,5.66A7.34,7.34,0,0,1,404,235h0c-5.35,0-8.88-5.39-6.38-9.87C401.5,218.1,409.84,213.64,421.58,213.64Zm-10.82,66.87c0-4.49,3.95-8,8.81-8s8.84,3.51,8.84,8-4,8-8.84,8-8.81-3.51-8.81-8Z"/><polygon class="cls-9" points="562.69 540.96 542.23 539.6 549.05 570.29 572.24 560.74 562.69 540.96"/><polygon class="cls-1" points="750.28 483.66 702.53 437.27 675.24 458.42 621.35 523.22 627.49 532.77 692.98 488.44 737.32 546.42 779.61 525.27 750.28 483.66"/><polygon class="cls-10" points="750.28 483.66 702.53 437.27 675.24 458.42 621.35 523.22 627.49 532.77 692.98 488.44 737.32 546.42 779.61 525.27 750.28 483.66"/><path class="cls-9" d="M754.37,514.36l-6.14,4.77-49.79-17.05-11.6-4.78-23.19,4.78s0-19.1,21.82-18.42L708,489.12l26.6,2Z"/><polygon class="cls-1" points="798.71 564.84 783.7 574.38 765.97 574.38 683.43 543.69 562.69 565.52 559.28 539.6 669.78 491.16 766.65 523.22 798.71 564.84"/><path class="cls-9" d="M701.85,443.41l-10.24,2-2.23-2.6a13.81,13.81,0,0,1-1.86-15.14h0l28.65-37.51s8.19-18.42,21.15-10.92S726.4,399,726.4,399l-14.32,22.52,1.36,11.59Z"/><circle class="cls-9" cx="766.65" cy="372.47" r="26.6"/><path class="cls-9" d="M754.71,391.91,767,421.24,796.32,409s-9.55-23.2-9.55-23.88S754.71,391.91,754.71,391.91Z"/><path class="cls-3" d="M835.48,478.69A153.2,153.2,0,0,1,828,526l-2,6.12-9.55,43.66-10.24,2.73-7.5-9.55-15-11-10.91-17.73-9.36-15.6-2.92-4.87-10.23-51.16L711.4,446.82l-13-2,2.72-7.51,11.6-15.68,11.6-1.37,3.41-2.73,2.73,1.37,10.91-6.14,3.41,1.36,20,1.86,12.11-2.54,17.42-9.35,7.14,1.16L826,425.68A152.5,152.5,0,0,1,835.48,478.69Z"/><path class="cls-1" d="M548.51,551.78s6.11-10.35,3.53-11.56-13.54-6-13.54-6l-16.08-5.33s-23.19-34.46-23.7-4.49,16.89,37.18,16.89,37.18,15.51,33.38,24.3,28.06,17.58-23.4,17.58-23.4S541.65,557.69,548.51,551.78Z"/><polygon class="cls-10" points="828.04 472.75 802.12 489.8 763.43 524.68 760.51 519.81 752.32 478.88 754.37 478.88 775.52 440 828.04 472.75"/><polygon class="cls-3" points="775.52 435.91 754.37 474.79 746.87 474.79 742.09 488.44 731.18 491.16 760.51 523.22 802.12 485.71 828.04 468.65 775.52 435.91"/><path class="cls-1" d="M746,352.69l-2.89,1.11a4,4,0,0,1-1.1-5.55l0,0v-.07l-5.33-.25a40.23,40.23,0,0,1,56.32-8,41.63,41.63,0,0,1,3.73,3.17c.24-.83,2.88.79,4,2.44.36-1.36,2.84,5.21,3.72,9.86.41-1.55,2,.95.6,3.34.87-.12,1.26,2.09.59,3.33.94-.45.78,2.2-.24,4,1.35-.12-10.67,18.53-15.54,29.43-1.41-6.49-3-13.33-7.55-18.17-.78-.82-1.63-1.57-2.47-2.31l-4.58-4.05c-5.33-4.7-10.17-10.5-17.26-12.25-4.88-1.21-8-1.48-5.3-7-2.4,1-4.64,2.49-7.07,3.42C745.81,354.3,745.93,353.5,746,352.69Z"/><circle class="cls-9" cx="779.95" cy="375.54" r="4.77"/><path class="cls-11" d="M615,60.87H171.08"/><polygon class="cls-12" points="664.4 60.87 594.76 32.41 611.28 60.87 594.76 89.32 664.4 60.87"/><text class="cls-13" transform="translate(357.74 26.4)">質<tspan class="cls-14" x="30" y="0">問</tspan><tspan class="cls-15" x="59.22" y="0">す</tspan><tspan class="cls-16" x="87.57" y="0">る</tspan></text><text class="cls-13" transform="translate(357.74 728.85)">回<tspan class="cls-14" x="30" y="0">答</tspan><tspan class="cls-15" x="59.22" y="0">す</tspan><tspan class="cls-16" x="87.57" y="0">る</tspan></text><line class="cls-11" x1="220.51" y1="662.81" x2="664.4" y2="662.81"/><polygon class="cls-12" points="171.08 662.81 240.73 691.26 224.2 662.81 240.73 634.35 171.08 662.81"/></g></g></g></svg>