<svg xmlns="http://www.w3.org/2000/svg" xmlns:xlink="http://www.w3.org/1999/xlink" viewBox="0 0 540.65 362.51"><defs><style>.cls-1{fill:#f5b5b5;}.cls-2{fill:#2e2d40;}.cls-10,.cls-14,.cls-3{fill:#040000;}.cls-13,.cls-3{opacity:0.1;}.cls-10,.cls-3{isolation:isolate;}.cls-4{fill:#555785;}.cls-5{fill:#cdac70;}.cls-6{font-size:45.04px;fill:#fff;stroke:#dedbd9;stroke-miterlimit:10;stroke-width:2px;font-family:HiraKakuStd-W8-83pv-RKSJ-H, Hiragino Kaku Gothic Std;}.cls-7{fill:url(#名称未設定グラデーション_4);}.cls-8{fill:#4b4b74;}.cls-9{fill:#caccd8;}.cls-10{opacity:0.05;}.cls-11{fill:#464361;}.cls-12{fill:#472727;}</style><linearGradient id="名称未設定グラデーション_4" x1="-2032.72" y1="-7070.48" x2="-2032.72" y2="-6716.92" gradientTransform="translate(-1955.67 -6716.92) rotate(180)" gradientUnits="userSpaceOnUse"><stop offset="0" stop-color="#7f8080" stop-opacity="0.25"/><stop offset="0.54" stop-color="#7f8080" stop-opacity="0.12"/><stop offset="1" stop-color="#7f8080" stop-opacity="0.1"/></linearGradient></defs><title>coaching1</title><g id="レイヤー_2" data-name="レイヤー 2"><g id="レイヤー_1-2" data-name="レイヤー 1"><polygon class="cls-1" points="333.69 325.17 318.16 324.13 323.34 347.42 340.93 340.17 333.69 325.17"/><polygon class="cls-2" points="476 281.69 439.78 246.5 419.08 262.55 378.19 311.71 382.85 318.95 432.53 285.32 466.17 329.31 498.26 313.26 476 281.69"/><polygon class="cls-3" points="476 281.69 439.78 246.5 419.08 262.55 378.19 311.71 382.85 318.95 432.53 285.32 466.17 329.31 498.26 313.26 476 281.69"/><path class="cls-1" d="M479.11,305l-4.66,3.63-37.78-12.94-8.8-3.63-17.59,3.63s0-14.49,16.56-14l17.08,4.14,20.18,1.56Z"/><polygon class="cls-2" points="512.75 343.28 501.36 350.52 487.91 350.52 425.29 327.24 333.69 343.8 331.1 324.13 414.94 287.39 488.42 311.71 512.75 343.28"/><path class="cls-1" d="M439.26,251.16l-7.76,1.55-1.69-2a10.45,10.45,0,0,1-1.42-11.48h0l21.74-28.46s6.21-14,16-8.29-8.28,15-8.28,15L447,234.6l1,8.8Z"/><circle class="cls-1" cx="488.42" cy="197.34" r="20.18"/><path class="cls-1" d="M479.37,212.09l9.31,22.25L510.94,225s-7.25-17.6-7.25-18.12S479.37,212.09,479.37,212.09Z"/><path class="cls-4" d="M540.65,277.92A115.89,115.89,0,0,1,535,313.79l-1.51,4.65-7.25,33.12-7.76,2.07-5.69-7.25-11.39-8.28-8.28-13.45L486,312.82l-2.21-3.7L476,270.31l-29.49-16.56-9.84-1.55,2.07-5.7,8.8-11.9,8.8-1,2.59-2.07,2.07,1,8.28-4.66,2.58,1L487,230.32l9.19-1.93,13.21-7.09,5.42.88,18.63,15.53A115.94,115.94,0,0,1,540.65,277.92Z"/><path class="cls-2" d="M322.93,333.38s4.63-7.86,2.67-8.78S315.33,320,315.33,320l-12.19-4s-17.59-26.15-18-3.41S298,340.78,298,340.78s11.77,25.33,18.44,21.29,13.34-17.75,13.34-17.75S317.72,337.86,322.93,333.38Z"/><polygon class="cls-3" points="535 273.41 515.33 286.35 485.98 312.82 483.77 309.12 477.56 278.07 479.11 278.07 495.15 248.57 535 273.41"/><polygon class="cls-4" points="495.15 245.47 479.11 274.97 473.42 274.97 469.79 285.32 461.51 287.39 483.77 311.71 515.33 283.25 535 270.31 495.15 245.47"/><path class="cls-2" d="M472.73,182.33l-2.19.84a3.05,3.05,0,0,1-.82-4.24l0-.05-4-.19a30.51,30.51,0,0,1,42.72-6.08,31,31,0,0,1,2.83,2.41c.19-.63,2.19.6,3,1.85.28-1,2.16,3.95,2.82,7.48.31-1.18,1.49.72.46,2.54.65-.1,1,1.58.44,2.52.72-.34.6,1.67-.18,3,1-.09-8.09,14.06-11.78,22.33-1.08-4.93-2.28-10.11-5.74-13.78-.58-.63-1.23-1.19-1.87-1.76L495,196.14c-4-3.56-7.72-8-13.1-9.3-3.7-.91-6-1.12-4-5.29-1.82.76-3.52,1.89-5.36,2.6C472.5,183.57,472.76,182.92,472.73,182.33Z"/><circle class="cls-1" cx="498.52" cy="199.67" r="3.62"/><circle class="cls-5" cx="405.4" cy="128.07" r="31.28"/><text class="cls-6" transform="translate(390.17 145.85)">?</text><circle class="cls-5" cx="446.06" cy="158.39" r="9.38"/><path class="cls-7" d="M7.73,154.46c-2.23,10.12-6.24,22.59-6.24,22.59,4,4.63,21.27,5.46,21.27,5.46l0,0h.27c.12.64.26,1.26.42,1.84,0,.58-.06,1.17-.08,1.76a4.8,4.8,0,0,0-.25,2.16,3.92,3.92,0,0,0,.13.49c-.42,9.16-.71,18.93-.46,24.58a23.88,23.88,0,0,0,.49,4.76,17.17,17.17,0,0,1,.51,3.65c.28,8.26-1.73,22.13-1.73,22.13l.08.29-.05.37a6.74,6.74,0,0,1,.29,1.73c.15,7-3.85,22.12-3.85,22.12s-3.23,23.31-2.77,32.19c0,.71.07,1.42.16,2.12,1,7.39,2.3,28,2.3,28a8.94,8.94,0,0,0,.75,1c-.11.46-.25.93-.4,1.39a38.88,38.88,0,0,0-1.93,14.44c0,.57.09,1.2.15,1.83.66,7.61,19.07,2.88,20.28,2,.41-.3.12-3.06-.45-6.56l19,4.68s13.45,2,19.85,0,6.17-7.47-3-8.37c-6.41-.63-11.49-6.59-14-10.12,1-2.65,8.26-22.76,9.6-35.21a173.8,173.8,0,0,1,4.25-23.86l1.43-18.53L76.3,242.4l3-14.44c3.42-10.59,4.46-28.29,4.46-28.29l2.65-17.36a33.36,33.36,0,0,0,.61-5.73,66,66,0,0,1,7.33,2c4.14-3.22-1.72-34.23-1.72-34.23s-2.83-19.59-5.22-37.45a36.78,36.78,0,0,1,11.42.46l34.73.77a17.24,17.24,0,0,0,1.87-3H137a3.5,3.5,0,0,0,.43-.84l.61.12a51.47,51.47,0,0,1,6.65,2s11,1.32,9.3-10.17c-1.23-8.57-11-5.46-15.86-3.33l-.61.28-.08-.5-1.57.28a6.29,6.29,0,0,0-.32-.7s-17-.66-30.85-2.73C94.82,88,87.4,82.39,83.91,79.28c-2.42-12.28-9.45-16-9.45-16A20.94,20.94,0,0,1,64.88,60a19,19,0,0,1-2.24-1.55l-.38.22,0,0c2.34-2.17,4.77-4.17,6.9-5.84l1-.74A21.32,21.32,0,0,0,87.48,22.23c-.09-.21-.2-.41-.3-.62a4.78,4.78,0,0,0,4.22-4.15c.21-2.41-1.45-5-.36-7.14a7.23,7.23,0,0,0,.51-1,2.65,2.65,0,0,0,.08-1,7.14,7.14,0,0,0-2.87-5.18c-2.47-1.78-4.66-.88-7.35-1A87.55,87.55,0,0,1,72.14.66,32.38,32.38,0,0,0,61.48.31a13.76,13.76,0,0,0-9,5.27c-.87,1.26-1.46,2.69-2.3,4C49.25,11.05,48,12.35,47,13.74c-1.81,2.34-3.28,5.14-3.13,8.1.08,1.67.67,3.28.78,4.95a30.26,30.26,0,0,1-.34,4.66,20.45,20.45,0,0,0,.34,5.94,3.63,3.63,0,0,0,.68,1.69,3.58,3.58,0,0,0,1.49,1,14.89,14.89,0,0,0,1.83.57A25.53,25.53,0,0,1,46,45.24l-.93-1L42.6,48.2l-.1-.26c-.12.25-.26.48-.4.72l-.26-.72a15.09,15.09,0,0,1-5.64,5.64c-6.59,4.14-15.78,5.86-15.78,5.86C5.61,61.59,8.35,76.88,8.35,76.88S2.07,104.17.3,121s4.8,27.62,4.8,27.62Zm70.61-49.88c.58,1.88,1.08,3.66,1.52,5.22l-.28.1c-.32-1.44-.75-3.29-1.22-5.32ZM62.05,58.78l-.08,0,.08-.07ZM36.51,344c-.72-4.33-1.8-9.55-2.47-12.67.47-1.54,1.1-3.88,1.84-7.37,1.65-7.83,2.64-35.51,2.64-35.51l3.86-23.26c3.53-8.93,4.3-19.54,4.3-19.54,1.42-3.75,4.7-26.69,5.23-30.37-.15,2.54-.51,9-.7,16.16v.19c-.14,5.41-.18,11.21,0,16h0c0,1.35.12,2.63.22,3.82,0,.3,0,.62,0,.93.42,12.47-5.17,28.17-5.17,28.17s-2.49,11.63-2.12,18.13a11.84,11.84,0,0,0,.49,3.45,5.78,5.78,0,0,1,.28,1.6c.11,6.22-3.57,19.27-4.5,22.47C38.41,330.4,36.89,341.16,36.51,344Z"/><path class="cls-8" d="M57,327s6.45,11.69,15.52,12.56,9.29,6.33,3,8.31-19.67,0-19.67,0l-19-4.7s2.3-18.79,5.35-19.78S57,327,57,327Z"/><path class="cls-8" d="M33.84,327.18s4.81,21.64,3.61,22.52-19.46,5.57-20.12-2c-.06-.63-.11-1.24-.14-1.82A38.16,38.16,0,0,1,19.1,331.6a12.08,12.08,0,0,0,.74-4.42C19.52,324.15,33.84,327.18,33.84,327.18Z"/><path class="cls-1" d="M39.8,53.27s14.75,36.21,12.13,24.6c-1.73-7.71,9.49-18,17.24-24,4-3.07,7-5,7-5S48.47,16.57,50.44,30.5a21,21,0,0,1-1.52,11.24A29.55,29.55,0,0,1,39.8,53.27Z"/><path class="cls-1" d="M134.05,104.73a8.75,8.75,0,0,1,3.38.21,52,52,0,0,1,6.58,2s10.86,1.32,9.2-10.07c-1.22-8.5-10.88-5.42-15.71-3.3-1.65.72-2.74,1.33-2.74,1.33Z"/><path class="cls-3" d="M134.05,104.73a8.75,8.75,0,0,1,3.38.21c1.18-3,.28-10,.09-11.37-1.64.72-2.74,1.33-2.74,1.33Z"/><path class="cls-9" d="M134,93.88l2.84-.52s1.46,9.77-.45,12.33h-3.27Z"/><path class="cls-8" d="M77,111.7s8.7-5.18,9.73,1.36,2.41,17.76,2.41,17.76l2.4,14.26,3.12,28.58-.44,4.87s-9.24-3.1-11.42-2-3.94-12-3.94-12L75.26,151l-.58-28.74Z"/><path class="cls-3" d="M77,111.7s8.7-5.18,9.73,1.36,2.41,17.76,2.41,17.76l2.4,14.26,3.12,28.58-.44,4.87s-9.24-3.1-11.42-2-3.94-12-3.94-12L75.26,151l-.58-28.74Z"/><path class="cls-8" d="M81.68,78s9,10.16,22.7,12.21S135,93,135,93a14.82,14.82,0,0,1-1.89,15.74l-34.42-.76s-7.63-1.65-13.53,0Z"/><path class="cls-10" d="M81.68,78s9,10.16,22.7,12.21S135,93,135,93a14.82,14.82,0,0,1-1.89,15.74l-34.42-.76s-7.63-1.65-13.53,0Z"/><path class="cls-3" d="M50.4,41.43c3.36,7.19,9.19,12.49,17.68,12.49h1.1c3.95-3.07,7-5,7-5S48.48,16.59,50.45,30.52C51.05,34.76,51.75,38.23,50.4,41.43Z"/><path class="cls-1" d="M47,32.15A21.12,21.12,0,1,0,68.08,11h0A21.07,21.07,0,0,0,47,32.06Z"/><path class="cls-9" d="M34.05,161.2s47.1,4.16,48.86-1.86-4.8-22.29-4.8-22.29l2.1-22.73.08-.87S74.41,88.86,74.6,86.91c.2-1.76-9.5-22.42-11.49-26.62l-.37-.76-.37.22-.16.1-2.3,1.35-9.12-2.15-11-5.75-1,62.88Z"/><path class="cls-3" d="M58.54,60.28A3.74,3.74,0,0,1,63,62.63a33.05,33.05,0,0,0,1.72,4L66,74.12l2.3,11.8L70,138.23l-.76,9.31L65,140.07l-.77-48.86V85.12a44.16,44.16,0,0,0-3.51-15.27l-.57-1.37-3.66-4.7Z"/><path class="cls-8" d="M59.19,59.62A3.75,3.75,0,0,1,63.67,62a34.91,34.91,0,0,0,1.73,4l1.26,7.47L69,85.27l1.69,52.31-.77,9.28-4.21-7.47-.76-48.86V84.44a44.15,44.15,0,0,0-3.5-15.27l-.58-1.37-3.67-4.68Z"/><path class="cls-3" d="M45.42,46.1S56.57,57.91,60.5,59.32c0,0-2,9-3.93,10.71,0,0-11.7-11.93-13.8-12.89l-1.72-4.25Z"/><path class="cls-9" d="M45.42,45.47S56.57,57.28,60.5,58.69c0,0-2,9-3.93,10.71,0,0-11.7-11.93-13.8-12.9l-1.72-4.24Z"/><path class="cls-3" d="M62.09,59.52l.12.31,3.57,9.57,6.38,18.09s.07.18.18.53c1,3.28,6.74,21.13,7.87,26.32l.08-.87S74.41,88.86,74.6,86.91c.2-1.76-9.5-22.42-11.49-26.62-.32-.22-.58-.4-.74-.54Z"/><path class="cls-8" d="M62.74,59.51l3.69,9.89,6.39,18.09L73,88c1.12,3.5,7.51,23.51,8.05,27.17.57,4,8.62,25.74,8.62,25.74l4.6,37.62c4.1-3.2-1.72-33.92-1.72-33.92S86,99.06,84.42,83.91s-10-19.65-10-19.65A20.71,20.71,0,0,1,65,61.05,20.08,20.08,0,0,1,62.74,59.51Z"/><path class="cls-3" d="M16.47,301.52c1,7.33,2.29,27.77,2.29,27.77,4.6,6.89,14.76,3.16,14.76,3.16s1.09-2.08,2.72-9.84,2.63-35.19,2.63-35.19l3.83-23.05A76.26,76.26,0,0,0,47,245c1.53-4,5.25-30.61,5.25-30.61s-1.54,23.83-.58,36.39-5,29.51-5,29.51S43.22,296.17,45,301.09s-4.37,25.24-4.37,25.24c.54,5.91,17.92,3.5,17.92,3.5s8.19-22,9.61-35.19A174,174,0,0,1,72.35,271l1.41-18.36,2.52-10.82,3-14.31c3.38-10.5,4.42-28,4.42-28l2.62-17.21c1.73-8.51-.5-18.49-2-23.73-.65-2.26-1.15-3.64-1.15-3.64-1.51,1.07-10.13,2.3-14.59,3.34a25.36,25.36,0,0,1-7.47.57,165.71,165.71,0,0,1-33.28-6.09l-1.15-.34-.23,2L25.93,159l-1,8.32S22,211.69,23.77,217.7s-1.21,26.21-1.21,26.21c1.64,4.79-3.49,24.28-3.49,24.28S15.48,294.21,16.47,301.52Z"/><path class="cls-11" d="M16.47,300.87c1,7.32,2.29,27.76,2.29,27.76,4.6,6.9,14.76,3.17,14.76,3.17s1.09-2.08,2.72-9.84,2.63-35.19,2.63-35.19l3.83-23.06A76.26,76.26,0,0,0,47,244.37c1.53-4,5.25-30.6,5.25-30.6s-1.54,23.82-.58,36.39-5,29.51-5,29.51S43.22,295.52,45,300.43s-4.37,25.25-4.37,25.25c.54,5.9,17.92,3.49,17.92,3.49s8.19-22,9.61-35.19a174.22,174.22,0,0,1,4.22-23.66L73.76,252l2.52-10.81,3-14.32c3.38-10.49,4.42-28,4.42-28l2.62-17.22c1.73-8.5-.5-18.48-2-23.72-.65-2.26-1.15-3.65-1.15-3.65-1.51,1.07-10.13,2.3-14.59,3.34a25.71,25.71,0,0,1-7.47.58A165.71,165.71,0,0,1,27.85,152l-1.15-.35-.23,2-.54,4.69-1,8.32S22,211,23.77,217.05s-1.19,26.21-1.19,26.21c1.64,4.79-3.49,24.28-3.49,24.28S15.48,293.55,16.47,300.87Z"/><path class="cls-3" d="M47,32.15a21,21,0,0,0,2.8,10.5A11.15,11.15,0,0,0,59,40.42c1.68-1.49,2.77-3.52,4.21-5.23a30.33,30.33,0,0,1,3-3,9.43,9.43,0,0,1,2.38-1.73,3.24,3.24,0,0,1,2.88,0c1.15.65,1.56,2.09,2.21,3.25a4.4,4.4,0,0,0,2.42,2.11,2.59,2.59,0,0,0,2.88-1c.71-1.23.19-3.15,1.39-3.89a7,7,0,0,1,1-.4c1.54-.7,1.72-2.78,1.85-4.47a2.8,2.8,0,0,1,.95-2.22,4.2,4.2,0,0,1,2.45-.2,3.61,3.61,0,0,0,.73-.07A21.12,21.12,0,0,0,47,32.13Z"/><path class="cls-12" d="M88.66,4.71A7,7,0,0,1,91.5,9.82a2.79,2.79,0,0,1-.07,1,7.29,7.29,0,0,1-.52,1c-1.08,2.14.58,4.68.36,7.08A4.7,4.7,0,0,1,86.67,23a4.59,4.59,0,0,0-2.45.2,2.71,2.71,0,0,0-.94,2.23c-.14,1.69-.31,3.77-1.86,4.46a8.29,8.29,0,0,0-1,.41c-1.2.74-.68,2.67-1.39,3.89a2.59,2.59,0,0,1-2.88,1,4.4,4.4,0,0,1-2.42-2.11c-.66-1.15-1.06-2.6-2.22-3.25a3.22,3.22,0,0,0-2.87,0,9.39,9.39,0,0,0-2.38,1.72,32.67,32.67,0,0,0-3,3c-1.45,1.72-2.53,3.75-4.22,5.23-3.18,2.79-8,3.06-12,1.48a3,3,0,0,1-2.17-2.65,20.43,20.43,0,0,1-.34-5.89,29.49,29.49,0,0,0,.34-4.6c-.11-1.65-.7-3.25-.78-4.91-.14-2.92,1.31-5.7,3.11-8a50.66,50.66,0,0,0,3.19-4.14c.81-1.28,1.39-2.7,2.26-3.94a13.8,13.8,0,0,1,8.92-5.23,31,31,0,0,1,10.56.35,88.83,88.83,0,0,0,9.2,1.42C84,3.81,86.21,2.91,88.66,4.71Z"/><path class="cls-3" d="M62.74,59.51l3.69,9.89,6.39,18.09L73,88h0l-8-27A20.69,20.69,0,0,1,62.74,59.51Z"/><path class="cls-1" d="M22.86,172.68s-.39,12,2.84,14.94l8.57-16.17L27.06,168Z"/><path class="cls-3" d="M2.83,177.05c3.94,4.6,21.06,5.41,21.06,5.41l17-26.72s4-2.79,11.54-15.33,7.3-22.21,6.9-29.42-5.17-28-5.17-28c-.73-4.67-11.3-33.91-11.3-33.91a15,15,0,0,1-5.6,5.59C30.72,58.8,21.6,60.47,21.6,60.47c-14.68,2.13-12,17.3-12,17.3s-.18,59,.74,66S2.83,177.05,2.83,177.05Z"/><polygon class="cls-9" points="22.64 174.97 23.13 179.34 29.09 177.16 33.46 170.55 30.18 167.98 22.64 174.97"/><path class="cls-3" d="M22.85,158l3.11.32,30.05,3a48.6,48.6,0,0,0,14.44-.71l13.93-2.78c-.64-2.26-1.15-3.65-1.15-3.65-1.51,1.07-10.13,2.3-14.59,3.34a25.71,25.71,0,0,1-7.47.58A166.1,166.1,0,0,1,27.85,152l-1.36,1.62Z"/><g class="cls-13"><path class="cls-14" d="M82.88,154.38a2.91,2.91,0,0,0,.3-.17l0,.08Z"/><path class="cls-14" d="M19.06,267.53s5.14-19.48,3.49-24.28c0,0,3-20.19,1.2-26.2S25,166.67,25,166.67l1-8.32.58-4.69.23-2s.39.13,1.15.35l.69.21-.16.77-.54,4.69-1,8.31S24,210.39,25.7,216.41s-1.2,26.2-1.2,26.2C26.14,247.4,21,266.89,21,266.89s-3.61,26-2.63,33.34S20.68,328,20.68,328c3.35,5,9.68,4.4,12.84,3.69a.77.77,0,0,1-.06.14s-10.16,3.71-14.75-3.17c0,0-1.31-20.44-2.3-27.76S19.06,267.53,19.06,267.53Z"/><path class="cls-14" d="M45,300.43c-1.73-4.91,1.64-20.76,1.64-20.76s6-16.94,5-29.51c-.41-5.24-.38-12.42-.21-19,1.4-8.51,2.73-18,2.73-18s-1.54,23.82-.55,36.39-5,29.51-5,29.51-3.39,15.85-1.64,20.77S42.56,325,42.56,325c.43,4.73,11.66,4.13,16.09,3.7l-.17.45s-17.37,2.41-17.91-3.49C40.59,325.68,46.71,305.34,45,300.43Z"/></g><path class="cls-8" d="M2.18,177.05c3.93,4.6,21.06,5.41,21.06,5.41l17-26.72s4-2.79,11.56-15.33,7.29-22.21,6.9-29.42-5.18-28-5.18-28c-.73-4.67-11.3-33.91-11.3-33.91a15,15,0,0,1-5.59,5.59C30.06,58.8,21,60.47,21,60.47,6.27,62.6,9,77.77,9,77.77s-.16,58.93.74,66S2.18,177.05,2.18,177.05Z"/><path class="cls-3" d="M39.06,63.61,42.75,65l-2.46,1.73L58.63,111c-.42-7.22-5.17-28-5.17-28-.73-4.67-11.3-33.91-11.3-33.91a15,15,0,0,1-5.59,5.59Z"/><polygon class="cls-3" points="34.63 142.46 15.86 137.62 13.4 145.24 32.58 149.92 34.63 142.46"/><path class="cls-3" d="M23.89,66.73s8.53,8,5.33,25.9-8.36,37.29-8.36,37.29l13.88,38.44s-9.67,10.08-14.42,11.31L6.46,148.93S0,138.28,1.71,121.56s8-43.77,8-43.77S9.63,61.32,23.89,66.73Z"/><path class="cls-8" d="M23.25,66.73s8.52,8,5.33,25.9-8.36,37.29-8.36,37.29l13.83,38.44s-9.65,10.08-14.42,11.31L5.78,148.93S-.69,138.28,1,121.56,9,77.79,9,77.79,9,61.32,23.25,66.73Z"/><path class="cls-3" d="M33.59,169.18s-10.81,14.94-10,19,4,1.85,4,1.85l4.28-5.85,3.83-10.92S35.32,168.54,33.59,169.18Z"/><path class="cls-3" d="M34.93,169.18s-10.82,14.94-10,19,4,1.85,4,1.85l4.26-5.84L37,173.24S36.64,168.54,34.93,169.18Z"/><path class="cls-11" d="M34.27,169.18s-10.82,14.94-10,19,4,1.85,4,1.85l4.26-5.84,3.82-10.92S36,168.54,34.27,169.18Z"/></g></g></svg>