<svg xmlns="http://www.w3.org/2000/svg" viewBox="0 0 467.37 335.2"><defs><style>.cls-1{fill:#3e3c55;}.cls-2{fill:#2e2d40;}.cls-3{fill:#f6bbbb;}.cls-4{fill:#555785;}.cls-5{fill:#040000;opacity:0.4;isolation:isolate;}.cls-6{fill:#cdac70;}.cls-7{fill:#f2f2f2;}.cls-8{fill:#e6e6e5;}</style></defs><title>counselingw3</title><g id="レイヤー_2" data-name="レイヤー 2"><g id="レイヤー_1-2" data-name="レイヤー 1"><rect class="cls-1" x="405.9" y="162.25" width="4.23" height="164.24"/><path class="cls-1" d="M448.38,183c.27,57.48-40.17,104.26-40.17,104.26s-40.87-46.41-41.14-103.89S407.25,79.11,407.25,79.11,448.12,125.52,448.38,183Z"/><rect class="cls-1" x="324.63" y="239.29" width="2.12" height="84.66"/><path class="cls-1" d="M346.52,250.17c.13,29.56-20.67,53.62-20.67,53.62s-21-23.87-21.15-53.43,20.66-53.63,20.66-53.63S346.38,220.6,346.52,250.17Z"/><ellipse class="cls-1" cx="368.95" cy="326.31" rx="57.99" ry="8.89"/><path class="cls-2" d="M373.74,119.13c-4.92-8.3-14.64-8.68-14.64-8.68s-9.47-1.22-15.55,11.43c-5.66,11.78-13.47,23.16-1.25,25.92l2.2-6.87,1.37,7.38a45.65,45.65,0,0,0,5.23.09c13.09-.42,25.55.12,25.15-4.57C375.72,137.58,378.46,127.12,373.74,119.13Z"/><path class="cls-3" d="M356,134.77s6.35,8.89,2.54,16.08,8.89,14.82,8.89,14.82l9.31-20.32s-11-7.2-8-14Z"/><circle class="cls-3" cx="360.28" cy="127.57" r="11.01"/><path class="cls-3" d="M322.19,140.29l9.2-11.86s3.23-12.44,7.92-11.81-1.85,14.92-1.85,14.92l-9.14,13.13Z"/><polygon class="cls-3" points="368.74 298.16 371.7 313.82 378.05 315.51 376.36 296.89 368.74 298.16"/><polygon class="cls-3" points="432.66 281.23 444.09 296.89 448.74 299 452.55 292.66 441.13 277.84 432.66 281.23"/><path class="cls-4" d="M366.2,158.9l-7.06-9.3s-13.68,2.52-14.95,3.79,3.39,24.55,3.39,24.55.84,6.35,4.65,9.74l3.81,2.54,31.33-6.35,1.17-13.94a36.57,36.57,0,0,0-9.64-28h0l-5.45.75Z"/><path class="cls-4" d="M345.88,154.24l-2.11-.85-9.74-.84s-3.38-.85-2.54-2.54,1.7-2.12,0-2.54-2.11-.85-1.69-2.12,3-3.81,3-3.81l-7.19-5.93s-.39.28-1,.79c-3.58,2.89-14.88,13.33-6.6,23.77,9.73,12.27,21.16,19.47,30.47,16.93Z"/><path class="cls-2" d="M355.1,188.1V194s-3.81,7.19-2.54,14,1.7,10.16,1.7,10.16a57.42,57.42,0,0,0,3,16.93c3,8.46-6.77,63.92,5.5,64.76s19,1.69,22.86-2.54-6.35-77-6.35-77,34.71,72.39,41.91,69.42,25.39-9.73,23.28-13.54S389,187.68,389,187.68l-1.7-3.81Z"/><path class="cls-2" d="M375.51,310.86s-6.77-.43-6.77,1.69-3.38,9.31-3.38,9.31-2.54,8.47,4.23,7.62,11-8.46,11-8.46l-1.69-8Z"/><path class="cls-2" d="M446.2,296s-5.92-3.81-5.5-1.27.85,9.31,3.81,9.74,11.85,3,12.28,3.81,10.58,4.23,10.58-1.27-6.35-9.74-6.35-9.74l-7.2-5.5s-4.65-.42-5.5,2.54S446.2,296,446.2,296Z"/><circle class="cls-2" cx="360.29" cy="110.49" r="7.03"/><path class="cls-2" d="M352.52,108.66a7,7,0,0,1,6.29-7,6,6,0,0,0-.74,0,7,7,0,0,0-6.69,9.24,7,7,0,0,0,6.69,4.82h0l.74,0A7,7,0,0,1,352.52,108.66Z"/><polygon class="cls-2" points="371.55 118.33 361.95 113.3 348.69 115.36 345.94 127.48 352.77 127.22 354.68 122.77 354.68 127.14 357.83 127.02 359.66 119.93 360.8 127.48 372.01 127.25 371.55 118.33"/><path class="cls-3" d="M371,189.08l-14.81.4s-12.64,2.46-11.93-2.64,13-3.31,13-3.31l13.49-2.06Z"/><path class="cls-4" d="M382.71,141.25a3.14,3.14,0,0,1,3.48,2.17c2.9,9.13,11.83,39.71,3,43.9-10.45,4.94-18.08,4.73-18.08,4.73L367,182l3.71-3.49,4-25.51,1.9-10.81Z"/><polygon class="cls-5" points="380.08 158.26 378.38 175.19 363.57 181.54 380.08 177.73 380.08 158.26"/><path class="cls-1" d="M300.2,104.75h0a19.75,19.75,0,0,1,11.58,8.41l1.39,2.14.07.09,24.29,7.11a1.78,1.78,0,0,1,1.21,2.17l-1.89,6.91a1.76,1.76,0,0,1-2.17,1.24h0L310.37,126h0l-2.44.92a21.8,21.8,0,0,1-14,.48h0Z"/><ellipse class="cls-4" cx="322.97" cy="121.64" rx="1.48" ry="2.78" transform="translate(115.53 397.45) rotate(-73.69)"/><circle class="cls-1" cx="324.4" cy="122.12" r="1.02"/><ellipse class="cls-6" cx="297.12" cy="116.19" rx="11.89" ry="5.38" transform="translate(94.95 362.98) rotate(-72.03)"/><path class="cls-5" d="M301.48,117.62c1.95-6,1.42-11.62-1.15-12.84a2.36,2.36,0,0,1,.46.1c2.82.91,3.47,6.72,1.45,13s-6,10.56-8.79,9.65l-.3-.12C295.93,127.73,299.56,123.54,301.48,117.62Z"/><path class="cls-6" d="M300.52,104.77,245.4,62a365.93,365.93,0,0,1-28-24.29c-15.72-15-37.05-27-61.89-33.33-60.34-15.5-108.15,12-129.89,52.3C-7.64,118.33-33.1,218.34,114.22,165.1c32.22-11.64,64.84-12.88,89.56-19l89.55-18.46Z"/><circle class="cls-7" cx="135.02" cy="29.85" r="2.96"/><polygon class="cls-7" points="192.7 36.8 191.43 36.8 191.43 35.95 191.86 35.95 191.86 36.38 191.01 36.38 191.01 36.8 191.43 36.8 191.43 37.65 191.86 37.65 191.86 36.38 192.7 36.38 192.7 36.8"/><polygon class="cls-7" points="270.17 101.14 268.9 101.14 268.9 100.29 269.32 100.29 269.32 100.72 268.47 100.72 268.47 101.14 268.9 101.14 268.9 101.98 269.32 101.98 269.32 100.72 270.17 100.72 270.17 101.14"/><polygon class="cls-7" points="264.66 121.03 263.39 121.03 263.39 120.19 263.82 120.19 263.82 120.61 262.97 120.61 262.97 121.03 263.39 121.03 263.39 121.88 263.82 121.88 263.82 120.61 264.66 120.61 264.66 121.03"/><polygon class="cls-7" points="28.04 137.97 26.77 137.97 26.77 137.12 27.2 137.12 27.2 137.54 26.35 137.54 26.35 137.97 26.77 137.97 26.77 138.81 27.2 138.81 27.2 137.54 28.04 137.54 28.04 137.97"/><polygon class="cls-7" points="61.91 45.69 60.64 45.69 60.64 44.84 61.06 44.84 61.06 45.26 60.21 45.26 60.21 45.69 60.64 45.69 60.64 46.53 61.06 46.53 61.06 45.26 61.91 45.26 61.91 45.69"/><polygon class="cls-7" points="193.55 124.42 192.28 124.42 192.28 123.57 192.7 123.57 192.7 124 191.86 124 191.86 124.42 192.28 124.42 192.28 125.27 192.7 125.27 192.7 124 193.55 124 193.55 124.42"/><polygon class="cls-7" points="112.7 18.6 111.43 18.6 111.43 17.75 111.85 17.75 111.85 18.17 111.01 18.17 111.01 18.6 111.43 18.6 111.43 19.44 111.85 19.44 111.85 18.17 112.7 18.17 112.7 18.6"/><path class="cls-8" d="M112.87,79.44l-1,.15c.3,1.92.54,3.88.71,5.83l1-.09C113.42,83.36,113.18,81.38,112.87,79.44Z"/><path class="cls-8" d="M110.24,67.87l-.93.28c.56,1.86,1.07,3.77,1.49,5.67l1-.21C111.32,71.69,110.81,69.76,110.24,67.87Z"/><path class="cls-8" d="M106.05,56.77l-.89.41c.82,1.77,1.58,3.59,2.27,5.41l.91-.34C107.64,60.41,106.87,58.56,106.05,56.77Z"/><path class="cls-8" d="M100.37,46.36l-.82.53c1,1.64,2,3.34,3,5l.86-.46C102.45,49.74,101.43,48,100.37,46.36Z"/><path class="cls-8" d="M93.32,36.83l-.74.63c1.26,1.48,2.49,3,3.65,4.6l.78-.58C95.84,39.89,94.6,38.33,93.32,36.83Z"/><path class="cls-8" d="M85,28.34l-.64.72c1.45,1.3,2.88,2.67,4.24,4.06l.7-.68C88,31,86.51,29.65,85,28.34Z"/><path class="cls-8" d="M75.67,21.05l-.54.8c1.61,1.09,3.21,2.25,4.75,3.45l.6-.77C78.92,23.32,77.31,22.15,75.67,21.05Z"/><path class="cls-8" d="M67,16v1.11c1,.52,2,1.08,3,1.65l.49-.85C69.33,17.23,68.17,16.6,67,16Z"/><path class="cls-8" d="M112.94,91.45l1,0c0,1,0,2,0,2.94l-1,0C113,93.4,113,92.42,112.94,91.45Z"/><path class="cls-8" d="M55.73,162.83l-1,.15c.3,1.92.53,3.88.71,5.83l1-.09C56.27,166.75,56,164.77,55.73,162.83Z"/><path class="cls-8" d="M53.1,151.26l-.93.28c.56,1.86,1.06,3.77,1.49,5.67l1-.21C54.18,155.07,53.66,153.14,53.1,151.26Z"/><path class="cls-8" d="M48.9,140.16l-.88.4c.81,1.78,1.57,3.6,2.26,5.42l.91-.35C50.49,143.79,49.73,142,48.9,140.16Z"/><path class="cls-8" d="M43.23,129.75l-.82.52c1,1.65,2.05,3.35,3,5l.85-.46C45.3,133.13,44.29,131.41,43.23,129.75Z"/><path class="cls-8" d="M36.18,120.22l-.74.63c1.26,1.48,2.49,3,3.65,4.59l.78-.58C38.7,123.28,37.46,121.71,36.18,120.22Z"/><path class="cls-8" d="M27.89,111.72l-.65.73c1.46,1.3,2.89,2.67,4.24,4.06l.7-.68C30.81,114.42,29.36,113,27.89,111.72Z"/><path class="cls-8" d="M18.53,104.44l-.55.8c1.62,1.09,3.22,2.25,4.75,3.45l.61-.77C21.78,106.71,20.16,105.54,18.53,104.44Z"/><path class="cls-8" d="M9.84,99.37v1.1c1,.53,2,1.09,3,1.65l.48-.84C12.18,100.62,11,100,9.84,99.37Z"/><path class="cls-8" d="M55.79,174.84l1,0c0,1,0,2,0,2.93h-1C55.81,176.78,55.81,175.81,55.79,174.84Z"/><path class="cls-8" d="M251.29,120.92l-1,.15c.3,1.92.53,3.89.71,5.83l1-.08C251.83,124.85,251.59,122.87,251.29,120.92Z"/><path class="cls-8" d="M248.66,109.35l-.93.28c.56,1.87,1.06,3.78,1.49,5.68l.95-.22C249.74,113.17,249.23,111.24,248.66,109.35Z"/><path class="cls-8" d="M244.46,98.25l-.88.41c.81,1.77,1.57,3.59,2.26,5.41l.91-.34C246.06,101.89,245.29,100,244.46,98.25Z"/><path class="cls-8" d="M238.79,87.85l-.82.52c1.05,1.64,2.05,3.34,3,5l.86-.47C240.87,91.22,239.85,89.51,238.79,87.85Z"/><path class="cls-8" d="M231.74,78.31l-.74.63c1.26,1.48,2.49,3,3.65,4.6l.78-.58C234.26,81.37,233,79.81,231.74,78.31Z"/><path class="cls-8" d="M223.45,69.82l-.65.72c1.46,1.3,2.89,2.67,4.24,4.06l.7-.68C226.37,72.51,224.92,71.13,223.45,69.82Z"/><path class="cls-8" d="M214.09,62.53l-.55.8c1.62,1.09,3.22,2.25,4.76,3.45l.6-.77C217.34,64.8,215.72,63.63,214.09,62.53Z"/><path class="cls-8" d="M205.4,57.47v1.1c1,.53,2,1.08,3,1.65l.49-.84C207.74,58.72,206.58,58.08,205.4,57.47Z"/><path class="cls-8" d="M251.35,132.93l1,0q0,1.49,0,2.94l-1,0C251.37,134.88,251.37,133.9,251.35,132.93Z"/><polygon class="cls-7" points="63.18 85.05 62.33 85.05 62.33 83.78 62.75 83.78 62.75 84.63 61.48 84.63 61.48 85.05 62.33 85.05 62.33 85.48 62.75 85.48 62.75 84.63 63.18 84.63 63.18 85.05"/><polygon class="cls-7" points="55.13 127.81 54.29 127.81 54.29 126.96 54.29 126.96 54.29 127.81 53.44 127.81 53.44 127.81 54.29 127.81 54.29 128.65 54.29 128.65 54.29 127.81 55.13 127.81 55.13 127.81"/><polygon class="cls-7" points="30.58 166.33 29.74 166.33 29.74 165.06 30.16 165.06 30.16 165.9 28.89 165.9 28.89 166.33 29.74 166.33 29.74 166.75 30.16 166.75 30.16 165.9 30.58 165.9 30.58 166.33"/><path class="cls-1" d="M98.17,117.75a52,52,0,1,1,24.12,19.37,16.82,16.82,0,1,1-24.12-19.37Z"/><path class="cls-6" d="M141,59.2c11.92,0,20.12,6.61,20.12,16.11,0,6.29-3,10.65-8.93,14.11-5.53,3.21-7.41,5.56-7.41,9.63h0a2.51,2.51,0,0,1-2.51,2.51h-6.09a2.51,2.51,0,0,1-2.51-2.42v-.31c-.54-6.55,1.75-10.62,7.5-14,5.37-3.21,7.63-5.25,7.63-9.19s-3.82-6.83-8.55-6.83a8.15,8.15,0,0,0-7.76,4.61,5.59,5.59,0,0,1-5.12,3.21h0a5.52,5.52,0,0,1-4.93-8C125.5,62.84,131.94,59.2,141,59.2Zm-8.36,54.29a6.83,6.83,0,1,1,6.8,6.55A6.65,6.65,0,0,1,132.65,113.49Z"/></g></g></svg>