<svg xmlns="http://www.w3.org/2000/svg" viewBox="0 0 486.34 340.28"><defs><style>.cls-1,.cls-12{fill:#cdac70;}.cls-1,.cls-14,.cls-8{opacity:0.1;}.cls-1,.cls-8{isolation:isolate;}.cls-2{fill:#ababb0;}.cls-3{fill:#32323d;}.cls-4{fill:#444052;}.cls-5{fill:#49477c;}.cls-6{fill:#f5b5b5;}.cls-7{fill:#4f4e5f;}.cls-15,.cls-8{fill:#040000;}.cls-9{fill:#a96c76;}.cls-10{fill:#757a9b;}.cls-11{fill:#fff;}.cls-13{fill:#b36969;}.cls-16{fill:#454a5e;}.cls-17{fill:#9c9ba1;}.cls-18{fill:#939498;}</style></defs><title>counseling1_1</title><g id="レイヤー_2" data-name="レイヤー 2"><g id="レイヤー_1-2" data-name="レイヤー 1"><path class="cls-1" d="M206.9,13.08c-19.77-7.52-40.66-13.8-62-13-31.36,1.15-61.46,18.8-76.2,44.7-12.51,21.95-14,47.68-19.44,72-6.63,30-19.35,58.53-32.93,86.42-7.3,15-15,30.29-16.19,46.71-1.66,22.8,10,45.52,28.26,60.69S71,333.8,95.31,335.54c13,.93,26.5.07,38-5.57,12.18-6,21.06-16.76,33.29-22.65,11.33-5.45,24.58-6.21,37.3-5.51a177.32,177.32,0,0,1,48.71,9.69c17.78,6.25,34.32,15.3,52,21.63s37.56,9.87,55.7,4.58c17-5,30.5-17,42.63-29.23a518.34,518.34,0,0,0,54.38-64.32c10.95-15.35,21.14-31.54,26-49.42,9.26-34.2-3.48-72.78-31.73-96.13C428.2,79.26,396.78,70.86,366,65.77c-28-4.65-60.47-4.94-86.29-17C255.12,37.16,232.72,22.9,206.9,13.08Z"/><polygon class="cls-2" points="283.77 277.67 283.77 293.97 288.4 293.97 287.5 276.47 283.77 277.67"/><polygon class="cls-2" points="214.16 274.38 214.16 290.68 218.8 290.68 217.9 273.19 214.16 274.38"/><rect class="cls-2" x="289.15" y="247.47" width="5.98" height="29.01" rx="2.99"/><path class="cls-2" d="M215.43,241h0a3,3,0,0,1,3,3v29.45a3,3,0,0,1-3,3h0a3,3,0,0,1-3-3V244A3,3,0,0,1,215.43,241Z"/><path class="cls-2" d="M302.76,73.86s6-2.54,6.88,0S311,98.39,311,98.39H305.3Z"/><path class="cls-2" d="M237.27,73.86s-6-2.54-6.88,0S229,98.39,229,98.39h5.68Z"/><polygon class="cls-2" points="238.16 52.03 237.26 70.28 241.3 70.28 241.3 51.58 238.16 52.03"/><path class="cls-3" d="M234.72,98.39l1.2-26.32s-.45-5.83,13.75-4,55.78,5.39,55.78,5.39v25Z"/><path class="cls-3" d="M291.55,237l-2.25,40.22s-32.9,18.25-72.82.9l3.59-42.32Z"/><polygon class="cls-4" points="260.29 78.65 261.04 104.66 307.39 104.66 304.7 70.28 260.29 78.65"/><rect class="cls-5" x="221.34" y="219.8" width="43.67" height="55.32"/><path class="cls-6" d="M248.93,242.39s6.28-4.94,7.33-3.45-3.74,7.93-5.68,7.18S248.93,242.39,248.93,242.39Z"/><rect class="cls-7" x="136.6" y="96.89" width="286.63" height="143.55"/><path class="cls-3" d="M234.87,51s-2.24-20.94,0-23.48S274.8.89,309.64,29.15c0,0,3.29.16,2.69,7.63A89.89,89.89,0,0,0,312.4,51S237.42,56.37,234.87,51Z"/><path class="cls-8" d="M234.87,51s-2.24-20.94,0-23.48S274.8.89,309.64,29.15c0,0,3.29.16,2.69,7.63A89.89,89.89,0,0,0,312.4,51S237.42,56.37,234.87,51Z"/><path class="cls-3" d="M234.87,53.68s-2.24-20.94,0-23.48,39.93-26.62,74.77,1.65c0,0,3.29.15,2.69,7.62a89.89,89.89,0,0,0,.07,14.21S237.42,59.06,234.87,53.68Z"/><path class="cls-5" d="M313.67,44.11s2.4,9,1.65,10.47-.61,5.68-.61,5.68.16,2.69-1,3-2.24.44-1.27,1.34,0,2.25,0,2.25a7,7,0,0,0,0,3.44c.53,1.34-3.07,1.9-2.76,3.58s1.31,6.43,0,6.59.45,6-.73,6-2,10.47-2,10.47-8.3-7-13.83-5.08c0,0,.45-5.83,2.24-7.93s1.25-7.47,1.25-7.47l8.9-26.77Z"/><path class="cls-9" d="M269.26,167.82c-1.94,2.15-4-9.33-4-9.33s-5.53,7.63-9.12,2.55c-2.49-3.52-.53-13.5.89-19.29.64-2.58,1.18-4.33,1.18-4.33l8.07-1.34s0,1.76.21,3.89c.24,2.89.77,6.47,1.89,7.32C270.31,148.78,271.21,165.65,269.26,167.82Z"/><path class="cls-8" d="M265.08,33.49s-14.06-.15-17.5,7.33S244,50.84,242.65,52s14.65,7.48,14.65,7.48l.75,25.72a8.54,8.54,0,0,1,8.22-1.74c5.09,1.44,11.52,0,11.52,0s-.3-.55,3.89,0S299.17,77,299.17,77s.22-11.25-.07-13.64,9.49-20,9.49-20,7.62-7.33-.3-9.87c0,0-2.8-4.22-10-4.18S265.08,33.49,265.08,33.49Z"/><path class="cls-5" d="M265.08,33s-14.06-.15-17.5,7.33-3.58,10-4.93,11.21,14.65,7.48,14.65,7.48l.75,25.72A8.54,8.54,0,0,1,266.27,83c5.09,1.44,11.52,0,11.52,0s-.3-.54,3.89,0,17.49-6.48,17.49-6.48,5.23-8.53,4.94-10.92,10.46-20.49,10.46-20.49,1.65-9.56-6.28-12.11c0,0-2.8-4.22-10-4.18S265.08,33,265.08,33Z"/><path class="cls-8" d="M266.5,140c-3.08-1-7.92,1.16-9.46,1.79.64-2.57,1.18-4.32,1.18-4.32l8.07-1.35S266.3,137.84,266.5,140Z"/><path class="cls-5" d="M247,51.58h-4.33s-.9,9.13,0,11.82,1.35,2.3,1,4.29,2.09,5,2.09,5,.3,7.52,1.79,10.32-1.64,15.35-1.64,15.35a18,18,0,0,0,3.73,5.83c2.55,2.54,3.89,12,3.15,15.55a4.32,4.32,0,0,0,2.09,4.94s1.2,16.75,1.65,16.75,9.12-4.49,11.81-.6l-2.1-15.4.16-29.76s-2.85-3.74-1.35-7-1.2-11.07-1.2-11.07L260,60.27Z"/><path class="cls-3" d="M220.07,288s-6.28-1.35-6.43,0-7.48,15.1,1.65,19.14,33.49,12.71,73.12,1.49c0,0,2.53.9,1.94-4.63s-.6-11.66-.6-11.66-6-1.65-10.47-1.05S235.77,299.8,220.07,288Z"/><path class="cls-8" d="M220.07,288s-6.28-1.35-6.43,0-7.48,15.1,1.65,19.14,33.49,12.71,73.12,1.49c0,0,2.53.9,1.94-4.63s-.6-11.66-.6-11.66-6-1.65-10.47-1.05S235.77,299.8,220.07,288Z"/><path class="cls-3" d="M220.07,286.19s-6.28-1.34-6.43,0-7.48,15.11,1.65,19.15,33.49,12.7,73.12,1.49c0,0,2.53.9,1.94-4.63s-.6-11.67-.6-11.67-6-1.64-10.47-1S235.77,298,220.07,286.19Z"/><path class="cls-4" d="M256.69,57c-.38,2.19-1.26,4.3-1.39,6.52s.72,4.75,2.77,5.62a9.06,9.06,0,0,1,1.65.67A3.61,3.61,0,0,1,261,72.25a13.84,13.84,0,0,1,.16,3.69c-.11,1.23-.38,2.57.23,3.65,1.07,1.91,3.87,1.63,6,1.09l-.74,5.67a1.45,1.45,0,0,0,.24,1.26,1.4,1.4,0,0,0,1.07.23,11.43,11.43,0,0,0,5.34-1.34,4.81,4.81,0,0,0,2.46-4.61c-.35-2.12-2.54-3.8-2.24-5.93.23-1.65,1.84-2.69,2.9-4a7.62,7.62,0,0,0,.51-8.45A9.61,9.61,0,0,0,269.54,59c-1.66-.16-3.38,0-4.94-.54a3.72,3.72,0,0,1-2.28-2.41"/><path class="cls-10" d="M204.52,256.44l1.57-3.41s8.45-7.87,10.39-8.42,9.87-3,11.07-3,23-1.2,23-1.2l2.54,6-27.4,6-9.24,6.73Z"/><path class="cls-6" d="M270.35,164.63l-1.43,11-.55,4.24-6.43.9s-.7-1.49-1.68-3.78c-3-6.94-8.6-21.26-5.34-23.74,4.33-3.29,5.38,7.63,5.38,7.63l4.94-2.4Z"/><rect class="cls-11" x="236.81" y="185.11" width="32.46" height="49.04"/><rect class="cls-8" x="236.81" y="185.11" width="32.46" height="49.04"/><rect class="cls-11" x="239.7" y="193.42" width="49.04" height="32.46" transform="translate(18.18 440.37) rotate(-81.59)"/><rect class="cls-12" x="248.58" y="193" width="25.24" height="16.71" transform="translate(23.8 430.29) rotate(-81.59)"/><rect class="cls-12" x="256.19" y="213.79" width="5.48" height="20.24" transform="translate(-0.45 447.31) rotate(-81.59)"/><circle class="cls-8" cx="277.79" cy="42.61" r="18.76"/><circle class="cls-9" cx="277.79" cy="42.16" r="18.76"/><path class="cls-4" d="M262.32,56.07a2.08,2.08,0,0,1,.13-1.45c.71-1.48,2.74-1.61,4.39-1.54,3.87.18,8.12.2,11.15-2.24,1.25-1,2.66-3.53,4.48-3.05,1.63.42,2.3,2.63,4,3.12,1.23.35,2.5-.22,3.74-.45a26.92,26.92,0,0,1,5.46-.05,6.68,6.68,0,0,0,5-1.66c1.68-1.8,1.41-4.6,1.26-7.06a37.69,37.69,0,0,1,.64-9.48c.61-3.11,1.55-6.58-.17-9.24s-5-3.23-7.32-5.17-3.31-4.67-5.59-6.33c-2.88-2.1-6.78-1.8-10.32-1.44l-7.67.82c-2,.21-4,.45-5.67,1.63-2.93,2.13-3.34,6.54-6.12,8.87a25.11,25.11,0,0,1-4.23,2.32c-1.42.77-2.78,2-2.94,3.59-.14,1.34.59,2.58.94,3.88.84,3.1-.47,6.28-1.31,9.4s-1,6.9,1.44,9c.49.42,1.07.75,1.55,1.18,1.64,1.51,1.87,4,1.49,6.23"/><ellipse class="cls-4" cx="279.32" cy="64.48" rx="0.45" ry="1.12"/><ellipse class="cls-4" cx="279.32" cy="69.15" rx="0.45" ry="1.12"/><path class="cls-9" d="M269.37,167.79a8.17,8.17,0,0,0,1-3.84L265,157.28S267.27,170.21,269.37,167.79Z"/><path class="cls-8" d="M275.4,278s-8.78,13.57-36.19,12.11c-25.83-1.34-38.43-14.05-37.83-18.54s-1.65-15.4,3.88-18.54c3.21-1.82,7.43-.74,10.41.49a5.89,5.89,0,0,0,6.18-1.11c2.72-2.45,7.8-5.22,15.82-3a5.78,5.78,0,0,0,3.14-.06c3.33-1,11.28-2.79,17,1.14a5.86,5.86,0,0,0,6.25.24l.08,0c2.69-1.65,15.25,13.9,15.25,13.9S280,276.48,275.4,278Z"/><path class="cls-10" d="M275.4,278.42s-8.78,13.57-36.19,12.11c-25.83-1.34-38.43-14-37.83-18.54s-1.65-15.4,3.88-18.54c3.21-1.82,7.43-.74,10.41.49a5.89,5.89,0,0,0,6.18-1.11c2.72-2.46,7.8-5.22,15.82-3a5.78,5.78,0,0,0,3.14-.06c3.33-1,11.28-2.79,17,1.14a5.86,5.86,0,0,0,6.25.24l.08-.05c2.69-1.65,15.25,13.9,15.25,13.9S280,276.93,275.4,278.42Z"/><circle class="cls-8" cx="239.21" cy="265.86" r="17.87"/><circle class="cls-6" cx="239.21" cy="266.31" r="17.87"/><path class="cls-13" d="M234.09,250.86a7.45,7.45,0,0,0-4.64,3.07c-.55,1-.75,2.11-1.55,2.91-1.13,1.13-3,1.16-4.56,1.79s-2.54,2.88-1,3.59a3.34,3.34,0,0,0-2.91,2.95,8.74,8.74,0,0,0,.87,4.22c1.71,4.42,3.56,9,7.34,12.17,6.15,5.12,15.43,4.88,23.69,4.34a3.89,3.89,0,0,0,2-.45c.89-.59,1-1.73,1.15-2.72.63-4.26,2.93-8.12,4.44-12.18s2.13-8.83-.41-12.42C254.68,252.8,240.38,249.15,234.09,250.86Z"/><path class="cls-8" d="M268.92,175.64l-.55,4.24-6.43.9s-.7-1.49-1.68-3.78l8.56-1.61Z"/><path class="cls-10" d="M275.69,269.3l3.74-4.34L278.69,241a40.29,40.29,0,0,0,.74-5.24c.15-2.54-1.87-8.22-1.87-8.22a18.49,18.49,0,0,1,1.27-3.29c.9-1.8-1.26-5.83-1.26-5.83s-3.22-10.47-1.88-15.7-.32-8.23-.32-8.23-1.32-5.83-1.17-8.22-3-4.64-3-4.64l-2.39-5.83-9.57,1.8v20.18s.59,19.29,0,23a13.68,13.68,0,0,0,1.19,7.33s-1,5.53-.15,7.62S263,243,263,243a11.6,11.6,0,0,0,.31,5.46,5.14,5.14,0,0,1,0,4.11Z"/><g class="cls-14"><path class="cls-15" d="M302.61,30.73a38.09,38.09,0,0,0-.67,8,37.84,37.84,0,0,1,.69-6.62,25.19,25.19,0,0,0,.79-6.12A36.55,36.55,0,0,1,302.61,30.73Z"/><path class="cls-15" d="M255.2,49.25c-.48-.45-1-.76-1.55-1.19a6.16,6.16,0,0,1-2-4.48c-.13,2.24.33,4.41,2,5.83.5.42,1.07.75,1.55,1.19a5.49,5.49,0,0,1,1.63,3.74A6.18,6.18,0,0,0,255.2,49.25Z"/><path class="cls-15" d="M253.77,32.5a8.37,8.37,0,0,0-.24-2.82c-.26-1-.73-1.9-.9-2.86a1.92,1.92,0,0,1,0,.32c-.13,1.35.6,2.59.95,3.88A7.49,7.49,0,0,1,253.77,32.5Z"/><path class="cls-15" d="M300.72,47.27c-1.25,1.35-3.23,1.68-5.05,1.67a26.11,26.11,0,0,0-5.45.05c-1.25.25-2.52.81-3.74.44-1.69-.48-2.37-2.69-4-3.11-1.84-.49-3.25,2-4.49,3-3,2.42-7.27,2.4-11.14,2.25-1.65-.08-3.68,0-4.39,1.54a2.07,2.07,0,0,0-.13,1.45l-5.48.86a10,10,0,0,1-.15,1.34l5.63-.89a2.07,2.07,0,0,1,.13-1.45c.71-1.49,2.74-1.62,4.39-1.54,3.87.17,8.12.2,11.14-2.25,1.26-1,2.66-3.53,4.49-3,1.62.42,2.3,2.63,4,3.11,1.22.35,2.49-.21,3.74-.44a26.11,26.11,0,0,1,5.45,0,6.77,6.77,0,0,0,5.05-1.67c1.24-1.33,1.42-3.32,1.34-5.26A5.83,5.83,0,0,1,300.72,47.27Z"/></g><g class="cls-14"><path class="cls-15" d="M259.19,68.82a8.91,8.91,0,0,0-1.66-.68,4.27,4.27,0,0,1-2.16-2.21A4.78,4.78,0,0,0,258,69.49a9.61,9.61,0,0,1,1.66.67,2.45,2.45,0,0,1,.79.93A3.44,3.44,0,0,0,259.19,68.82Z"/><path class="cls-15" d="M266.85,79.73c-2.07.53-4.77.8-5.9-1a3,3,0,0,0,.36,1.2c1,1.73,3.33,1.67,5.35,1.25Z"/><path class="cls-15" d="M275.23,81a4.8,4.8,0,0,1-2.47,4.59,11.7,11.7,0,0,1-5.33,1.35,1.85,1.85,0,0,1-.87-.1,1.07,1.07,0,0,0,.54,1.41,1.1,1.1,0,0,0,.78,0,11.49,11.49,0,0,0,5.33-1.35,4.8,4.8,0,0,0,2.47-4.61A5.22,5.22,0,0,0,275.23,81Z"/></g><g class="cls-14"><path class="cls-15" d="M223.34,259.32c1.53-.63,3.43-.65,4.57-1.79.8-.8,1-1.95,1.54-2.91a7.42,7.42,0,0,1,4.64-3.07c6.28-1.7,20.6,1.94,24.33,7.22a9.83,9.83,0,0,1,1.71,5.42,10.11,10.11,0,0,0-1.71-6.31c-3.73-5.28-18-8.92-24.33-7.22a7.41,7.41,0,0,0-4.63,3.07c-.55,1-.75,2.11-1.55,2.91-1.13,1.13-3,1.15-4.56,1.79-1.16.48-2,1.9-1.71,2.85A3.07,3.07,0,0,1,223.34,259.32Z"/><path class="cls-15" d="M219.4,265.84a3.32,3.32,0,0,1,2.91-2.95,1.18,1.18,0,0,1-.69-.77,3.48,3.48,0,0,0-2.24,2.82,4.05,4.05,0,0,0,0,1.1A.65.65,0,0,0,219.4,265.84Z"/></g><rect class="cls-11" x="273.6" y="103.28" width="40.82" height="53.23"/><rect class="cls-8" x="273.6" y="103.28" width="40.82" height="53.23"/><rect class="cls-11" x="294" y="109.48" width="40.82" height="53.23" transform="translate(-18.52 55.27) rotate(-9.76)"/><rect class="cls-12" x="300.53" y="148.18" width="9.59" height="12.51" transform="translate(-21.76 53.99) rotate(-9.76)"/><rect class="cls-12" x="313.61" y="145.93" width="9.59" height="12.51" transform="translate(-21.19 56.18) rotate(-9.76)"/><rect class="cls-12" x="298.98" y="129.91" width="33.63" height="12.56" transform="translate(-18.49 55.41) rotate(-9.74)"/><rect class="cls-12" x="295.39" y="115.2" width="33.63" height="2.8" transform="translate(-15.23 54.52) rotate(-9.74)"/><rect class="cls-12" x="296.48" y="120.28" width="33.63" height="2.8" transform="translate(-16.07 54.78) rotate(-9.74)"/><path class="cls-9" d="M296.55,88.82s-18.76,18.84-9.34,23.62,15.55-15.92,15.55-15.92l1.49-4.71Z"/><path class="cls-8" d="M294.91,87.15l-2.32,5.12s11.44,1.61,13.83,5.07l-1.42-9-1.68-3.86Z"/><path class="cls-5" d="M295.36,86.7,293,91.83s11.44,1.6,13.83,5.06l-1.42-9L303.77,84Z"/><polygon class="cls-16" points="364.6 180.89 364.36 181.06 364.7 181.22 365.06 181.19 365.11 180.93 364.6 180.89"/><polygon class="cls-8" points="364.6 180.89 364.36 181.06 364.7 181.22 365.06 181.19 365.11 180.93 364.6 180.89"/><polygon class="cls-17" points="364.6 180.89 364.35 181.05 364.15 180.81 364.28 180.62 364.39 180.58 364.6 180.89"/><polygon class="cls-8" points="364.6 180.89 364.35 181.05 364.15 180.81 364.28 180.62 364.39 180.58 364.6 180.89"/><path class="cls-17" d="M408.76,149.89l-18.37-26.52a2.19,2.19,0,0,0-3-.57h0L346.41,150.9a2.21,2.21,0,0,0-.57,3l18.32,26.86Z"/><path class="cls-8" d="M408.76,149.89l-18.37-26.52a2.19,2.19,0,0,0-3-.57h0L346.41,150.9a2.21,2.21,0,0,0-.57,3l18.32,26.86Z"/><path class="cls-17" d="M409.21,150l-18.37-26.52a2.18,2.18,0,0,0-3-.56h0L346.86,151a2.19,2.19,0,0,0-.57,3l18.31,26.88Z"/><path class="cls-16" d="M424.56,155.2l-15.26-4.9-44.6,30.92,15.49,5.07a2.37,2.37,0,0,0,2.08-.31L424.68,156a.44.44,0,0,0,.17-.61A.4.4,0,0,0,424.56,155.2Z"/><path class="cls-8" d="M424.56,155.2l-15.26-4.9-44.6,30.92,15.49,5.07a2.37,2.37,0,0,0,2.08-.31L424.68,156a.44.44,0,0,0,.17-.61A.4.4,0,0,0,424.56,155.2Z"/><path class="cls-16" d="M424.46,154.89,409.21,150,364.6,180.91,380.1,186a2.34,2.34,0,0,0,2.07-.31l42.42-29.95a.45.45,0,0,0,.15-.62A.45.45,0,0,0,424.46,154.89Z"/><g class="cls-14"><path class="cls-15" d="M402,148.77l-1.12-1.62a.45.45,0,0,0-.61-.11l-1.68,1.12a.45.45,0,0,0-.12.61l1,1.59a.44.44,0,0,0,.6.13l1.77-1.11A.45.45,0,0,0,402,148.77Z"/><path class="cls-15" d="M399,150.85l-1.13-1.61a.45.45,0,0,0-.61-.11l-1.67,1.12a.46.46,0,0,0-.13.61l1,1.59a.45.45,0,0,0,.6.14l1.77-1.11a.44.44,0,0,0,.13-.62Z"/><path class="cls-15" d="M395.84,153l-1.13-1.61a.45.45,0,0,0-.61-.12l-1.68,1.13a.46.46,0,0,0-.12.61l1,1.59a.45.45,0,0,0,.61.13l1.76-1.11a.44.44,0,0,0,.13-.62Z"/><path class="cls-15" d="M392.64,155.25l-1.13-1.61a.46.46,0,0,0-.61-.12l-1.67,1.14a.44.44,0,0,0-.12.6l1,1.59a.45.45,0,0,0,.6.14l1.76-1.11a.45.45,0,0,0,.13-.63Z"/><path class="cls-15" d="M389.45,157.46l-1.13-1.61a.46.46,0,0,0-.61-.11L386,156.87a.44.44,0,0,0-.13.6l1,1.59a.45.45,0,0,0,.6.14l1.77-1.11a.45.45,0,0,0,.13-.62Z"/><path class="cls-15" d="M386.39,159.88l-1.4-2a.2.2,0,0,0-.28-.06h0l-2.05,1.39a.21.21,0,0,0-.06.28h0l1.29,2a.21.21,0,0,0,.28.06l2.17-1.34a.21.21,0,0,0,.08-.29Z"/><path class="cls-15" d="M383.2,162.09l-1.42-2a.2.2,0,0,0-.28-.06h0l-2.06,1.39a.2.2,0,0,0-.05.28l1.29,2a.19.19,0,0,0,.27.07h0l2.17-1.34a.2.2,0,0,0,.09-.27A.05.05,0,0,0,383.2,162.09Z"/><path class="cls-15" d="M380.37,164.05l-1.41-2a.2.2,0,0,0-.28,0l-2.05,1.38a.21.21,0,0,0-.06.29l1.28,2a.22.22,0,0,0,.29.07l2.17-1.35a.2.2,0,0,0,.1-.27S380.38,164.07,380.37,164.05Z"/><path class="cls-15" d="M377.2,166.24l-1.4-2a.22.22,0,0,0-.29-.05l-2.05,1.38a.2.2,0,0,0-.06.28h0l1.29,2a.21.21,0,0,0,.28.07l2.17-1.35a.21.21,0,0,0,.08-.29Z"/><path class="cls-15" d="M374.13,168.35l-1.4-2a.2.2,0,0,0-.28-.06h0l-2.05,1.39a.21.21,0,0,0-.06.28h0l1.29,2a.21.21,0,0,0,.28.06l2.17-1.34a.21.21,0,0,0,.08-.29S374.14,168.35,374.13,168.35Z"/><path class="cls-15" d="M371.06,170.49l-1.39-2a.2.2,0,0,0-.28-.05l-2.05,1.38a.19.19,0,0,0-.06.28h0l1.28,2a.22.22,0,0,0,.29.07L371,170.8a.22.22,0,0,0,.06-.29Z"/><path class="cls-15" d="M368,172.61l-1.4-2a.2.2,0,0,0-.28-.05h0l-2.06,1.37a.21.21,0,0,0-.06.28h0l1.29,2a.21.21,0,0,0,.28.06l2.18-1.35a.21.21,0,0,0,.07-.28Z"/><path class="cls-15" d="M400,145.85l-1.13-1.62a.45.45,0,0,0-.61-.11l-1.65,1.13a.46.46,0,0,0-.13.61l1,1.59a.44.44,0,0,0,.6.13l1.77-1.11A.45.45,0,0,0,400,145.85Z"/><path class="cls-15" d="M395.56,139.47l-1.13-1.63a.44.44,0,0,0-.6-.11l-1.67,1.13a.44.44,0,0,0-.13.6l1,1.59a.45.45,0,0,0,.6.14l1.77-1.11A.44.44,0,0,0,395.56,139.47Z"/><path class="cls-15" d="M397,147.93l-1.13-1.61a.44.44,0,0,0-.6-.11l-1.68,1.12a.47.47,0,0,0-.12.61l1,1.59a.46.46,0,0,0,.61.14l1.77-1.11a.45.45,0,0,0,.13-.62Z"/><path class="cls-15" d="M393.82,150.12l-1.14-1.62a.45.45,0,0,0-.61-.11l-1.66,1.12a.45.45,0,0,0-.13.61l1,1.59a.44.44,0,0,0,.6.13l1.77-1.11A.45.45,0,0,0,393.82,150.12Z"/><path class="cls-15" d="M390.62,152.33l-1.13-1.61a.45.45,0,0,0-.61-.12l-1.67,1.15a.44.44,0,0,0-.12.6l1,1.6a.47.47,0,0,0,.61.13l1.76-1.11a.45.45,0,0,0,.14-.62Z"/><path class="cls-15" d="M392.63,141.65,391.5,140a.45.45,0,0,0-.61-.11l-1.67,1.12a.46.46,0,0,0-.13.61l1,1.59a.45.45,0,0,0,.6.14l1.77-1.11a.44.44,0,0,0,.13-.62Z"/><path class="cls-15" d="M389.47,143.84l-1.13-1.62a.45.45,0,0,0-.61-.11l-1.67,1.12a.44.44,0,0,0-.13.6l1,1.59a.45.45,0,0,0,.61.13l1.76-1.1A.46.46,0,0,0,389.47,143.84Z"/><path class="cls-15" d="M386.27,146.05l-1.13-1.61a.47.47,0,0,0-.61-.12l-1.67,1.15a.44.44,0,0,0-.12.6l1,1.6a.44.44,0,0,0,.6.13l1.76-1.11a.45.45,0,0,0,.14-.62Z"/><path class="cls-15" d="M387.42,154.54l-1.13-1.61a.44.44,0,0,0-.6-.11L384,154a.43.43,0,0,0-.12.6l1,1.59a.46.46,0,0,0,.61.14l1.76-1.11a.44.44,0,0,0,.13-.62Z"/><path class="cls-15" d="M384.23,156.75l-1.13-1.61a.45.45,0,0,0-.61-.11l-1.67,1.13a.44.44,0,0,0-.13.6l1,1.6a.46.46,0,0,0,.61.13l1.76-1.11a.44.44,0,0,0,.13-.62Z"/><path class="cls-15" d="M381.17,159.17l-1.4-2a.2.2,0,0,0-.28-.06h0l-2.06,1.39a.21.21,0,0,0-.06.28h0l1.29,2a.21.21,0,0,0,.28.07h0l2.18-1.34a.21.21,0,0,0,.07-.28Z"/><path class="cls-15" d="M378.34,161.13l-1.4-2a.21.21,0,0,0-.28-.05l-2.05,1.39a.2.2,0,0,0-.06.28l1.29,2a.21.21,0,0,0,.28.06l2.17-1.34a.2.2,0,0,0,.08-.27A.05.05,0,0,0,378.34,161.13Z"/><path class="cls-15" d="M375.18,163.32l-1.41-2a.2.2,0,0,0-.28,0l-2.05,1.38a.2.2,0,0,0-.07.28h0l1.28,2a.22.22,0,0,0,.29.07l2.17-1.35a.21.21,0,0,0,.07-.29S375.18,163.33,375.18,163.32Z"/><path class="cls-15" d="M372.11,165.44l-1.41-2a.2.2,0,0,0-.28-.05h0l-2.05,1.37a.2.2,0,0,0-.06.28h0l1.29,2a.21.21,0,0,0,.28.06l2.17-1.34a.21.21,0,0,0,.06-.29Z"/><path class="cls-15" d="M391.71,147.08l-1.13-1.61a.44.44,0,0,0-.6-.11l-1.68,1.13a.44.44,0,0,0-.12.6l1,1.59a.44.44,0,0,0,.6.13l1.77-1.1a.46.46,0,0,0,.13-.62Z"/><path class="cls-15" d="M388.51,149.29l-1.13-1.61a.44.44,0,0,0-.61-.11l-1.67,1.13a.44.44,0,0,0-.12.6l1,1.6a.46.46,0,0,0,.61.13l1.77-1.11a.45.45,0,0,0,.12-.62Z"/><path class="cls-15" d="M385.32,151.51l-1.13-1.61a.45.45,0,0,0-.61-.12l-1.67,1.13a.44.44,0,0,0-.12.6l1,1.6a.45.45,0,0,0,.61.13l1.76-1.11a.45.45,0,0,0,.14-.62Z"/><path class="cls-15" d="M382.13,153.72,381,152.11a.45.45,0,0,0-.6-.12l-1.67,1.13a.46.46,0,0,0-.13.61l1,1.61a.45.45,0,0,0,.6.13l1.77-1.11a.44.44,0,0,0,.14-.61Z"/><path class="cls-15" d="M379.09,156.13l-1.4-2a.21.21,0,0,0-.28-.06h0l-2.06,1.38a.22.22,0,0,0-.06.29l1.29,2a.21.21,0,0,0,.28.06h0l2.17-1.35a.2.2,0,0,0,.08-.28Z"/><path class="cls-15" d="M376.24,158.09l-1.4-2a.21.21,0,0,0-.29-.05l-2.05,1.38a.22.22,0,0,0-.06.29l1.29,2a.2.2,0,0,0,.28.07l2.18-1.35a.21.21,0,0,0,.07-.28Z"/><path class="cls-15" d="M373.08,160.27l-1.41-2a.2.2,0,0,0-.28-.05l-2.06,1.38a.22.22,0,0,0-.06.29l1.29,2a.21.21,0,0,0,.29.07l2.16-1.35a.2.2,0,0,0,.09-.27Z"/><path class="cls-15" d="M370,162.41l-1.41-2a.2.2,0,0,0-.28-.06h0l-2.06,1.39a.2.2,0,0,0-.05.28l1.29,2a.2.2,0,0,0,.27.07h0l2.17-1.34a.21.21,0,0,0,.08-.28Z"/><path class="cls-15" d="M369,167.57l-1.4-2a.21.21,0,0,0-.29,0l-2.05,1.38a.2.2,0,0,0-.06.28h0l1.29,2a.22.22,0,0,0,.28.07l2.17-1.35a.21.21,0,0,0,.08-.29Z"/><path class="cls-15" d="M366,169.69l-1.4-2a.2.2,0,0,0-.28-.05h0l-2,1.38a.21.21,0,0,0-.06.28h0l1.29,2a.2.2,0,0,0,.28.07l2.17-1.35a.2.2,0,0,0,.08-.28Z"/><path class="cls-15" d="M370.79,157l-1.35-1.89a.27.27,0,0,0-.38-.06l-1.94,1.3a.27.27,0,0,0-.07.38h0l1.21,1.87a.28.28,0,0,0,.37.09h0l2.05-1.29a.28.28,0,0,0,.11-.37Z"/><path class="cls-15" d="M367.72,159.11l-1.32-1.89a.27.27,0,0,0-.38-.07h0l-1.94,1.33a.26.26,0,0,0-.08.37h0l1.21,1.87a.29.29,0,0,0,.38.09l2.05-1.29a.28.28,0,0,0,.1-.38Z"/><path class="cls-15" d="M364.65,161.23l-1.32-1.89a.27.27,0,0,0-.38-.06l-1.94,1.3a.27.27,0,0,0-.08.38h0l1.21,1.86a.27.27,0,0,0,.37.09h0l2.05-1.29a.27.27,0,0,0,.09-.37Z"/><path class="cls-15" d="M361.62,163.41l-1.4-2a.2.2,0,0,0-.28,0l-2.06,1.38a.22.22,0,0,0-.06.29l1.29,2a.22.22,0,0,0,.29.07l2.17-1.35a.21.21,0,0,0,.09-.26A.1.1,0,0,0,361.62,163.41Z"/><path class="cls-15" d="M397.93,142.71,396.72,141a.45.45,0,0,0-.61-.11l-4.75,3.33a.45.45,0,0,0-.12.6l1.15,1.77a.45.45,0,0,0,.62.12h0l4.82-3.37A.44.44,0,0,0,397.93,142.71Z"/><path class="cls-15" d="M366.93,164.47l-1.49-2.11a.2.2,0,0,0-.28-.05h0L360,165.9a.2.2,0,0,0,0,.28l1.4,2.17a.21.21,0,0,0,.28.06h0l5.21-3.64A.21.21,0,0,0,366.93,164.47Z"/><path class="cls-15" d="M383.23,148.37l-1.37-2a.21.21,0,0,0-.29-.06L370.2,154a.2.2,0,0,0-.06.28l1.4,2.16a.22.22,0,0,0,.29.06h0l11.34-7.83a.2.2,0,0,0,.06-.28Z"/></g><path class="cls-16" d="M402.3,148.82l-1.13-1.61a.44.44,0,0,0-.61-.11l-1.67,1.13a.44.44,0,0,0-.12.6l1,1.59a.46.46,0,0,0,.61.14l1.77-1.11a.45.45,0,0,0,.12-.62Z"/><path class="cls-16" d="M399.28,150.9l-1.13-1.61a.45.45,0,0,0-.61-.11l-1.67,1.13a.44.44,0,0,0-.13.6l1,1.6a.45.45,0,0,0,.61.13l1.76-1.11a.44.44,0,0,0,.13-.62Z"/><path class="cls-16" d="M396.14,153.09,395,151.48a.45.45,0,0,0-.61-.11l-1.67,1.13a.46.46,0,0,0-.13.61l1,1.59a.45.45,0,0,0,.61.13l1.76-1.11a.44.44,0,0,0,.13-.62Z"/><path class="cls-16" d="M392.94,155.31l-1.13-1.62a.45.45,0,0,0-.61-.11l-1.67,1.13a.44.44,0,0,0-.12.62h0l1,1.59a.44.44,0,0,0,.6.13l1.76-1.11a.44.44,0,0,0,.14-.62Z"/><path class="cls-16" d="M389.74,157.52l-1.13-1.61a.44.44,0,0,0-.6-.12l-1.68,1.13a.45.45,0,0,0-.12.61l1,1.59a.45.45,0,0,0,.61.13l1.77-1.11a.45.45,0,0,0,.12-.62Z"/><path class="cls-16" d="M386.69,159.93l-1.41-2a.21.21,0,0,0-.28-.06h0L383,159.26a.19.19,0,0,0-.06.28h0l1.29,2a.2.2,0,0,0,.28.07l2.17-1.35a.21.21,0,0,0,.08-.28Z"/><path class="cls-16" d="M383.49,162.14l-1.4-2a.21.21,0,0,0-.29,0h0l-2.05,1.38a.21.21,0,0,0-.06.28h0l1.29,2a.21.21,0,0,0,.28.06h0l2.17-1.35a.21.21,0,0,0,.08-.29Z"/><path class="cls-16" d="M380.66,164.1l-1.4-2a.21.21,0,0,0-.28,0l-2.06,1.36a.22.22,0,0,0-.06.29l1.29,2a.21.21,0,0,0,.28.06l2.17-1.35a.2.2,0,0,0,.07-.28Z"/><path class="cls-16" d="M377.5,166.3l-1.41-2a.2.2,0,0,0-.28-.05l-2.06,1.38a.21.21,0,0,0-.05.29h0l1.28,2a.22.22,0,0,0,.29.06l2.17-1.35a.2.2,0,0,0,.09-.27Z"/><path class="cls-16" d="M374.43,168.42l-1.41-2a.2.2,0,0,0-.28-.06h0l-2.05,1.39a.19.19,0,0,0-.06.28h0l1.29,2a.2.2,0,0,0,.27.07h0l2.17-1.34a.21.21,0,0,0,.08-.28S374.43,168.43,374.43,168.42Z"/><path class="cls-16" d="M371.36,170.54l-1.41-2a.2.2,0,0,0-.28,0l-2.05,1.38a.21.21,0,0,0-.06.29l1.29,2a.21.21,0,0,0,.28.06l2.17-1.35a.21.21,0,0,0,.08-.28Z"/><path class="cls-16" d="M368.29,172.67l-1.4-2a.2.2,0,0,0-.28-.06h0L364.55,172a.21.21,0,0,0-.06.28h0l1.29,2a.21.21,0,0,0,.28.06h0l2.17-1.34a.21.21,0,0,0,.08-.29S368.3,172.67,368.29,172.67Z"/><path class="cls-16" d="M400.28,145.92l-1.13-1.62a.45.45,0,0,0-.61-.11l-1.67,1.13a.45.45,0,0,0-.12.61l1,1.59a.45.45,0,0,0,.61.13l1.76-1.11a.44.44,0,0,0,.13-.62Z"/><path class="cls-16" d="M395.86,139.52l-1.13-1.61a.45.45,0,0,0-.61-.11l-1.67,1.12a.46.46,0,0,0-.12.61l1,1.59a.45.45,0,0,0,.6.14l1.77-1.11a.46.46,0,0,0,.13-.62Z"/><path class="cls-16" d="M397.27,148l-1.13-1.61a.45.45,0,0,0-.61-.12l-1.67,1.13a.44.44,0,0,0-.12.6l1,1.6a.45.45,0,0,0,.6.13l1.76-1.11A.45.45,0,0,0,397.27,148Z"/><path class="cls-16" d="M394.11,150.17,393,148.56a.45.45,0,0,0-.61-.11l-1.67,1.12a.45.45,0,0,0-.12.61l1,1.6a.47.47,0,0,0,.61.13L394,150.8a.44.44,0,0,0,.11-.63Z"/><path class="cls-16" d="M390.92,152.39l-1.13-1.62a.45.45,0,0,0-.61-.11l-1.67,1.13a.44.44,0,0,0-.13.6l1,1.6a.44.44,0,0,0,.6.13l1.77-1.11a.44.44,0,0,0,.13-.62Z"/><path class="cls-16" d="M392.92,141.7l-1.13-1.62a.44.44,0,0,0-.6-.11l-1.68,1.13a.45.45,0,0,0-.12.6l1,1.6a.45.45,0,0,0,.6.13l1.77-1.11A.45.45,0,0,0,392.92,141.7Z"/><path class="cls-16" d="M389.76,143.89l-1.13-1.61a.44.44,0,0,0-.6-.11l-1.67,1.13a.44.44,0,0,0-.13.6l1,1.59a.45.45,0,0,0,.6.14l1.77-1.11a.45.45,0,0,0,.13-.62Z"/><path class="cls-16" d="M386.57,146.1l-1.13-1.61a.45.45,0,0,0-.61-.11l-1.67,1.13a.43.43,0,0,0-.12.6l1,1.6a.46.46,0,0,0,.61.14l1.76-1.12a.45.45,0,0,0,.14-.62Z"/><path class="cls-16" d="M387.72,154.6,386.59,153a.46.46,0,0,0-.61-.12L384.31,154a.45.45,0,0,0-.12.61l1,1.59a.45.45,0,0,0,.61.13l1.76-1.11A.44.44,0,0,0,387.72,154.6Z"/><path class="cls-16" d="M384.52,156.81l-1.13-1.61a.44.44,0,0,0-.6-.11l-1.67,1.14a.45.45,0,0,0-.13.61l1,1.59a.45.45,0,0,0,.6.14l1.77-1.11a.45.45,0,0,0,.15-.62Z"/><path class="cls-16" d="M381.47,159.22l-1.4-2a.2.2,0,0,0-.28-.05h0l-2,1.38a.2.2,0,0,0-.06.28h0l1.29,2a.19.19,0,0,0,.27.07h0l2.17-1.35a.2.2,0,0,0,.05-.29Z"/><path class="cls-16" d="M378.64,161.17l-1.4-2a.22.22,0,0,0-.29,0l-2.05,1.39a.21.21,0,0,0-.06.28l1.29,2a.2.2,0,0,0,.28.06l2.17-1.34a.2.2,0,0,0,.09-.27Z"/><path class="cls-16" d="M375.47,163.38l-1.4-2a.21.21,0,0,0-.28-.05l-2.06,1.38a.22.22,0,0,0-.06.29l1.29,2a.21.21,0,0,0,.28.06l2.17-1.34a.2.2,0,0,0,.09-.27S375.48,163.39,375.47,163.38Z"/><path class="cls-16" d="M372.41,165.5l-1.39-2a.2.2,0,0,0-.28-.06h0l-2.06,1.39a.21.21,0,0,0-.06.28l1.29,2a.21.21,0,0,0,.28.06l2.17-1.34a.2.2,0,0,0,.07-.28Z"/><path class="cls-16" d="M392,147.14l-1.13-1.62a.45.45,0,0,0-.61-.11l-1.67,1.13a.45.45,0,0,0-.12.61l1,1.59a.46.46,0,0,0,.61.13l1.76-1.11a.44.44,0,0,0,.13-.62Z"/><path class="cls-16" d="M388.81,149.35l-1.13-1.61a.44.44,0,0,0-.6-.12l-1.68,1.13a.47.47,0,0,0-.12.61l1,1.59a.44.44,0,0,0,.6.13l1.77-1.11a.45.45,0,0,0,.12-.62Z"/><path class="cls-16" d="M385.62,151.56,384.48,150a.45.45,0,0,0-.61-.11L382.23,151a.46.46,0,0,0-.12.61l1,1.59a.46.46,0,0,0,.61.14l1.77-1.11a.46.46,0,0,0,.1-.63Z"/><path class="cls-16" d="M382.42,153.77l-1.13-1.61a.44.44,0,0,0-.6-.11L379,153.17a.46.46,0,0,0-.12.61l1,1.59a.45.45,0,0,0,.6.14l1.77-1.11a.46.46,0,0,0,.13-.62Z"/><path class="cls-16" d="M379.37,156.18l-1.4-2a.22.22,0,0,0-.29-.05h0l-2.06,1.39a.2.2,0,0,0-.05.28l1.28,2a.21.21,0,0,0,.29.06h0l2.17-1.35a.21.21,0,0,0,.08-.28Z"/><path class="cls-16" d="M376.54,158.15l-1.4-2a.21.21,0,0,0-.28,0h0l-2,1.38a.22.22,0,0,0-.06.29l1.29,2a.21.21,0,0,0,.28.06l2.18-1.35a.21.21,0,0,0,.06-.28Z"/><path class="cls-16" d="M373.37,160.34l-1.4-2a.22.22,0,0,0-.29-.05l-2.05,1.39a.21.21,0,0,0-.06.28l1.29,2a.2.2,0,0,0,.28.06l2.17-1.34a.2.2,0,0,0,.08-.28Z"/><path class="cls-16" d="M370.3,162.46l-1.4-2a.21.21,0,0,0-.29-.05h0l-2.05,1.38a.21.21,0,0,0-.06.28h0l1.28,2a.21.21,0,0,0,.28.06h0l2.17-1.35a.21.21,0,0,0,.07-.29Z"/><path class="cls-16" d="M369.34,167.62l-1.4-2a.22.22,0,0,0-.29-.05L365.59,167a.22.22,0,0,0,0,.29l1.28,2a.22.22,0,0,0,.29.06l2.17-1.35a.2.2,0,0,0,.09-.27Z"/><path class="cls-16" d="M366.27,169.75l-1.4-2a.22.22,0,0,0-.29-.05h0l-2.05,1.39a.2.2,0,0,0-.06.28l1.29,2a.21.21,0,0,0,.28.06h0l2.17-1.34a.21.21,0,0,0,.09-.28Z"/><path class="cls-16" d="M371.09,157l-1.33-1.89a.28.28,0,0,0-.38-.07l-1.95,1.31a.27.27,0,0,0-.08.38l1.21,1.86a.28.28,0,0,0,.39.08l2-1.28a.29.29,0,0,0,.11-.38Z"/><path class="cls-16" d="M368,159.16l-1.33-1.89a.28.28,0,0,0-.38-.07h0l-1.94,1.31a.28.28,0,0,0-.07.38l1.21,1.87a.28.28,0,0,0,.38.08l2.05-1.29a.28.28,0,0,0,.08-.39Z"/><path class="cls-16" d="M365,161.29l-1.35-1.89a.27.27,0,0,0-.37-.07l-2,1.3a.28.28,0,0,0-.07.39l1.21,1.86a.27.27,0,0,0,.38.08l2.05-1.28a.29.29,0,0,0,.11-.38Z"/><path class="cls-16" d="M361.93,163.47l-1.41-2a.21.21,0,0,0-.29,0l-2.05,1.38a.2.2,0,0,0-.05.28l1.28,2a.22.22,0,0,0,.29.07l2.17-1.35a.2.2,0,0,0,.07-.28Z"/><path class="cls-16" d="M398.23,142.78,397,141a.44.44,0,0,0-.61-.1l-4.78,3.32a.44.44,0,0,0-.11.6l1.14,1.77a.45.45,0,0,0,.63.12h0l4.81-3.37A.44.44,0,0,0,398.23,142.78Z"/><path class="cls-16" d="M367.23,164.52l-1.49-2.1a.2.2,0,0,0-.28-.06h0L360.33,166a.22.22,0,0,0-.06.29l1.41,2.16a.2.2,0,0,0,.28.06h0l5.21-3.65A.22.22,0,0,0,367.23,164.52Z"/><path class="cls-16" d="M383.52,148.43l-1.34-2a.22.22,0,0,0-.29-.06L370.52,154a.21.21,0,0,0-.06.28h0l1.4,2.15a.21.21,0,0,0,.29.06h0l11.34-7.82A.21.21,0,0,0,383.52,148.43Z"/><path class="cls-8" d="M383.58,141.57l-6.05-8.78a1.12,1.12,0,0,0-1.55-.3l-16.66,11.18a1.14,1.14,0,0,0-.3,1.57h0l6.17,9a1.11,1.11,0,0,0,1.55.3h0l16.54-11.44a1.11,1.11,0,0,0,.29-1.55Z"/><path class="cls-18" d="M383.86,141.63l-6.05-8.79a1.12,1.12,0,0,0-1.55-.3l-16.64,11.2a1.12,1.12,0,0,0-.31,1.55h0l6.14,9a1.12,1.12,0,0,0,1.56.3h0l16.55-11.45a1.12,1.12,0,0,0,.28-1.55Z"/><path class="cls-12" d="M421.35,155.83l-12.83-4.28-41.14,28.58,12.73,4.15a2.32,2.32,0,0,0,2.06-.3l39.3-27.33a.45.45,0,0,0,.16-.61A.43.43,0,0,0,421.35,155.83Z"/></g></g></svg>