<svg xmlns="http://www.w3.org/2000/svg" xmlns:xlink="http://www.w3.org/1999/xlink" viewBox="0 0 397.65 268.61"><defs><style>.cls-1,.cls-24,.cls-26{fill:none;stroke-miterlimit:10;}.cls-1{stroke:#525460;stroke-width:2px;}.cls-2,.cls-28{fill:#cdac70;}.cls-17,.cls-2,.cls-9{opacity:0.1;}.cls-2,.cls-5,.cls-7,.cls-9{isolation:isolate;}.cls-3{fill:url(#名称未設定グラデーション_2);}.cls-4{fill:#f6bfc8;}.cls-13,.cls-5,.cls-9{fill:#040000;}.cls-12,.cls-5{opacity:0.05;}.cls-6{fill:#474559;}.cls-7{fill:#fff;}.cls-27,.cls-7{opacity:0.3;}.cls-8{fill:#54506f;}.cls-10{fill:#eb7d7c;}.cls-11{fill:#b36969;}.cls-14{fill:url(#名称未設定グラデーション_2-2);}.cls-15{fill:#4f4c59;}.cls-16{fill:#767998;}.cls-18{fill:#704a4e;}.cls-19{fill:#e5e5f0;}.cls-20{fill:#b57654;}.cls-21{fill:#4f3f43;}.cls-22{fill:#fbfcfd;}.cls-23{fill:#7680a2;}.cls-24,.cls-26{stroke:#7680a2;}.cls-25{opacity:0.5;}.cls-26{stroke-dasharray:11.78 11.78;}.cls-29{opacity:0.7;}</style><linearGradient id="名称未設定グラデーション_2" x1="434.62" y1="-5030.67" x2="434.62" y2="-4859.02" gradientTransform="matrix(1, 0, 0, -1, -114.15, -4775.24)" gradientUnits="userSpaceOnUse"><stop offset="0" stop-color="#7f8080" stop-opacity="0.25"/><stop offset="0.54" stop-color="#7f8080" stop-opacity="0.12"/><stop offset="1" stop-color="#7f8080" stop-opacity="0.1"/></linearGradient><linearGradient id="名称未設定グラデーション_2-2" x1="191.83" y1="-5032.69" x2="191.83" y2="-4857.12" xlink:href="#名称未設定グラデーション_2"/></defs><title>meetingday3_1</title><g id="レイヤー_2" data-name="レイヤー 2"><g id="レイヤー_1-2" data-name="レイヤー 1"><path class="cls-1" d="M135.12,14.43s-5.24,11.76-29.42,7.64"/><path class="cls-1" d="M101.89,58s18.61-18.61,12.92-25.37"/><ellipse class="cls-2" cx="198.83" cy="251.8" rx="198.83" ry="16.81"/><path class="cls-3" d="M353.18,119.25c-.85-2.48-2.07-5.62-3-6.36a.76.76,0,0,0-.19-.12h-.12V109.7l-2.28.37a21.87,21.87,0,0,1-.82-3.4,1.58,1.58,0,0,0,1.71.35,1.74,1.74,0,0,0-.1-.19l.1,0a4.31,4.31,0,0,1-.55-2.08,7.72,7.72,0,0,1,.32-2c.41-1.41,1.1-2.73,1.48-4.15a10.84,10.84,0,0,0-.72-7.43,2.74,2.74,0,0,0-.82-1.06q-.48-.25-1-.48a5.59,5.59,0,0,1-1.44-1.43A12.86,12.86,0,0,0,339.48,84a3.66,3.66,0,0,0-2-.16c-1.54.41-2.1,2.31-3.34,3.31s-2.6,1-4,1.27a6.7,6.7,0,0,0-3.71,1.94,4,4,0,0,0-1,2.68,2.71,2.71,0,0,0,1.09,2.4,3.48,3.48,0,0,0,2.91.41,9.89,9.89,0,0,0,6.76,12.25c.24.07.49.14.74.19l.26.48h0a20.52,20.52,0,0,1,1.86,4.85c-2.1,1.19-4.4,2.3-5.79,2.41a8.68,8.68,0,0,1-.3,1.6,8.87,8.87,0,0,1-1.82,3.59c-1.89,2.11-10.37,18.14-10.37,18.14s-.27.64-.7,1.73c-5.27.64-13.87,1.58-16.27,1.1l-9.41-9s-3,2.33-2.78,5.15L290,136.79s-9,6.83,5.18,11.31l21.52,2.5c-2.05,6.18-4,13.38-3.37,17.3h.17a8.28,8.28,0,0,0,1.23-.1l0,.7-2.09,37.11s-.47,6.83,5.89,9.9c0,0,7.78,22.85,4.72,25.45,0,0,.36.19,1,.45l-6.4,5.67s-4.71,1.18-7.3.94a1.87,1.87,0,0,0-2.07,1.39.39.39,0,0,1,0,.15V250a.5.5,0,0,0,0,.15v.06l.06.16,0,.05.07.16v0a.86.86,0,0,0,.1.16l0,0,.13.17,0,0,.15.16,0,0,.17.16,0,0,.21.16.05,0a2,2,0,0,0,.25.14h0l.27.13h0l.31.12.06,0,.34.11h.06l.37.1h0l.41.08h.08l.45.07h.08l.5,0c1,.08,2.28.11,3.79.1h0v.24a.39.39,0,0,0,0,.15V253l.06.16,0,0a1.11,1.11,0,0,0,.07.16v0l.1.15,0,0a1.83,1.83,0,0,0,.13.16l0,0,.15.17,0,0,.17.15,0,0,.21.15.06,0,.24.14h0l.27.14h0l.31.12.07,0,.34.11h.06l.37.1h0l.41.08h.08l.44.07h.09l.5.05c6.13.47,25.68-.94,25.68-.94v-.06h0v-.07h0c.19-.91,1.13-6.21-2.21-10.13.1-.1.2-.22.29-.33s-2.59-4.48-1.18-5.89-7.07-25.92-7.07-25.92-4.47-7.07-1.88-15.08-.24-16.73-.24-16.73,6.18-1.84,6.31-9.45v-.71a2.69,2.69,0,0,0,.4,0h.27s-1.18-4.24.23-7.31,4.48-.23,7.31-12.72c2-9,3.85-19.43,4.68-24.49A12.74,12.74,0,0,0,353.18,119.25ZM299.4,145.76l-2.15-2c.72.3,1.51.59,2.39.87l8.1.94A41.67,41.67,0,0,1,299.4,145.76Z"/><path class="cls-4" d="M319.91,144.57s-16.66,2.31-20.14,1.63l-9.28-8.82s-8.79,6.71,5.1,11.11l25.94,3Z"/><path class="cls-5" d="M319.91,144.57s-16.66,2.31-20.14,1.63l-9.28-8.82s-8.79,6.71,5.1,11.11l25.94,3Z"/><path class="cls-6" d="M325.93,238.55l-8.1,7.17s-4.63,1.16-7.18.93-3.7,3.94,2.32,4.4,25.23-.93,25.23-.93,1.86-7.4-3.7-11.57Z"/><path class="cls-5" d="M325.93,238.55l-8.1,7.17s-4.63,1.16-7.18.93-3.7,3.94,2.32,4.4,25.23-.93,25.23-.93,1.86-7.4-3.7-11.57Z"/><path class="cls-7" d="M338.49,246.92a12.55,12.55,0,0,1-.29,2.51s-19.23,1.38-25.23.92c-2.89-.22-4.13-1.3-4.35-2.33-.26,1.18.79,2.75,4.35,3,6,.46,25.23-.93,25.23-.93A13.25,13.25,0,0,0,338.49,246.92Z"/><path class="cls-4" d="M335.42,107.28s5.1,7.18,3.24,12,9.73-5.09,9.73-5.09-3.71-6.48-1.86-13.43Z"/><path class="cls-6" d="M334,241.32l-8.11,7.19s-4.63,1.16-7.17.93-3.71,3.92,2.31,4.39,25.23-.92,25.23-.92,1.86-7.41-3.7-11.58Z"/><path class="cls-8" d="M336.35,239.7a6.19,6.19,0,0,1-4.69,2.15c-4.05.19-8.5-2.15-8.5-2.15,3-2.54-4.63-25-4.63-25-6.25-3-5.79-9.72-5.79-9.72l2.05-36.45.51-9.16,6.48-3.94,5.11,3.93,4.85,3.71a20.28,20.28,0,0,1,.61,3.62c.56,8.51-6.17,10.51-6.17,10.51s2.78,8.56.24,16.43,1.85,14.82,1.85,14.82,8.34,24.07,7,25.46S336.35,239.7,336.35,239.7Z"/><path class="cls-5" d="M336.35,239.7a6.19,6.19,0,0,1-4.69,2.15c-4.05.19-8.5-2.15-8.5-2.15,3-2.54-4.63-25-4.63-25-6.25-3-5.79-9.72-5.79-9.72l2.05-36.45.51-9.16,6.48-3.94,5.11,3.93,4.85,3.71a20.28,20.28,0,0,1,.61,3.62c.56,8.51-6.17,10.51-6.17,10.51s2.78,8.56.24,16.43,1.85,14.82,1.85,14.82,8.34,24.07,7,25.46S336.35,239.7,336.35,239.7Z"/><path class="cls-8" d="M344.45,242.48c-3.93,4.86-13.19,0-13.19,0a1.47,1.47,0,0,0,.41-.63c1.7-4.61-5.73-26.68-5.73-26.68-6.25-3-7-10.19-7-10.19l-1.63-37.1-.22-4.8,9.74-3.72,3-1.14,9.95,7.63a17.92,17.92,0,0,1,.64,4.84c-.12,7.48-6.18,9.29-6.18,9.29s2.78,8.56.23,16.43,1.86,14.82,1.86,14.82,8.33,24.07,7,25.46S344.45,242.48,344.45,242.48Z"/><path class="cls-9" d="M340.46,170.69c-2-.28-6-2.69-8.13-4l-1.31-.82s-2.08-5.79-7.64-1.39a20.55,20.55,0,0,1-6,3.41,14.34,14.34,0,0,1-2.58.65l.51-9.16,6.48-3.93,5.11,3.92,3-1.14,9.95,7.62A18,18,0,0,1,340.46,170.69Z"/><path class="cls-10" d="M353,126.28c-.82,5-2.59,15.18-4.6,24.06-2.78,12.28-5.79,9.49-7.18,12.51S341,170,341,170c-2.32.24-10-4.86-10-4.86s-2.08-5.78-7.64-1.39-10,4.17-10,4.17c-1.16-7.64,7.41-28,7.41-28s8.34-15.74,10.18-17.83a8.66,8.66,0,0,0,1.79-3.52,9.24,9.24,0,0,0,.29-1.57c3-.24,10.42-5.32,10.42-5.32l5.79-.93v3a.71.71,0,0,1,.18.12c1,.72,2.16,3.81,3,6.25A12.55,12.55,0,0,1,353,126.28Z"/><path class="cls-9" d="M348.39,116.78s-6-4.86-15.05,10.88-11.11,13.19-11.11,13.19,1.85,7,.92,8.34c0,0,6.25-.46,8.57,0s16.67-17.6,16.67-17.6S355.8,121.41,348.39,116.78Z"/><path class="cls-9" d="M348.16,115.85s-6-4.84-15.05,10.88S322,139.93,322,139.93s7.17,7.87,9.49,8.32,16.67-17.6,16.67-17.6S355.56,120.48,348.16,115.85Z"/><path class="cls-9" d="M322.94,147.68a27.76,27.76,0,0,0-.92-6.29l2.29-.31,1.64,7Z"/><path class="cls-9" d="M346.77,101.26l-11.11,6.47c.46.69.9,1.4,1.29,2.12a9.77,9.77,0,0,0,1.95.2c3,0,4.35-3.11,6.14-5.21C344.92,103.17,346.27,103.13,346.77,101.26Z"/><circle class="cls-4" cx="338.67" cy="99.88" r="9.72"/><path class="cls-9" d="M326.37,92A6.68,6.68,0,0,1,330,90.1c1.35-.29,2.83-.38,3.91-1.23s1.77-2.83,3.28-3.25a3.64,3.64,0,0,1,2,.16,12.7,12.7,0,0,1,6.13,4.09,5.15,5.15,0,0,0,1.42,1.41,9.7,9.7,0,0,1,1,.48,2.57,2.57,0,0,1,.79,1,10.07,10.07,0,0,1,.71,7.07c-.38,1.4-1.06,2.69-1.46,4.09a5.42,5.42,0,0,0,.23,4.21,1.7,1.7,0,0,1-2-.76,8.52,8.52,0,0,1-.82-2.25,8.6,8.6,0,0,0-2.51-3.9c-.73-.64-2.05-1.08-2.54-.24-.2.32-.18.73-.35,1.06a1.4,1.4,0,0,1-1.93.41,2.94,2.94,0,0,1-1.2-1.78c-.95-3.22-2.58-5.25-6-3.88-1.28.52-2.8.87-4,0C324.87,95.64,325.2,93.33,326.37,92Z"/><path class="cls-11" d="M326.37,91.77A6.68,6.68,0,0,1,330,89.86c1.35-.29,2.83-.38,3.91-1.22s1.77-2.84,3.28-3.25a3.55,3.55,0,0,1,2,.15,12.7,12.7,0,0,1,6.13,4.09,5.33,5.33,0,0,0,1.42,1.42c.33.14.65.3,1,.47a2.54,2.54,0,0,1,.79,1,10,10,0,0,1,.71,7.06c-.38,1.4-1.06,2.69-1.46,4.1a5.4,5.4,0,0,0,.23,4.2,1.7,1.7,0,0,1-2-.76,8.52,8.52,0,0,1-.82-2.25,8.6,8.6,0,0,0-2.51-3.9c-.73-.64-2.05-1.08-2.54-.24-.2.32-.18.73-.35,1.07a1.42,1.42,0,0,1-1.93.41,3,3,0,0,1-1.2-1.79c-.95-3.22-2.58-5.25-6-3.87-1.28.51-2.8.86-4,0C324.87,95.4,325.2,93.1,326.37,91.77Z"/><path class="cls-5" d="M349.5,113.87h-4.7s-9.26,4.63-9.49,4.4a7.89,7.89,0,0,0-2.5.31,10.73,10.73,0,0,0,.3-1.58c3-.23,10.42-5.32,10.42-5.32l5.78-.93v3A.86.86,0,0,1,349.5,113.87Z"/><path class="cls-7" d="M346.6,249.7a13.34,13.34,0,0,1-.3,2.51s-19.23,1.38-25.23.92c-2.89-.22-4.12-1.3-4.34-2.34-.27,1.19.78,2.76,4.34,3,6,.46,25.23-.93,25.23-.93A13.26,13.26,0,0,0,346.6,249.7Z"/><g class="cls-12"><path class="cls-13" d="M321.19,163.54a19.67,19.67,0,0,1-7.7,3.89,2.74,2.74,0,0,0,.06.51s4.39.23,9.95-4.17a7.6,7.6,0,0,1,3-1.55C325.28,161.64,323.53,161.68,321.19,163.54Z"/><path class="cls-13" d="M352.6,120.13c-.82-2.45-2-5.52-3-6.25a1.18,1.18,0,0,0-.19-.11s-1.91.06-1.85.11c.95.73,1.88,3.59,2.71,6a12.67,12.67,0,0,1,.5,6.14c-.82,5-2.59,15.18-4.6,24.06-2.78,12.28-5.79,9.49-7.18,12.5-1.14,2.46-.57,5.7-.33,6.8a6,6,0,0,0,2.41.61s-1.16-4.17.23-7.18,4.4-.23,7.18-12.5c2-8.88,3.78-19.09,4.61-24.06A12.8,12.8,0,0,0,352.6,120.13Z"/></g><path class="cls-14" d="M116.31,248.84s-5.32.37-8.64-5.32a19,19,0,0,0-2.26-3.22,10.85,10.85,0,0,1-1.6-5.79c.19-4.22-4.22-27.36-4.22-27.36s.55-8.82-3.86-14.33c-2.9-3.62-7.07-14-9.59-20.7a1.35,1.35,0,0,0,.59.31l-.1-.57.1,0-1.28-7.16a32.54,32.54,0,0,1-4.75-7.2l.3-.06,3.9-.82s6.33-9,6.72-13.44l.52,0h.73a153.9,153.9,0,0,1,17.56.92h0s-.05-.14-.1-.32h0a25.09,25.09,0,0,1-.57-2.71l.37,0,3.61-.24s12.49-14,7.9-16.53-9.37,11.57-9.37,11.57l-1.54.28-.41.08a1.09,1.09,0,0,1,.13-.17c0-.06-20.39-.92-23.52-5.88,0,0-9-7.17-9.36-11.94a5.41,5.41,0,0,0-3.24-4.59,7,7,0,0,0-3.57-.66l-4.21.29.29.53h-.11a13.89,13.89,0,0,1-.67-1.87h.09c0-.13-.06-.26-.08-.41a9.91,9.91,0,0,0,7.37-11.93,2.86,2.86,0,0,0-.07-.28,4.23,4.23,0,0,0,1.23,0,3.64,3.64,0,0,0,2.69-3.47v-.37a5.28,5.28,0,0,0-2.05-4.09c-.84-.7-1.84-1.2-2.61-2a19.14,19.14,0,0,1-2.11-3.28,9.67,9.67,0,0,0-5-3.87c-1.52-.52-3.38-.57-4.55.53-.6.57-1,1.38-1.63,1.86-1,.69-2.29.49-3.48.63a6.62,6.62,0,0,0-5,3.74,8.68,8.68,0,0,0-.82,4,10.77,10.77,0,0,0,.33,2.77c.23.91.57,1.78.82,2.68.52,1.86.63,3.83,1.23,5.67a7.11,7.11,0,0,0,2.3,3.49l-.18.76c-.11,0-3,.64-5,5-1.57,3.4-6.86,6.92-9.18,8.34A3.83,3.83,0,0,0,38.71,124a13,13,0,0,0-.3,3,20.92,20.92,0,0,0,2.21,9.16c4,8.82,7,12.68,7,12.68s.22,2.7.24,5.55a16.41,16.41,0,0,1-.61,5.29,20.09,20.09,0,0,0-.49,5.77c0,5,.49,11.5.49,11.5s1.4.27,3.58.58l1.35,23.82a11.43,11.43,0,0,1-2.59,7.95,17.53,17.53,0,0,1-3.27,3.11c-3.86,2.75-12.13,31.78-12.13,31.78l1.08.07-2.54,7.09s10.14,7.78,16.32,5.65a6.2,6.2,0,0,1,2-.29c1.23,0,3.83-1,2.37-2.23a93.41,93.41,0,0,1-7.91-8.23,3.66,3.66,0,0,1,.57.33v-.06l.08.06s0-.29.07-.75l-.09,0c.19-1.91.78-6.71,1.95-7.3,1.47-.74,12.31-22.23,12.31-22.23l10.83-27.92s8.64,14.88,16,17.45v6.21s4.05,18.37,5.52,20.39,0,10.1,0,10.1a4.88,4.88,0,0,0,1,.88l-1.18,6.65s8.45-.36,22.78,4C115.39,254.17,120.9,251.78,116.31,248.84Zm-33.8-96.09-1.79.45-.35.09c0-.22-.07-.36-.07-.36a3.65,3.65,0,0,1-1.29.32,23.73,23.73,0,0,1-1.09-6.2,41.83,41.83,0,0,1-1.1-7.67,5.59,5.59,0,0,1,.73-3.16l.6.05.41.41,0,0,.22.2h0l.22.2,0,0,.24.21,0,0,.24.2,0,0,.27.23.06,0,.29.23h0l.29.23.06,0,.32.24.06.05.3.22.06,0,.34.25.08.06.36.25,0,0,.35.23.08.06L83,140l.09.05.35.22.07,0,.41.23.09.06.41.24h0l.41.22.1.05.43.22.09,0,.41.18.08,0,.45.2.11,0,.48.19h0C84,145.25,82.51,152.75,82.51,152.75Z"/><path class="cls-15" d="M37.2,240l-3.41,9.5s9.33,7.16,15.4,5.68A16.28,16.28,0,0,1,52,254.7c1.26-.1,3.42-1,2.09-2.18A114,114,0,0,1,44,241.77Z"/><path class="cls-15" d="M93.87,239.07l-1.61,9.14s8.25-.36,22.23,3.95c0,0,5.39-2.34.9-5.2,0,0-5.2.36-8.43-5.21s-5.2-4.84-5.2-4.84Z"/><path class="cls-16" d="M51.19,172.71l1.58,27.83A11.52,11.52,0,0,1,50,208.68a16.83,16.83,0,0,1-3,2.76c-3.77,2.69-11.84,31-11.84,31s9.15.53,11.66,2.33c0,0,.53-7.18,2-7.89s12-21.69,12-21.69l10.58-27.28s8.43,14.53,15.61,17v6.1S91,229,92.44,231s0,9.87,0,9.87,4.12,5.2,13.62-.36c0,0-3-3.41-2.86-7.54s-4.12-26.72-4.12-26.72.53-8.59-3.77-14-11.48-26-11.48-26L78.9,155.64Z"/><g class="cls-17"><path class="cls-13" d="M36.93,242.47s8.07-28.33,11.83-31a17.05,17.05,0,0,0,3.12-2.94,11.39,11.39,0,0,0,2.59-8l-1.58-27.83,26.44-16.31-.36-.77-27.7,17.07,1.58,27.83a11.38,11.38,0,0,1-2.58,8,17,17,0,0,1-3.11,2.95c-3.77,2.68-11.84,31-11.84,31S44.47,243,47,244.8c0,0,0-.28.07-.73C43.51,242.86,36.93,242.47,36.93,242.47Z"/><path class="cls-13" d="M94.14,240.86s1.44-7.89,0-9.86-5.4-19.91-5.4-19.91V205c-7.16-2.51-15.59-17.05-15.59-17.05l-.62,1.64C75,193.44,81.45,203,87.14,205v6.1s4,17.93,5.38,19.9,0,9.87,0,9.87,2,2.51,6.42,2.17A7,7,0,0,1,94.14,240.86Z"/></g><path class="cls-18" d="M112.89,141.51l-3.53.23-1.85.12v-4.5l2.45-.44,1.51-.27s4.66-13.81,9.15-11.3S112.89,141.51,112.89,141.51Z"/><path class="cls-18" d="M56.39,104.57s-2.33,9-3,14.52S70,120.17,70,120.17s-6.64-8.07-2.87-12.37Z"/><path class="cls-19" d="M75.24,141.87l.36,3.41L70,144.92l-5.58-4.86L58.9,124.47l-3.58-5.56-2.7-3.4,1.08-4.13s.49.41,1.32,1.07c2.73,2.09,9.14,6.43,13.82,5.23a4.75,4.75,0,0,0,.64-.2l7,12Z"/><path class="cls-9" d="M55.13,110.3s-2.86.54-4.84,4.85c-1.52,3.31-6.64,6.72-8.92,8.12a3.81,3.81,0,0,0-1.74,2.42c-.46,2-.64,5.85,1.87,11.34,4,8.59,6.82,12.37,6.82,12.37S49,158,48,160.52s0,16.32,0,16.32,18.82,3.59,25.1,0,5.39-17.39,5.39-17.39,5.91,12.53,8.07,12.91l-1.26-7s-7-7.53-7.37-17.21c0,0-2.15-8.79-.36-11.12,0,0,30.31,2.51,32.1.36,0,0-19.9-.9-22.95-5.73,0,0-8.79-7-9.15-11.66a5.14,5.14,0,0,0-2.69-4.22,7,7,0,0,0-4-.9l-4.06.28s7,12.38,6.64,14,.36,14.7.36,14.7-8.06-17.41-11.63-19.38-7.71-10.07-7.71-10.07l.72-4.09"/><path class="cls-9" d="M75.24,141.87l.36,3.41L70,144.92l-5.58-4.86L58.9,124.47l-3.58-5.56-2.7-3.4,1.08-4.13s.49.41,1.32,1.07l-.24,1.42s4.12,8.1,7.71,10.07,11.65,19.37,11.65,19.37-.72-13.09-.36-14.7c.25-1.1-2.9-7.14-4.94-10.92a4.75,4.75,0,0,0,.64-.2l7,12Z"/><path class="cls-9" d="M109.36,141.75l-1.86.12v-4.5l2.45-.44C109.09,138.07,109.12,140.06,109.36,141.75Z"/><path class="cls-16" d="M55.13,109.78s-2.86.54-4.84,4.84c-1.52,3.31-6.64,6.73-8.92,8.13a3.81,3.81,0,0,0-1.74,2.42c-.46,2-.64,5.85,1.87,11.33,4,8.6,6.82,12.38,6.82,12.38S49,157.47,48,160s0,16.32,0,16.32,18.82,3.58,25.1,0,5.39-17.43,5.39-17.43,5.91,12.55,8.07,12.91l-1.26-7s-7-7.54-7.37-17.22c0,0-2.15-8.79-.36-11.12,0,0,7,7.53,14.89,7.37a151.5,151.5,0,0,1,17.21.89s-1.79-5.73,0-7.89c0,0-19.9-.89-22.95-5.73,0,0-8.79-7-9.15-11.65a5.11,5.11,0,0,0-2.69-4.22,7,7,0,0,0-4-.9l-4.06.28s7,12.35,6.65,14,.36,14.7.36,14.7-8.07-17.4-11.64-19.37-7.72-10.07-7.72-10.07l.71-4.09"/><path class="cls-9" d="M51.19,128.61s4.3,14.52,6.81,16.32,17.75,10.93,22.24,8.78c0,0,1.07,5.38-.54,6.64,0,0-16.72-.66-16.85-.72s-10.94-1.44-12.74-6.81-3.94-14.53-3.94-14.53Z"/><ellipse class="cls-20" cx="74.14" cy="144.11" rx="0.63" ry="0.9"/><ellipse class="cls-20" cx="75.94" cy="150.39" rx="0.63" ry="0.9"/><g class="cls-17"><path class="cls-13" d="M49.21,176.12s-1.07-13.81,0-16.32.36-11.12.36-11.12-2.86-3.76-6.81-12.37c-2.51-5.49-2.33-9.29-1.87-11.34a3.81,3.81,0,0,1,1.74-2.42c2.28-1.4,7.4-4.81,8.92-8.12a9.29,9.29,0,0,1,3.52-4.27l.07-.41s-2.87.53-4.85,4.84c-1.51,3.31-6.63,6.72-8.92,8.13a3.82,3.82,0,0,0-1.74,2.42c-.46,2-.63,5.85,1.88,11.33,3.94,8.59,6.81,12.38,6.81,12.38S49,157.44,48,160s0,16.32,0,16.32,13.45,2.57,21.41,1.2C61.32,178.43,49.21,176.12,49.21,176.12Z"/><path class="cls-13" d="M73.42,128.61c-.24,1.1,0,7.6.2,11.58.87,1.77,1.42,2.94,1.42,2.94s-.72-13.1-.36-14.7-6-12.79-6.59-13.92l-1.3.09S73.78,127,73.42,128.61Z"/><path class="cls-13" d="M93.69,143.66c-7.89.18-14.88-7.37-14.88-7.37a2.84,2.84,0,0,0-.46,1c2.05,1.93,7.78,6.7,14.08,6.55a149.19,149.19,0,0,1,17.22.89s0-.12-.09-.32A142.63,142.63,0,0,0,93.69,143.66Z"/><path class="cls-13" d="M79.7,158.72s.08,1.13,0,2.81c1.87,3.68,5.27,10,6.79,10.29l-.27-1.48C83.63,167.07,79.7,158.72,79.7,158.72Z"/></g><path class="cls-18" d="M84.72,156.93l-3.81.82-3,.64,1.61-4.51,1.12-.28,1.75-.43s2.51-12.56,7.53-11.66S84.72,156.93,84.72,156.93Z"/><path class="cls-9" d="M80.91,157.73l-3,.64,1.61-4.5,1.12-.29A18.08,18.08,0,0,1,80.91,157.73Z"/><path class="cls-16" d="M51.19,128.24s4.3,14.52,6.81,16.32,17.75,10.94,22.24,8.78c0,0,1.07,5.38-.54,6.64,0,0-16.72-.66-16.85-.72s-10.94-1.44-12.74-6.81-3.94-14.53-3.94-14.53Z"/><path class="cls-9" d="M56.57,104.93s-.37,1.4-.85,3.44a9.66,9.66,0,0,0,10.69,4.91,5.58,5.58,0,0,1,.92-5.14Z"/><circle class="cls-18" cx="64.1" cy="103.49" r="9.68"/><path class="cls-9" d="M72.51,100.83a5.25,5.25,0,0,0,2.16.13,3.55,3.55,0,0,0,2.62-3.39,5.19,5.19,0,0,0-2-4c-.81-.68-1.8-1.17-2.54-1.93a17.7,17.7,0,0,1-2-3.19,9.46,9.46,0,0,0-4.87-3.78c-1.49-.5-3.31-.56-4.45.52-.58.55-.93,1.35-1.58,1.82-.95.67-2.24.47-3.4.61a6.42,6.42,0,0,0-4.87,3.65,9.08,9.08,0,0,0-.47,6.2c.22.88.55,1.74.79,2.61.5,1.83.62,3.74,1.2,5.54a6,6,0,0,0,3.6,4.1,11.32,11.32,0,0,1,1.15-5.86,1.7,1.7,0,0,1,.82-.91,2,2,0,0,1,1,0,9.81,9.81,0,0,0,6.55-1.32c.69-.41,1.76-1.85,2.5-2C69.59,99.47,71.53,100.61,72.51,100.83Z"/><path class="cls-21" d="M72.51,100.47a5.25,5.25,0,0,0,2.16.13,3.55,3.55,0,0,0,2.62-3.39,5.19,5.19,0,0,0-2-4c-.81-.68-1.8-1.17-2.54-1.93a17.7,17.7,0,0,1-2-3.19,9.46,9.46,0,0,0-4.87-3.78c-1.49-.5-3.31-.56-4.45.52-.58.55-.93,1.35-1.58,1.82-.95.67-2.24.47-3.4.61a6.42,6.42,0,0,0-4.87,3.65,9.14,9.14,0,0,0-.47,6.18c.22.88.55,1.74.79,2.62.5,1.82.62,3.74,1.2,5.54a5.92,5.92,0,0,0,3.6,4.09,11.27,11.27,0,0,1,1.15-5.85,1.66,1.66,0,0,1,.82-.91,2,2,0,0,1,1,0,9.82,9.82,0,0,0,6.55-1.33c.69-.41,1.76-1.84,2.5-2C69.59,99.11,71.53,100.25,72.51,100.47Z"/><rect class="cls-22" x="92.62" width="211.47" height="252.91"/><rect class="cls-23" x="92.62" width="211.47" height="8.57"/><line class="cls-24" x1="121.2" y1="103.06" x2="275.52" y2="103.06"/><g class="cls-25"><line class="cls-24" x1="121.2" y1="86.27" x2="123.65" y2="86.27"/><line class="cls-26" x1="128.47" y1="86.27" x2="270.65" y2="86.27"/><line class="cls-24" x1="273.06" y1="86.27" x2="275.52" y2="86.27"/></g><g class="cls-25"><line class="cls-24" x1="121.2" y1="69.48" x2="123.65" y2="69.48"/><line class="cls-26" x1="128.47" y1="69.48" x2="270.65" y2="69.48"/><line class="cls-24" x1="273.06" y1="69.48" x2="275.52" y2="69.48"/></g><g class="cls-25"><line class="cls-24" x1="121.2" y1="52.69" x2="123.65" y2="52.69"/><line class="cls-26" x1="128.47" y1="52.69" x2="270.65" y2="52.69"/><line class="cls-24" x1="273.06" y1="52.69" x2="275.52" y2="52.69"/></g><g class="cls-25"><line class="cls-24" x1="121.2" y1="35.9" x2="123.65" y2="35.9"/><line class="cls-26" x1="128.47" y1="35.9" x2="270.65" y2="35.9"/><line class="cls-24" x1="273.06" y1="35.9" x2="275.52" y2="35.9"/></g><g class="cls-27"><rect class="cls-28" x="128.88" y="69.48" width="11.07" height="33.58"/></g><rect class="cls-28" x="159.78" y="52.51" width="11.07" height="50.72"/><g class="cls-27"><rect class="cls-28" x="190.68" y="86.09" width="11.07" height="17.32"/></g><rect class="cls-28" x="221.57" y="35.37" width="11.07" height="67.87"/><g class="cls-27"><rect class="cls-28" x="252.47" y="51.8" width="11.07" height="51.26"/></g><circle class="cls-28" cx="134.42" cy="110.73" r="2.86"/><circle class="cls-28" cx="165.49" cy="110.73" r="2.86"/><circle class="cls-28" cx="196.57" cy="110.73" r="2.86"/><circle class="cls-28" cx="227.65" cy="110.73" r="2.86"/><circle class="cls-28" cx="258.72" cy="110.73" r="2.86"/><line class="cls-24" x1="121.2" y1="210.93" x2="275.52" y2="210.93"/><g class="cls-25"><line class="cls-24" x1="121.2" y1="194.14" x2="123.65" y2="194.14"/><line class="cls-26" x1="128.47" y1="194.14" x2="270.65" y2="194.14"/><line class="cls-24" x1="273.06" y1="194.14" x2="275.52" y2="194.14"/></g><g class="cls-25"><line class="cls-24" x1="121.2" y1="177.36" x2="123.65" y2="177.36"/><line class="cls-26" x1="128.47" y1="177.36" x2="270.65" y2="177.36"/><line class="cls-24" x1="273.06" y1="177.36" x2="275.52" y2="177.36"/></g><g class="cls-25"><line class="cls-24" x1="121.2" y1="160.57" x2="123.65" y2="160.57"/><line class="cls-26" x1="128.47" y1="160.57" x2="270.65" y2="160.57"/><line class="cls-24" x1="273.06" y1="160.57" x2="275.52" y2="160.57"/></g><g class="cls-25"><line class="cls-24" x1="121.2" y1="143.78" x2="123.65" y2="143.78"/><line class="cls-26" x1="128.47" y1="143.78" x2="270.65" y2="143.78"/><line class="cls-24" x1="273.06" y1="143.78" x2="275.52" y2="143.78"/></g><rect class="cls-28" x="128.88" y="177.36" width="11.07" height="33.58"/><rect class="cls-28" x="159.78" y="177.18" width="11.07" height="33.93"/><rect class="cls-28" x="190.68" y="193.97" width="11.07" height="17.32"/><rect class="cls-28" x="221.57" y="143.24" width="11.07" height="67.87"/><rect class="cls-28" x="294.62" y="103.2" width="11.07" height="51.26"/><g class="cls-29"><circle class="cls-28" cx="134.42" cy="218.61" r="2.86"/></g><g class="cls-29"><circle class="cls-28" cx="165.49" cy="218.61" r="2.86"/></g><g class="cls-29"><circle class="cls-28" cx="196.57" cy="218.61" r="2.86"/></g><g class="cls-29"><circle class="cls-28" cx="227.65" cy="218.61" r="2.86"/></g><g class="cls-29"><circle class="cls-28" cx="258.72" cy="218.61" r="2.86"/></g><path class="cls-4" d="M325.93,148l-3-.35L300,145c-13.91-4.4-5.11-11.09-5.11-11.09l9.26,8.79c2.68.54,13.15-.71,17.85-1.31l2.29-.31Z"/><path class="cls-10" d="M348.39,116.33s-6-4.86-15.05,10.88-11.11,13.19-11.11,13.19,1.85,7,.92,8.34c0,0,6.25-.46,8.57,0s16.67-17.6,16.67-17.6S355.8,120.94,348.39,116.33Z"/></g></g></svg>